<svg width="15.999023" height="18.000000" viewBox="0 0 15.999 18" fill="none" xmlns="http://www.w3.org/2000/svg" xmlns:xlink="http://www.w3.org/1999/xlink">
	<desc>
			Created with Pixso.
	</desc>
	<defs/>
	<path id="Vector" d="M15.25 9.2C14.85 9.2 14.52 9.55 14.52 9.99L14.52 6.32C14.52 5.88 14.18 5.53 13.78 5.53C13.37 5.53 13.04 5.88 13.04 6.32L13.04 5.54C13.04 5.11 12.71 4.76 12.3 4.76C11.89 4.76 11.56 5.11 11.56 5.54L11.56 6.32C11.56 5.88 11.23 5.53 10.82 5.53C10.41 5.53 10.08 5.88 10.08 6.32L10.08 8.13C10.08 7.7 9.75 7.35 9.34 7.35C8.93 7.35 8.6 7.7 8.6 8.13L8.6 13.27C8.6 13.82 8.76 14.36 9.04 14.81L9.6 15.7C9.89 16.15 10.04 16.69 10.04 17.24L10.04 17.98L14.52 17.98L14.52 17.37C14.52 16.75 14.71 16.15 15.07 15.66L15.44 15.15C15.8 14.66 15.99 14.06 15.99 13.45L15.99 9.99C15.99 9.55 15.66 9.2 15.25 9.2Z" fill="#FFCC1F" fill-opacity="1.000000" fill-rule="nonzero"/>
	<path id="Vector" d="M12.29 18L12.29 4.77C12.7 4.77 13.03 5.12 13.03 5.56L13.03 6.33C13.03 5.9 13.36 5.55 13.77 5.55C14.18 5.55 14.51 5.9 14.51 6.33L14.51 10C14.51 9.57 14.84 9.22 15.25 9.22C15.65 9.22 15.98 9.57 15.98 10L15.98 13.46C15.98 14.08 15.79 14.68 15.43 15.17L15.06 15.68C14.7 16.17 14.51 16.77 14.51 17.39L14.51 18L12.29 18Z" fill="#FFD751" fill-opacity="1.000000" fill-rule="evenodd"/>
	<path id="Vector" d="M0 9.99L0 13.45C0 14.06 0.19 14.66 0.55 15.15L0.92 15.66C1.28 16.15 1.47 16.75 1.47 17.37L1.47 17.98L5.95 17.98L5.95 17.24C5.95 16.69 6.1 16.15 6.39 15.7L6.94 14.81C7.23 14.36 7.39 13.82 7.39 13.27L7.39 8.13C7.39 7.7 7.06 7.35 6.65 7.35C6.24 7.35 5.91 7.7 5.91 8.13L5.91 6.32C5.91 5.88 5.58 5.53 5.17 5.53C4.76 5.53 4.43 5.88 4.43 6.32L4.43 5.54C4.43 5.11 4.1 4.76 3.69 4.76C3.28 4.76 2.95 5.11 2.95 5.54L2.95 6.32C2.95 5.88 2.62 5.53 2.21 5.53C1.8 5.53 1.47 5.88 1.47 6.32L1.47 9.99C1.47 9.55 1.14 9.2 0.73 9.2C0.33 9.2 0 9.55 0 9.99Z" fill="#FFD751" fill-opacity="1.000000" fill-rule="nonzero"/>
	<path id="Vector" d="M5.96 17.26L5.96 18L3.72 18L3.7 4.77C4.11 4.77 4.44 5.12 4.44 5.56L4.44 6.33C4.44 5.9 4.77 5.55 5.18 5.55C5.59 5.55 5.92 5.9 5.92 6.33L5.92 8.15C5.92 7.72 6.25 7.37 6.66 7.37C7.07 7.37 7.4 7.72 7.4 8.15L7.4 13.29C7.4 13.84 7.24 14.37 6.96 14.83L6.4 15.71C6.11 16.17 5.96 16.71 5.96 17.26Z" fill="#FFCC1F" fill-opacity="1.000000" fill-rule="evenodd"/>
	<path id="Vector" d="M15.25 9.2C15.13 9.2 15.01 9.23 14.91 9.29C15.15 9.42 15.31 9.68 15.31 9.99L15.31 13.28C15.31 13.9 15.12 14.5 14.76 14.99L14.38 15.5C14.03 15.99 13.83 16.75 13.83 17.37L13.83 17.98L14.51 17.98L14.51 17.37C14.51 16.75 14.71 16.15 15.07 15.66L15.44 15.15C15.8 14.67 15.99 14.06 15.99 13.45L15.99 9.99C15.99 9.55 15.66 9.2 15.25 9.2Z" fill="#FFB800" fill-opacity="1.000000" fill-rule="nonzero"/>
	<path id="Vector" d="M11.56 6.32L11.56 12.46L11.46 12.46C11.14 12.46 10.88 12.18 10.88 11.84L10.88 6.32C10.88 6.1 10.79 5.9 10.66 5.76C10.61 5.71 10.55 5.66 10.48 5.62C10.58 5.57 10.7 5.53 10.82 5.53C11.02 5.53 11.21 5.62 11.34 5.76C11.48 5.9 11.56 6.1 11.56 6.32Z" fill="#FFB800" fill-opacity="1.000000" fill-rule="nonzero"/>
	<path id="Vector" d="M10.08 8.13L10.08 12.46L9.97 12.46C9.65 12.46 9.39 12.18 9.39 11.84L9.39 8.13C9.39 7.83 9.23 7.57 9 7.44C9.1 7.38 9.21 7.35 9.34 7.35C9.75 7.35 10.08 7.7 10.08 8.13Z" fill="#FFB800" fill-opacity="1.000000" fill-rule="nonzero"/>
	<path id="Vector" d="M13.04 5.54L13.04 12.46L12.87 12.46C12.55 12.46 12.29 12.18 12.29 11.84L12.29 5.54C12.29 5.32 12.21 5.13 12.08 4.98C12.03 4.94 11.98 4.9 11.93 4.86C12.04 4.79 12.16 4.76 12.3 4.76C12.5 4.76 12.69 4.84 12.82 4.98C12.96 5.13 13.04 5.32 13.04 5.54Z" fill="#FFB800" fill-opacity="1.000000" fill-rule="nonzero"/>
	<path id="Vector" d="M6.65 7.35C6.52 7.35 6.39 7.39 6.28 7.46C6.5 7.59 6.65 7.84 6.65 8.13L6.65 13.27C6.65 13.82 6.5 14.36 6.21 14.82L5.65 15.7C5.37 16.15 5.21 16.69 5.21 17.24L5.21 17.98L5.95 17.98L5.95 17.24C5.95 16.69 6.1 16.15 6.39 15.7L6.95 14.82C7.24 14.36 7.39 13.82 7.39 13.27L7.39 8.13C7.39 7.7 7.06 7.35 6.65 7.35Z" fill="#FFB800" fill-opacity="1.000000" fill-rule="nonzero"/>
	<path id="Vector" d="M2.95 15.27L2.71 15.27C2.46 15.27 2.23 15.11 2.12 14.87C1.83 14.24 1.42 13.9 1.13 13.74C0.92 13.62 0.79 13.39 0.79 13.14L0.79 9.99C0.79 9.68 0.63 9.42 0.39 9.29C0.49 9.23 0.61 9.2 0.73 9.2C1.14 9.2 1.47 9.55 1.47 9.99L1.47 12.93C1.47 12.93 2.87 13.56 2.95 15.27Z" fill="#FFB800" fill-opacity="1.000000" fill-rule="nonzero"/>
	<path id="Vector" d="M5.91 6.32L5.91 12.46L5.8 12.46C5.49 12.46 5.23 12.18 5.23 11.84L5.23 6.32C5.23 6.1 5.14 5.9 5.01 5.76C4.96 5.71 4.9 5.66 4.83 5.62C4.93 5.57 5.05 5.53 5.17 5.53C5.37 5.53 5.56 5.62 5.69 5.76C5.83 5.9 5.91 6.1 5.91 6.32Z" fill="#FFB800" fill-opacity="1.000000" fill-rule="nonzero"/>
	<path id="Vector" d="M4.43 5.54L4.43 12.46L4.26 12.46C3.94 12.46 3.68 12.18 3.68 11.84L3.68 5.54C3.68 5.32 3.6 5.13 3.46 4.98C3.42 4.94 3.37 4.9 3.32 4.86C3.42 4.79 3.55 4.76 3.69 4.76C3.89 4.76 4.08 4.84 4.21 4.98C4.35 5.13 4.43 5.32 4.43 5.54Z" fill="#FFB800" fill-opacity="1.000000" fill-rule="nonzero"/>
	<path id="Vector" d="M2.95 6.32L2.95 12.46L2.79 12.46C2.47 12.46 2.21 12.18 2.21 11.84L2.21 6.32C2.21 6.1 2.13 5.9 2 5.76C1.95 5.71 1.9 5.67 1.84 5.64C1.95 5.57 2.08 5.53 2.21 5.53C2.42 5.53 2.6 5.62 2.74 5.76C2.87 5.9 2.95 6.1 2.95 6.32Z" fill="#FFB800" fill-opacity="1.000000" fill-rule="nonzero"/>
	<path id="Vector" d="M8 1.8C7.86 1.8 7.75 1.68 7.75 1.53L7.75 0.26C7.75 0.11 7.86 0 8 0C8.14 0 8.25 0.11 8.25 0.26L8.25 1.53C8.25 1.68 8.14 1.8 8 1.8Z" fill="#FFB800" fill-opacity="1.000000" fill-rule="nonzero"/>
	<path id="Vector" d="M6 2.37C5.91 2.37 5.83 2.32 5.78 2.23L5.18 1.13C5.11 1 5.15 0.84 5.27 0.77C5.39 0.69 5.55 0.74 5.62 0.87L6.22 1.97C6.29 2.09 6.24 2.26 6.12 2.33C6.08 2.36 6.04 2.37 6 2.37Z" fill="#FFB800" fill-opacity="1.000000" fill-rule="nonzero"/>
	<path id="Vector" d="M4.55 3.91C4.5 3.91 4.46 3.9 4.42 3.88L3.38 3.24C3.26 3.17 3.22 3 3.29 2.87C3.36 2.75 3.51 2.7 3.63 2.78L4.67 3.41C4.79 3.49 4.83 3.65 4.77 3.78C4.72 3.86 4.63 3.91 4.55 3.91Z" fill="#FFB800" fill-opacity="1.000000" fill-rule="nonzero"/>
	<path id="Vector" d="M11.45 3.91C11.36 3.91 11.27 3.86 11.23 3.78C11.16 3.65 11.2 3.49 11.32 3.41L12.36 2.78C12.48 2.7 12.63 2.75 12.7 2.87C12.77 3 12.73 3.17 12.61 3.24L11.57 3.88C11.53 3.9 11.49 3.91 11.45 3.91Z" fill="#FFB800" fill-opacity="1.000000" fill-rule="nonzero"/>
	<path id="Vector" d="M9.99 2.37C9.94 2.37 9.9 2.36 9.86 2.33C9.74 2.26 9.7 2.09 9.77 1.97L10.37 0.87C10.44 0.74 10.59 0.69 10.71 0.77C10.83 0.84 10.88 1 10.81 1.13L10.21 2.23C10.16 2.32 10.07 2.37 9.99 2.37Z" fill="#FFB800" fill-opacity="1.000000" fill-rule="nonzero"/>
	<path id="Vector" d="M14.5 6.3C14.5 6.09 14.42 5.9 14.29 5.76C14.16 5.62 13.97 5.53 13.77 5.53C13.64 5.53 13.52 5.57 13.41 5.64C13.46 5.67 13.52 5.71 13.56 5.76C13.69 5.9 13.77 6.09 13.77 6.3L13.78 12.66C13.78 12.66 12.31 13.32 12.22 15.12L12.48 15.12C12.74 15.12 12.98 14.96 13.1 14.71C13.4 14.04 13.84 13.69 14.15 13.51C14.37 13.39 14.5 13.14 14.5 12.88L14.5 6.3Z" fill="#FFB800" fill-opacity="1.000000" fill-rule="nonzero"/>
</svg>
