<svg width="204.054199" height="648.498291" viewBox="0 0 204.054 648.498" fill="none" xmlns="http://www.w3.org/2000/svg" xmlns:xlink="http://www.w3.org/1999/xlink">
	<desc>
			Created with Pixso.
	</desc>
	<defs/>
	<path id="Vector" d="M115.02 495.44C116.66 495.69 118.19 494.55 118.43 492.91C118.67 491.27 117.54 489.75 115.9 489.51C114.26 489.26 112.73 490.4 112.49 492.04C112.25 493.67 113.38 495.2 115.02 495.44Z" fill="#3897FF" fill-opacity="1.000000" fill-rule="evenodd"/>
	<path id="Vector" d="M115.91 339.69C118.64 340.1 121.19 338.21 121.59 335.48C121.99 332.75 120.1 330.2 117.37 329.8C114.64 329.4 112.1 331.28 111.7 334.01C111.29 336.75 113.18 339.29 115.91 339.69Z" fill="#8E4DD5" fill-opacity="1.000000" fill-rule="evenodd"/>
	<path id="Vector" d="M140.98 281.57C143.16 281.89 145.2 280.38 145.52 278.2C145.84 276.01 144.33 273.98 142.14 273.65C139.96 273.33 137.93 274.84 137.6 277.03C137.28 279.21 138.79 281.24 140.98 281.57Z" fill="#00A98F" fill-opacity="1.000000" fill-rule="evenodd"/>
	<path id="Vector" d="M113.45 43.42C114.2 43.77 115.09 43.44 115.43 42.69C115.78 41.94 115.45 41.05 114.7 40.7C113.95 40.35 113.06 40.68 112.71 41.43C112.37 42.18 112.69 43.07 113.45 43.42Z" fill="#00A98F" fill-opacity="1.000000" fill-rule="evenodd"/>
	<path id="Vector" d="M140.45 573.42C141.2 573.77 142.09 573.45 142.43 572.69C142.78 571.94 142.45 571.05 141.7 570.7C140.95 570.35 140.06 570.68 139.71 571.43C139.37 572.18 139.69 573.08 140.45 573.42Z" fill="#00A98F" fill-opacity="1.000000" fill-rule="evenodd"/>
	<path id="Vector" d="M121.18 86.98C123.68 88.14 126.65 87.05 127.81 84.54C128.96 82.03 127.87 79.06 125.36 77.9C122.86 76.73 119.89 77.83 118.74 80.33C117.58 82.84 118.67 85.82 121.18 86.98Z" fill="#8E4DD5" fill-opacity="1.000000" fill-rule="evenodd"/>
	<path id="Vector" d="M80.85 15.01L79.18 8.14L82.92 2.17L76.07 3.83L70.09 0.07L71.77 6.93L68.02 12.9L74.87 11.24L80.85 15.01Z" fill="#FFCC00" fill-opacity="1.000000" fill-rule="nonzero"/>
	<path id="Vector" d="M140.5 119.87L141.4 116.18L144.67 114.25L140.98 113.35L139.05 110.07L138.15 113.76L134.89 115.69L138.57 116.6L140.5 119.87Z" fill="#FFCC00" fill-opacity="1.000000" fill-rule="nonzero"/>
	<path id="Vector" d="M147.27 75.07L147.91 72.43L150.24 71.05L147.61 70.41L146.23 68.07L145.59 70.71L143.25 72.09L145.89 72.73L147.27 75.07Z" fill="#8E4DD5" fill-opacity="1.000000" fill-rule="nonzero"/>
	<path id="Vector 218" d="M140.09 202.44L137.12 208.69L124.36 211.01L127 204.43L140.09 202.44Z" fill="#00A98F" fill-opacity="1.000000" fill-rule="evenodd"/>
	<path id="Vector 216" d="M141.99 409.37L142.18 416.29L131.86 424.15L131.24 417.08L141.99 409.37Z" fill="#8E4DD5" fill-opacity="1.000000" fill-rule="evenodd"/>
	<path id="Vector 215" d="M126.26 139.4L131.98 139.81L137.49 148.96L131.62 148.9L126.26 139.4Z" fill="#3897FF" fill-opacity="1.000000" fill-rule="evenodd"/>
	<path id="Vector 217" d="M127.03 639.21L127.18 642.73L121.88 647.1L121.5 643.53L127.03 639.21Z" fill="#FFCC00" fill-opacity="1.000000" fill-rule="evenodd"/>
</svg>
