<svg width="1132.146484" height="45.000000" viewBox="0 0 1132.15 45" fill="none" xmlns="http://www.w3.org/2000/svg" xmlns:xlink="http://www.w3.org/1999/xlink">
	<desc>
			Created with Pixso.
	</desc>
	<defs/>
	<path id="TECH" d="M441.25 26.72C441.66 25.84 441.62 24.27 441.62 24.27L436.19 24.27C435.72 25.15 434.51 27.35 432.45 27.35C429.95 27.35 427.99 24.95 427.99 21.64C427.99 18.32 429.95 16.13 432.45 16.13C434.51 16.13 435.72 18.05 436.19 18.93L441.62 18.93C441.62 18.93 441.35 17.56 440.99 16.75C439.43 13.22 437.03 11.75 432.45 11.75C426.35 11.75 422.21 15.24 422.21 21.64C422.21 28.04 426.35 31.52 432.45 31.52C437.03 31.52 440.11 29.11 441.25 26.72ZM395.79 31L390.99 31L390.99 16.75L384.18 16.75L384.18 12.27L402.89 12.27L402.89 16.75L395.79 16.75L395.79 31ZM420.77 31L404.46 31L404.46 12.27L420.64 12.27L420.64 16.75L409.3 16.75L409.3 19.78L419.49 19.78L419.49 23.88L409.3 23.88L409.3 26.59L420.77 26.59L420.77 31ZM449.98 31L444.28 31L444.28 12.27L449.98 12.27L449.98 18.93L455.09 18.93L455.09 12.27L460.82 12.27L460.82 31L455.09 31L455.09 23.06L449.98 23.06L449.98 31Z" fill="#C4C4C4" fill-opacity="1.000000" fill-rule="evenodd"/>
	<path id="ASIA" d="M512.25 31.52C507.22 31.52 505.25 30.12 504.12 27.1C503.86 26.39 503.64 25.05 503.64 25.05L508.78 25.05C509.1 25.46 510.19 27.35 512.25 27.35C513.58 27.35 514.03 26.98 514.24 26.09C514.5 25.05 513.75 24.37 511.33 23.9C505.54 22.78 504.19 20.47 504.19 17.69C504.19 14.02 507.82 11.79 511.79 11.97C514.6 12.1 515.73 12.57 517.4 14.24C518.58 15.42 518.79 17.93 518.79 17.93L515.06 17.97C514.62 17.4 513.49 15.75 511.79 15.75C510.74 15.75 509.74 16.39 509.5 17.17C509.07 18.6 510.39 19.17 511.55 19.41C516.14 20.06 519.47 21.64 519.47 25.41C519.47 28.95 517.75 31.52 512.25 31.52ZM490.9 31L485.77 31L492.78 12.28L497.36 12.28L504.39 31L499.11 31L498.17 27.35L491.89 27.35L490.9 31ZM520.81 31L531.62 31L532.62 27.35L538.9 27.35L539.83 31L545.12 31L538.08 12.28L533.5 12.28L526.49 31L526.24 12.28L520.81 12.28L520.81 31ZM495.02 18.6L493.43 23.38L496.61 23.38L495.02 18.6ZM535.74 18.6L534.15 23.38L537.33 23.38L535.74 18.6Z" fill="#909599" fill-opacity="1.000000" fill-rule="evenodd"/>
	<path id="IN" d="M462.99 12.35L462.99 31.08L464.77 31.08L464.77 12.35L462.99 12.35ZM471.34 14.74L471.39 14.74L482.18 31.08L484.24 31.08L484.24 12.35L482.47 12.35L482.47 28.71L482.41 28.71L471.57 12.35L469.57 12.35L469.57 31.08L471.34 31.08L471.34 14.74Z" fill="#909599" fill-opacity="1.000000" fill-rule="evenodd"/>
	<path id="Vector 152" d="M363.97 19.41L359.55 17.01L356.14 22.31L381.14 36.55L360.18 0L340.48 32.52L340.48 19.78L334.42 14.36L342.25 14.36L347.93 17.26L351.09 12.1L343.77 8.06L316.74 8.06L333.79 22.81L333.79 32.52L340.86 45L360.18 12.85L363.97 19.41Z" fill="#C4C4C4" fill-opacity="1.000000" fill-rule="evenodd"/>
	<path id="TechCrunch" d="M78.74 33.33L83.62 33.33L83.62 18.18L90.01 18.18L90.01 14.33L72.38 14.33L72.38 18.18L78.74 18.18L78.74 33.33Z" fill="#C4C4C4" fill-opacity="1.000000" fill-rule="nonzero"/>
	<path id="TechCrunch" d="M93.74 27.9L101.89 27.9C102.39 22.56 99.76 19.58 95.73 19.61C92.03 19.63 89.41 22.41 89.41 26.66C89.41 30.91 91.09 33.65 95.84 33.65C99.48 33.65 100.62 32.45 101.54 31.18L99.88 29.01C99.48 29.32 97.7 30.51 96.55 30.41C95.08 30.29 93.84 29.24 93.74 27.9ZM98.09 25.6L93.74 25.6C93.87 24.12 94.62 23.12 95.91 23.12C97.2 23.12 98.06 24.15 98.09 25.6Z" fill="#C4C4C4" fill-opacity="1.000000" fill-rule="nonzero"/>
	<path id="TechCrunch" d="M115.35 30.92L112.36 28.61C112.05 29.14 111.51 29.9 110.11 29.9C109.67 29.9 107.93 29.9 107.93 26.66C107.93 23.41 109.34 23.13 110.11 23.12C110.88 23.12 112.05 24.07 112.36 24.6L115.22 22.61C114.71 21.59 112.68 19.56 109.67 19.56C106.66 19.56 103.97 22.41 103.97 26.66C103.97 30.91 107.04 33.76 109.67 33.65C113.37 33.65 114.46 32.59 115.35 30.92Z" fill="#C4C4C4" fill-opacity="1.000000" fill-rule="nonzero"/>
	<path id="TechCrunch" d="M117.14 33.33L121.81 33.33L121.81 26.47C121.81 24.62 121.97 23.12 123.79 23.12C125.59 23.12 125.72 24.57 125.72 26.42L125.72 33.33L129.93 33.39L129.93 26.47C129.93 22.38 129.86 19.61 125.72 19.61C123.45 19.61 122.34 20.77 121.81 21.77L121.81 13.27L117.14 15.32L117.14 33.33Z" fill="#C4C4C4" fill-opacity="1.000000" fill-rule="nonzero"/>
	<path id="TechCrunch" d="M149.95 28.95L145.72 26.73C145.21 27.61 144.45 29.54 142.39 29.58C140.33 29.61 138.94 26.73 138.94 23.86C138.94 20.98 139.84 18.54 142.39 18.45C144.35 18.39 145.6 20.91 146.1 21.78L149.95 20.19C148.95 17.39 146.21 14.14 142.39 13.97C137.35 13.76 134.08 17.44 134.08 23.86C134.08 30.27 137.3 33.97 142.39 33.91C145.92 33.88 148.95 31.75 149.95 28.95Z" fill="#909599" fill-opacity="1.000000" fill-rule="nonzero"/>
	<path id="TechCrunch" d="M152.11 33.65L156.78 33.65L156.78 26.95C156.78 24.81 158.21 23.11 160 23.51C160.79 23.69 161.19 24.21 161.7 24.72L162.73 20.62C162.2 20.47 161.03 19.92 160.21 19.92C158.05 19.92 157.04 21.51 156.78 22.14L156.78 20.19L152.11 20.19L152.11 33.65Z" fill="#909599" fill-opacity="1.000000" fill-rule="nonzero"/>
	<path id="TechCrunch" d="M173.75 33.65L176.08 33.65L177.56 33.65L177.56 26.92L177.56 20.19L172.96 20.19L172.96 27.1C172.96 28.95 172.76 30.35 170.91 30.35C169.12 30.35 169.12 28.95 169.12 27.1L169.12 20.19L164.9 20.19L164.9 27.1C164.9 31.2 165.7 33.91 169.84 33.91C172.11 33.91 173.22 32.75 173.75 31.75L173.75 33.65Z" fill="#909599" fill-opacity="1.000000" fill-rule="nonzero"/>
	<path id="TechCrunch" d="M181.15 33.65L185.83 33.65L185.83 26.79C185.83 24.94 185.84 23.51 187.66 23.51C189.46 23.51 189.73 24.89 189.73 26.73L189.73 33.65L194.26 33.65L194.26 26.73C194.26 22.64 192.52 19.22 188.56 20.04C187.25 20.31 186.35 21.09 185.83 22.09L185.83 20.19L181.15 20.19L181.15 33.65Z" fill="#909599" fill-opacity="1.000000" fill-rule="nonzero"/>
	<path id="TechCrunch" d="M208.16 30.92L205.17 28.61C204.86 29.14 204.32 29.9 202.92 29.9C202.48 29.9 200.75 29.9 200.75 26.66C200.75 23.41 202.15 23.13 202.92 23.12C203.69 23.12 204.86 24.07 205.17 24.6L208.04 22.61C207.52 21.59 205.5 19.56 202.48 19.56C199.47 19.56 196.78 22.41 196.78 26.66C196.78 30.91 199.85 33.76 202.48 33.65C206.18 33.65 207.27 32.59 208.16 30.92Z" fill="#909599" fill-opacity="1.000000" fill-rule="nonzero"/>
	<path id="TechCrunch" d="M209.95 33.33L214.62 33.33L214.62 26.47C214.62 24.62 214.78 23.12 216.6 23.12C218.4 23.12 218.53 24.57 218.53 26.42L218.53 33.33L222.74 33.39L222.74 26.47C222.74 22.38 222.67 19.61 218.53 19.61C216.26 19.61 215.15 20.77 214.62 21.77L214.62 13.27L209.95 15.32L209.95 33.33Z" fill="#909599" fill-opacity="1.000000" fill-rule="nonzero"/>
	<path id="Vector 153" d="M21.39 34L21.39 12.48L32.32 12.48L32.32 34L64.52 34L64.52 23.07L43.13 23.07L43.13 12.48L64.52 12.48L64.52 1L43.13 1L43.13 12.48L32.32 12.48L32.32 1L0 1L0 12.48L10.81 12.48L10.81 34L21.39 34Z" fill="#C4C4C4" fill-opacity="1.000000" fill-rule="evenodd"/>
	<path id="VentureBeat" d="M933.27 28.17L936.36 14.94L934.49 14.94L934.49 10.09L944.69 10.09L944.69 14.94L943.04 14.94L938.01 33.46L927.28 33.46L922.54 14.94L920.89 14.94L920.89 10.09L931.66 10.09L931.66 14.94L929.76 14.94L932.63 28.17L933.27 28.17Z" fill="#C4C4C4" fill-opacity="1.000000" fill-rule="nonzero"/>
	<path id="VentureBeat" d="M962.18 26.88C962.18 27.84 962.05 28.75 961.79 29.61C961.55 30.47 961.08 31.23 960.39 31.87C959.72 32.52 958.8 33.04 957.62 33.42C956.45 33.8 954.96 34 953.14 34C951.82 34 950.64 33.85 949.59 33.56C948.53 33.3 947.64 32.81 946.89 32.09C946.15 31.37 945.58 30.4 945.17 29.18C944.76 27.93 944.56 26.35 944.56 24.43C944.56 22.64 944.75 21.13 945.14 19.9C945.54 18.66 946.13 17.65 946.89 16.88C947.68 16.12 948.64 15.57 949.77 15.23C950.91 14.87 952.23 14.69 953.71 14.69C955.29 14.69 956.62 14.87 957.7 15.23C958.77 15.57 959.63 16.08 960.28 16.78C960.95 17.45 961.43 18.3 961.72 19.33C962.03 20.34 962.18 21.5 962.18 22.82L962.18 25.44L951.24 25.44C951.24 26.25 951.27 26.91 951.34 27.42C951.44 27.9 951.58 28.27 951.77 28.53C951.99 28.77 952.27 28.94 952.6 29.03C952.94 29.11 953.37 29.14 953.89 29.14C954.78 29.14 955.4 28.94 955.76 28.53C956.12 28.12 956.3 27.57 956.3 26.88L962.18 26.88ZM953.71 19.47C953.23 19.47 952.84 19.51 952.53 19.58C952.22 19.65 951.97 19.8 951.77 20.01C951.58 20.2 951.44 20.48 951.34 20.84C951.27 21.17 951.24 21.62 951.24 22.17L956.15 22.17C956.15 21.62 956.12 21.17 956.05 20.84C955.97 20.48 955.84 20.2 955.65 20.01C955.48 19.8 955.24 19.65 954.93 19.58C954.62 19.51 954.22 19.47 953.71 19.47Z" fill="#C4C4C4" fill-opacity="1.000000" fill-rule="nonzero"/>
	<path id="VentureBeat" d="M971.58 18.43C972.06 17.14 972.8 16.19 973.81 15.59C974.81 14.99 976.06 14.69 977.54 14.69C978.35 14.69 979.1 14.79 979.77 14.98C980.46 15.17 981.06 15.51 981.56 15.99C982.06 16.44 982.45 17.06 982.71 17.86C983 18.62 983.14 19.59 983.14 20.77L983.14 28.64L984.86 28.64L984.86 33.46L975.28 33.46L975.28 28.64L976.71 28.64L976.71 22.53C976.71 21.71 976.57 21.13 976.28 20.77C976 20.41 975.47 20.23 974.7 20.23C974.01 20.23 973.44 20.43 972.98 20.84C972.53 21.25 972.3 21.95 972.3 22.96L972.3 28.64L973.74 28.64L973.74 33.46L964.15 33.46L964.15 28.64L965.88 28.64L965.88 20.05L964.3 20.05L964.3 15.23L971.58 15.23L971.58 18.43Z" fill="#C4C4C4" fill-opacity="1.000000" fill-rule="nonzero"/>
	<path id="VentureBeat" d="M987.25 15.23L987.25 11.13L993.68 9L993.68 15.23L997.12 15.23L997.12 20.05L993.68 20.05L993.68 27.24C993.68 27.79 993.77 28.18 993.96 28.42C994.18 28.66 994.57 28.78 995.15 28.78C995.46 28.78 995.84 28.77 996.3 28.75C996.77 28.7 997.22 28.64 997.62 28.57L997.62 33.35C997.22 33.44 996.57 33.54 995.69 33.64C994.82 33.76 993.93 33.82 992.99 33.82C991.85 33.82 990.9 33.72 990.16 33.53C989.42 33.36 988.83 33.05 988.4 32.59C987.97 32.11 987.67 31.45 987.5 30.62C987.34 29.78 987.25 28.7 987.25 27.38L987.25 20.05L985.53 20.05L985.53 15.23L987.25 15.23Z" fill="#C4C4C4" fill-opacity="1.000000" fill-rule="nonzero"/>
	<path id="VentureBeat" d="M1006.5 15.23L1006.5 27.56C1006.5 28.54 1006.95 29.03 1007.86 29.03C1008.82 29.03 1009.47 28.83 1009.83 28.42C1010.22 28.02 1010.41 27.46 1010.41 26.77L1010.41 20.05L1008.47 20.05L1008.47 15.23L1016.83 15.23L1016.83 27.67C1016.83 28.08 1016.88 28.34 1016.98 28.46C1017.09 28.58 1017.35 28.64 1017.73 28.64L1018.55 28.64L1018.55 33.46L1014.28 33.46C1013.28 33.46 1012.5 33.25 1011.95 32.84C1011.42 32.41 1011.15 31.63 1011.12 30.51C1010.69 31.56 1010 32.41 1009.04 33.06C1008.11 33.68 1006.84 34 1005.24 34C1004.45 34 1003.73 33.9 1003.09 33.71C1002.46 33.54 1001.92 33.25 1001.47 32.84C1001.04 32.41 1000.69 31.85 1000.43 31.16C1000.19 30.44 1000.07 29.54 1000.07 28.46L1000.07 20.05L998.38 20.05L998.38 15.23L1006.5 15.23Z" fill="#C4C4C4" fill-opacity="1.000000" fill-rule="nonzero"/>
	<path id="VentureBeat" d="M1021.82 28.64L1021.82 20.05L1020.24 20.05L1020.24 15.23L1028.24 15.23L1028.24 17.86C1028.6 16.73 1029.16 15.93 1029.93 15.45C1030.69 14.94 1031.76 14.69 1033.12 14.69C1033.69 14.69 1034.27 14.74 1034.85 14.84C1035.42 14.93 1035.88 15.04 1036.21 15.16L1036.21 22.53L1031.32 22.53L1031.32 20.34C1031.26 20.31 1031.14 20.29 1030.97 20.26C1030.82 20.22 1030.62 20.19 1030.36 20.19C1030.1 20.19 1029.82 20.23 1029.56 20.3C1029.32 20.37 1029.12 20.53 1028.92 20.77C1028.73 21.01 1028.56 21.35 1028.42 21.81C1028.3 22.24 1028.24 22.83 1028.24 23.57L1028.24 28.64L1030.68 28.64L1030.68 33.46L1020.1 33.46L1020.1 28.64L1021.82 28.64Z" fill="#C4C4C4" fill-opacity="1.000000" fill-rule="nonzero"/>
	<path id="VentureBeat" d="M1055.44 26.88C1055.44 27.84 1055.31 28.75 1055.06 29.61C1054.81 30.47 1054.35 31.23 1053.66 31.87C1052.99 32.52 1052.06 33.04 1050.9 33.42C1049.72 33.8 1048.23 34 1046.41 34C1045.09 34 1043.91 33.85 1042.86 33.56C1041.8 33.3 1040.91 32.81 1040.16 32.09C1039.42 31.37 1038.85 30.4 1038.43 29.18C1038.03 27.93 1037.82 26.35 1037.82 24.43C1037.82 22.64 1038.02 21.13 1038.41 19.9C1038.81 18.66 1039.4 17.65 1040.16 16.88C1040.94 16.12 1041.91 15.57 1043.03 15.23C1044.18 14.87 1045.5 14.69 1046.98 14.69C1048.56 14.69 1049.89 14.87 1050.97 15.23C1052.04 15.57 1052.9 16.08 1053.55 16.78C1054.22 17.45 1054.69 18.3 1054.99 19.33C1055.3 20.34 1055.44 21.5 1055.44 22.82L1055.44 25.44L1044.51 25.44C1044.51 26.25 1044.54 26.91 1044.61 27.42C1044.71 27.9 1044.85 28.27 1045.04 28.53C1045.26 28.77 1045.54 28.94 1045.87 29.03C1046.21 29.11 1046.64 29.14 1047.16 29.14C1048.05 29.14 1048.67 28.94 1049.03 28.53C1049.39 28.12 1049.56 27.57 1049.56 26.88L1055.44 26.88ZM1046.98 19.47C1046.5 19.47 1046.11 19.51 1045.8 19.58C1045.49 19.65 1045.24 19.8 1045.04 20.01C1044.85 20.2 1044.71 20.48 1044.61 20.84C1044.54 21.17 1044.51 21.62 1044.51 22.17L1049.42 22.17C1049.42 21.62 1049.39 21.17 1049.31 20.84C1049.24 20.48 1049.11 20.2 1048.92 20.01C1048.75 19.8 1048.51 19.65 1048.19 19.58C1047.89 19.51 1047.49 19.47 1046.98 19.47Z" fill="#C4C4C4" fill-opacity="1.000000" fill-rule="nonzero"/>
	<path id="VentureBeat" d="M1071.24 10.09C1072.27 10.09 1073.18 10.19 1073.97 10.38C1074.78 10.57 1075.46 10.91 1076.01 11.38C1076.56 11.84 1076.97 12.46 1077.23 13.25C1077.52 14.02 1077.67 14.99 1077.67 16.17C1077.67 17.48 1077.46 18.53 1077.06 19.29C1076.65 20.06 1076.06 20.62 1075.3 20.98C1076.64 21.34 1077.56 22 1078.1 22.96C1078.65 23.89 1078.92 25.15 1078.92 26.73C1078.92 28.05 1078.74 29.14 1078.38 30C1078.02 30.87 1077.49 31.56 1076.77 32.09C1076.05 32.59 1075.14 32.95 1074.04 33.17C1072.96 33.36 1071.69 33.46 1070.24 33.46L1057.6 33.46L1057.6 28.6L1059.5 28.6L1059.5 14.94L1057.6 14.94L1057.6 10.09L1071.24 10.09ZM1066.22 23.71L1066.22 28.6L1069.94 28.6C1070.21 28.6 1070.44 28.58 1070.67 28.53C1070.88 28.46 1071.06 28.34 1071.24 28.17C1071.41 27.98 1071.53 27.73 1071.6 27.42C1071.69 27.08 1071.74 26.65 1071.74 26.12C1071.74 25.31 1071.64 24.71 1071.42 24.33C1071.21 23.92 1070.68 23.71 1069.88 23.71L1066.22 23.71ZM1066.22 19.01L1069.27 19.01C1069.79 19.01 1070.15 18.84 1070.34 18.5C1070.54 18.14 1070.63 17.59 1070.63 16.85C1070.63 16.2 1070.54 15.72 1070.34 15.41C1070.18 15.1 1069.81 14.94 1069.27 14.94L1066.22 14.94L1066.22 19.01Z" fill="#909599" fill-opacity="1.000000" fill-rule="nonzero"/>
	<path id="VentureBeat" d="M1098.35 26.88C1098.35 27.84 1098.22 28.75 1097.96 29.61C1097.72 30.47 1097.25 31.23 1096.56 31.87C1095.89 32.52 1094.97 33.04 1093.79 33.42C1092.62 33.8 1091.13 34 1089.31 34C1087.99 34 1086.81 33.85 1085.76 33.56C1084.69 33.3 1083.81 32.81 1083.06 32.09C1082.31 31.37 1081.75 30.4 1081.34 29.18C1080.93 27.93 1080.73 26.35 1080.73 24.43C1080.73 22.64 1080.92 21.13 1081.31 19.9C1081.71 18.66 1082.3 17.65 1083.06 16.88C1083.85 16.12 1084.81 15.57 1085.93 15.23C1087.07 14.87 1088.4 14.69 1089.88 14.69C1091.46 14.69 1092.79 14.87 1093.87 15.23C1094.93 15.57 1095.8 16.08 1096.44 16.78C1097.12 17.45 1097.6 18.3 1097.89 19.33C1098.19 20.34 1098.35 21.5 1098.35 22.82L1098.35 25.44L1087.41 25.44C1087.41 26.25 1087.43 26.91 1087.51 27.42C1087.61 27.9 1087.75 28.27 1087.93 28.53C1088.16 28.77 1088.43 28.94 1088.77 29.03C1089.1 29.11 1089.54 29.14 1090.06 29.14C1090.94 29.14 1091.56 28.94 1091.93 28.53C1092.29 28.12 1092.47 27.57 1092.47 26.88L1098.35 26.88ZM1089.88 19.47C1089.4 19.47 1089.01 19.51 1088.69 19.58C1088.39 19.65 1088.14 19.8 1087.93 20.01C1087.75 20.2 1087.61 20.48 1087.51 20.84C1087.43 21.17 1087.41 21.62 1087.41 22.17L1092.31 22.17C1092.31 21.62 1092.29 21.17 1092.22 20.84C1092.14 20.48 1092.01 20.2 1091.81 20.01C1091.65 19.8 1091.41 19.65 1091.1 19.58C1090.79 19.51 1090.39 19.47 1089.88 19.47Z" fill="#909599" fill-opacity="1.000000" fill-rule="nonzero"/>
	<path id="VentureBeat" d="M1114.43 33.46C1113.54 33.46 1111.59 33.46 1111.59 33.46L1111.59 31.1C1111.59 31.1 1110.23 32.83 1109.3 33.31C1108.36 33.77 1107.11 34 1105.53 34C1103.68 34 1102.36 33.54 1101.54 32.63C1100.73 31.72 1100.31 30.36 1100.31 28.57C1100.31 27.44 1100.43 26.48 1100.68 25.69C1100.94 24.88 1101.35 24.22 1101.9 23.71C1102.48 23.21 1103.22 22.85 1104.13 22.64C1105.04 22.4 1106.16 22.28 1107.5 22.28L1110.55 22.28L1110.55 20.91C1110.55 20.43 1110.43 20.11 1110.18 19.94C1109.94 19.75 1109.27 19.44 1108.72 19.65C1108.44 19.76 1108.31 19.87 1108.12 20.1C1107.86 20.4 1107.84 20.98 1107.84 20.98L1101.28 20.98C1101.28 20.98 1101.44 18.54 1102.29 17.41C1103.3 16.06 1104.16 15.4 1105.76 15.02C1107.11 14.69 1107.81 14.69 1109.32 14.69C1110.77 14.69 1111.96 14.8 1112.92 15.02C1113.9 15.23 1114.68 15.58 1115.29 16.06C1115.89 16.51 1116.31 17.12 1116.57 17.89C1116.84 18.63 1116.98 19.56 1116.98 20.66L1116.98 27.67C1116.98 28.08 1116.97 28.63 1116.97 28.63C1116.97 28.63 1117.49 28.64 1117.87 28.64L1118.69 28.64L1118.69 33.46L1114.43 33.46ZM1108.15 29.03C1108.91 29.03 1109.5 28.84 1109.91 28.46C1110.34 28.08 1110.55 27.63 1110.55 27.13L1110.55 25.66L1109.12 25.66C1108.56 25.66 1108.14 25.7 1107.81 25.8C1107.54 25.9 1107.31 26.03 1107.14 26.19C1106.97 26.36 1106.87 26.57 1106.81 26.81C1106.8 27.02 1106.78 27.26 1106.78 27.52C1106.78 28.1 1106.89 28.5 1107.11 28.71C1107.31 28.93 1107.67 29.03 1108.15 29.03Z" fill="#909599" fill-opacity="1.000000" fill-rule="nonzero"/>
	<path id="VentureBeat" d="M1121.77 15.23L1121.77 10.9L1128.19 9L1128.19 15.23L1131.64 15.23L1131.64 20.05L1128.19 20.05L1128.19 27.24C1128.19 27.79 1128.29 28.18 1128.49 28.42C1128.69 28.66 1129.1 28.78 1129.67 28.78C1129.98 28.78 1130.36 28.77 1130.81 28.75C1131.3 28.7 1131.74 28.64 1132.15 28.57L1132.15 33.35C1131.74 33.44 1131.09 33.54 1130.21 33.64C1129.35 33.76 1128.44 33.82 1127.52 33.82C1126.37 33.82 1125.42 33.72 1124.68 33.53C1123.93 33.36 1123.35 33.05 1122.92 32.59C1122.49 32.11 1122.18 31.45 1122.03 30.62C1121.86 29.78 1121.77 28.7 1121.77 27.38L1121.77 20.05L1120.05 20.05L1120.05 15.23L1121.77 15.23Z" fill="#909599" fill-opacity="1.000000" fill-rule="nonzero"/>
	<path id="PYMNTS" d="M639.12 7.64L650.66 7.64C652.94 7.64 654.78 8.28 656.17 9.57C657.57 10.85 658.27 12.65 658.27 14.97C658.27 16.97 657.64 18.71 656.4 20.2C655.15 21.67 653.24 22.41 650.66 22.41L642.59 22.41L642.59 33.23L639.12 33.23L639.12 7.64ZM654.76 14.99C654.76 13.11 654.06 11.83 652.66 11.16C651.9 10.8 650.84 10.62 649.5 10.62L642.59 10.62L642.59 19.49L649.5 19.49C651.06 19.49 652.33 19.15 653.29 18.49C654.27 17.83 654.76 16.66 654.76 14.99Z" fill="#C4C4C4" fill-opacity="1.000000" fill-rule="nonzero"/>
	<path id="PYMNTS" d="M657.24 7.64L661.29 7.64L668.66 19.94L676.03 7.64L680.09 7.64L670.41 22.92L670.41 33.23L666.93 33.23L666.93 22.92L657.24 7.64Z" fill="#C4C4C4" fill-opacity="1.000000" fill-rule="nonzero"/>
	<path id="PYMNTS" d="M684.16 7.64L689.13 7.64L696.5 29.28L703.81 7.64L708.73 7.64L708.73 33.23L705.44 33.23L705.44 18.13C705.44 17.6 705.45 16.74 705.47 15.53C705.49 14.32 705.51 13.03 705.51 11.65L698.19 33.23L694.75 33.23L687.39 11.65L687.39 12.43C687.39 13.06 687.4 14.02 687.42 15.3C687.46 16.58 687.47 17.52 687.47 18.13L687.47 33.23L684.16 33.23L684.16 7.64Z" fill="#C4C4C4" fill-opacity="1.000000" fill-rule="nonzero"/>
	<path id="PYMNTS" d="M705.44 7.64L709.54 7.64L722.49 28.37L722.49 7.64L725.79 7.64L725.79 33.23L721.9 33.23L708.64 11.65L708.75 33.23L705.44 33.23L705.44 20.43L705.44 7.64Z" fill="#C4C4C4" fill-opacity="1.000000" fill-rule="nonzero"/>
	<path id="PYMNTS" d="M749.59 7.64L749.59 10.69L740.95 10.69L740.95 33.23L737.42 33.23L737.42 10.69L728.78 10.69L728.78 7.64L749.59 7.64Z" fill="#C4C4C4" fill-opacity="1.000000" fill-rule="nonzero"/>
	<path id="PYMNTS" d="M755.06 24.97C755.14 26.42 755.48 27.6 756.08 28.51C757.24 30.2 759.27 31.05 762.18 31.05C763.48 31.05 764.67 30.87 765.74 30.5C767.81 29.78 768.85 28.49 768.85 26.63C768.85 25.23 768.41 24.24 767.54 23.65C766.65 23.07 765.27 22.56 763.38 22.13L759.91 21.35C757.64 20.84 756.03 20.28 755.09 19.66C753.46 18.59 752.65 16.99 752.65 14.87C752.65 12.57 753.44 10.68 755.04 9.21C756.63 7.73 758.89 7 761.81 7C764.5 7 766.78 7.65 768.65 8.95C770.54 10.24 771.48 12.3 771.48 15.15L768.22 15.15C768.04 13.78 767.67 12.73 767.1 11.99C766.04 10.66 764.24 9.99 761.71 9.99C759.66 9.99 758.19 10.42 757.29 11.28C756.39 12.14 755.95 13.14 755.95 14.28C755.95 15.53 756.47 16.45 757.52 17.03C758.2 17.4 759.76 17.87 762.18 18.42L765.77 19.24C767.51 19.64 768.85 20.18 769.79 20.86C771.42 22.06 772.23 23.79 772.23 26.07C772.23 28.9 771.2 30.93 769.12 32.15C767.06 33.37 764.67 33.98 761.93 33.98C758.74 33.98 756.25 33.17 754.44 31.54C752.64 29.93 751.76 27.74 751.79 24.97L755.06 24.97Z" fill="#C4C4C4" fill-opacity="1.000000" fill-rule="nonzero"/>
	<path id="Rectangle 4182" d="M705.41 7.64L708.75 7.64L708.75 33.28L705.41 33.28L705.41 7.64Z" fill="#C4C4C4" fill-opacity="1.000000" fill-rule="nonzero"/>
	<path id=".com" d="M783.85 33.19Q785.22 33.99 787.13 33.99C788.23 33.99 789.19 33.79 790 33.39Q790.87 32.95 791.47 32.28Q791.7 32.01 791.9 31.71C792.36 30.99 792.62 30.15 792.68 29.21L789.43 29.21C789.36 29.64 789.22 30.02 789.01 30.33C788.81 30.64 788.55 30.87 788.23 31.03Q788.22 31.04 788.21 31.04Q787.75 31.27 787.17 31.27C786.64 31.27 786.17 31.13 785.77 30.84C785.37 30.55 785.06 30.12 784.84 29.57C784.62 29.02 784.52 28.34 784.52 27.55Q784.52 26.38 784.85 25.56C785.07 25.01 785.38 24.59 785.77 24.31C786.17 24.02 786.64 23.87 787.17 23.87C787.8 23.87 788.31 24.06 788.7 24.45C789.09 24.82 789.33 25.32 789.43 25.94L792.68 25.94C792.63 24.98 792.37 24.15 791.89 23.44C791.42 22.73 790.77 22.18 789.96 21.78Q788.74 21.19 787.11 21.19Q785.23 21.19 783.86 22.01Q783.28 22.35 782.82 22.81Q782.18 23.43 781.75 24.26Q781.02 25.7 781.02 27.6C781.02 28.86 781.26 29.96 781.74 30.93Q782.16 31.74 782.77 32.35L782.77 32.35L782.77 32.35Q783.25 32.83 783.85 33.19ZM800.49 33.99Q798.61 33.99 797.23 33.19C796.32 32.66 795.62 31.91 795.12 30.95C794.63 29.99 794.38 28.87 794.38 27.6C794.38 26.32 794.63 25.2 795.12 24.25C795.62 23.28 796.32 22.53 797.23 22Q798.61 21.19 800.49 21.19C801.75 21.19 802.83 21.46 803.74 22Q804.34 22.35 804.81 22.81Q805.44 23.42 805.86 24.25Q806.61 25.68 806.61 27.6Q806.61 29.51 805.86 30.95Q805.45 31.74 804.86 32.34Q804.36 32.83 803.74 33.19C802.83 33.73 801.75 33.99 800.49 33.99ZM808.85 21.36L808.85 33.75L812.29 33.75L812.29 26.31C812.29 25.85 812.38 25.46 812.56 25.12Q812.77 24.7 813.1 24.44Q813.18 24.37 813.28 24.32C813.58 24.12 813.93 24.03 814.31 24.03C814.88 24.03 815.33 24.21 815.68 24.57C816.03 24.93 816.2 25.41 816.2 26.02L816.2 33.75L819.54 33.75L819.54 26.18C819.54 25.54 819.72 25.02 820.07 24.62C820.42 24.23 820.91 24.03 821.53 24.03C822.08 24.03 822.54 24.2 822.91 24.54C823.27 24.89 823.46 25.4 823.46 26.09L823.46 33.75L826.89 33.75L826.89 25.42Q826.89 23.58 825.99 22.5Q825.9 22.4 825.8 22.3C825.08 21.56 824.14 21.19 822.98 21.19Q821.74 21.19 820.8 21.72Q820.7 21.78 820.61 21.84C819.95 22.27 819.49 22.83 819.24 23.54L819.11 23.54C818.91 22.82 818.51 22.25 817.91 21.83C817.31 21.41 816.59 21.19 815.73 21.19C814.89 21.19 814.17 21.4 813.57 21.82C812.96 22.24 812.53 22.82 812.27 23.54L812.13 23.54L812.13 21.36L808.85 21.36ZM800.51 31.33C801.08 31.33 801.56 31.17 801.94 30.85C802.32 30.52 802.61 30.07 802.81 29.51C803 28.94 803.1 28.3 803.1 27.58C803.1 26.86 803 26.21 802.81 25.65C802.61 25.08 802.32 24.64 801.94 24.31C801.56 23.98 801.08 23.82 800.51 23.82C799.93 23.82 799.45 23.98 799.05 24.31C798.67 24.64 798.37 25.08 798.17 25.65Q797.88 26.5 797.88 27.58Q797.88 28.66 798.17 29.51C798.37 30.07 798.67 30.52 799.05 30.85C799.45 31.17 799.93 31.33 800.51 31.33ZM776.02 33.83Q776.36 33.96 776.75 33.96Q777.08 33.96 777.37 33.86L777.37 33.86Q777.55 33.8 777.71 33.7Q777.93 33.57 778.11 33.39L778.11 33.39L778.11 33.39Q778.28 33.22 778.41 33C778.6 32.7 778.69 32.38 778.69 32.02Q778.69 31.66 778.57 31.35Q778.42 30.97 778.11 30.67Q777.77 30.34 777.37 30.2L777.37 30.2Q777.08 30.1 776.75 30.1Q776.36 30.1 776.02 30.24L776.02 30.24Q775.67 30.38 775.37 30.67Q775.08 30.96 774.94 31.32L774.94 31.32Q774.81 31.64 774.81 32.02C774.81 32.56 775 33.01 775.37 33.4Q775.67 33.68 776.02 33.83L776.02 33.83Z" fill="#898989" fill-opacity="1.000000" fill-rule="evenodd"/>
</svg>
