<svg width="944.656250" height="391.489532" viewBox="0 0 944.656 391.49" fill="none" xmlns="http://www.w3.org/2000/svg" xmlns:xlink="http://www.w3.org/1999/xlink">
	<desc>
			Created with Pixso.
	</desc>
	<defs/>
	<path id="Vector" d="M509.14 307.3C509.06 308.96 510.34 310.36 511.99 310.44C513.65 310.52 515.05 309.24 515.13 307.58C515.21 305.93 513.93 304.52 512.28 304.45C510.62 304.37 509.22 305.65 509.14 307.3Z" fill="#3897FF" fill-opacity="1.000000" fill-rule="evenodd"/>
	<path id="Vector" d="M592.59 285.27C592.46 288.03 594.59 290.37 597.35 290.5C600.11 290.63 602.45 288.5 602.58 285.74C602.71 282.98 600.58 280.64 597.82 280.51C595.06 280.38 592.72 282.51 592.59 285.27Z" fill="#8E4DD5" fill-opacity="1.000000" fill-rule="evenodd"/>
	<path id="Vector" d="M673.93 281.29C673.82 283.5 675.53 285.37 677.73 285.47C679.94 285.58 681.81 283.87 681.92 281.66C682.02 279.46 680.32 277.59 678.11 277.48C675.9 277.38 674.03 279.08 673.93 281.29Z" fill="#00A98F" fill-opacity="1.000000" fill-rule="evenodd"/>
	<path id="Vector" d="M0.11 379.8C0.05 381.18 1.11 382.35 2.49 382.42C3.87 382.48 5.04 381.41 5.11 380.04C5.17 378.66 4.11 377.49 2.73 377.42C1.35 377.36 0.18 378.42 0.11 379.8Z" fill="#00A98F" fill-opacity="1.000000" fill-rule="evenodd"/>
	<path id="Vector" d="M914.29 170.3C913.75 171.87 914.58 173.58 916.14 174.12C917.71 174.66 919.42 173.83 919.97 172.26C920.51 170.7 919.68 168.99 918.12 168.45C916.55 167.91 914.84 168.74 914.29 170.3Z" fill="#00A98F" fill-opacity="1.000000" fill-rule="evenodd"/>
	<path id="Vector" d="M908.78 139.44C908.51 140.22 908.92 141.08 909.7 141.35C910.49 141.62 911.34 141.2 911.61 140.42C911.89 139.64 911.47 138.78 910.69 138.51C909.91 138.24 909.05 138.66 908.78 139.44Z" fill="#00A98F" fill-opacity="1.000000" fill-rule="evenodd"/>
	<path id="Vector" d="M901.12 204.94C900.22 207.55 901.6 210.4 904.21 211.3C906.82 212.2 909.67 210.81 910.58 208.2C911.48 205.6 910.1 202.75 907.49 201.85C904.88 200.95 902.03 202.34 901.12 204.94Z" fill="#8E4DD5" fill-opacity="1.000000" fill-rule="evenodd"/>
	<path id="Vector" d="M936.52 48.65C935.88 50.48 936.85 52.47 938.67 53.1C940.5 53.73 942.5 52.76 943.13 50.93C943.77 49.11 942.8 47.12 940.97 46.49C939.15 45.86 937.15 46.83 936.52 48.65Z" fill="#8E4DD5" fill-opacity="1.000000" fill-rule="evenodd"/>
	<path id="Vector" d="M907.12 53.1C906.21 55.7 907.59 58.55 910.2 59.45C912.81 60.35 915.66 58.97 916.57 56.36C917.48 53.75 916.1 50.91 913.49 50C910.88 49.1 908.03 50.49 907.12 53.1Z" fill="#3897FF" fill-opacity="1.000000" fill-rule="evenodd"/>
	<path id="Vector" d="M912.92 99.42L919.58 97.08L925.89 100.21L923.56 93.55L926.71 87.23L920.05 89.58L913.74 86.45L916.07 93.1L912.92 99.42Z" fill="#FFCC00" fill-opacity="1.000000" fill-rule="nonzero"/>
	<path id="Vector" d="M870.31 227.44L874.08 227.97L876.32 231.03L876.85 227.27L879.93 225.02L876.16 224.5L873.91 221.44L873.38 225.2L870.31 227.44Z" fill="#FFCC00" fill-opacity="1.000000" fill-rule="nonzero"/>
	<path id="Vector" d="M284.31 340.19L288.08 340.72L290.33 343.78L290.86 340.02L293.93 337.78L290.16 337.25L287.92 334.19L287.38 337.95L284.31 340.19Z" fill="#FFCC00" fill-opacity="1.000000" fill-rule="nonzero"/>
	<path id="Vector" d="M919.87 239.24L922.56 239.61L924.17 241.8L924.55 239.12L926.74 237.51L924.05 237.14L922.45 234.95L922.07 237.64L919.87 239.24Z" fill="#8E4DD5" fill-opacity="1.000000" fill-rule="nonzero"/>
	<path id="Vector" d="M907.33 12.95L910.02 13.33L911.62 15.51L912 12.83L914.19 11.22L911.5 10.85L909.9 8.66L909.52 11.35L907.33 12.95Z" fill="#00A98F" fill-opacity="1.000000" fill-rule="nonzero"/>
	<path id="Vector" d="M143.16 347.8L145.85 348.17L147.46 350.36L147.84 347.67L150.03 346.07L147.34 345.69L145.74 343.51L145.36 346.19L143.16 347.8Z" fill="#8E4DD5" fill-opacity="1.000000" fill-rule="nonzero"/>
	<path id="Vector 218" d="M759.69 263.02L753.17 260.69L749.59 248.22L756.4 250.2L759.69 263.02Z" fill="#00A98F" fill-opacity="1.000000" fill-rule="evenodd"/>
	<path id="Vector 220" d="M412.08 323.4L411.02 318.95L416.6 312.68L417.96 317.17L412.08 323.4Z" fill="#00A98F" fill-opacity="1.000000" fill-rule="evenodd"/>
	<path id="Vector 215" d="M842.4 253.31L842.57 259.04L834.01 265.44L833.48 259.59L842.4 253.31Z" fill="#3897FF" fill-opacity="1.000000" fill-rule="evenodd"/>
	<path id="Vector 219" d="M939.88 114.59L940.06 117.97L935.17 121.62L934.78 118.17L939.88 114.59Z" fill="#3897FF" fill-opacity="1.000000" fill-rule="evenodd"/>
</svg>
