<svg width="24.000000" height="23.481750" viewBox="0 0 24 23.4818" fill="none" xmlns="http://www.w3.org/2000/svg" xmlns:xlink="http://www.w3.org/1999/xlink">
	<desc>
			Created with Pixso.
	</desc>
	<defs/>
	<path id="“" d="M9.63 1.67L9.63 11.85C9.63 15.09 8.77 17.74 7.03 19.81C5.72 21.41 4.04 22.6 2.02 23.38C1.01 23.77 0 22.96 0 21.88L0 19.96C0 19.23 0.48 18.59 1.15 18.29C1.56 18.11 1.91 17.91 2.22 17.69C2.78 17.28 3.22 16.79 3.54 16.23C3.85 15.67 4.06 15.01 4.15 14.25C4.25 13.53 4.29 12.73 4.29 11.85C4.29 11.15 3.73 10.58 3.02 10.58L1.67 10.58C0.75 10.58 0 9.83 0 8.9L0 1.67C0 0.75 0.75 0 1.67 0L7.95 0C8.88 0 9.63 0.75 9.63 1.67ZM24 1.67L24 11.85C24 15.09 23.13 17.74 21.4 19.81C20.08 21.41 18.41 22.6 16.38 23.38C15.37 23.77 14.36 22.96 14.36 21.88L14.36 19.96C14.36 19.23 14.85 18.59 15.52 18.29C15.92 18.11 16.27 17.91 16.58 17.69C17.14 17.28 17.59 16.79 17.9 16.23C18.18 15.67 18.39 15.01 18.51 14.25C18.61 13.53 18.66 12.73 18.66 11.85C18.66 11.15 18.09 10.58 17.39 10.58L16.04 10.58C15.11 10.58 14.36 9.83 14.36 8.9L14.36 1.67C14.36 0.75 15.11 0 16.04 0L22.32 0C23.24 0 24 0.75 24 1.67Z" fill="#D2D2D2" fill-opacity="1.000000" fill-rule="nonzero"/>
</svg>
