<svg width="97.402344" height="98.874542" viewBox="0 0 97.4023 98.8745" fill="none" xmlns="http://www.w3.org/2000/svg" xmlns:xlink="http://www.w3.org/1999/xlink">
	<desc>
			Created with Pixso.
	</desc>
	<defs/>
	<path id="Vector" d="M46.2 63.24C44.78 64.72 42.43 64.78 40.95 63.37C39.47 61.96 39.42 59.61 40.84 58.12C42.26 56.64 44.61 56.58 46.09 57.99C47.57 59.4 47.62 61.75 46.2 63.24Z" fill="#8E4DD5" fill-opacity="1.000000" fill-rule="evenodd"/>
	<path id="Vector" d="M41.63 39.38C40.96 40.08 39.85 40.11 39.15 39.44C38.45 38.77 38.43 37.66 39.1 36.96C39.77 36.26 40.88 36.23 41.58 36.9C42.28 37.57 42.3 38.68 41.63 39.38Z" fill="#8E4DD5" fill-opacity="1.000000" fill-rule="evenodd"/>
	<path id="Vector" d="M77.95 94.84L74.66 87.21L66.88 84.27L74.52 80.95L77.49 73.16L80.78 80.79L88.56 83.73L80.92 87.05L77.95 94.84Z" fill="#FFCC00" fill-opacity="1.000000" fill-rule="nonzero"/>
	<path id="Vector" d="M59.55 75.38L57.87 71.79L54.2 70.27L57.67 68.89L58.89 65.36L60.57 68.95L64.24 70.47L60.77 71.84L59.55 75.38Z" fill="#00A98F" fill-opacity="1.000000" fill-rule="nonzero"/>
	<path id="Vector" d="M58.78 41.56C58.23 42.62 56.94 43.03 55.89 42.49C54.84 41.95 54.43 40.66 54.98 39.61C55.52 38.56 56.81 38.14 57.86 38.68C58.91 39.22 59.32 40.51 58.78 41.56Z" fill="#FFFFFF" fill-opacity="1.000000" fill-rule="evenodd"/>
	<path id="Vector" d="M17.34 23.46C16.85 23.91 16.08 23.88 15.62 23.39C15.17 22.9 15.2 22.13 15.7 21.67C16.19 21.22 16.96 21.25 17.42 21.74C17.87 22.23 17.84 23 17.34 23.46Z" fill="#00A98F" fill-opacity="1.000000" fill-rule="evenodd"/>
	<path id="Vector" d="M54.68 46.33L52.46 41.39L47.37 39.55L52.32 37.3L54.18 32.2L56.39 37.14L61.48 38.98L56.54 41.22L54.68 46.33Z" fill="#FFCC00" fill-opacity="1.000000" fill-rule="nonzero"/>
	<path id="Vector" d="M17.16 36.16L15.69 33.77L12.95 33.16L15.35 31.69L15.97 28.96L17.44 31.35L20.18 31.96L17.78 33.42L17.16 36.16Z" fill="#FFCC00" fill-opacity="1.000000" fill-rule="nonzero"/>
	<path id="Vector" d="M11.42 18.48L10.25 16.58L8.06 16.09L9.98 14.92L10.47 12.75L11.64 14.65L13.83 15.14L11.91 16.3L11.42 18.48Z" fill="#8E4DD5" fill-opacity="1.000000" fill-rule="nonzero"/>
	<path id="Vector 207" d="M61.88 51.61L63.74 55.9L72.49 57.94L70.86 53.45L61.88 51.61Z" fill="#3897FF" fill-opacity="1.000000" fill-rule="evenodd"/>
	<path id="Vector 209" d="M28.09 34.58L24.98 37.51L25.92 45.62L29.28 42.83L28.09 34.58Z" fill="#3897FF" fill-opacity="1.000000" fill-rule="evenodd"/>
	<path id="Vector 211" d="M8.27 21.52L5.77 22.58L4.56 27.63L7.18 26.7L8.27 21.52Z" fill="#FFCC00" fill-opacity="1.000000" fill-rule="evenodd"/>
</svg>
