<svg width="144.205566" height="137.843750" viewBox="0 0 144.206 137.844" fill="none" xmlns="http://www.w3.org/2000/svg" xmlns:xlink="http://www.w3.org/1999/xlink">
	<desc>
			Created with Pixso.
	</desc>
	<defs/>
	<path id="Vector" d="M101.92 88.06C103.5 89.84 103.35 92.55 101.58 94.13C99.81 95.7 97.09 95.54 95.52 93.76C93.94 91.98 94.09 89.27 95.86 87.69C97.63 86.12 100.34 86.29 101.92 88.06Z" fill="#8E4DD5" fill-opacity="1.000000" fill-rule="evenodd"/>
	<path id="Vector" d="M73.97 91.08C74.72 91.92 74.65 93.2 73.81 93.95C72.98 94.69 71.69 94.61 70.95 93.77C70.2 92.93 70.27 91.65 71.11 90.91C71.94 90.16 73.23 90.24 73.97 91.08Z" fill="#8E4DD5" fill-opacity="1.000000" fill-rule="evenodd"/>
	<path id="Vector" d="M124.86 35.74L115.75 38.82L111.63 47.51L108.52 38.38L99.82 34.23L108.93 31.15L113.05 22.46L116.16 31.59L124.86 35.74Z" fill="#00A98F" fill-opacity="1.000000" fill-rule="nonzero"/>
	<path id="Vector" d="M113.97 62.39L109.67 64L107.57 68.09L106.31 63.95L102.35 62.21L106.65 60.61L108.75 56.52L110.01 60.66L113.97 62.39Z" fill="#00A98F" fill-opacity="1.000000" fill-rule="nonzero"/>
	<path id="Vector" d="M78.12 71.51C79.28 72.24 79.63 73.77 78.91 74.93C78.19 76.09 76.67 76.44 75.5 75.71C74.34 74.99 73.99 73.46 74.71 72.3C75.43 71.14 76.95 70.79 78.12 71.51Z" fill="#FFFFFF" fill-opacity="1.000000" fill-rule="evenodd"/>
	<path id="Vector" d="M41.8 106.46C42.46 106.87 42.67 107.74 42.26 108.4C41.85 109.06 40.98 109.26 40.32 108.84C39.66 108.43 39.45 107.56 39.86 106.9C40.27 106.24 41.14 106.04 41.8 106.46Z" fill="#00A98F" fill-opacity="1.000000" fill-rule="evenodd"/>
	<path id="Vector" d="M105.1 21.67L94.97 21.96L88.13 29.43L87.81 19.29L80.32 12.42L90.45 12.14L97.28 4.67L97.61 14.81L105.1 21.67Z" fill="#3897FF" fill-opacity="1.000000" fill-rule="nonzero"/>
	<path id="Vector" d="M74.67 74.21L68.76 76.3L66.15 81.99L64.04 76.08L58.32 73.45L64.23 71.36L66.83 65.67L68.95 71.58L74.67 74.21Z" fill="#FFCC00" fill-opacity="1.000000" fill-rule="nonzero"/>
	<path id="Vector" d="M56.02 102.76L53.81 105.13L53.97 108.38L51.6 106.15L48.36 106.3L50.57 103.93L50.41 100.68L52.78 102.9L56.02 102.76Z" fill="#FFCC00" fill-opacity="1.000000" fill-rule="nonzero"/>
	<path id="Vector" d="M38.08 114.6L36.31 116.49L36.44 119.08L34.55 117.3L31.97 117.42L33.73 115.53L33.6 112.94L35.49 114.72L38.08 114.6Z" fill="#8E4DD5" fill-opacity="1.000000" fill-rule="nonzero"/>
	<path id="Vector 207" d="M87.6 69.62L90.67 64.39L86.11 53.67L82.65 58.81L87.6 69.62Z" fill="#00A98F" fill-opacity="1.000000" fill-rule="evenodd"/>
	<path id="Vector 209" d="M67.16 106.25L70.25 110.11L79.69 109.79L76.79 105.65L67.16 106.25Z" fill="#3897FF" fill-opacity="1.000000" fill-rule="evenodd"/>
	<path id="Vector 211" d="M42.43 117.17L44.38 119.63L50.39 119.43L48.54 116.8L42.43 117.17Z" fill="#FFCC00" fill-opacity="1.000000" fill-rule="evenodd"/>
</svg>
