<svg width="54.815430" height="101.423248" viewBox="0 0 54.8154 101.423" fill="none" xmlns="http://www.w3.org/2000/svg" xmlns:xlink="http://www.w3.org/1999/xlink">
	<desc>
			Created with Pixso.
	</desc>
	<defs/>
	<path id="Vector" d="M5.18 65.65C3.03 65.66 1.28 63.95 1.26 61.81C1.25 59.67 2.97 57.93 5.11 57.91C7.26 57.89 9.01 59.61 9.03 61.75C9.05 63.88 7.32 65.63 5.18 65.65Z" fill="#8E4DD5" fill-opacity="1.000000" fill-rule="evenodd"/>
	<path id="Vector" d="M19.73 44.87C18.72 44.88 17.89 44.07 17.88 43.06C17.88 42.05 18.69 41.23 19.7 41.22C20.72 41.21 21.54 42.02 21.55 43.03C21.56 44.04 20.75 44.87 19.73 44.87Z" fill="#8E4DD5" fill-opacity="1.000000" fill-rule="evenodd"/>
	<path id="Vector" d="M35.85 100.95L39.17 92.93L35.71 84.97L43.76 88.28L51.75 84.84L48.43 92.86L51.88 100.82L43.84 97.51L35.85 100.95Z" fill="#FFCC00" fill-opacity="1.000000" fill-rule="nonzero"/>
	<path id="Vector" d="M15.45 89.08L16.92 85.2L15.39 81.35L18.95 82.95L22.48 81.29L21.01 85.17L22.54 89.02L18.98 87.42L15.45 89.08Z" fill="#00A98F" fill-opacity="1.000000" fill-rule="nonzero"/>
	<path id="Vector" d="M30.56 59.31C29.38 59.67 28.13 59 27.77 57.82C27.41 56.65 28.08 55.4 29.26 55.04C30.44 54.69 31.69 55.35 32.05 56.53C32.41 57.71 31.74 58.95 30.56 59.31Z" fill="#FFFFFF" fill-opacity="1.000000" fill-rule="evenodd"/>
	<path id="Vector" d="M28.41 13.89C27.73 14.1 27.02 13.72 26.82 13.05C26.61 12.38 26.99 11.67 27.67 11.46C28.34 11.26 29.05 11.64 29.25 12.31C29.46 12.98 29.08 13.69 28.41 13.89Z" fill="#00A98F" fill-opacity="1.000000" fill-rule="evenodd"/>
	<path id="Vector" d="M30.78 55.37L32.87 50.12L30.55 44.97L35.83 47.04L41.01 44.72L38.91 49.97L41.23 55.12L35.96 53.05L30.78 55.37Z" fill="#FFCC00" fill-opacity="1.000000" fill-rule="nonzero"/>
	<path id="Vector" d="M22.47 25.75L22.17 22.84L19.87 21.02L22.79 20.73L24.62 18.44L24.91 21.35L27.21 23.17L24.29 23.46L22.47 25.75Z" fill="#FFCC00" fill-opacity="1.000000" fill-rule="nonzero"/>
	<path id="Vector" d="M25.09 6.52L24.86 4.2L23.02 2.75L25.35 2.52L26.8 0.7L27.04 3.02L28.87 4.47L26.55 4.7L25.09 6.52Z" fill="#8E4DD5" fill-opacity="1.000000" fill-rule="nonzero"/>
	<path id="Vector 207" d="M26.21 66.88L27.93 72.07L37.93 75.34L36.49 69.94L26.21 66.88Z" fill="#00A98F" fill-opacity="1.000000" fill-rule="evenodd"/>
	<path id="Vector 209" d="M13.48 31.24L9.03 31.04L3.63 37.64L8.17 38.12L13.48 31.24Z" fill="#3897FF" fill-opacity="1.000000" fill-rule="evenodd"/>
	<path id="Vector 211" d="M20.76 7.95L17.93 7.82L14.5 12.01L17.38 12.32L20.76 7.95Z" fill="#FFCC00" fill-opacity="1.000000" fill-rule="evenodd"/>
</svg>
