<svg width="329" height="249" viewBox="0 0 329 249" fill="none" xmlns="http://www.w3.org/2000/svg">
<rect x="0.0512695" y="16.0869" width="22.7504" height="22.7504" rx="5.09665" transform="rotate(-45 0.0512695 16.0869)" fill="url(#paint0_radial_1071_920)" fill-opacity="0.2"/>
<rect x="42.4263" y="16.0869" width="22.7504" height="22.7504" rx="5.09665" transform="rotate(-45 42.4263 16.0869)" fill="url(#paint1_radial_1071_920)" fill-opacity="0.2"/>
<rect x="84.7856" y="16.0869" width="22.7504" height="22.7504" rx="5.09665" transform="rotate(-45 84.7856 16.0869)" fill="url(#paint2_radial_1071_920)" fill-opacity="0.2"/>
<rect x="127.161" y="16.0869" width="22.7504" height="22.7504" rx="5.09665" transform="rotate(-45 127.161 16.0869)" fill="url(#paint3_radial_1071_920)" fill-opacity="0.2"/>
<rect x="169.528" y="16.0869" width="22.7504" height="22.7504" rx="5.09665" transform="rotate(-45 169.528 16.0869)" fill="url(#paint4_radial_1071_920)" fill-opacity="0.2"/>
<rect x="211.895" y="16.0869" width="22.7504" height="22.7504" rx="5.09665" transform="rotate(-45 211.895 16.0869)" fill="url(#paint5_radial_1071_920)" fill-opacity="0.2"/>
<rect x="254.262" y="16.0869" width="22.7504" height="22.7504" rx="5.09665" transform="rotate(-45 254.262 16.0869)" fill="url(#paint6_radial_1071_920)" fill-opacity="0.2"/>
<rect x="296.629" y="16.0869" width="22.7504" height="22.7504" rx="5.09665" transform="rotate(-45 296.629 16.0869)" fill="url(#paint7_radial_1071_920)" fill-opacity="0.2"/>
<rect x="0.0512695" y="102.73" width="22.7504" height="22.7504" rx="5.09665" transform="rotate(-45 0.0512695 102.73)" fill="url(#paint8_radial_1071_920)" fill-opacity="0.2"/>
<rect x="42.4263" y="102.73" width="22.7504" height="22.7504" rx="5.09665" transform="rotate(-45 42.4263 102.73)" fill="url(#paint9_radial_1071_920)" fill-opacity="0.2"/>
<rect x="84.7856" y="102.73" width="22.7504" height="22.7504" rx="5.09665" transform="rotate(-45 84.7856 102.73)" fill="url(#paint10_radial_1071_920)" fill-opacity="0.2"/>
<rect x="127.161" y="102.73" width="22.7504" height="22.7504" rx="5.09665" transform="rotate(-45 127.161 102.73)" fill="url(#paint11_radial_1071_920)" fill-opacity="0.2"/>
<rect x="169.528" y="102.73" width="22.7504" height="22.7504" rx="5.09665" transform="rotate(-45 169.528 102.73)" fill="url(#paint12_radial_1071_920)" fill-opacity="0.2"/>
<rect x="211.895" y="102.73" width="22.7504" height="22.7504" rx="5.09665" transform="rotate(-45 211.895 102.73)" fill="url(#paint13_radial_1071_920)" fill-opacity="0.2"/>
<rect x="254.262" y="102.73" width="22.7504" height="22.7504" rx="5.09665" transform="rotate(-45 254.262 102.73)" fill="url(#paint14_radial_1071_920)" fill-opacity="0.2"/>
<rect x="296.629" y="102.73" width="22.7504" height="22.7504" rx="5.09665" transform="rotate(-45 296.629 102.73)" fill="url(#paint15_radial_1071_920)" fill-opacity="0.2"/>
<rect x="0.0512695" y="189.373" width="22.7504" height="22.7504" rx="5.09665" transform="rotate(-45 0.0512695 189.373)" fill="url(#paint16_radial_1071_920)" fill-opacity="0.2"/>
<rect x="42.4263" y="189.373" width="22.7504" height="22.7504" rx="5.09665" transform="rotate(-45 42.4263 189.373)" fill="url(#paint17_radial_1071_920)" fill-opacity="0.2"/>
<rect x="84.7856" y="189.373" width="22.7504" height="22.7504" rx="5.09665" transform="rotate(-45 84.7856 189.373)" fill="url(#paint18_radial_1071_920)" fill-opacity="0.2"/>
<rect x="127.161" y="189.373" width="22.7504" height="22.7504" rx="5.09665" transform="rotate(-45 127.161 189.373)" fill="url(#paint19_radial_1071_920)" fill-opacity="0.2"/>
<rect x="169.528" y="189.373" width="22.7504" height="22.7504" rx="5.09665" transform="rotate(-45 169.528 189.373)" fill="url(#paint20_radial_1071_920)" fill-opacity="0.2"/>
<rect x="211.895" y="189.373" width="22.7504" height="22.7504" rx="5.09665" transform="rotate(-45 211.895 189.373)" fill="url(#paint21_radial_1071_920)" fill-opacity="0.2"/>
<rect x="254.262" y="189.373" width="22.7504" height="22.7504" rx="5.09665" transform="rotate(-45 254.262 189.373)" fill="url(#paint22_radial_1071_920)" fill-opacity="0.2"/>
<rect x="296.629" y="189.373" width="22.7504" height="22.7504" rx="5.09665" transform="rotate(-45 296.629 189.373)" fill="url(#paint23_radial_1071_920)" fill-opacity="0.2"/>
<rect x="0.0512695" y="59.4084" width="22.7504" height="22.7504" rx="5.09665" transform="rotate(-45 0.0512695 59.4084)" fill="url(#paint24_radial_1071_920)" fill-opacity="0.2"/>
<rect x="42.4263" y="59.4084" width="22.7504" height="22.7504" rx="5.09665" transform="rotate(-45 42.4263 59.4084)" fill="url(#paint25_radial_1071_920)" fill-opacity="0.2"/>
<rect x="84.7856" y="59.4084" width="22.7504" height="22.7504" rx="5.09665" transform="rotate(-45 84.7856 59.4084)" fill="url(#paint26_radial_1071_920)" fill-opacity="0.2"/>
<rect x="127.161" y="59.4084" width="22.7504" height="22.7504" rx="5.09665" transform="rotate(-45 127.161 59.4084)" fill="url(#paint27_radial_1071_920)" fill-opacity="0.2"/>
<rect x="169.528" y="59.4084" width="22.7504" height="22.7504" rx="5.09665" transform="rotate(-45 169.528 59.4084)" fill="url(#paint28_radial_1071_920)" fill-opacity="0.2"/>
<rect x="211.895" y="59.4084" width="22.7504" height="22.7504" rx="5.09665" transform="rotate(-45 211.895 59.4084)" fill="url(#paint29_radial_1071_920)" fill-opacity="0.2"/>
<rect x="254.262" y="59.4084" width="22.7504" height="22.7504" rx="5.09665" transform="rotate(-45 254.262 59.4084)" fill="url(#paint30_radial_1071_920)" fill-opacity="0.2"/>
<rect x="296.629" y="59.4084" width="22.7504" height="22.7504" rx="5.09665" transform="rotate(-45 296.629 59.4084)" fill="url(#paint31_radial_1071_920)" fill-opacity="0.2"/>
<rect x="0.0512695" y="146.052" width="22.7504" height="22.7504" rx="5.09665" transform="rotate(-45 0.0512695 146.052)" fill="url(#paint32_radial_1071_920)" fill-opacity="0.2"/>
<rect x="42.4263" y="146.052" width="22.7504" height="22.7504" rx="5.09665" transform="rotate(-45 42.4263 146.052)" fill="url(#paint33_radial_1071_920)" fill-opacity="0.2"/>
<rect x="84.7856" y="146.052" width="22.7504" height="22.7504" rx="5.09665" transform="rotate(-45 84.7856 146.052)" fill="url(#paint34_radial_1071_920)" fill-opacity="0.2"/>
<rect x="127.161" y="146.052" width="22.7504" height="22.7504" rx="5.09665" transform="rotate(-45 127.161 146.052)" fill="url(#paint35_radial_1071_920)" fill-opacity="0.2"/>
<rect x="169.528" y="146.052" width="22.7504" height="22.7504" rx="5.09665" transform="rotate(-45 169.528 146.052)" fill="url(#paint36_radial_1071_920)" fill-opacity="0.2"/>
<rect x="211.895" y="146.052" width="22.7504" height="22.7504" rx="5.09665" transform="rotate(-45 211.895 146.052)" fill="url(#paint37_radial_1071_920)" fill-opacity="0.2"/>
<rect x="254.262" y="146.052" width="22.7504" height="22.7504" rx="5.09665" transform="rotate(-45 254.262 146.052)" fill="url(#paint38_radial_1071_920)" fill-opacity="0.2"/>
<rect x="296.629" y="146.052" width="22.7504" height="22.7504" rx="5.09665" transform="rotate(-45 296.629 146.052)" fill="url(#paint39_radial_1071_920)" fill-opacity="0.2"/>
<rect x="0.0512695" y="232.695" width="22.7504" height="22.7504" rx="5.09665" transform="rotate(-45 0.0512695 232.695)" fill="url(#paint40_radial_1071_920)" fill-opacity="0.2"/>
<rect x="42.4263" y="232.695" width="22.7504" height="22.7504" rx="5.09665" transform="rotate(-45 42.4263 232.695)" fill="url(#paint41_radial_1071_920)" fill-opacity="0.2"/>
<rect x="84.7856" y="232.695" width="22.7504" height="22.7504" rx="5.09665" transform="rotate(-45 84.7856 232.695)" fill="url(#paint42_radial_1071_920)" fill-opacity="0.2"/>
<rect x="127.161" y="232.695" width="22.7504" height="22.7504" rx="5.09665" transform="rotate(-45 127.161 232.695)" fill="url(#paint43_radial_1071_920)" fill-opacity="0.2"/>
<rect x="169.528" y="232.695" width="22.7504" height="22.7504" rx="5.09665" transform="rotate(-45 169.528 232.695)" fill="url(#paint44_radial_1071_920)" fill-opacity="0.2"/>
<rect x="211.895" y="232.695" width="22.7504" height="22.7504" rx="5.09665" transform="rotate(-45 211.895 232.695)" fill="url(#paint45_radial_1071_920)" fill-opacity="0.2"/>
<rect x="254.262" y="232.695" width="22.7504" height="22.7504" rx="5.09665" transform="rotate(-45 254.262 232.695)" fill="url(#paint46_radial_1071_920)" fill-opacity="0.2"/>
<rect x="296.629" y="232.695" width="22.7504" height="22.7504" rx="5.09665" transform="rotate(-45 296.629 232.695)" fill="url(#paint47_radial_1071_920)" fill-opacity="0.2"/>
<defs>
<radialGradient id="paint0_radial_1071_920" cx="0" cy="0" r="1" gradientUnits="userSpaceOnUse" gradientTransform="translate(11.4265 27.4621) rotate(85.3036) scale(21.8029)">
<stop stop-color="white"/>
<stop offset="1" stop-color="#FAFAFA"/>
</radialGradient>
<radialGradient id="paint1_radial_1071_920" cx="0" cy="0" r="1" gradientUnits="userSpaceOnUse" gradientTransform="translate(53.8015 27.4621) rotate(85.3036) scale(21.8029)">
<stop stop-color="white"/>
<stop offset="1" stop-color="#FAFAFA"/>
</radialGradient>
<radialGradient id="paint2_radial_1071_920" cx="0" cy="0" r="1" gradientUnits="userSpaceOnUse" gradientTransform="translate(96.1608 27.4621) rotate(85.3036) scale(21.8029)">
<stop stop-color="white"/>
<stop offset="1" stop-color="#FAFAFA"/>
</radialGradient>
<radialGradient id="paint3_radial_1071_920" cx="0" cy="0" r="1" gradientUnits="userSpaceOnUse" gradientTransform="translate(138.536 27.4621) rotate(85.3036) scale(21.8029)">
<stop stop-color="white"/>
<stop offset="1" stop-color="#FAFAFA"/>
</radialGradient>
<radialGradient id="paint4_radial_1071_920" cx="0" cy="0" r="1" gradientUnits="userSpaceOnUse" gradientTransform="translate(180.903 27.4621) rotate(85.3036) scale(21.8029)">
<stop stop-color="white"/>
<stop offset="1" stop-color="#FAFAFA"/>
</radialGradient>
<radialGradient id="paint5_radial_1071_920" cx="0" cy="0" r="1" gradientUnits="userSpaceOnUse" gradientTransform="translate(223.27 27.4621) rotate(85.3036) scale(21.8029)">
<stop stop-color="white"/>
<stop offset="1" stop-color="#FAFAFA"/>
</radialGradient>
<radialGradient id="paint6_radial_1071_920" cx="0" cy="0" r="1" gradientUnits="userSpaceOnUse" gradientTransform="translate(265.637 27.4621) rotate(85.3036) scale(21.8029)">
<stop stop-color="white"/>
<stop offset="1" stop-color="#FAFAFA"/>
</radialGradient>
<radialGradient id="paint7_radial_1071_920" cx="0" cy="0" r="1" gradientUnits="userSpaceOnUse" gradientTransform="translate(308.005 27.4621) rotate(85.3036) scale(21.8029)">
<stop stop-color="white"/>
<stop offset="1" stop-color="#FAFAFA"/>
</radialGradient>
<radialGradient id="paint8_radial_1071_920" cx="0" cy="0" r="1" gradientUnits="userSpaceOnUse" gradientTransform="translate(11.4265 114.105) rotate(85.3036) scale(21.8029)">
<stop stop-color="white"/>
<stop offset="1" stop-color="#FAFAFA"/>
</radialGradient>
<radialGradient id="paint9_radial_1071_920" cx="0" cy="0" r="1" gradientUnits="userSpaceOnUse" gradientTransform="translate(53.8015 114.105) rotate(85.3036) scale(21.8029)">
<stop stop-color="white"/>
<stop offset="1" stop-color="#FAFAFA"/>
</radialGradient>
<radialGradient id="paint10_radial_1071_920" cx="0" cy="0" r="1" gradientUnits="userSpaceOnUse" gradientTransform="translate(96.1608 114.105) rotate(85.3036) scale(21.8029)">
<stop stop-color="white"/>
<stop offset="1" stop-color="#FAFAFA"/>
</radialGradient>
<radialGradient id="paint11_radial_1071_920" cx="0" cy="0" r="1" gradientUnits="userSpaceOnUse" gradientTransform="translate(138.536 114.105) rotate(85.3036) scale(21.8029)">
<stop stop-color="white"/>
<stop offset="1" stop-color="#FAFAFA"/>
</radialGradient>
<radialGradient id="paint12_radial_1071_920" cx="0" cy="0" r="1" gradientUnits="userSpaceOnUse" gradientTransform="translate(180.903 114.105) rotate(85.3036) scale(21.8029)">
<stop stop-color="white"/>
<stop offset="1" stop-color="#FAFAFA"/>
</radialGradient>
<radialGradient id="paint13_radial_1071_920" cx="0" cy="0" r="1" gradientUnits="userSpaceOnUse" gradientTransform="translate(223.27 114.105) rotate(85.3036) scale(21.8029)">
<stop stop-color="white"/>
<stop offset="1" stop-color="#FAFAFA"/>
</radialGradient>
<radialGradient id="paint14_radial_1071_920" cx="0" cy="0" r="1" gradientUnits="userSpaceOnUse" gradientTransform="translate(265.637 114.105) rotate(85.3036) scale(21.8029)">
<stop stop-color="white"/>
<stop offset="1" stop-color="#FAFAFA"/>
</radialGradient>
<radialGradient id="paint15_radial_1071_920" cx="0" cy="0" r="1" gradientUnits="userSpaceOnUse" gradientTransform="translate(308.005 114.105) rotate(85.3036) scale(21.8029)">
<stop stop-color="white"/>
<stop offset="1" stop-color="#FAFAFA"/>
</radialGradient>
<radialGradient id="paint16_radial_1071_920" cx="0" cy="0" r="1" gradientUnits="userSpaceOnUse" gradientTransform="translate(11.4265 200.748) rotate(85.3036) scale(21.8029)">
<stop stop-color="white"/>
<stop offset="1" stop-color="#FAFAFA"/>
</radialGradient>
<radialGradient id="paint17_radial_1071_920" cx="0" cy="0" r="1" gradientUnits="userSpaceOnUse" gradientTransform="translate(53.8015 200.748) rotate(85.3036) scale(21.8029)">
<stop stop-color="white"/>
<stop offset="1" stop-color="#FAFAFA"/>
</radialGradient>
<radialGradient id="paint18_radial_1071_920" cx="0" cy="0" r="1" gradientUnits="userSpaceOnUse" gradientTransform="translate(96.1608 200.748) rotate(85.3036) scale(21.8029)">
<stop stop-color="white"/>
<stop offset="1" stop-color="#FAFAFA"/>
</radialGradient>
<radialGradient id="paint19_radial_1071_920" cx="0" cy="0" r="1" gradientUnits="userSpaceOnUse" gradientTransform="translate(138.536 200.748) rotate(85.3036) scale(21.8029)">
<stop stop-color="white"/>
<stop offset="1" stop-color="#FAFAFA"/>
</radialGradient>
<radialGradient id="paint20_radial_1071_920" cx="0" cy="0" r="1" gradientUnits="userSpaceOnUse" gradientTransform="translate(180.903 200.748) rotate(85.3036) scale(21.8029)">
<stop stop-color="white"/>
<stop offset="1" stop-color="#FAFAFA"/>
</radialGradient>
<radialGradient id="paint21_radial_1071_920" cx="0" cy="0" r="1" gradientUnits="userSpaceOnUse" gradientTransform="translate(223.27 200.748) rotate(85.3036) scale(21.8029)">
<stop stop-color="white"/>
<stop offset="1" stop-color="#FAFAFA"/>
</radialGradient>
<radialGradient id="paint22_radial_1071_920" cx="0" cy="0" r="1" gradientUnits="userSpaceOnUse" gradientTransform="translate(265.637 200.748) rotate(85.3036) scale(21.8029)">
<stop stop-color="white"/>
<stop offset="1" stop-color="#FAFAFA"/>
</radialGradient>
<radialGradient id="paint23_radial_1071_920" cx="0" cy="0" r="1" gradientUnits="userSpaceOnUse" gradientTransform="translate(308.005 200.748) rotate(85.3036) scale(21.8029)">
<stop stop-color="white"/>
<stop offset="1" stop-color="#FAFAFA"/>
</radialGradient>
<radialGradient id="paint24_radial_1071_920" cx="0" cy="0" r="1" gradientUnits="userSpaceOnUse" gradientTransform="translate(11.4265 70.7836) rotate(85.3036) scale(21.8029)">
<stop stop-color="white"/>
<stop offset="1" stop-color="#FAFAFA"/>
</radialGradient>
<radialGradient id="paint25_radial_1071_920" cx="0" cy="0" r="1" gradientUnits="userSpaceOnUse" gradientTransform="translate(53.8015 70.7836) rotate(85.3036) scale(21.8029)">
<stop stop-color="white"/>
<stop offset="1" stop-color="#FAFAFA"/>
</radialGradient>
<radialGradient id="paint26_radial_1071_920" cx="0" cy="0" r="1" gradientUnits="userSpaceOnUse" gradientTransform="translate(96.1608 70.7836) rotate(85.3036) scale(21.8029)">
<stop stop-color="white"/>
<stop offset="1" stop-color="#FAFAFA"/>
</radialGradient>
<radialGradient id="paint27_radial_1071_920" cx="0" cy="0" r="1" gradientUnits="userSpaceOnUse" gradientTransform="translate(138.536 70.7836) rotate(85.3036) scale(21.8029)">
<stop stop-color="white"/>
<stop offset="1" stop-color="#FAFAFA"/>
</radialGradient>
<radialGradient id="paint28_radial_1071_920" cx="0" cy="0" r="1" gradientUnits="userSpaceOnUse" gradientTransform="translate(180.903 70.7836) rotate(85.3036) scale(21.8029)">
<stop stop-color="white"/>
<stop offset="1" stop-color="#FAFAFA"/>
</radialGradient>
<radialGradient id="paint29_radial_1071_920" cx="0" cy="0" r="1" gradientUnits="userSpaceOnUse" gradientTransform="translate(223.27 70.7836) rotate(85.3036) scale(21.8029)">
<stop stop-color="white"/>
<stop offset="1" stop-color="#FAFAFA"/>
</radialGradient>
<radialGradient id="paint30_radial_1071_920" cx="0" cy="0" r="1" gradientUnits="userSpaceOnUse" gradientTransform="translate(265.637 70.7836) rotate(85.3036) scale(21.8029)">
<stop stop-color="white"/>
<stop offset="1" stop-color="#FAFAFA"/>
</radialGradient>
<radialGradient id="paint31_radial_1071_920" cx="0" cy="0" r="1" gradientUnits="userSpaceOnUse" gradientTransform="translate(308.005 70.7836) rotate(85.3036) scale(21.8029)">
<stop stop-color="white"/>
<stop offset="1" stop-color="#FAFAFA"/>
</radialGradient>
<radialGradient id="paint32_radial_1071_920" cx="0" cy="0" r="1" gradientUnits="userSpaceOnUse" gradientTransform="translate(11.4265 157.427) rotate(85.3036) scale(21.8029)">
<stop stop-color="white"/>
<stop offset="1" stop-color="#FAFAFA"/>
</radialGradient>
<radialGradient id="paint33_radial_1071_920" cx="0" cy="0" r="1" gradientUnits="userSpaceOnUse" gradientTransform="translate(53.8015 157.427) rotate(85.3036) scale(21.8029)">
<stop stop-color="white"/>
<stop offset="1" stop-color="#FAFAFA"/>
</radialGradient>
<radialGradient id="paint34_radial_1071_920" cx="0" cy="0" r="1" gradientUnits="userSpaceOnUse" gradientTransform="translate(96.1608 157.427) rotate(85.3036) scale(21.8029)">
<stop stop-color="white"/>
<stop offset="1" stop-color="#FAFAFA"/>
</radialGradient>
<radialGradient id="paint35_radial_1071_920" cx="0" cy="0" r="1" gradientUnits="userSpaceOnUse" gradientTransform="translate(138.536 157.427) rotate(85.3036) scale(21.8029)">
<stop stop-color="white"/>
<stop offset="1" stop-color="#FAFAFA"/>
</radialGradient>
<radialGradient id="paint36_radial_1071_920" cx="0" cy="0" r="1" gradientUnits="userSpaceOnUse" gradientTransform="translate(180.903 157.427) rotate(85.3036) scale(21.8029)">
<stop stop-color="white"/>
<stop offset="1" stop-color="#FAFAFA"/>
</radialGradient>
<radialGradient id="paint37_radial_1071_920" cx="0" cy="0" r="1" gradientUnits="userSpaceOnUse" gradientTransform="translate(223.27 157.427) rotate(85.3036) scale(21.8029)">
<stop stop-color="white"/>
<stop offset="1" stop-color="#FAFAFA"/>
</radialGradient>
<radialGradient id="paint38_radial_1071_920" cx="0" cy="0" r="1" gradientUnits="userSpaceOnUse" gradientTransform="translate(265.637 157.427) rotate(85.3036) scale(21.8029)">
<stop stop-color="white"/>
<stop offset="1" stop-color="#FAFAFA"/>
</radialGradient>
<radialGradient id="paint39_radial_1071_920" cx="0" cy="0" r="1" gradientUnits="userSpaceOnUse" gradientTransform="translate(308.005 157.427) rotate(85.3036) scale(21.8029)">
<stop stop-color="white"/>
<stop offset="1" stop-color="#FAFAFA"/>
</radialGradient>
<radialGradient id="paint40_radial_1071_920" cx="0" cy="0" r="1" gradientUnits="userSpaceOnUse" gradientTransform="translate(11.4265 244.07) rotate(85.3036) scale(21.8029)">
<stop stop-color="white"/>
<stop offset="1" stop-color="#FAFAFA"/>
</radialGradient>
<radialGradient id="paint41_radial_1071_920" cx="0" cy="0" r="1" gradientUnits="userSpaceOnUse" gradientTransform="translate(53.8015 244.07) rotate(85.3036) scale(21.8029)">
<stop stop-color="white"/>
<stop offset="1" stop-color="#FAFAFA"/>
</radialGradient>
<radialGradient id="paint42_radial_1071_920" cx="0" cy="0" r="1" gradientUnits="userSpaceOnUse" gradientTransform="translate(96.1608 244.07) rotate(85.3036) scale(21.8029)">
<stop stop-color="white"/>
<stop offset="1" stop-color="#FAFAFA"/>
</radialGradient>
<radialGradient id="paint43_radial_1071_920" cx="0" cy="0" r="1" gradientUnits="userSpaceOnUse" gradientTransform="translate(138.536 244.07) rotate(85.3036) scale(21.8029)">
<stop stop-color="white"/>
<stop offset="1" stop-color="#FAFAFA"/>
</radialGradient>
<radialGradient id="paint44_radial_1071_920" cx="0" cy="0" r="1" gradientUnits="userSpaceOnUse" gradientTransform="translate(180.903 244.07) rotate(85.3036) scale(21.8029)">
<stop stop-color="white"/>
<stop offset="1" stop-color="#FAFAFA"/>
</radialGradient>
<radialGradient id="paint45_radial_1071_920" cx="0" cy="0" r="1" gradientUnits="userSpaceOnUse" gradientTransform="translate(223.27 244.07) rotate(85.3036) scale(21.8029)">
<stop stop-color="white"/>
<stop offset="1" stop-color="#FAFAFA"/>
</radialGradient>
<radialGradient id="paint46_radial_1071_920" cx="0" cy="0" r="1" gradientUnits="userSpaceOnUse" gradientTransform="translate(265.637 244.07) rotate(85.3036) scale(21.8029)">
<stop stop-color="white"/>
<stop offset="1" stop-color="#FAFAFA"/>
</radialGradient>
<radialGradient id="paint47_radial_1071_920" cx="0" cy="0" r="1" gradientUnits="userSpaceOnUse" gradientTransform="translate(308.005 244.07) rotate(85.3036) scale(21.8029)">
<stop stop-color="white"/>
<stop offset="1" stop-color="#FAFAFA"/>
</radialGradient>
</defs>
</svg>
