<svg width="86.706543" height="79.818115" viewBox="0 0 86.7065 79.8181" fill="none" xmlns="http://www.w3.org/2000/svg" xmlns:xlink="http://www.w3.org/1999/xlink">
	<desc>
			Created with Pixso.
	</desc>
	<defs/>
	<path id="Vector" d="M63.44 22.12C62.04 20.06 62.58 17.26 64.64 15.87C66.69 14.47 69.49 15.01 70.89 17.06C72.28 19.12 71.75 21.92 69.69 23.31C67.63 24.71 64.83 24.17 63.44 22.12Z" fill="#8E4DD5" fill-opacity="1.000000" fill-rule="evenodd"/>
	<path id="Vector" d="M29.88 42.19C29.11 41.05 29.41 39.49 30.55 38.72C31.69 37.94 33.25 38.24 34.02 39.38C34.8 40.52 34.5 42.08 33.36 42.85C32.21 43.63 30.66 43.33 29.88 42.19Z" fill="#8E4DD5" fill-opacity="1.000000" fill-rule="evenodd"/>
	<path id="Vector" d="M27.94 20.92L35.4 19.44L39.53 13.06L41.01 20.51L47.39 24.64L39.94 26.13L35.81 32.5L34.32 25.05L27.94 20.92Z" fill="#FFCC00" fill-opacity="1.000000" fill-rule="nonzero"/>
	<path id="Vector" d="M2.83 35.99L9.85 36.7L15.25 32.16L14.54 39.18L19.08 44.59L12.06 43.88L6.65 48.42L7.36 41.4L2.83 35.99Z" fill="#3897FF" fill-opacity="1.000000" fill-rule="nonzero"/>
	<path id="Vector" d="M22.52 73.22L26.37 71.2L27.61 67.04L29.62 70.88L33.78 72.12L29.94 74.14L28.7 78.3L26.69 74.45L22.52 73.22Z" fill="#00A98F" fill-opacity="1.000000" fill-rule="nonzero"/>
</svg>
