<svg width="193" height="146" viewBox="0 0 193 146" fill="none" xmlns="http://www.w3.org/2000/svg">
<rect x="0.0512695" y="9.44092" width="13.3513" height="13.3513" rx="2.99102" transform="rotate(-45 0.0512695 9.44092)" fill="url(#paint0_radial_1071_975)" fill-opacity="0.2"/>
<rect x="24.9185" y="9.44092" width="13.3513" height="13.3513" rx="2.99102" transform="rotate(-45 24.9185 9.44092)" fill="url(#paint1_radial_1071_975)" fill-opacity="0.2"/>
<rect x="49.7778" y="9.44092" width="13.3513" height="13.3513" rx="2.99102" transform="rotate(-45 49.7778 9.44092)" fill="url(#paint2_radial_1071_975)" fill-opacity="0.2"/>
<rect x="74.645" y="9.44092" width="13.3513" height="13.3513" rx="2.99102" transform="rotate(-45 74.645 9.44092)" fill="url(#paint3_radial_1071_975)" fill-opacity="0.2"/>
<rect x="99.5083" y="9.44092" width="13.3513" height="13.3513" rx="2.99102" transform="rotate(-45 99.5083 9.44092)" fill="url(#paint4_radial_1071_975)" fill-opacity="0.2"/>
<rect x="124.372" y="9.44092" width="13.3513" height="13.3513" rx="2.99102" transform="rotate(-45 124.372 9.44092)" fill="url(#paint5_radial_1071_975)" fill-opacity="0.2"/>
<rect x="149.239" y="9.44092" width="13.3513" height="13.3513" rx="2.99102" transform="rotate(-45 149.239 9.44092)" fill="url(#paint6_radial_1071_975)" fill-opacity="0.2"/>
<rect x="174.102" y="9.44092" width="13.3513" height="13.3513" rx="2.99102" transform="rotate(-45 174.102 9.44092)" fill="url(#paint7_radial_1071_975)" fill-opacity="0.2"/>
<rect x="0.0512695" y="60.2876" width="13.3513" height="13.3513" rx="2.99102" transform="rotate(-45 0.0512695 60.2876)" fill="url(#paint8_radial_1071_975)" fill-opacity="0.2"/>
<rect x="24.9185" y="60.2876" width="13.3513" height="13.3513" rx="2.99102" transform="rotate(-45 24.9185 60.2876)" fill="url(#paint9_radial_1071_975)" fill-opacity="0.2"/>
<rect x="49.7778" y="60.2876" width="13.3513" height="13.3513" rx="2.99102" transform="rotate(-45 49.7778 60.2876)" fill="url(#paint10_radial_1071_975)" fill-opacity="0.2"/>
<rect x="74.645" y="60.2876" width="13.3513" height="13.3513" rx="2.99102" transform="rotate(-45 74.645 60.2876)" fill="url(#paint11_radial_1071_975)" fill-opacity="0.2"/>
<rect x="99.5083" y="60.2876" width="13.3513" height="13.3513" rx="2.99102" transform="rotate(-45 99.5083 60.2876)" fill="url(#paint12_radial_1071_975)" fill-opacity="0.2"/>
<rect x="124.372" y="60.2876" width="13.3513" height="13.3513" rx="2.99102" transform="rotate(-45 124.372 60.2876)" fill="url(#paint13_radial_1071_975)" fill-opacity="0.2"/>
<rect x="149.239" y="60.2876" width="13.3513" height="13.3513" rx="2.99102" transform="rotate(-45 149.239 60.2876)" fill="url(#paint14_radial_1071_975)" fill-opacity="0.2"/>
<rect x="174.102" y="60.2876" width="13.3513" height="13.3513" rx="2.99102" transform="rotate(-45 174.102 60.2876)" fill="url(#paint15_radial_1071_975)" fill-opacity="0.2"/>
<rect x="0.0512695" y="111.135" width="13.3513" height="13.3513" rx="2.99102" transform="rotate(-45 0.0512695 111.135)" fill="url(#paint16_radial_1071_975)" fill-opacity="0.2"/>
<rect x="24.9185" y="111.135" width="13.3513" height="13.3513" rx="2.99102" transform="rotate(-45 24.9185 111.135)" fill="url(#paint17_radial_1071_975)" fill-opacity="0.2"/>
<rect x="49.7778" y="111.135" width="13.3513" height="13.3513" rx="2.99102" transform="rotate(-45 49.7778 111.135)" fill="url(#paint18_radial_1071_975)" fill-opacity="0.2"/>
<rect x="74.645" y="111.135" width="13.3513" height="13.3513" rx="2.99102" transform="rotate(-45 74.645 111.135)" fill="url(#paint19_radial_1071_975)" fill-opacity="0.2"/>
<rect x="99.5083" y="111.135" width="13.3513" height="13.3513" rx="2.99102" transform="rotate(-45 99.5083 111.135)" fill="url(#paint20_radial_1071_975)" fill-opacity="0.2"/>
<rect x="124.372" y="111.135" width="13.3513" height="13.3513" rx="2.99102" transform="rotate(-45 124.372 111.135)" fill="url(#paint21_radial_1071_975)" fill-opacity="0.2"/>
<rect x="149.239" y="111.135" width="13.3513" height="13.3513" rx="2.99102" transform="rotate(-45 149.239 111.135)" fill="url(#paint22_radial_1071_975)" fill-opacity="0.2"/>
<rect x="174.102" y="111.135" width="13.3513" height="13.3513" rx="2.99102" transform="rotate(-45 174.102 111.135)" fill="url(#paint23_radial_1071_975)" fill-opacity="0.2"/>
<rect x="0.0512695" y="34.865" width="13.3513" height="13.3513" rx="2.99102" transform="rotate(-45 0.0512695 34.865)" fill="url(#paint24_radial_1071_975)" fill-opacity="0.2"/>
<rect x="24.9185" y="34.865" width="13.3513" height="13.3513" rx="2.99102" transform="rotate(-45 24.9185 34.865)" fill="url(#paint25_radial_1071_975)" fill-opacity="0.2"/>
<rect x="49.7778" y="34.865" width="13.3513" height="13.3513" rx="2.99102" transform="rotate(-45 49.7778 34.865)" fill="url(#paint26_radial_1071_975)" fill-opacity="0.2"/>
<rect x="74.645" y="34.865" width="13.3513" height="13.3513" rx="2.99102" transform="rotate(-45 74.645 34.865)" fill="url(#paint27_radial_1071_975)" fill-opacity="0.2"/>
<rect x="99.5083" y="34.865" width="13.3513" height="13.3513" rx="2.99102" transform="rotate(-45 99.5083 34.865)" fill="url(#paint28_radial_1071_975)" fill-opacity="0.2"/>
<rect x="124.372" y="34.865" width="13.3513" height="13.3513" rx="2.99102" transform="rotate(-45 124.372 34.865)" fill="url(#paint29_radial_1071_975)" fill-opacity="0.2"/>
<rect x="149.239" y="34.865" width="13.3513" height="13.3513" rx="2.99102" transform="rotate(-45 149.239 34.865)" fill="url(#paint30_radial_1071_975)" fill-opacity="0.2"/>
<rect x="174.102" y="34.865" width="13.3513" height="13.3513" rx="2.99102" transform="rotate(-45 174.102 34.865)" fill="url(#paint31_radial_1071_975)" fill-opacity="0.2"/>
<rect x="0.0512695" y="85.7114" width="13.3513" height="13.3513" rx="2.99102" transform="rotate(-45 0.0512695 85.7114)" fill="url(#paint32_radial_1071_975)" fill-opacity="0.2"/>
<rect x="24.9185" y="85.7114" width="13.3513" height="13.3513" rx="2.99102" transform="rotate(-45 24.9185 85.7114)" fill="url(#paint33_radial_1071_975)" fill-opacity="0.2"/>
<rect x="49.7778" y="85.7114" width="13.3513" height="13.3513" rx="2.99102" transform="rotate(-45 49.7778 85.7114)" fill="url(#paint34_radial_1071_975)" fill-opacity="0.2"/>
<rect x="74.645" y="85.7114" width="13.3513" height="13.3513" rx="2.99102" transform="rotate(-45 74.645 85.7114)" fill="url(#paint35_radial_1071_975)" fill-opacity="0.2"/>
<rect x="99.5083" y="85.7114" width="13.3513" height="13.3513" rx="2.99102" transform="rotate(-45 99.5083 85.7114)" fill="url(#paint36_radial_1071_975)" fill-opacity="0.2"/>
<rect x="124.372" y="85.7114" width="13.3513" height="13.3513" rx="2.99102" transform="rotate(-45 124.372 85.7114)" fill="url(#paint37_radial_1071_975)" fill-opacity="0.2"/>
<rect x="149.239" y="85.7114" width="13.3513" height="13.3513" rx="2.99102" transform="rotate(-45 149.239 85.7114)" fill="url(#paint38_radial_1071_975)" fill-opacity="0.2"/>
<rect x="174.102" y="85.7114" width="13.3513" height="13.3513" rx="2.99102" transform="rotate(-45 174.102 85.7114)" fill="url(#paint39_radial_1071_975)" fill-opacity="0.2"/>
<rect x="0.0512695" y="136.559" width="13.3513" height="13.3513" rx="2.99102" transform="rotate(-45 0.0512695 136.559)" fill="url(#paint40_radial_1071_975)" fill-opacity="0.2"/>
<rect x="24.9185" y="136.559" width="13.3513" height="13.3513" rx="2.99102" transform="rotate(-45 24.9185 136.559)" fill="url(#paint41_radial_1071_975)" fill-opacity="0.2"/>
<rect x="49.7778" y="136.559" width="13.3513" height="13.3513" rx="2.99102" transform="rotate(-45 49.7778 136.559)" fill="url(#paint42_radial_1071_975)" fill-opacity="0.2"/>
<rect x="74.645" y="136.559" width="13.3513" height="13.3513" rx="2.99102" transform="rotate(-45 74.645 136.559)" fill="url(#paint43_radial_1071_975)" fill-opacity="0.2"/>
<rect x="99.5083" y="136.559" width="13.3513" height="13.3513" rx="2.99102" transform="rotate(-45 99.5083 136.559)" fill="url(#paint44_radial_1071_975)" fill-opacity="0.2"/>
<rect x="124.372" y="136.559" width="13.3513" height="13.3513" rx="2.99102" transform="rotate(-45 124.372 136.559)" fill="url(#paint45_radial_1071_975)" fill-opacity="0.2"/>
<rect x="149.239" y="136.559" width="13.3513" height="13.3513" rx="2.99102" transform="rotate(-45 149.239 136.559)" fill="url(#paint46_radial_1071_975)" fill-opacity="0.2"/>
<rect x="174.102" y="136.559" width="13.3513" height="13.3513" rx="2.99102" transform="rotate(-45 174.102 136.559)" fill="url(#paint47_radial_1071_975)" fill-opacity="0.2"/>
<defs>
<radialGradient id="paint0_radial_1071_975" cx="0" cy="0" r="1" gradientUnits="userSpaceOnUse" gradientTransform="translate(6.72692 16.1166) rotate(85.3036) scale(12.7953)">
<stop stop-color="white"/>
<stop offset="1" stop-color="#FAFAFA"/>
</radialGradient>
<radialGradient id="paint1_radial_1071_975" cx="0" cy="0" r="1" gradientUnits="userSpaceOnUse" gradientTransform="translate(31.5941 16.1166) rotate(85.3036) scale(12.7953)">
<stop stop-color="white"/>
<stop offset="1" stop-color="#FAFAFA"/>
</radialGradient>
<radialGradient id="paint2_radial_1071_975" cx="0" cy="0" r="1" gradientUnits="userSpaceOnUse" gradientTransform="translate(56.4535 16.1166) rotate(85.3036) scale(12.7953)">
<stop stop-color="white"/>
<stop offset="1" stop-color="#FAFAFA"/>
</radialGradient>
<radialGradient id="paint3_radial_1071_975" cx="0" cy="0" r="1" gradientUnits="userSpaceOnUse" gradientTransform="translate(81.3207 16.1166) rotate(85.3036) scale(12.7953)">
<stop stop-color="white"/>
<stop offset="1" stop-color="#FAFAFA"/>
</radialGradient>
<radialGradient id="paint4_radial_1071_975" cx="0" cy="0" r="1" gradientUnits="userSpaceOnUse" gradientTransform="translate(106.184 16.1166) rotate(85.3036) scale(12.7953)">
<stop stop-color="white"/>
<stop offset="1" stop-color="#FAFAFA"/>
</radialGradient>
<radialGradient id="paint5_radial_1071_975" cx="0" cy="0" r="1" gradientUnits="userSpaceOnUse" gradientTransform="translate(131.047 16.1166) rotate(85.3036) scale(12.7953)">
<stop stop-color="white"/>
<stop offset="1" stop-color="#FAFAFA"/>
</radialGradient>
<radialGradient id="paint6_radial_1071_975" cx="0" cy="0" r="1" gradientUnits="userSpaceOnUse" gradientTransform="translate(155.914 16.1166) rotate(85.3036) scale(12.7953)">
<stop stop-color="white"/>
<stop offset="1" stop-color="#FAFAFA"/>
</radialGradient>
<radialGradient id="paint7_radial_1071_975" cx="0" cy="0" r="1" gradientUnits="userSpaceOnUse" gradientTransform="translate(180.778 16.1166) rotate(85.3036) scale(12.7953)">
<stop stop-color="white"/>
<stop offset="1" stop-color="#FAFAFA"/>
</radialGradient>
<radialGradient id="paint8_radial_1071_975" cx="0" cy="0" r="1" gradientUnits="userSpaceOnUse" gradientTransform="translate(6.72692 66.9633) rotate(85.3036) scale(12.7953)">
<stop stop-color="white"/>
<stop offset="1" stop-color="#FAFAFA"/>
</radialGradient>
<radialGradient id="paint9_radial_1071_975" cx="0" cy="0" r="1" gradientUnits="userSpaceOnUse" gradientTransform="translate(31.5941 66.9633) rotate(85.3036) scale(12.7953)">
<stop stop-color="white"/>
<stop offset="1" stop-color="#FAFAFA"/>
</radialGradient>
<radialGradient id="paint10_radial_1071_975" cx="0" cy="0" r="1" gradientUnits="userSpaceOnUse" gradientTransform="translate(56.4535 66.9633) rotate(85.3036) scale(12.7953)">
<stop stop-color="white"/>
<stop offset="1" stop-color="#FAFAFA"/>
</radialGradient>
<radialGradient id="paint11_radial_1071_975" cx="0" cy="0" r="1" gradientUnits="userSpaceOnUse" gradientTransform="translate(81.3207 66.9633) rotate(85.3036) scale(12.7953)">
<stop stop-color="white"/>
<stop offset="1" stop-color="#FAFAFA"/>
</radialGradient>
<radialGradient id="paint12_radial_1071_975" cx="0" cy="0" r="1" gradientUnits="userSpaceOnUse" gradientTransform="translate(106.184 66.9633) rotate(85.3036) scale(12.7953)">
<stop stop-color="white"/>
<stop offset="1" stop-color="#FAFAFA"/>
</radialGradient>
<radialGradient id="paint13_radial_1071_975" cx="0" cy="0" r="1" gradientUnits="userSpaceOnUse" gradientTransform="translate(131.047 66.9633) rotate(85.3036) scale(12.7953)">
<stop stop-color="white"/>
<stop offset="1" stop-color="#FAFAFA"/>
</radialGradient>
<radialGradient id="paint14_radial_1071_975" cx="0" cy="0" r="1" gradientUnits="userSpaceOnUse" gradientTransform="translate(155.914 66.9633) rotate(85.3036) scale(12.7953)">
<stop stop-color="white"/>
<stop offset="1" stop-color="#FAFAFA"/>
</radialGradient>
<radialGradient id="paint15_radial_1071_975" cx="0" cy="0" r="1" gradientUnits="userSpaceOnUse" gradientTransform="translate(180.778 66.9633) rotate(85.3036) scale(12.7953)">
<stop stop-color="white"/>
<stop offset="1" stop-color="#FAFAFA"/>
</radialGradient>
<radialGradient id="paint16_radial_1071_975" cx="0" cy="0" r="1" gradientUnits="userSpaceOnUse" gradientTransform="translate(6.72692 117.81) rotate(85.3036) scale(12.7953)">
<stop stop-color="white"/>
<stop offset="1" stop-color="#FAFAFA"/>
</radialGradient>
<radialGradient id="paint17_radial_1071_975" cx="0" cy="0" r="1" gradientUnits="userSpaceOnUse" gradientTransform="translate(31.5941 117.81) rotate(85.3036) scale(12.7953)">
<stop stop-color="white"/>
<stop offset="1" stop-color="#FAFAFA"/>
</radialGradient>
<radialGradient id="paint18_radial_1071_975" cx="0" cy="0" r="1" gradientUnits="userSpaceOnUse" gradientTransform="translate(56.4535 117.81) rotate(85.3036) scale(12.7953)">
<stop stop-color="white"/>
<stop offset="1" stop-color="#FAFAFA"/>
</radialGradient>
<radialGradient id="paint19_radial_1071_975" cx="0" cy="0" r="1" gradientUnits="userSpaceOnUse" gradientTransform="translate(81.3207 117.81) rotate(85.3036) scale(12.7953)">
<stop stop-color="white"/>
<stop offset="1" stop-color="#FAFAFA"/>
</radialGradient>
<radialGradient id="paint20_radial_1071_975" cx="0" cy="0" r="1" gradientUnits="userSpaceOnUse" gradientTransform="translate(106.184 117.81) rotate(85.3036) scale(12.7953)">
<stop stop-color="white"/>
<stop offset="1" stop-color="#FAFAFA"/>
</radialGradient>
<radialGradient id="paint21_radial_1071_975" cx="0" cy="0" r="1" gradientUnits="userSpaceOnUse" gradientTransform="translate(131.047 117.81) rotate(85.3036) scale(12.7953)">
<stop stop-color="white"/>
<stop offset="1" stop-color="#FAFAFA"/>
</radialGradient>
<radialGradient id="paint22_radial_1071_975" cx="0" cy="0" r="1" gradientUnits="userSpaceOnUse" gradientTransform="translate(155.914 117.81) rotate(85.3036) scale(12.7953)">
<stop stop-color="white"/>
<stop offset="1" stop-color="#FAFAFA"/>
</radialGradient>
<radialGradient id="paint23_radial_1071_975" cx="0" cy="0" r="1" gradientUnits="userSpaceOnUse" gradientTransform="translate(180.778 117.81) rotate(85.3036) scale(12.7953)">
<stop stop-color="white"/>
<stop offset="1" stop-color="#FAFAFA"/>
</radialGradient>
<radialGradient id="paint24_radial_1071_975" cx="0" cy="0" r="1" gradientUnits="userSpaceOnUse" gradientTransform="translate(6.72692 41.5406) rotate(85.3036) scale(12.7953)">
<stop stop-color="white"/>
<stop offset="1" stop-color="#FAFAFA"/>
</radialGradient>
<radialGradient id="paint25_radial_1071_975" cx="0" cy="0" r="1" gradientUnits="userSpaceOnUse" gradientTransform="translate(31.5941 41.5406) rotate(85.3036) scale(12.7953)">
<stop stop-color="white"/>
<stop offset="1" stop-color="#FAFAFA"/>
</radialGradient>
<radialGradient id="paint26_radial_1071_975" cx="0" cy="0" r="1" gradientUnits="userSpaceOnUse" gradientTransform="translate(56.4535 41.5406) rotate(85.3036) scale(12.7953)">
<stop stop-color="white"/>
<stop offset="1" stop-color="#FAFAFA"/>
</radialGradient>
<radialGradient id="paint27_radial_1071_975" cx="0" cy="0" r="1" gradientUnits="userSpaceOnUse" gradientTransform="translate(81.3207 41.5406) rotate(85.3036) scale(12.7953)">
<stop stop-color="white"/>
<stop offset="1" stop-color="#FAFAFA"/>
</radialGradient>
<radialGradient id="paint28_radial_1071_975" cx="0" cy="0" r="1" gradientUnits="userSpaceOnUse" gradientTransform="translate(106.184 41.5406) rotate(85.3036) scale(12.7953)">
<stop stop-color="white"/>
<stop offset="1" stop-color="#FAFAFA"/>
</radialGradient>
<radialGradient id="paint29_radial_1071_975" cx="0" cy="0" r="1" gradientUnits="userSpaceOnUse" gradientTransform="translate(131.047 41.5406) rotate(85.3036) scale(12.7953)">
<stop stop-color="white"/>
<stop offset="1" stop-color="#FAFAFA"/>
</radialGradient>
<radialGradient id="paint30_radial_1071_975" cx="0" cy="0" r="1" gradientUnits="userSpaceOnUse" gradientTransform="translate(155.914 41.5406) rotate(85.3036) scale(12.7953)">
<stop stop-color="white"/>
<stop offset="1" stop-color="#FAFAFA"/>
</radialGradient>
<radialGradient id="paint31_radial_1071_975" cx="0" cy="0" r="1" gradientUnits="userSpaceOnUse" gradientTransform="translate(180.778 41.5406) rotate(85.3036) scale(12.7953)">
<stop stop-color="white"/>
<stop offset="1" stop-color="#FAFAFA"/>
</radialGradient>
<radialGradient id="paint32_radial_1071_975" cx="0" cy="0" r="1" gradientUnits="userSpaceOnUse" gradientTransform="translate(6.72692 92.3871) rotate(85.3036) scale(12.7953)">
<stop stop-color="white"/>
<stop offset="1" stop-color="#FAFAFA"/>
</radialGradient>
<radialGradient id="paint33_radial_1071_975" cx="0" cy="0" r="1" gradientUnits="userSpaceOnUse" gradientTransform="translate(31.5941 92.3871) rotate(85.3036) scale(12.7953)">
<stop stop-color="white"/>
<stop offset="1" stop-color="#FAFAFA"/>
</radialGradient>
<radialGradient id="paint34_radial_1071_975" cx="0" cy="0" r="1" gradientUnits="userSpaceOnUse" gradientTransform="translate(56.4535 92.3871) rotate(85.3036) scale(12.7953)">
<stop stop-color="white"/>
<stop offset="1" stop-color="#FAFAFA"/>
</radialGradient>
<radialGradient id="paint35_radial_1071_975" cx="0" cy="0" r="1" gradientUnits="userSpaceOnUse" gradientTransform="translate(81.3207 92.3871) rotate(85.3036) scale(12.7953)">
<stop stop-color="white"/>
<stop offset="1" stop-color="#FAFAFA"/>
</radialGradient>
<radialGradient id="paint36_radial_1071_975" cx="0" cy="0" r="1" gradientUnits="userSpaceOnUse" gradientTransform="translate(106.184 92.3871) rotate(85.3036) scale(12.7953)">
<stop stop-color="white"/>
<stop offset="1" stop-color="#FAFAFA"/>
</radialGradient>
<radialGradient id="paint37_radial_1071_975" cx="0" cy="0" r="1" gradientUnits="userSpaceOnUse" gradientTransform="translate(131.047 92.3871) rotate(85.3036) scale(12.7953)">
<stop stop-color="white"/>
<stop offset="1" stop-color="#FAFAFA"/>
</radialGradient>
<radialGradient id="paint38_radial_1071_975" cx="0" cy="0" r="1" gradientUnits="userSpaceOnUse" gradientTransform="translate(155.914 92.3871) rotate(85.3036) scale(12.7953)">
<stop stop-color="white"/>
<stop offset="1" stop-color="#FAFAFA"/>
</radialGradient>
<radialGradient id="paint39_radial_1071_975" cx="0" cy="0" r="1" gradientUnits="userSpaceOnUse" gradientTransform="translate(180.778 92.3871) rotate(85.3036) scale(12.7953)">
<stop stop-color="white"/>
<stop offset="1" stop-color="#FAFAFA"/>
</radialGradient>
<radialGradient id="paint40_radial_1071_975" cx="0" cy="0" r="1" gradientUnits="userSpaceOnUse" gradientTransform="translate(6.72692 143.234) rotate(85.3036) scale(12.7953)">
<stop stop-color="white"/>
<stop offset="1" stop-color="#FAFAFA"/>
</radialGradient>
<radialGradient id="paint41_radial_1071_975" cx="0" cy="0" r="1" gradientUnits="userSpaceOnUse" gradientTransform="translate(31.5941 143.234) rotate(85.3036) scale(12.7953)">
<stop stop-color="white"/>
<stop offset="1" stop-color="#FAFAFA"/>
</radialGradient>
<radialGradient id="paint42_radial_1071_975" cx="0" cy="0" r="1" gradientUnits="userSpaceOnUse" gradientTransform="translate(56.4535 143.234) rotate(85.3036) scale(12.7953)">
<stop stop-color="white"/>
<stop offset="1" stop-color="#FAFAFA"/>
</radialGradient>
<radialGradient id="paint43_radial_1071_975" cx="0" cy="0" r="1" gradientUnits="userSpaceOnUse" gradientTransform="translate(81.3207 143.234) rotate(85.3036) scale(12.7953)">
<stop stop-color="white"/>
<stop offset="1" stop-color="#FAFAFA"/>
</radialGradient>
<radialGradient id="paint44_radial_1071_975" cx="0" cy="0" r="1" gradientUnits="userSpaceOnUse" gradientTransform="translate(106.184 143.234) rotate(85.3036) scale(12.7953)">
<stop stop-color="white"/>
<stop offset="1" stop-color="#FAFAFA"/>
</radialGradient>
<radialGradient id="paint45_radial_1071_975" cx="0" cy="0" r="1" gradientUnits="userSpaceOnUse" gradientTransform="translate(131.047 143.234) rotate(85.3036) scale(12.7953)">
<stop stop-color="white"/>
<stop offset="1" stop-color="#FAFAFA"/>
</radialGradient>
<radialGradient id="paint46_radial_1071_975" cx="0" cy="0" r="1" gradientUnits="userSpaceOnUse" gradientTransform="translate(155.914 143.234) rotate(85.3036) scale(12.7953)">
<stop stop-color="white"/>
<stop offset="1" stop-color="#FAFAFA"/>
</radialGradient>
<radialGradient id="paint47_radial_1071_975" cx="0" cy="0" r="1" gradientUnits="userSpaceOnUse" gradientTransform="translate(180.778 143.234) rotate(85.3036) scale(12.7953)">
<stop stop-color="white"/>
<stop offset="1" stop-color="#FAFAFA"/>
</radialGradient>
</defs>
</svg>
