<svg width="16.000000" height="16.000000" viewBox="0 0 16 16" fill="none" xmlns="http://www.w3.org/2000/svg" xmlns:xlink="http://www.w3.org/1999/xlink">
	<desc>
			Created with Pixso.
	</desc>
	<defs/>
	<path id="Vector" d="M8 16C3.58 16 0 12.41 0 8C0 3.58 3.58 0 8 0C12.41 0 16 3.58 16 8C16 12.41 12.41 16 8 16Z" fill="#FFD23B" fill-opacity="1.000000" fill-rule="nonzero"/>
	<path id="Vector" d="M8 0L8 16C12.41 16 16 12.41 16 8C16 3.58 12.41 0 8 0Z" fill="#FFB24A" fill-opacity="1.000000" fill-rule="nonzero"/>
	<path id="Vector" d="M8 13.37C6.69 13.37 5.46 12.67 4.78 11.55C4.65 11.33 4.72 11.04 4.94 10.9C5.17 10.77 5.45 10.84 5.59 11.07C6.09 11.91 7.02 12.43 8 12.43C8.98 12.43 9.91 11.91 10.42 11.06C10.55 10.84 10.84 10.76 11.06 10.9C11.28 11.03 11.35 11.32 11.22 11.54C10.55 12.67 9.31 13.37 8 13.37Z" fill="#2D3E53" fill-opacity="1.000000" fill-rule="nonzero"/>
	<path id="Vector" d="M9.3 7.25C9.02 7.25 8.8 7.02 8.8 6.75L8.8 6.68C8.8 6.39 8.56 6.15 8.27 6.15L7.74 6.15C7.44 6.15 7.21 6.39 7.21 6.68L7.21 6.74C7.21 7.02 6.98 7.24 6.71 7.24C6.43 7.24 6.21 7.02 6.21 6.74L6.21 6.68C6.21 5.84 6.89 5.15 7.74 5.15L8.27 5.15C9.11 5.15 9.8 5.84 9.8 6.68L9.8 6.75C9.8 7.02 9.57 7.25 9.3 7.25Z" fill="#2D3E53" fill-opacity="1.000000" fill-rule="nonzero"/>
	<path id="Vector" d="M3.26 5.06L6.46 5.06C6.6 5.06 6.73 5.11 6.82 5.22C6.91 5.33 6.95 5.46 6.93 5.6C6.84 6.14 6.76 6.59 6.67 7.22C6.61 7.72 6.19 8.09 5.68 8.09C5.14 8.09 4.59 8.09 4.04 8.09C3.54 8.09 3.12 7.72 3.05 7.22C2.97 6.59 2.88 6.14 2.8 5.6C2.78 5.46 2.82 5.33 2.91 5.22C3 5.11 3.12 5.06 3.26 5.06Z" fill="#4E5D6F" fill-opacity="1.000000" fill-rule="evenodd"/>
	<path id="Vector" d="M5.68 8.56L4.04 8.56C3.3 8.56 2.68 8.02 2.58 7.28C2.53 6.88 2.48 6.54 2.42 6.22C2.39 6.04 2.36 5.86 2.33 5.67C2.29 5.39 2.37 5.13 2.55 4.92C2.73 4.7 2.98 4.59 3.26 4.59L6.46 4.59C6.74 4.59 6.99 4.7 7.17 4.92C7.35 5.13 7.43 5.39 7.39 5.67C7.36 5.86 7.33 6.04 7.3 6.21C7.25 6.54 7.19 6.88 7.14 7.28C7.04 8.02 6.43 8.56 5.68 8.56ZM3.26 5.53C3.29 5.71 3.32 5.89 3.35 6.07C3.4 6.4 3.46 6.74 3.51 7.16C3.55 7.43 3.77 7.62 4.04 7.62L5.68 7.62C5.95 7.62 6.17 7.43 6.21 7.16C6.26 6.74 6.32 6.39 6.37 6.06C6.4 5.89 6.43 5.71 6.46 5.53L3.26 5.53ZM6.47 5.53L6.47 5.53L6.47 5.53Z" fill="#2D3E53" fill-opacity="1.000000" fill-rule="nonzero"/>
	<path id="Vector" d="M8.26 5.15L8 5.15L8 6.15L8.26 6.15C8.55 6.15 8.79 6.39 8.79 6.68L8.79 6.75C8.79 7.02 9.02 7.25 9.29 7.25C9.57 7.25 9.79 7.02 9.79 6.75L9.79 6.68C9.79 5.84 9.1 5.15 8.26 5.15Z" fill="#16202D" fill-opacity="1.000000" fill-rule="nonzero"/>
	<path id="Vector" d="M9.52 5.06L12.71 5.06C12.86 5.06 12.98 5.11 13.07 5.22C13.16 5.33 13.2 5.46 13.18 5.6C13.09 6.14 13.01 6.59 12.93 7.22C12.86 7.72 12.44 8.09 11.93 8.09C11.39 8.09 10.84 8.09 10.29 8.09C9.79 8.09 9.37 7.72 9.3 7.22C9.22 6.59 9.14 6.14 9.05 5.6C9.03 5.46 9.07 5.33 9.16 5.22C9.25 5.11 9.37 5.06 9.52 5.06Z" fill="#2D3948" fill-opacity="1.000000" fill-rule="evenodd"/>
	<path id="Vector" d="M11.94 8.56L10.3 8.56C9.55 8.56 8.94 8.02 8.84 7.28C8.79 6.88 8.73 6.54 8.68 6.22C8.65 6.04 8.62 5.86 8.59 5.67C8.55 5.39 8.62 5.13 8.81 4.92C8.99 4.7 9.24 4.59 9.52 4.59L12.72 4.59C12.99 4.59 13.25 4.7 13.43 4.92C13.61 5.13 13.68 5.39 13.64 5.67C13.61 5.86 13.58 6.04 13.56 6.21C13.5 6.54 13.45 6.88 13.39 7.28C13.29 8.02 12.68 8.56 11.94 8.56ZM9.52 5.53C9.55 5.71 9.58 5.89 9.6 6.07C9.66 6.4 9.71 6.74 9.77 7.16C9.81 7.43 10.03 7.62 10.3 7.62L11.94 7.62C12.21 7.62 12.43 7.43 12.46 7.16C12.52 6.74 12.58 6.39 12.63 6.06C12.66 5.89 12.69 5.71 12.72 5.53L9.52 5.53ZM12.72 5.53L12.72 5.53L12.72 5.53Z" fill="#16202D" fill-opacity="1.000000" fill-rule="nonzero"/>
	<path id="Vector" d="M11.05 10.9C10.83 10.76 10.54 10.84 10.41 11.06C9.91 11.91 8.98 12.43 8 12.43L8 13.37C9.31 13.37 10.54 12.67 11.22 11.54C11.35 11.32 11.28 11.03 11.05 10.9Z" fill="#16202D" fill-opacity="1.000000" fill-rule="nonzero"/>
</svg>
