<svg viewBox="0 0 190.535 197.336" fill="none" xmlns="http://www.w3.org/2000/svg" xmlns:xlink="http://www.w3.org/1999/xlink">
	<desc>
			Created with Pixso.
	</desc>
	<defs/>
	<path id="Vector" d="M54.29 124.53C51.91 126.41 51.5 129.87 53.38 132.26C55.26 134.64 58.72 135.05 61.1 133.17C63.49 131.29 63.9 127.84 62.02 125.45C60.14 123.07 56.68 122.65 54.29 124.53Z" fill="#8E4DD5" fill-opacity="1.000000" fill-rule="evenodd"/>
	<path id="Vector" d="M88.06 134.6C86.97 135.46 86.79 137.03 87.64 138.11C88.49 139.2 90.07 139.38 91.15 138.53C92.24 137.67 92.43 136.1 91.57 135.02C90.72 133.93 89.14 133.75 88.06 134.6Z" fill="#8E4DD5" fill-opacity="1.000000" fill-rule="evenodd"/>
	<path id="Vector" d="M37.75 55.99L48.21 61.76L51.36 73.28L57.13 62.82L68.65 59.67L58.19 53.9L55.03 42.39L49.27 52.84L37.75 55.99Z" fill="#00A98F" fill-opacity="1.000000" fill-rule="nonzero"/>
	<path id="Vector" d="M45.59 91.48L50.35 94.1L51.78 99.34L54.4 94.58L59.64 93.15L54.89 90.53L53.45 85.3L50.83 90.05L45.59 91.48Z" fill="#00A98F" fill-opacity="1.000000" fill-rule="nonzero"/>
	<path id="Vector" d="M87.15 109.86C85.59 110.48 84.83 112.26 85.46 113.83C86.09 115.4 87.87 116.17 89.44 115.55C91.01 114.92 91.77 113.14 91.13 111.57C90.5 110 88.72 109.23 87.15 109.86Z" fill="#FFFFFF" fill-opacity="1.000000" fill-rule="evenodd"/>
	<path id="Vector" d="M124.32 160.81C123.55 161.12 123.18 161.99 123.49 162.76C123.8 163.52 124.67 163.9 125.44 163.59C126.21 163.28 126.59 162.41 126.28 161.64C125.97 160.88 125.09 160.5 124.32 160.81Z" fill="#00A98F" fill-opacity="1.000000" fill-rule="evenodd"/>
	<path id="Vector" d="M64.51 22.72L76.72 25.29L83.4 35.85L85.95 23.62L96.49 16.93L84.28 14.36L77.6 3.8L75.05 16.03L64.51 22.72Z" fill="#3897FF" fill-opacity="1.000000" fill-rule="nonzero"/>
	<path id="Vector" d="M77.32 108.37L83.93 112.13L85.84 119.48L89.61 112.89L96.97 111L90.36 107.23L88.46 99.88L84.69 106.47L77.32 108.37Z" fill="#FFCC00" fill-opacity="1.000000" fill-rule="nonzero"/>
	<path id="Vector" d="M107.85 153.11L109.92 156.3L109.08 160L112.27 157.94L115.97 158.79L113.9 155.6L114.75 151.9L111.56 153.96L107.85 153.11Z" fill="#FFCC00" fill-opacity="1.000000" fill-rule="nonzero"/>
	<path id="Vector" d="M126.6 171.1L128.37 173.84L127.65 177.01L130.38 175.24L133.56 175.97L131.79 173.24L132.51 170.07L129.78 171.83L126.6 171.1Z" fill="#8E4DD5" fill-opacity="1.000000" fill-rule="nonzero"/>
	<path id="Vector 207" d="M73.35 89.13L71.1 82.28L79.01 70.13L81.74 76.94L73.35 89.13Z" fill="#00A98F" fill-opacity="1.000000" fill-rule="evenodd"/>
	<path id="Vector 209" d="M93.11 154.53L88.66 158.36L77.48 155.92L81.77 151.74L93.11 154.53Z" fill="#3897FF" fill-opacity="1.000000" fill-rule="evenodd"/>
	<path id="Vector 211" d="M120.89 173.33L117.99 175.57L110.54 173.94L113.33 171.48L120.89 173.33Z" fill="#FFCC00" fill-opacity="1.000000" fill-rule="evenodd"/>
</svg>
