<svg viewBox="0 0 86 30" fill="none" xmlns="http://www.w3.org/2000/svg" xmlns:xlink="http://www.w3.org/1999/xlink">
	<desc>
			Created with Pixso.
	</desc>
	<defs/>
	<path id="Vector 233" d="M60.6 4.42L58.78 6.07C59.85 6.07 60.63 5.97 61.57 5.3C62.57 4.58 63.39 2.67 63.39 2.67C63.39 2.67 60.96 2.25 59.85 3.11C58.97 3.79 58.46 5.63 58.46 5.63L60.6 4.42Z" fill="#5C5C5C" fill-opacity="1.000000" fill-rule="evenodd"/>
	<path id="e s t e h" d="M71 2.12L70.68 1.46L74.78 0L74.78 10.3Q76.4 8.17 78.4 7.72Q78.94 7.6 79.51 7.6C80.81 7.6 81.82 8.04 82.54 8.94C83.27 9.83 83.63 11.1 83.63 12.75L83.63 19.08C83.63 19.85 84.05 20.24 84.88 20.24L86 20.24L86 21.33L78.95 21.33L78.95 20.24L79.76 20.24C80.8 20.24 81.32 19.85 81.32 19.08L81.32 12.75C81.32 11.67 81.06 10.82 80.54 10.19C80.04 9.54 79.34 9.22 78.45 9.22C77.49 9.22 76.63 9.64 75.89 10.48Q75.61 10.79 75.4 11.15Q74.78 12.21 74.78 13.64L74.78 18.93C74.78 19.43 74.87 19.77 75.06 19.96C75.24 20.15 75.56 20.24 76 20.24L77.12 20.24L77.12 21.33L70.27 21.33L70.27 20.24L71.02 20.24C72 20.24 72.5 19.81 72.5 18.93L72.61 3.11C72.61 3.11 72.63 2.19 72.29 1.9C71.89 1.57 71 2.12 71 2.12ZM43.11 8.05L43.11 9.05L45.4 9.05L45.4 17.99C45.4 19.04 45.7 19.85 46.32 20.44C46.93 21.03 47.52 21.19 48.37 21.22C49.48 21.25 50.24 21.12 51 20.1C51.43 19.52 51.68 18.36 51.68 18.36L50.73 18.36C50.73 18.36 50.5 19.19 50.09 19.46C49.76 19.67 49.12 19.68 49.12 19.68C49.12 19.68 48.54 19.75 48.21 19.33C47.87 18.91 47.71 18.34 47.71 17.62L47.71 9.05L50.84 9.05L50.84 7.74L47.71 7.74L47.71 3.11L47.19 3.11C46.32 6.29 45.58 7.06 43.11 8.05ZM17.25 15.58L18.17 15.58C18.44 17.7 18.79 18.43 19.52 19.13C20.24 19.81 20.76 19.97 21.45 20.23C22.24 20.52 23.04 20.45 23.59 20.01C24.17 19.55 24.43 19.03 24.46 18.27C24.49 17.13 22.73 15.95 22.73 15.95L20.48 14.63C20.48 14.63 18.87 13.85 18.34 13.2C17.82 12.56 17.47 12.03 17.47 11.19C17.47 10.05 17.87 9.07 18.67 8.26Q19.01 7.9 19.42 7.65Q20.46 7 21.9 7C23.05 7 23.91 7.28 24.57 7.61L25.04 7L25.52 7L25.63 11.56L25.09 11.56C24.71 10.27 24.89 10.04 24.24 9.25C23.54 8.42 22.83 8.03 21.76 8.03C20.87 8.03 20.16 8.26 19.64 8.71C19.14 9.15 19.24 9.91 19.3 10.35C19.41 11.12 23.59 13.31 23.59 13.31C23.59 13.31 25.11 14.08 25.68 14.76C26.26 15.44 26.55 16.25 26.55 17.18C26.55 18.41 26.09 19.43 25.18 20.23C24.27 21.03 23.82 21.08 22.84 21.22C22.36 21.28 22.02 21.24 21.63 21.18C21.42 21.15 21.19 21.12 20.91 21.11C20.02 21.06 18.66 20.67 18.66 20.67L18.17 21.11L17.59 20.99L17.25 15.58ZM10.83 15.62L11.36 15.95C9.97 19.57 8.74 21.21 6.17 21.21C4.41 21.21 2.94 20.58 1.75 19.31Q1.37 18.89 1.08 18.42L1.08 18.42Q0 16.72 0 14.32Q0 11.51 1.31 9.62L1.31 9.62Q1.5 9.34 1.72 9.08Q2.6 8.06 3.71 7.55L3.71 7.55Q4.79 7.06 6.09 7.06C7.87 7.06 9.24 7.52 10.35 9C11.19 10.11 11.36 11.01 11.36 12.44L2.25 12.44C2.25 12.58 2.25 12.75 2.24 12.94C2.23 13.66 2.22 14.58 2.35 15.07C2.71 16.33 2.85 16.78 3.75 17.59C4.69 18.45 5.16 18.8 6.75 18.8C8.57 18.8 9.73 17.73 10.83 15.62ZM66.6 15.95L66.07 15.62C64.97 17.73 63.81 18.8 61.99 18.8C60.4 18.8 59.93 18.45 58.99 17.59C58.09 16.78 57.95 16.33 57.6 15.07C57.46 14.58 57.47 13.66 57.48 12.94C57.49 12.75 57.49 12.58 57.49 12.44L66.6 12.44C66.6 11.01 66.43 10.11 65.59 9C64.48 7.52 63.11 7.06 61.33 7.06C59.57 7.06 58.11 7.73 56.96 9.08C55.81 10.43 55.24 12.18 55.24 14.32C55.24 16.35 55.82 18.02 56.99 19.31C58.18 20.58 59.65 21.21 61.41 21.21C63.98 21.21 65.21 19.57 66.6 15.95ZM2.25 11.56L8.25 11.56C8.25 11.56 8.28 9.77 7.72 9C7.17 8.24 6.6 7.94 5.68 7.94C4.61 7.94 3.94 8.23 3.21 9C2.48 9.77 2.25 10.57 2.25 11.56ZM60.28 11.56L57.49 11.56C57.49 10.57 57.72 9.77 58.45 9C59.18 8.23 59.85 7.94 60.92 7.94C61.84 7.94 62.41 8.24 62.96 9C63.52 9.77 63.49 11.56 63.49 11.56L60.28 11.56Z" fill="#5C5C5C" fill-opacity="1.000000" fill-rule="evenodd"/>
	<ellipse id="Ellipse 74" cx="34.968262" cy="14.196777" rx="2.145252" ry="2.194841" fill="#5C5C5C" fill-opacity="1.000000"/>
	<path id="I N D O N E S I A" d="M66.28 25.39L68.21 29.86L67.67 29.86L67.09 28.46L65.47 28.46L64.9 29.86L64.36 29.86L66.28 25.39ZM56.43 29.99C56.18 29.99 55.94 29.94 55.73 29.84C55.51 29.75 55.44 29.68 55.29 29.51C55.14 29.33 55.05 29.14 55 28.92L55.46 28.72C55.52 28.99 55.66 29.2 55.87 29.35C56.08 29.5 56.19 29.51 56.43 29.51C56.68 29.51 56.9 29.43 57.08 29.27C57.24 29.12 57.3 28.96 57.3 28.75C57.3 28.72 57.3 28.7 57.3 28.67C57.29 28.52 57.28 28.43 57.18 28.31C57.08 28.19 56.9 28.07 56.64 27.94C56.31 27.78 56.05 27.64 55.88 27.54C55.71 27.44 55.57 27.31 55.45 27.16C55.34 27 55.29 26.68 55.29 26.46C55.29 26.26 55.35 26.07 55.45 25.91C55.56 25.75 55.71 25.62 55.89 25.53C56.08 25.44 56.28 25.39 56.49 25.39C56.66 25.39 56.83 25.43 56.98 25.51C57.14 25.58 57.26 25.68 57.35 25.8C57.45 25.92 57.5 26.05 57.5 26.19C57.5 26.21 57.49 26.25 57.48 26.3L57 26.27C57.01 26.25 57.01 26.24 57.01 26.22C57.01 26.17 56.99 26.12 56.95 26.08C56.9 26.01 56.83 25.96 56.74 25.93C56.64 25.89 56.56 25.87 56.48 25.87C56.29 25.87 56.13 25.93 56 26.04C55.87 26.15 55.8 26.29 55.8 26.44C55.8 26.57 55.84 26.82 55.92 26.92C56.01 27.02 56.12 27.11 56.24 27.19C56.36 27.26 56.51 27.34 56.7 27.44L56.93 27.56Q57.42 27.83 57.63 28.1C57.77 28.28 57.8 28.44 57.81 28.68C57.81 28.71 57.81 28.74 57.81 28.77C57.81 28.99 57.77 29.15 57.65 29.34Q57.57 29.48 57.45 29.59L57.45 29.59Q57.31 29.72 57.13 29.82C56.91 29.93 56.68 29.99 56.43 29.99ZM38.01 29.99Q37.52 29.99 37.11 29.81Q37 29.76 36.9 29.7C36.58 29.51 36.33 29.25 36.14 28.92C35.96 28.58 35.87 28.21 35.87 27.79L35.87 27.6C35.87 27.2 35.96 26.84 36.15 26.5C36.34 26.16 36.59 25.9 36.92 25.7C37.24 25.5 37.6 25.4 37.98 25.4C38.37 25.4 38.73 25.5 39.05 25.7C39.37 25.9 39.63 26.16 39.82 26.5Q39.91 26.67 39.97 26.85Q40.1 27.2 40.1 27.6L40.1 27.79C40.1 28.21 40.01 28.59 39.82 28.92C39.64 29.26 39.39 29.53 39.07 29.72C38.75 29.91 38.4 30 38.01 29.99ZM43.2 25.42L43.42 25.42L46.08 28.82L46.16 28.98L46.16 28.8L46.15 25.48L46.65 25.48L46.65 29.84L46.39 29.84L46.03 29.48L43.92 26.88L43.68 26.55L43.71 26.97L43.71 29.84L43.2 29.84L43.2 25.42ZM22.81 25.44L23.03 25.44L25.68 28.84L25.77 29L25.77 28.82L25.76 25.5L26.26 25.5L26.26 29.86L26 29.86L25.64 29.5L23.53 26.9L23.29 26.57L23.32 26.99L23.32 29.86L22.81 29.86L22.81 25.44ZM30.91 25.47C31.3 25.5 31.64 25.61 31.94 25.8C32.24 26 32.47 26.26 32.64 26.59Q32.65 26.61 32.65 26.62Q32.89 27.1 32.89 27.69C32.89 28.12 32.79 28.5 32.61 28.84C32.43 29.18 32.17 29.44 31.84 29.63Q31.77 29.68 31.7 29.71L31.7 29.71Q31.26 29.92 30.73 29.92L30.2 29.92C30.09 29.92 29.89 29.91 29.61 29.88L29.26 29.85L29.26 25.47L30.91 25.47ZM19.3 25.51L19.81 25.51L19.81 29.86L19.3 29.86L19.3 25.51ZM49.66 25.51L51.91 25.51L51.91 25.99L50.15 25.99L50.15 27.31L51.83 27.31L51.83 27.79L50.15 27.79L50.15 29.38L51.91 29.38L51.91 29.86L49.66 29.86L49.66 25.51ZM60.84 25.51L61.35 25.51L61.35 29.86L60.84 29.86L60.84 25.51ZM37.99 29.51C38.29 29.51 38.56 29.44 38.81 29.29C39.05 29.14 39.24 28.93 39.38 28.67C39.52 28.41 39.59 28.11 39.59 27.79L39.59 27.6C39.59 27.3 39.52 27.01 39.38 26.75C39.23 26.48 39.04 26.27 38.79 26.12C38.54 25.96 38.27 25.89 37.98 25.89C37.68 25.89 37.41 25.96 37.17 26.12C36.93 26.27 36.73 26.48 36.59 26.75C36.45 27.01 36.38 27.3 36.38 27.6L36.38 27.79C36.38 28.11 36.45 28.41 36.59 28.67C36.73 28.93 36.92 29.14 37.16 29.29C37.41 29.44 37.69 29.51 37.99 29.51ZM30.53 29.44C31.13 29.44 31.58 29.29 31.9 28.99C32.22 28.69 32.38 28.26 32.38 27.71C32.38 27.18 32.24 26.77 31.97 26.46C31.7 26.15 31.33 25.98 30.85 25.96L29.77 25.96L29.77 29.41C30.05 29.43 30.3 29.44 30.53 29.44ZM66.37 26.63L66.32 26.47L66.28 26.32L66.24 26.46L66.19 26.63L65.66 27.99L66.89 27.99L66.37 26.63Z" fill="#5C5C5C" fill-opacity="1.000000" fill-rule="evenodd"/>
</svg>
