<svg width="54.000000" height="65.999878" viewBox="0 0 54 65.9999" fill="none" xmlns="http://www.w3.org/2000/svg" xmlns:xlink="http://www.w3.org/1999/xlink">
	<desc>
			Created with Pixso.
	</desc>
	<defs/>
	<path id="L" d="M36.34 56.57L36.34 64.93L42.4 64.93L42.4 65.99L34.78 65.99L34.78 56.57L36.34 56.57Z" fill="#5C5C5C" fill-opacity="1.000000" fill-rule="nonzero"/>
	<path id="Y" d="M29.35 62.3L29.35 65.99L27.78 65.99L27.78 62.3L23.02 56.57L24.95 56.57L28.59 61.16L32.1 56.57L33.98 56.57L29.35 62.3Z" fill="#000000" fill-opacity="1.000000" fill-rule="nonzero"/>
	<path id="A" d="M19.82 63.16L14.76 63.16L13.37 65.99L11.59 65.99L16.26 56.57L18.43 56.57L23.03 65.99L21.17 65.99L19.82 63.16ZM19.34 62.15L17.33 57.87L15.18 62.15L19.34 62.15Z" fill="#000000" fill-opacity="1.000000" fill-rule="nonzero"/>
	<path id="A" d="M50.79 63.16L45.73 63.16L44.34 65.99L42.56 65.99L47.23 56.57L49.39 56.57L54 65.99L52.14 65.99L50.79 63.16ZM50.31 62.15L48.3 57.87L46.15 62.15L50.31 62.15Z" fill="#5C5C5C" fill-opacity="1.000000" fill-rule="nonzero"/>
	<path id="N" d="M10.8 56.57L10.8 65.99L8.82 65.99L1.66 58.35L1.66 65.99L0 65.99L0 56.57L1.91 56.57L9.13 64.27L9.13 56.57L10.8 56.57Z" fill="#000000" fill-opacity="1.000000" fill-rule="nonzero"/>
	<path id="Ellipse 88" d="M48.28 28.51C48.28 40.61 38.36 50.42 26.12 50.42C13.88 50.42 3.96 40.61 3.96 28.51C3.96 23.19 3.96 0 3.96 0L15.08 9.5C18.33 7.65 22.1 6.59 26.12 6.59C38.36 6.59 48.28 16.41 48.28 28.51Z" fill="#5C5C5C" fill-opacity="1.000000" fill-rule="nonzero"/>
	<path id="Vector 279" d="M19.89 33.59L15.62 30.83C15.62 30.83 13.61 34.28 13.73 36.68C13.84 38.86 16.52 42.19 16.68 41.84C17.1 40.95 18.99 40.25 18.99 40.25C18.99 40.25 17.21 41.21 17.1 42.28C16.85 44.56 17.09 48.62 17.09 48.62C17.09 48.62 17.85 48.96 18.41 49.15C18.95 49.34 19.89 49.6 19.89 49.6L19.89 44.56C19.89 44.56 26.79 45.94 29.42 42.28C32.04 38.63 35.41 33.59 36.89 30.83C38.37 28.07 40.26 20.84 33.03 17.26C25.8 13.69 20.87 21.57 20.87 21.57L25.8 24.41C25.8 24.41 26.3 24.82 25.88 25.71C25.47 26.61 24.49 26.28 24.49 26.28L19.72 23.73L18.9 25.14L23.92 27.91C23.92 27.91 24.57 28.39 24.08 29.53C23.59 30.67 22.35 30.02 22.35 30.02L17.59 27.42L16.77 28.8L21.37 31.48C21.37 31.48 22.35 32.05 21.78 33.1C21.2 34.16 19.89 33.59 19.89 33.59Z" fill="#FFFFFF" fill-opacity="1.000000" fill-rule="evenodd"/>
</svg>
