<svg viewBox="0 0 72 44" fill="none" xmlns="http://www.w3.org/2000/svg" xmlns:xlink="http://www.w3.org/1999/xlink">
	<desc>
			Created with Pixso.
	</desc>
	<defs/>
	<path id="Vector 232" d="M19.83 23.9L19.83 18.09L13.07 25.27C13.07 25.27 12.98 25.39 12.98 25.54C12.98 25.69 13.07 25.81 13.07 25.81L15.23 27.99C15.23 27.99 15.35 28.16 15.5 28.18C15.68 28.2 15.86 27.99 15.86 27.99L19.83 23.9Z" fill="#868686" fill-opacity="1.000000" fill-rule="evenodd"/>
	<path id="Vector 231" d="M15.5 16C15.31 16.02 15.14 15.81 15.14 15.81C15.14 15.81 12.17 12.41 10.18 10.9C9.82 10.63 8.11 9.66 6.76 10.9C5.86 11.73 6.22 13.31 6.76 13.9C8.74 16.09 14.06 21.45 14.06 21.45C14.06 21.45 14.35 21.64 14.33 21.81C14.32 21.94 14.15 22.09 14.15 22.09L12.08 24.18C12.08 24.18 11.91 24.35 11.72 24.36C11.57 24.36 11.36 24.18 11.36 24.18L0.18 13C0.18 12.99 -0.03 12.78 0 12.63C0.02 12.53 0.09 12.45 0.09 12.45C0.09 12.45 1.62 11.09 2.34 10.36C2.36 10.34 2.53 10.24 2.7 10.27C2.85 10.29 2.97 10.36 2.97 10.36L3.6 10.9C3.6 10.9 4.27 7.94 5.68 6.9C7.39 5.64 9.7 5.63 11.09 6.54C13.16 7.9 18.03 13.09 18.03 13.09C18.03 13.09 18.12 13.21 18.12 13.36C18.12 13.51 18.03 13.63 18.03 13.63C18.03 13.63 16.31 15.45 15.77 15.9C15.69 15.98 15.65 15.97 15.5 16Z" fill="#5C5C5C" fill-opacity="1.000000" fill-rule="evenodd"/>
	<path id="Vector 230" d="M24.42 1.45L16.31 9.72L19.11 12.54C19.11 12.54 20.64 11.09 21.72 10.18C22.18 9.79 23.39 9.84 24.06 10.54C24.72 11.21 24.9 12.45 24.42 12.99C23.07 14.54 21.36 16.54 21.36 16.54L26.86 16.54C27.6 15.44 28.21 14.36 28.57 13.81C28.94 13.27 29.34 11.54 28.21 9.72C27.08 7.9 23.88 7.72 23.88 7.72L27.45 4.04C27.45 4.04 27.57 3.92 27.58 3.81C27.59 3.72 27.4 3.54 27.4 3.54L25.24 1.45C25.24 1.45 25.07 1.29 24.88 1.27C24.65 1.24 24.42 1.45 24.42 1.45Z" fill="#868686" fill-opacity="1.000000" fill-rule="evenodd"/>
	<ellipse id="Ellipse 73" cx="15.416504" cy="3.636353" rx="3.605522" ry="3.636337" fill="#5C5C5C" fill-opacity="1.000000"/>
	<path id="NEX" d="M37.71 18.18L37.71 37.99L33.57 37.99L25.57 25.52L25.42 25.52L25.42 37.99L21.27 37.99L21.27 18.18L25.78 18.18L33.4 30.64L33.57 30.64L33.57 18.18L37.71 18.18ZM38.96 37.99L38.96 18.18L53.54 18.18L53.54 21.63L43.11 21.63L43.11 26.35L52.82 26.35L52.82 29.81L43.11 29.81L43.11 34.54L54.08 34.54L54.08 37.99L38.96 37.99ZM63.16 24.49L59.45 18.18L54.74 18.18L60.78 28.09L54.63 37.99L59.39 37.99L63.31 31.4L67.24 37.99L71.93 37.99L65.48 28.09L71.93 18.18L66.88 18.18L63.16 24.49Z" fill="#5C5C5C" fill-opacity="1.000000" fill-rule="evenodd"/>
	<path id="H E A L T H C A R E" d="M52.78 41.99C52.78 40.79 53.45 40 54.47 40C55.33 40 55.98 40.47 56.16 40.9C56.17 40.94 56.18 40.97 56.18 41C56.18 41.11 56.1 41.18 56.03 41.2C55.99 41.22 55.95 41.22 55.91 41.22C55.83 41.22 55.75 41.19 55.7 41.09C55.56 40.74 55.05 40.42 54.49 40.42C53.76 40.42 53.27 41.02 53.27 42C53.27 42.95 53.76 43.56 54.49 43.56C55.08 43.56 55.62 43.23 55.75 42.83C55.79 42.72 55.87 42.68 55.97 42.68C56 42.68 56.03 42.68 56.07 42.69C56.15 42.71 56.24 42.79 56.24 42.89C56.24 42.92 56.23 42.94 56.22 42.97C56.05 43.46 55.38 44 54.51 44C53.45 44 52.78 43.22 52.78 41.99ZM34.48 42.77L32.78 42.77L32.41 43.79C32.37 43.89 32.3 43.93 32.22 43.93C32.18 43.93 32.15 43.92 32.12 43.91C32.02 43.89 31.95 43.8 31.95 43.71C31.95 43.68 31.95 43.65 31.96 43.62L33.29 40.25C33.36 40.08 33.48 40.02 33.63 40.02C33.79 40.02 33.91 40.08 33.98 40.25L35.31 43.63C35.33 43.66 35.33 43.69 35.33 43.72C35.33 43.82 35.25 43.89 35.15 43.92C35.12 43.93 35.09 43.93 35.07 43.93C34.98 43.93 34.9 43.89 34.86 43.79L34.48 42.77ZM66.05 41.99C66.52 42.09 66.72 42.99 66.72 42.99L66.87 43.7C66.88 43.73 66.88 43.78 66.88 43.81C66.88 43.91 66.82 43.96 66.72 43.98C66.68 43.99 66.65 43.99 66.61 43.99C66.53 43.99 66.45 43.95 66.42 43.87C66.34 43.63 66.42 42.16 65.44 42.16L64.54 42.16L64.54 43.71C64.54 43.85 64.45 43.92 64.32 43.92C64.18 43.92 64.08 43.85 64.08 43.7L64.08 40.57C64.08 40.19 64.23 40.04 64.58 40.04L65.73 40.04C66.44 40.04 66.83 40.42 66.83 41.03C66.83 41.59 66.51 41.89 66.05 41.99ZM38.03 43.92C37.53 43.92 37.53 43.92 37.53 43.39L37.53 40.25C37.53 40.1 37.63 40.04 37.76 40.04C37.9 40.04 38 40.1 38 40.25L38 43.3C38 43.47 38 43.47 38.18 43.47L39.91 43.47C40.04 43.47 40.11 43.57 40.11 43.69C40.11 43.81 40.04 43.92 39.91 43.92L38.03 43.92ZM22.01 41.68L24.1 41.68L24.1 40.24C24.1 40.1 24.2 40.04 24.34 40.04C24.47 40.04 24.57 40.1 24.57 40.24L24.57 43.74C24.57 43.88 24.47 43.95 24.34 43.95C24.2 43.95 24.1 43.88 24.1 43.74L24.1 42.11L22.01 42.11L22.01 43.74C22.01 43.88 21.91 43.95 21.78 43.95C21.64 43.95 21.54 43.88 21.54 43.74L21.54 40.24C21.54 40.1 21.64 40.04 21.78 40.04C21.91 40.04 22.01 40.1 22.01 40.24L22.01 41.68ZM47.57 41.68L49.65 41.68L49.65 40.24C49.65 40.1 49.75 40.04 49.9 40.04C50.02 40.04 50.12 40.1 50.12 40.24L50.12 43.74C50.12 43.88 50.02 43.95 49.9 43.95C49.75 43.95 49.65 43.88 49.65 43.74L49.65 42.11L47.57 42.11L47.57 43.74C47.57 43.88 47.46 43.95 47.33 43.95C47.19 43.95 47.1 43.88 47.1 43.74L47.1 40.24C47.1 40.1 47.19 40.04 47.33 40.04C47.46 40.04 47.57 40.1 47.57 40.24L47.57 41.68ZM42.92 43.73L42.92 40.49L41.81 40.49C41.69 40.49 41.62 40.39 41.62 40.28C41.62 40.16 41.69 40.05 41.8 40.05L44.5 40.05C44.62 40.05 44.69 40.16 44.69 40.28C44.69 40.39 44.61 40.49 44.5 40.49L43.39 40.49L43.39 43.73C43.39 43.86 43.29 43.93 43.15 43.93C43.02 43.93 42.92 43.86 42.92 43.73ZM60.89 42.82L59.2 42.82L58.82 43.84C58.79 43.94 58.72 43.98 58.63 43.98C58.6 43.98 58.57 43.97 58.53 43.96C58.44 43.94 58.36 43.85 58.36 43.76C58.36 43.73 58.37 43.7 58.38 43.67L59.71 40.3C59.77 40.13 59.89 40.07 60.05 40.07C60.2 40.07 60.33 40.13 60.39 40.3L61.73 43.68C61.74 43.71 61.75 43.74 61.75 43.77C61.75 43.87 61.67 43.94 61.57 43.97C61.54 43.98 61.51 43.98 61.48 43.98C61.39 43.98 61.32 43.94 61.28 43.84L60.89 42.82ZM71.53 42.11L69.87 42.11L69.87 43.33C69.87 43.44 69.94 43.49 70.05 43.49L71.8 43.49C71.93 43.49 72 43.58 72 43.7C72 43.82 71.93 43.92 71.8 43.92L69.9 43.92C69.56 43.92 69.4 43.76 69.4 43.39L69.4 40.6C69.4 40.22 69.56 40.07 69.9 40.07L71.75 40.07C71.88 40.07 71.95 40.16 71.95 40.28C71.95 40.4 71.88 40.5 71.75 40.5L70.03 40.5C69.91 40.5 69.87 40.55 69.87 40.67L69.87 41.69L71.53 41.69C71.66 41.69 71.73 41.78 71.73 41.91C71.73 42.02 71.65 42.11 71.53 42.11ZM29.26 42.15L27.59 42.15L27.59 43.36C27.59 43.48 27.66 43.52 27.77 43.52L29.52 43.52C29.65 43.52 29.72 43.61 29.72 43.73C29.72 43.85 29.65 43.95 29.52 43.95L27.63 43.95C27.28 43.95 27.13 43.8 27.13 43.42L27.13 40.64C27.13 40.26 27.28 40.1 27.63 40.1L29.48 40.1C29.61 40.1 29.68 40.19 29.68 40.32C29.68 40.44 29.61 40.53 29.48 40.53L27.76 40.53C27.64 40.53 27.59 40.59 27.59 40.71L27.59 41.73L29.26 41.73C29.38 41.73 29.45 41.82 29.45 41.94C29.45 42.05 29.38 42.15 29.26 42.15ZM64.54 40.62L64.54 41.75L65.67 41.75C66.08 41.75 66.36 41.49 66.36 41.1C66.36 40.68 66.13 40.45 65.7 40.45L64.7 40.45C64.6 40.45 64.54 40.5 64.54 40.62ZM33.48 40.92L32.93 42.36L34.33 42.36L33.79 40.92C33.73 40.78 33.68 40.62 33.64 40.45C33.59 40.62 33.54 40.78 33.48 40.92ZM59.9 40.97L59.35 42.4L60.75 42.4L60.2 40.97C60.15 40.82 60.1 40.67 60.05 40.5C60.01 40.67 59.96 40.82 59.9 40.97Z" fill="#5C5C5C" fill-opacity="1.000000" fill-rule="evenodd"/>
</svg>
