<svg width="68.000000" height="68.000000" viewBox="0 0 68 68" fill="none" xmlns="http://www.w3.org/2000/svg" xmlns:xlink="http://www.w3.org/1999/xlink">
	<desc>
			Created with Pixso.
	</desc>
	<defs/>
	<path id="K" d="M43.08 5.71L42.31 6.76L42.73 8.31L43.07 8.38L42.87 9.29L40.82 8.85L41.02 7.94L41.25 7.99L41.05 7.12L40.49 7L40.32 7.79L40.62 7.86L40.42 8.77L38.51 8.36L38.71 7.45L39.06 7.52L39.61 4.96L39.25 4.89L39.45 3.98L41.36 4.39L41.17 5.3L40.87 5.23L40.69 6.1L41.26 6.22L41.77 5.43L41.54 5.38L41.73 4.47L43.63 4.88L43.44 5.78L43.08 5.71Z" fill="#000000" fill-opacity="1.000000" fill-rule="nonzero"/>
	<path id="K" d="M23.83 60.81L23.21 61.32L23.22 62.3L23.41 62.4L23.15 62.9L22.01 62.33L22.26 61.82L22.39 61.88L22.41 61.34L22.1 61.18L21.87 61.62L22.04 61.71L21.78 62.21L20.71 61.68L20.97 61.17L21.17 61.27L21.89 59.84L21.69 59.74L21.95 59.23L23.01 59.77L22.76 60.28L22.59 60.19L22.35 60.67L22.67 60.84L23.1 60.45L22.97 60.38L23.22 59.87L24.28 60.41L24.03 60.91L23.83 60.81Z" fill="#000000" fill-opacity="1.000000" fill-rule="nonzero"/>
	<path id="K" d="M21.4 6.65L21.51 7.95L22.84 8.85L23.15 8.68L23.6 9.49L21.76 10.51L21.31 9.69L21.52 9.58L20.8 9.05L20.3 9.33L20.69 10.04L20.96 9.89L21.41 10.7L19.7 11.65L19.25 10.84L19.56 10.66L18.3 8.37L17.98 8.55L17.53 7.74L19.24 6.79L19.69 7.6L19.42 7.75L19.85 8.52L20.36 8.24L20.23 7.3L20.02 7.42L19.57 6.6L21.27 5.66L21.72 6.48L21.4 6.65Z" fill="#000000" fill-opacity="1.000000" fill-rule="nonzero"/>
	<path id="K" d="M39.26 62.06L39.02 62.85L39.59 63.68L39.81 63.66L39.88 64.24L38.56 64.41L38.49 63.82L38.64 63.8L38.34 63.32L37.98 63.37L38.04 63.88L38.23 63.85L38.31 64.44L37.08 64.59L37.01 64.01L37.24 63.98L37.03 62.34L36.8 62.36L36.73 61.78L37.96 61.63L38.03 62.21L37.84 62.23L37.91 62.79L38.27 62.74L38.42 62.16L38.27 62.18L38.19 61.6L39.41 61.44L39.49 62.03L39.26 62.06Z" fill="#000000" fill-opacity="1.000000" fill-rule="nonzero"/>
	<path id="K" d="M51.43 56.19L51.64 56.98L52.57 57.39L52.74 57.25L53.11 57.71L52.08 58.55L51.71 58.09L51.83 57.99L51.32 57.75L51.04 57.97L51.36 58.37L51.51 58.25L51.88 58.71L50.93 59.49L50.55 59.03L50.73 58.89L49.69 57.6L49.51 57.75L49.14 57.29L50.09 56.51L50.47 56.97L50.32 57.09L50.67 57.52L50.96 57.29L50.77 56.72L50.65 56.82L50.28 56.36L51.23 55.58L51.6 56.04L51.43 56.19Z" fill="#000000" fill-opacity="1.000000" fill-rule="nonzero"/>
	<path id="N" d="M44.05 62.29L43.45 60.76L43.24 60.84L43.03 60.3L44.26 59.82L45.56 61.14L45.16 60.1L44.94 60.18L44.73 59.64L45.77 59.23L45.98 59.77L45.81 59.84L46.62 61.92L45.68 62.28L44.3 60.9L44.26 60.91L44.7 62.04L44.92 61.95L45.13 62.5L44.05 62.92L43.84 62.38L44.05 62.29Z" fill="#000000" fill-opacity="1.000000" fill-rule="nonzero"/>
	<path id="N" d="M55.69 54.49L54.5 53.36L54.34 53.52L53.92 53.12L54.83 52.16L56.57 52.81L55.76 52.03L55.6 52.2L55.18 51.8L55.95 50.99L56.37 51.39L56.24 51.53L57.85 53.06L57.16 53.79L55.32 53.12L55.29 53.15L56.17 53.99L56.33 53.82L56.75 54.22L55.95 55.06L55.53 54.66L55.69 54.49Z" fill="#000000" fill-opacity="1.000000" fill-rule="nonzero"/>
	<path id="&amp;" d="M26.95 61.24C27.08 61.27 27.19 61.32 27.29 61.39C27.38 61.45 27.45 61.53 27.49 61.63C27.53 61.72 27.53 61.82 27.51 61.94C27.47 62.09 27.39 62.21 27.27 62.3C27.15 62.38 27.01 62.45 26.85 62.5L27.22 63.07C27.28 63.01 27.34 62.94 27.4 62.86C27.45 62.78 27.5 62.7 27.55 62.62L28.08 62.75C28.01 62.87 27.93 62.99 27.83 63.12C27.73 63.25 27.61 63.37 27.47 63.47L27.86 64.08L27.23 63.93L27.08 63.7C27.03 63.72 26.97 63.74 26.9 63.75C26.84 63.77 26.78 63.78 26.72 63.78C26.65 63.79 26.59 63.78 26.52 63.78C26.45 63.77 26.38 63.76 26.31 63.75C26.12 63.7 25.97 63.63 25.85 63.55C25.73 63.45 25.65 63.35 25.61 63.23C25.56 63.1 25.55 62.97 25.59 62.84C25.62 62.72 25.66 62.63 25.71 62.55C25.77 62.48 25.84 62.42 25.92 62.37C26 62.32 26.1 62.28 26.2 62.25C26.16 62.17 26.13 62.1 26.1 62.03C26.08 61.96 26.07 61.89 26.07 61.83C26.07 61.76 26.08 61.7 26.1 61.63C26.12 61.52 26.18 61.42 26.26 61.35C26.34 61.28 26.44 61.24 26.56 61.22C26.68 61.2 26.81 61.21 26.95 61.24ZM26.43 62.63C26.38 62.65 26.33 62.68 26.29 62.7C26.25 62.73 26.22 62.76 26.19 62.79C26.17 62.83 26.15 62.87 26.14 62.92C26.11 63.02 26.13 63.1 26.19 63.18C26.25 63.25 26.33 63.3 26.44 63.33C26.52 63.34 26.59 63.35 26.66 63.35C26.73 63.34 26.79 63.33 26.85 63.31L26.43 62.63ZM26.85 61.63C26.79 61.62 26.74 61.62 26.68 61.64C26.62 61.65 26.58 61.7 26.56 61.78C26.55 61.84 26.55 61.9 26.56 61.96C26.58 62.02 26.61 62.08 26.64 62.15C26.75 62.12 26.84 62.08 26.9 62.04C26.96 62 27 61.95 27.02 61.88C27.04 61.81 27.03 61.75 26.99 61.71C26.95 61.67 26.9 61.65 26.85 61.63Z" fill="#000000" fill-opacity="1.000000" fill-rule="nonzero"/>
	<path id="U" d="M13.46 56.4C13.31 56.25 13.2 56.11 13.13 55.98C13.05 55.85 13.01 55.72 13.01 55.59C13 55.47 13.03 55.34 13.09 55.22C13.15 55.1 13.25 54.97 13.37 54.84L14.25 53.96L14.09 53.8L14.5 53.39L15.38 54.26L14.97 54.67L14.81 54.51L13.95 55.39C13.88 55.45 13.84 55.51 13.81 55.56C13.79 55.61 13.78 55.66 13.78 55.71C13.78 55.75 13.79 55.79 13.81 55.83C13.84 55.87 13.87 55.91 13.9 55.94C13.94 55.98 13.98 56.01 14.02 56.04C14.06 56.06 14.1 56.08 14.15 56.08C14.2 56.09 14.25 56.07 14.3 56.05C14.35 56.02 14.41 55.98 14.48 55.91L15.34 55.04L15.18 54.88L15.59 54.46L16.47 55.33L16.06 55.75L15.9 55.59L15.03 56.48C14.78 56.73 14.53 56.86 14.28 56.85C14.03 56.84 13.76 56.69 13.46 56.4Z" fill="#000000" fill-opacity="1.000000" fill-rule="nonzero"/>
	<path id="U" d="M18.68 60.53C18.51 60.42 18.37 60.31 18.27 60.19C18.17 60.08 18.11 59.96 18.08 59.84C18.05 59.72 18.05 59.59 18.08 59.46C18.12 59.32 18.18 59.18 18.28 59.03L18.95 57.98L18.76 57.86L19.08 57.37L20.12 58.04L19.81 58.53L19.62 58.41L18.95 59.45C18.91 59.52 18.87 59.58 18.86 59.64C18.84 59.7 18.84 59.75 18.85 59.79C18.86 59.83 18.89 59.87 18.92 59.9C18.95 59.94 18.98 59.97 19.03 60C19.07 60.02 19.12 60.05 19.16 60.06C19.21 60.08 19.25 60.09 19.29 60.08C19.34 60.07 19.39 60.05 19.44 60.02C19.48 59.98 19.53 59.92 19.58 59.85L20.24 58.81L20.05 58.69L20.37 58.2L21.41 58.87L21.1 59.36L20.91 59.24L20.24 60.28C20.04 60.59 19.82 60.76 19.58 60.81C19.33 60.85 19.04 60.76 18.68 60.53Z" fill="#000000" fill-opacity="1.000000" fill-rule="nonzero"/>
	<path id="P" d="M11.95 53.34L11.75 53.52L11.93 53.73L11.5 54.12L10.62 53.14L11.05 52.75L11.21 52.92L12.43 51.82L12.27 51.65L12.71 51.26L13.63 52.29C13.78 52.45 13.88 52.59 13.95 52.72C14.01 52.85 14.05 52.97 14.04 53.08C14.04 53.19 14.01 53.29 13.94 53.39C13.87 53.5 13.78 53.6 13.66 53.71C13.52 53.83 13.39 53.93 13.27 53.99C13.15 54.04 13.03 54.07 12.91 54.06C12.8 54.05 12.68 54.01 12.56 53.93C12.44 53.85 12.31 53.74 12.17 53.59L11.95 53.34ZM12.38 52.95L12.58 53.17C12.65 53.24 12.72 53.27 12.79 53.27C12.87 53.26 12.96 53.21 13.07 53.11C13.13 53.05 13.17 53.01 13.2 52.96C13.23 52.92 13.25 52.88 13.25 52.84C13.26 52.81 13.25 52.77 13.23 52.74C13.22 52.71 13.2 52.68 13.17 52.64L12.97 52.42L12.38 52.95Z" fill="#000000" fill-opacity="1.000000" fill-rule="nonzero"/>
	<path id="P" d="M31.59 63.59L31.59 63.86L31.86 63.87L31.85 64.45L30.54 64.43L30.55 63.85L30.78 63.85L30.81 62.21L30.58 62.2L30.59 61.62L31.97 61.64C32.18 61.65 32.36 61.67 32.5 61.71C32.64 61.75 32.75 61.8 32.83 61.88C32.91 61.96 32.96 62.05 32.99 62.17C33.02 62.29 33.03 62.43 33.03 62.59C33.03 62.78 33 62.93 32.96 63.06C32.93 63.19 32.86 63.3 32.77 63.38C32.69 63.46 32.58 63.51 32.44 63.55C32.3 63.58 32.13 63.6 31.93 63.6L31.59 63.59ZM31.6 63.01L31.9 63.01C32 63.01 32.07 62.98 32.11 62.92C32.16 62.86 32.18 62.76 32.18 62.61C32.19 62.53 32.18 62.47 32.17 62.42C32.16 62.37 32.14 62.33 32.12 62.3C32.09 62.27 32.06 62.25 32.03 62.24C32 62.23 31.96 62.23 31.91 62.22L31.62 62.22L31.6 63.01Z" fill="#000000" fill-opacity="1.000000" fill-rule="nonzero"/>
	<path id="P" d="M16.48 57.69L16.31 57.91L16.53 58.07L16.17 58.53L15.13 57.73L15.49 57.27L15.67 57.41L16.68 56.11L16.5 55.97L16.86 55.51L17.95 56.36C18.12 56.49 18.25 56.62 18.34 56.73C18.42 56.85 18.48 56.96 18.5 57.07C18.51 57.18 18.5 57.29 18.45 57.4C18.4 57.51 18.33 57.63 18.23 57.75C18.11 57.9 18 58.02 17.89 58.09C17.78 58.17 17.67 58.22 17.55 58.23C17.44 58.24 17.31 58.22 17.18 58.17C17.05 58.11 16.9 58.02 16.74 57.9L16.48 57.69ZM16.84 57.23L17.07 57.41C17.15 57.47 17.22 57.49 17.29 57.47C17.37 57.45 17.45 57.38 17.54 57.27C17.59 57.2 17.62 57.15 17.65 57.1C17.67 57.06 17.68 57.01 17.67 56.98C17.67 56.94 17.66 56.91 17.64 56.88C17.62 56.85 17.59 56.82 17.55 56.79L17.32 56.61L16.84 57.23Z" fill="#000000" fill-opacity="1.000000" fill-rule="nonzero"/>
	<path id="O" d="M13.14 12.88C13.08 12.95 13.03 13.02 12.99 13.09C12.96 13.17 12.95 13.26 12.97 13.36C13 13.47 13.06 13.59 13.16 13.73C13.26 13.88 13.41 14.06 13.61 14.26C13.82 14.47 14 14.62 14.14 14.72C14.28 14.82 14.4 14.89 14.51 14.91C14.61 14.94 14.7 14.93 14.77 14.9C14.85 14.86 14.92 14.8 15 14.73C15.07 14.65 15.13 14.58 15.16 14.51C15.2 14.43 15.2 14.34 15.18 14.24C15.15 14.13 15.09 14.01 14.99 13.87C14.89 13.73 14.73 13.55 14.53 13.35C14.32 13.14 14.14 12.99 14 12.89C13.85 12.79 13.73 12.73 13.62 12.71C13.52 12.69 13.43 12.69 13.36 12.73C13.28 12.77 13.21 12.82 13.14 12.88ZM12.52 12.26C12.71 12.06 12.91 11.91 13.11 11.78C13.32 11.65 13.54 11.58 13.78 11.58C14.02 11.56 14.27 11.62 14.55 11.76C14.82 11.89 15.12 12.11 15.44 12.43C15.75 12.75 15.97 13.04 16.1 13.31C16.24 13.58 16.3 13.83 16.29 14.07C16.29 14.3 16.22 14.53 16.1 14.74C15.98 14.95 15.82 15.16 15.62 15.35C15.43 15.54 15.23 15.7 15.02 15.83C14.82 15.96 14.6 16.03 14.36 16.04C14.12 16.05 13.87 15.99 13.6 15.86C13.33 15.73 13.03 15.5 12.7 15.18C12.39 14.86 12.17 14.57 12.03 14.3C11.9 14.03 11.84 13.78 11.85 13.54C11.85 13.3 11.92 13.08 12.04 12.87C12.17 12.66 12.32 12.45 12.52 12.26Z" fill="#000000" fill-opacity="1.000000" fill-rule="nonzero"/>
	<path id="O" d="M27.57 4.72C27.48 4.74 27.4 4.77 27.33 4.82C27.26 4.86 27.21 4.93 27.17 5.03C27.13 5.13 27.12 5.27 27.12 5.44C27.12 5.62 27.16 5.85 27.22 6.13C27.28 6.42 27.34 6.64 27.41 6.81C27.47 6.97 27.54 7.09 27.61 7.16C27.69 7.24 27.76 7.29 27.85 7.3C27.93 7.31 28.02 7.3 28.13 7.28C28.23 7.26 28.32 7.22 28.39 7.18C28.46 7.14 28.51 7.06 28.55 6.96C28.58 6.86 28.59 6.73 28.58 6.55C28.58 6.38 28.54 6.15 28.48 5.86C28.42 5.58 28.35 5.35 28.29 5.19C28.22 5.03 28.14 4.91 28.07 4.84C28 4.76 27.92 4.72 27.83 4.71C27.75 4.7 27.66 4.7 27.57 4.72ZM27.39 3.86C27.65 3.8 27.91 3.77 28.15 3.78C28.39 3.78 28.61 3.85 28.82 3.97C29.02 4.09 29.2 4.28 29.36 4.54C29.52 4.79 29.65 5.15 29.74 5.59C29.84 6.02 29.86 6.39 29.83 6.69C29.79 6.98 29.71 7.23 29.58 7.43C29.44 7.62 29.27 7.77 29.05 7.88C28.83 8 28.58 8.08 28.31 8.14C28.05 8.2 27.79 8.22 27.55 8.22C27.31 8.21 27.08 8.15 26.88 8.03C26.68 7.91 26.5 7.72 26.34 7.47C26.18 7.21 26.05 6.86 25.96 6.41C25.86 5.97 25.83 5.61 25.87 5.31C25.91 5.01 25.99 4.77 26.13 4.57C26.26 4.37 26.44 4.22 26.65 4.11C26.87 4 27.12 3.91 27.39 3.86Z" fill="#000000" fill-opacity="1.000000" fill-rule="nonzero"/>
	<path id="A" d="M56.68 18.35L59.11 17.5L58.92 17.23L59.65 16.73L61.12 18.88L58.83 21.5L59 21.75L58.27 22.25L57.2 20.67L57.92 20.17L58.12 20.46L58.45 20.1L57.78 19.11L57.32 19.29L57.51 19.57L56.79 20.07L55.78 18.6L56.51 18.1L56.68 18.35ZM59.71 18.37L58.65 18.78L59.08 19.43L59.86 18.6L59.71 18.37Z" fill="#000000" fill-opacity="1.000000" fill-rule="nonzero"/>
	<path id="A" d="M33.66 64.08L34.08 62.44L33.87 62.45L33.86 61.87L35.57 61.84L36.18 64.05L36.37 64.05L36.38 64.63L35.13 64.65L35.12 64.06L35.35 64.06L35.27 63.75L34.48 63.76L34.41 64.07L34.64 64.07L34.65 64.65L33.47 64.67L33.47 64.09L33.66 64.08ZM34.78 62.43L34.62 63.16L35.13 63.16L34.96 62.43L34.78 62.43Z" fill="#000000" fill-opacity="1.000000" fill-rule="nonzero"/>
	<path id="A" d="M40.6 63.39L40.61 61.7L40.4 61.75L40.25 61.19L41.91 60.75L43.03 62.75L43.22 62.7L43.37 63.26L42.15 63.58L42 63.02L42.22 62.96L42.08 62.68L41.31 62.88L41.32 63.2L41.54 63.14L41.69 63.71L40.55 64.01L40.41 63.44L40.6 63.39ZM41.28 61.52L41.3 62.27L41.8 62.14L41.46 61.47L41.28 61.52Z" fill="#000000" fill-opacity="1.000000" fill-rule="nonzero"/>
	<path id="A" d="M53.17 56.85L52.39 55.35L52.23 55.49L51.84 55.07L53.1 53.91L55.02 55.15L55.17 55.02L55.56 55.44L54.64 56.29L54.24 55.87L54.41 55.71L54.15 55.53L53.56 56.06L53.72 56.34L53.89 56.19L54.28 56.62L53.42 57.41L53.03 56.99L53.17 56.85ZM52.9 54.88L53.27 55.53L53.65 55.18L53.04 54.75L52.9 54.88Z" fill="#000000" fill-opacity="1.000000" fill-rule="nonzero"/>
	<path id="T" d="M55.45 13.99L54.76 13.33L55.23 12.83L54.93 12.55L53.18 14.41L53.48 14.69L52.85 15.35L51.34 13.92L51.96 13.26L52.26 13.55L54.02 11.69L53.72 11.4L53.25 11.9L52.55 11.25L53.65 10.09L56.55 12.83L55.45 13.99Z" fill="#000000" fill-opacity="1.000000" fill-rule="nonzero"/>
	<path id="T" d="M10.06 17.29L9.57 18.11L8.98 17.75L8.77 18.1L10.96 19.43L11.17 19.07L11.95 19.54L10.87 21.32L10.09 20.85L10.31 20.5L8.12 19.18L7.91 19.53L8.49 19.88L8 20.7L6.64 19.88L8.7 16.46L10.06 17.29Z" fill="#000000" fill-opacity="1.000000" fill-rule="nonzero"/>
	<path id="I" d="M48.01 7.6L47.69 7.44L48.08 6.64L49.85 7.48L49.46 8.29L49.15 8.14L48.06 10.42L48.37 10.57L47.99 11.38L46.21 10.53L46.6 9.72L46.92 9.87L48.01 7.6Z" fill="#000000" fill-opacity="1.000000" fill-rule="nonzero"/>
	<path id="I" d="M48.08 58.76L47.88 58.9L47.54 58.37L48.7 57.64L49.03 58.16L48.83 58.3L49.77 59.78L49.97 59.65L50.31 60.18L49.15 60.91L48.81 60.38L49.02 60.25L48.08 58.76Z" fill="#000000" fill-opacity="1.000000" fill-rule="nonzero"/>
	<path id="Star 1" d="M5.17 31.6L4.67 33.16L3.03 33.16L4.35 34.13L3.85 35.69L5.17 34.72L6.5 35.69L6 34.13L7.32 33.16L5.68 33.16L5.17 31.6Z" fill="#5C5C5C" fill-opacity="1.000000" fill-rule="nonzero"/>
	<path id="Star 2" d="M62.82 31.6L62.31 33.16L60.67 33.16L62 34.13L61.49 35.69L62.82 34.72L64.14 35.69L63.64 34.13L64.96 33.16L63.32 33.16L62.82 31.6Z" fill="#5C5C5C" fill-opacity="1.000000" fill-rule="nonzero"/>
	<circle id="Ellipse 87" cx="34.000000" cy="34.000000" r="33.484375" stroke="#000000" stroke-opacity="1.000000" stroke-width="1.031250"/>
</svg>
