<svg width="153.001221" height="22.000000" viewBox="0 0 153.001 22" fill="none" xmlns="http://www.w3.org/2000/svg" xmlns:xlink="http://www.w3.org/1999/xlink">
	<desc>
			Created with Pixso.
	</desc>
	<defs/>
	<path id="PYMNTS" d="M0 0.52L9.4 0.52C11.25 0.52 12.75 1.05 13.89 2.1C15.03 3.14 15.6 4.6 15.6 6.5C15.6 8.12 15.09 9.54 14.08 10.75C13.06 11.96 11.5 12.56 9.4 12.56L2.83 12.56L2.83 21.37L0 21.37L0 0.52ZM12.74 6.51C12.74 4.98 12.17 3.94 11.03 3.39C10.41 3.09 9.55 2.95 8.46 2.95L2.83 2.95L2.83 10.17L8.46 10.17C9.73 10.17 10.76 9.9 11.54 9.36C12.34 8.82 12.74 7.87 12.74 6.51Z" fill="#C4C4C4" fill-opacity="1.000000" fill-rule="nonzero"/>
	<path id="PYMNTS" d="M14.76 0.52L18.06 0.52L24.07 10.54L30.07 0.52L33.38 0.52L25.49 12.97L25.49 21.37L22.66 21.37L22.66 12.97L14.76 0.52Z" fill="#C4C4C4" fill-opacity="1.000000" fill-rule="nonzero"/>
	<path id="PYMNTS" d="M36.69 0.52L40.75 0.52L46.75 18.15L52.71 0.52L56.72 0.52L56.72 21.37L54.03 21.37L54.03 9.07C54.03 8.64 54.04 7.93 54.06 6.95C54.08 5.97 54.09 4.91 54.09 3.78L48.13 21.37L45.33 21.37L39.32 3.78L39.32 4.42C39.32 4.93 39.33 5.72 39.35 6.77C39.38 7.81 39.39 8.57 39.39 9.07L39.39 21.37L36.69 21.37L36.69 0.52Z" fill="#C4C4C4" fill-opacity="1.000000" fill-rule="nonzero"/>
	<path id="PYMNTS" d="M54.03 0.52L57.37 0.52L67.93 17.41L67.93 0.52L70.61 0.52L70.61 21.37L67.44 21.37L56.64 3.78L56.73 21.37L54.03 21.37L54.03 10.95L54.03 0.52Z" fill="#C4C4C4" fill-opacity="1.000000" fill-rule="nonzero"/>
	<path id="PYMNTS" d="M90.01 0.52L90.01 3L82.97 3L82.97 21.37L80.1 21.37L80.1 3L73.05 3L73.05 0.52L90.01 0.52Z" fill="#C4C4C4" fill-opacity="1.000000" fill-rule="nonzero"/>
	<path id="PYMNTS" d="M94.46 14.64C94.53 15.83 94.81 16.79 95.3 17.52C96.24 18.91 97.89 19.6 100.26 19.6C101.33 19.6 102.29 19.45 103.17 19.14C104.85 18.56 105.7 17.51 105.7 15.99C105.7 14.86 105.34 14.05 104.63 13.56C103.91 13.09 102.78 12.68 101.25 12.33L98.41 11.69C96.57 11.27 95.26 10.82 94.49 10.31C93.16 9.44 92.5 8.14 92.5 6.41C92.5 4.54 93.15 3 94.45 1.8C95.75 0.6 97.58 0 99.96 0C102.16 0 104.01 0.52 105.54 1.58C107.08 2.64 107.84 4.32 107.84 6.64L105.18 6.64C105.04 5.52 104.74 4.66 104.27 4.07C103.41 2.98 101.95 2.44 99.88 2.44C98.21 2.44 97.01 2.79 96.28 3.49C95.55 4.19 95.19 5 95.19 5.93C95.19 6.95 95.61 7.7 96.47 8.17C97.03 8.47 98.29 8.85 100.26 9.31L103.19 9.97C104.61 10.3 105.7 10.74 106.46 11.29C107.79 12.27 108.46 13.68 108.46 15.54C108.46 17.85 107.61 19.5 105.92 20.49C104.25 21.49 102.29 21.98 100.06 21.98C97.47 21.98 95.43 21.32 93.96 19.99C92.49 18.68 91.77 16.9 91.8 14.64L94.46 14.64Z" fill="#C4C4C4" fill-opacity="1.000000" fill-rule="nonzero"/>
	<path id="Rectangle 4182" d="M54.01 0.52L56.73 0.52L56.73 21.41L54.01 21.41L54.01 0.52Z" fill="#C4C4C4" fill-opacity="1.000000" fill-rule="nonzero"/>
	<path id=".com" d="M117.92 21.34Q119.04 22 120.6 22C121.5 22 122.28 21.83 122.94 21.5C123.59 21.17 124.11 20.72 124.48 20.13C124.86 19.55 125.07 18.87 125.12 18.1L122.47 18.1C122.42 18.45 122.3 18.76 122.13 19.01C121.97 19.26 121.75 19.45 121.49 19.58C121.24 19.71 120.95 19.78 120.63 19.78Q120.17 19.78 119.8 19.6Q119.64 19.53 119.49 19.42C119.17 19.19 118.91 18.84 118.73 18.39Q118.47 17.71 118.47 16.75C118.47 16.11 118.56 15.57 118.74 15.12C118.92 14.68 119.17 14.34 119.49 14.11Q119.64 14 119.8 13.92L119.8 13.92Q120.17 13.75 120.63 13.75C121.14 13.75 121.56 13.91 121.88 14.22C122.2 14.52 122.39 14.93 122.47 15.43L125.12 15.43Q125.06 14.39 124.6 13.59Q124.54 13.49 124.48 13.39C124.09 12.82 123.57 12.37 122.9 12.05Q121.91 11.57 120.58 11.57Q119.05 11.57 117.94 12.23Q117.46 12.51 117.08 12.88L117.08 12.88Q116.57 13.39 116.22 14.07Q115.62 15.24 115.62 16.79C115.62 17.81 115.81 18.71 116.21 19.5Q116.55 20.16 117.04 20.65Q117.43 21.05 117.92 21.34ZM131.49 22Q129.95 22 128.83 21.34C128.09 20.91 127.52 20.3 127.11 19.52Q126.51 18.34 126.51 16.79Q126.51 15.22 127.11 14.05Q127.46 13.37 127.99 12.86Q128.37 12.5 128.83 12.22Q129.95 11.57 131.49 11.57C132.51 11.57 133.39 11.79 134.13 12.22Q134.62 12.51 135 12.88Q135.52 13.38 135.86 14.05Q136.47 15.22 136.47 16.79Q136.47 18.34 135.86 19.52Q135.53 20.16 135.04 20.64Q134.64 21.05 134.13 21.34C133.39 21.78 132.51 22 131.49 22ZM138.29 11.7L138.29 21.8L141.1 21.8L141.1 15.74C141.1 15.36 141.17 15.04 141.32 14.76C141.46 14.48 141.66 14.27 141.9 14.11C142.15 13.95 142.43 13.87 142.75 13.87C143.21 13.87 143.58 14.02 143.86 14.32C144.14 14.61 144.29 15 144.29 15.5L144.29 21.8L147.01 21.8L147.01 15.63Q147.01 14.94 147.34 14.49Q147.38 14.42 147.44 14.36C147.72 14.04 148.12 13.87 148.63 13.87C149.08 13.87 149.45 14.02 149.75 14.3C150.05 14.58 150.2 15 150.2 15.56L150.2 21.8L153 21.8L153 15.01Q153 13.51 152.26 12.63Q152.19 12.55 152.11 12.47C151.52 11.87 150.75 11.57 149.81 11.57C149.07 11.57 148.42 11.74 147.88 12.09C147.34 12.44 146.96 12.9 146.76 13.48L146.65 13.48C146.49 12.89 146.16 12.43 145.68 12.09Q145.59 12.02 145.5 11.97Q144.82 11.57 143.9 11.57Q143.02 11.57 142.35 11.95Q142.24 12.01 142.14 12.08C141.65 12.42 141.3 12.89 141.09 13.48L140.97 13.48L140.97 11.7L138.29 11.7ZM131.5 19.83C131.96 19.83 132.35 19.69 132.67 19.43Q133.13 19.03 133.37 18.34C133.53 17.88 133.61 17.36 133.61 16.77C133.61 16.18 133.53 15.66 133.37 15.2Q133.13 14.51 132.67 14.11C132.35 13.84 131.96 13.7 131.5 13.7C131.03 13.7 130.63 13.84 130.31 14.11C130 14.37 129.76 14.74 129.6 15.2C129.44 15.66 129.36 16.18 129.36 16.77C129.36 17.36 129.44 17.88 129.6 18.34C129.76 18.8 130 19.16 130.31 19.43C130.63 19.69 131.03 19.83 131.5 19.83ZM111.02 21.51C111.33 21.82 111.7 21.97 112.14 21.97Q112.41 21.97 112.65 21.89Q112.79 21.84 112.92 21.76C113.16 21.61 113.35 21.42 113.5 21.19C113.65 20.95 113.72 20.68 113.72 20.39Q113.72 20.1 113.62 19.84L113.62 19.84Q113.5 19.54 113.25 19.29Q112.97 19.02 112.65 18.91Q112.41 18.83 112.14 18.83Q111.82 18.83 111.55 18.94L111.55 18.94L111.55 18.94Q111.26 19.05 111.02 19.29Q110.78 19.52 110.66 19.81Q110.56 20.08 110.56 20.39Q110.56 20.71 110.67 20.98L110.67 20.98Q110.78 21.27 111.02 21.51Z" fill="#898989" fill-opacity="1.000000" fill-rule="evenodd"/>
</svg>
