<svg width="203.000977" height="40.000000" viewBox="0 0 203.001 40" fill="none" xmlns="http://www.w3.org/2000/svg" xmlns:xlink="http://www.w3.org/1999/xlink">
	<desc>
			Created with Pixso.
	</desc>
	<defs/>
	<path id="TECH" d="M110.67 23.75C111.04 22.97 111 21.57 111 21.57L106.18 21.57C105.76 22.36 104.68 24.31 102.85 24.31C100.62 24.31 98.88 22.18 98.88 19.23C98.88 16.29 100.62 14.34 102.85 14.34C104.68 14.34 105.76 16.04 106.18 16.83L111 16.83C111 16.83 110.76 15.61 110.44 14.89C109.06 11.75 106.92 10.45 102.85 10.45C97.43 10.45 93.74 13.55 93.74 19.23C93.74 24.92 97.43 28.02 102.85 28.02C106.92 28.02 109.66 25.88 110.67 23.75ZM70.26 27.56L65.99 27.56L65.99 14.89L59.94 14.89L59.94 10.91L76.57 10.91L76.57 14.89L70.26 14.89L70.26 27.56ZM92.47 27.56L77.97 27.56L77.97 10.91L92.35 10.91L92.35 14.89L82.27 14.89L82.27 17.59L91.33 17.59L91.33 21.22L82.27 21.22L82.27 23.64L92.47 23.64L92.47 27.56ZM118.43 27.56L113.36 27.56L113.36 10.91L118.43 10.91L118.43 16.83L122.97 16.83L122.97 10.91L128.06 10.91L128.06 27.56L122.97 27.56L122.97 20.5L118.43 20.5L118.43 27.56Z" fill="#C4C4C4" fill-opacity="1.000000" fill-rule="evenodd"/>
	<path id="ASIA" d="M173.78 28.02C169.31 28.02 167.56 26.77 166.55 24.08C166.32 23.46 166.12 22.26 166.12 22.26L170.7 22.26C170.98 22.63 171.95 24.31 173.78 24.31C174.96 24.31 175.36 23.98 175.55 23.19C175.78 22.26 175.11 21.66 172.96 21.25C167.82 20.25 166.61 18.19 166.61 15.72C166.61 12.46 169.84 10.48 173.37 10.64C175.87 10.75 176.87 11.17 178.36 12.66C179.41 13.7 179.59 15.93 179.59 15.93L176.28 15.97C175.89 15.47 174.88 14 173.37 14C172.43 14 171.55 14.57 171.34 15.26C170.95 16.53 172.13 17.04 173.16 17.25C177.24 17.83 180.19 19.23 180.19 22.59C180.19 25.73 178.67 28.02 173.78 28.02ZM154.8 27.56L150.24 27.56L156.47 10.91L160.54 10.91L166.8 27.56L162.1 27.56L161.27 24.31L155.69 24.31L154.8 27.56ZM181.39 27.56L191 27.56L191.88 24.31L197.47 24.31L198.3 27.56L203 27.56L196.74 10.91L192.67 10.91L186.44 27.56L186.22 10.91L181.39 10.91L181.39 27.56ZM158.46 16.53L157.05 20.78L159.88 20.78L158.46 16.53ZM194.66 16.53L193.25 20.78L196.07 20.78L194.66 16.53Z" fill="#909599" fill-opacity="1.000000" fill-rule="evenodd"/>
	<path id="IN" d="M130 10.98L130 27.62L131.57 27.62L131.57 10.98L130 10.98ZM137.41 13.1L137.46 13.1L147.05 27.62L148.88 27.62L148.88 10.98L147.3 10.98L147.3 25.52L147.26 25.52L137.62 10.98L135.84 10.98L135.84 27.62L137.41 27.62L137.41 13.1Z" fill="#909599" fill-opacity="1.000000" fill-rule="evenodd"/>
	<path id="Vector 152" d="M41.97 17.25L38.04 15.12L35.01 19.83L57.24 32.49L38.61 0L21.1 28.9L21.1 17.59L15.71 12.77L22.67 12.77L27.72 15.35L30.52 10.75L24.01 7.17L0 7.17L15.15 20.28L15.15 28.9L21.43 40L38.61 11.42L41.97 17.25Z" fill="#C4C4C4" fill-opacity="1.000000" fill-rule="evenodd"/>
</svg>
