<svg width="188.998535" height="28.000000" viewBox="0 0 188.999 28" fill="none" xmlns="http://www.w3.org/2000/svg" xmlns:xlink="http://www.w3.org/1999/xlink">
	<desc>
			Created with Pixso.
	</desc>
	<defs/>
	<path id="TechCrunch" d="M66.81 27.43L70.95 27.43L70.95 14.58L76.37 14.58L76.37 11.31L61.41 11.31L61.41 14.58L66.81 14.58L66.81 27.43Z" fill="#C4C4C4" fill-opacity="1.000000" fill-rule="nonzero"/>
	<path id="TechCrunch" d="M79.54 22.82L86.45 22.82C86.88 18.3 84.65 15.77 81.23 15.79C78.09 15.81 75.86 18.16 75.86 21.77C75.86 25.37 77.29 27.7 81.32 27.7C84.41 27.7 85.37 26.68 86.15 25.61L84.74 23.76C84.41 24.03 82.9 25.04 81.92 24.96C80.68 24.85 79.62 23.96 79.54 22.82ZM83.22 20.87L79.54 20.87C79.65 19.62 80.29 18.77 81.38 18.77C82.47 18.77 83.2 19.64 83.22 20.87Z" fill="#C4C4C4" fill-opacity="1.000000" fill-rule="nonzero"/>
	<path id="TechCrunch" d="M97.87 25.39L95.34 23.43C95.07 23.87 94.61 24.52 93.43 24.52C93.05 24.52 91.58 24.52 91.58 21.77C91.58 19.01 92.77 18.77 93.43 18.77C94.08 18.77 95.07 19.57 95.34 20.02L97.77 18.34C97.33 17.47 95.61 15.74 93.05 15.74C90.5 15.74 88.22 18.16 88.22 21.77C88.22 25.37 90.82 27.79 93.05 27.7C96.19 27.7 97.11 26.8 97.87 25.39Z" fill="#C4C4C4" fill-opacity="1.000000" fill-rule="nonzero"/>
	<path id="TechCrunch" d="M99.39 27.43L103.36 27.43L103.36 21.61C103.36 20.04 103.49 18.77 105.04 18.77C106.56 18.77 106.67 20 106.67 21.57L106.67 27.43L110.25 27.48L110.25 21.61C110.25 18.14 110.18 15.79 106.67 15.79C104.74 15.79 103.8 16.77 103.36 17.63L103.36 10.41L99.39 12.15L99.39 27.43Z" fill="#C4C4C4" fill-opacity="1.000000" fill-rule="nonzero"/>
	<path id="TechCrunch" d="M127.23 23.72L123.64 21.84C123.21 22.57 122.56 24.22 120.82 24.25C119.07 24.28 117.89 21.84 117.89 19.39C117.89 16.95 118.66 14.88 120.82 14.81C122.48 14.75 123.54 16.89 123.96 17.63L127.23 16.28C126.38 13.91 124.06 11.15 120.82 11.01C116.54 10.82 113.77 13.95 113.77 19.39C113.77 24.84 116.49 27.97 120.82 27.93C123.81 27.89 126.38 26.09 127.23 23.72Z" fill="#909599" fill-opacity="1.000000" fill-rule="nonzero"/>
	<path id="TechCrunch" d="M129.06 27.7L133.02 27.7L133.02 22.01C133.02 20.2 134.24 18.76 135.76 19.1C136.43 19.26 136.77 19.69 137.2 20.12L138.07 16.65C137.62 16.52 136.63 16.06 135.94 16.06C134.1 16.06 133.25 17.4 133.02 17.94L133.02 16.28L129.06 16.28L129.06 27.7Z" fill="#909599" fill-opacity="1.000000" fill-rule="nonzero"/>
	<path id="TechCrunch" d="M147.42 27.7L149.4 27.7L150.66 27.7L150.66 21.99L150.66 16.28L146.75 16.28L146.75 22.15C146.75 23.72 146.58 24.9 145.02 24.9C143.49 24.9 143.5 23.72 143.5 22.15L143.5 16.28L139.91 16.28L139.91 22.15C139.91 25.62 140.59 27.93 144.11 27.93C146.03 27.93 146.97 26.94 147.42 26.09L147.42 27.7Z" fill="#909599" fill-opacity="1.000000" fill-rule="nonzero"/>
	<path id="TechCrunch" d="M153.71 27.7L157.67 27.7L157.67 21.88C157.67 20.31 157.69 19.1 159.23 19.1C160.75 19.1 160.98 20.27 160.98 21.84L160.98 27.7L164.83 27.7L164.83 21.84C164.83 18.36 163.35 15.46 159.99 16.16C158.88 16.39 158.12 17.04 157.67 17.89L157.67 16.28L153.71 16.28L153.71 27.7Z" fill="#909599" fill-opacity="1.000000" fill-rule="nonzero"/>
	<path id="TechCrunch" d="M176.62 25.39L174.09 23.43C173.82 23.87 173.36 24.52 172.17 24.52C171.8 24.52 170.33 24.52 170.33 21.77C170.33 19.01 171.52 18.77 172.17 18.77C172.83 18.77 173.82 19.57 174.09 20.02L176.51 18.34C176.08 17.47 174.36 15.74 171.8 15.74C169.24 15.74 166.97 18.16 166.97 21.77C166.97 25.37 169.57 27.79 171.8 27.7C174.94 27.7 175.86 26.8 176.62 25.39Z" fill="#909599" fill-opacity="1.000000" fill-rule="nonzero"/>
	<path id="TechCrunch" d="M178.14 27.43L182.1 27.43L182.1 21.61C182.1 20.04 182.24 18.77 183.79 18.77C185.31 18.77 185.42 20 185.42 21.57L185.42 27.43L188.99 27.48L188.99 21.61C188.99 18.14 188.93 15.79 185.42 15.79C183.49 15.79 182.55 16.77 182.1 17.63L182.1 10.41L178.14 12.15L178.14 27.43Z" fill="#909599" fill-opacity="1.000000" fill-rule="nonzero"/>
	<path id="Vector 153" d="M18.15 28L18.15 9.74L27.42 9.74L27.42 28L54.75 28L54.75 18.73L36.59 18.73L36.59 9.74L54.75 9.74L54.75 0L36.59 0L36.59 9.74L27.42 9.74L27.42 0L0 0L0 9.74L9.17 9.74L9.17 28L18.15 28Z" fill="#C4C4C4" fill-opacity="1.000000" fill-rule="evenodd"/>
</svg>
