<svg width="169.000000" height="20.000000" viewBox="0 0 169 20" fill="none" xmlns="http://www.w3.org/2000/svg" xmlns:xlink="http://www.w3.org/1999/xlink">
	<desc>
			Created with Pixso.
	</desc>
	<defs/>
	<path id="VentureBeat" d="M9.9 15.34L12.37 4.75L10.88 4.75L10.88 0.87L19.03 0.87L19.03 4.75L17.71 4.75L13.69 19.56L5.11 19.56L1.32 4.75L0 4.75L0 0.87L8.61 0.87L8.61 4.75L7.09 4.75L9.38 15.34L9.9 15.34Z" fill="#C4C4C4" fill-opacity="1.000000" fill-rule="nonzero"/>
	<path id="VentureBeat" d="M33.03 14.3C33.03 15.07 32.92 15.8 32.71 16.49C32.52 17.18 32.15 17.78 31.59 18.3C31.06 18.82 30.32 19.23 29.38 19.53C28.44 19.84 27.25 20 25.79 20C24.74 20 23.79 19.88 22.95 19.65C22.11 19.44 21.39 19.05 20.8 18.47C20.2 17.9 19.74 17.12 19.42 16.14C19.09 15.14 18.93 13.88 18.93 12.35C18.93 10.91 19.08 9.7 19.39 8.72C19.72 7.73 20.18 6.92 20.8 6.31C21.43 5.69 22.19 5.25 23.09 4.98C24.01 4.7 25.06 4.55 26.25 4.55C27.52 4.55 28.58 4.7 29.44 4.98C30.3 5.25 30.99 5.66 31.51 6.22C32.04 6.76 32.42 7.44 32.65 8.26C32.9 9.07 33.03 10 33.03 11.05L33.03 13.15L24.27 13.15C24.27 13.8 24.3 14.33 24.36 14.73C24.43 15.12 24.55 15.41 24.7 15.62C24.87 15.82 25.09 15.95 25.36 16.03C25.63 16.08 25.97 16.11 26.4 16.11C27.1 16.11 27.6 15.95 27.89 15.62C28.18 15.3 28.32 14.86 28.32 14.3L33.03 14.3ZM26.25 8.38C25.87 8.38 25.55 8.41 25.3 8.46C25.06 8.52 24.85 8.64 24.7 8.81C24.55 8.96 24.43 9.18 24.36 9.47C24.3 9.74 24.27 10.09 24.27 10.53L28.2 10.53C28.2 10.09 28.18 9.74 28.12 9.47C28.06 9.18 27.96 8.96 27.8 8.81C27.67 8.64 27.48 8.52 27.23 8.46C26.98 8.41 26.65 8.38 26.25 8.38Z" fill="#C4C4C4" fill-opacity="1.000000" fill-rule="nonzero"/>
	<path id="VentureBeat" d="M40.55 7.54C40.93 6.51 41.52 5.75 42.33 5.27C43.13 4.79 44.13 4.55 45.31 4.55C45.96 4.55 46.56 4.63 47.09 4.78C47.65 4.94 48.13 5.2 48.53 5.59C48.93 5.95 49.24 6.45 49.45 7.08C49.68 7.7 49.79 8.47 49.79 9.41L49.79 15.71L51.17 15.71L51.17 19.56L43.5 19.56L43.5 15.71L44.65 15.71L44.65 10.82C44.65 10.17 44.54 9.7 44.31 9.41C44.08 9.12 43.66 8.98 43.05 8.98C42.49 8.98 42.03 9.14 41.67 9.47C41.3 9.8 41.12 10.36 41.12 11.17L41.12 15.71L42.27 15.71L42.27 19.56L34.6 19.56L34.6 15.71L35.98 15.71L35.98 8.84L34.72 8.84L34.72 4.98L40.55 4.98L40.55 7.54Z" fill="#C4C4C4" fill-opacity="1.000000" fill-rule="nonzero"/>
	<path id="VentureBeat" d="M53.08 4.98L53.08 1.7L58.22 0L58.22 4.98L60.98 4.98L60.98 8.84L58.22 8.84L58.22 14.59C58.22 15.03 58.3 15.35 58.45 15.54C58.62 15.73 58.94 15.83 59.4 15.83C59.65 15.83 59.95 15.82 60.32 15.8C60.7 15.76 61.06 15.71 61.38 15.65L61.38 19.48C61.06 19.55 60.54 19.63 59.83 19.71C59.14 19.8 58.42 19.85 57.68 19.85C56.76 19.85 56 19.77 55.41 19.62C54.82 19.49 54.35 19.24 54 18.87C53.66 18.49 53.42 17.96 53.28 17.29C53.15 16.62 53.08 15.76 53.08 14.7L53.08 8.84L51.7 8.84L51.7 4.98L53.08 4.98Z" fill="#C4C4C4" fill-opacity="1.000000" fill-rule="nonzero"/>
	<path id="VentureBeat" d="M68.47 4.98L68.47 14.85C68.47 15.63 68.84 16.03 69.56 16.03C70.33 16.03 70.86 15.86 71.14 15.54C71.45 15.21 71.6 14.77 71.6 14.21L71.6 8.84L70.05 8.84L70.05 4.98L76.74 4.98L76.74 14.93C76.74 15.26 76.78 15.47 76.86 15.57C76.95 15.66 77.15 15.71 77.46 15.71L78.12 15.71L78.12 19.56L74.7 19.56C73.9 19.56 73.28 19.4 72.84 19.07C72.42 18.73 72.2 18.11 72.18 17.21C71.83 18.05 71.28 18.73 70.51 19.25C69.77 19.75 68.75 20 67.47 20C66.84 20 66.26 19.92 65.75 19.76C65.25 19.63 64.82 19.4 64.45 19.07C64.11 18.73 63.83 18.28 63.62 17.72C63.43 17.15 63.33 16.43 63.33 15.57L63.33 8.84L61.98 8.84L61.98 4.98L68.47 4.98Z" fill="#C4C4C4" fill-opacity="1.000000" fill-rule="nonzero"/>
	<path id="VentureBeat" d="M80.73 15.71L80.73 8.84L79.47 8.84L79.47 4.98L85.87 4.98L85.87 7.08C86.16 6.18 86.61 5.54 87.22 5.16C87.83 4.75 88.69 4.55 89.78 4.55C90.24 4.55 90.7 4.59 91.16 4.67C91.61 4.74 91.98 4.83 92.25 4.93L92.25 10.82L88.34 10.82L88.34 9.07C88.28 9.05 88.19 9.03 88.05 9.01C87.94 8.97 87.78 8.95 87.57 8.95C87.36 8.95 87.15 8.98 86.93 9.04C86.74 9.1 86.57 9.22 86.42 9.41C86.26 9.6 86.13 9.88 86.02 10.25C85.92 10.59 85.87 11.06 85.87 11.66L85.87 15.71L87.82 15.71L87.82 19.56L79.35 19.56L79.35 15.71L80.73 15.71Z" fill="#C4C4C4" fill-opacity="1.000000" fill-rule="nonzero"/>
	<path id="VentureBeat" d="M107.64 14.3C107.64 15.07 107.54 15.8 107.32 16.49C107.13 17.18 106.76 17.78 106.2 18.3C105.67 18.82 104.93 19.23 103.99 19.53C103.06 19.84 101.86 20 100.41 20C99.35 20 98.4 19.88 97.56 19.65C96.72 19.44 96 19.05 95.41 18.47C94.82 17.9 94.36 17.12 94.03 16.14C93.71 15.14 93.54 13.88 93.54 12.35C93.54 10.91 93.7 9.7 94 8.72C94.33 7.73 94.8 6.92 95.41 6.31C96.04 5.69 96.81 5.25 97.71 4.98C98.62 4.7 99.68 4.55 100.86 4.55C102.13 4.55 103.19 4.7 104.05 4.98C104.91 5.25 105.6 5.66 106.12 6.22C106.65 6.76 107.04 7.44 107.27 8.26C107.52 9.07 107.64 10 107.64 11.05L107.64 13.15L98.88 13.15C98.88 13.8 98.91 14.33 98.97 14.73C99.05 15.12 99.16 15.41 99.31 15.62C99.49 15.82 99.71 15.95 99.97 16.03C100.24 16.08 100.59 16.11 101.01 16.11C101.72 16.11 102.21 15.95 102.5 15.62C102.79 15.3 102.93 14.86 102.93 14.3L107.64 14.3ZM100.86 8.38C100.48 8.38 100.17 8.41 99.92 8.46C99.67 8.52 99.47 8.64 99.31 8.81C99.16 8.96 99.05 9.18 98.97 9.47C98.91 9.74 98.88 10.09 98.88 10.53L102.82 10.53C102.82 10.09 102.79 9.74 102.73 9.47C102.67 9.18 102.57 8.96 102.41 8.81C102.28 8.64 102.09 8.52 101.84 8.46C101.59 8.41 101.27 8.38 100.86 8.38Z" fill="#C4C4C4" fill-opacity="1.000000" fill-rule="nonzero"/>
	<path id="VentureBeat" d="M120.27 0.87C121.09 0.87 121.82 0.95 122.45 1.1C123.1 1.25 123.65 1.52 124.09 1.91C124.53 2.27 124.86 2.77 125.07 3.4C125.3 4.02 125.41 4.79 125.41 5.73C125.41 6.79 125.25 7.62 124.92 8.23C124.6 8.85 124.13 9.3 123.52 9.58C124.59 9.87 125.33 10.4 125.76 11.17C126.2 11.91 126.42 12.92 126.42 14.19C126.42 15.24 126.27 16.11 125.98 16.8C125.7 17.49 125.27 18.05 124.69 18.47C124.12 18.87 123.39 19.16 122.51 19.33C121.65 19.49 120.63 19.56 119.47 19.56L109.36 19.56L109.36 15.68L110.88 15.68L110.88 4.75L109.36 4.75L109.36 0.87L120.27 0.87ZM116.25 11.77L116.25 15.68L119.24 15.68C119.45 15.68 119.64 15.66 119.81 15.62C119.98 15.57 120.14 15.47 120.27 15.34C120.41 15.18 120.5 14.98 120.56 14.73C120.63 14.46 120.67 14.12 120.67 13.7C120.67 13.05 120.59 12.57 120.41 12.26C120.24 11.93 119.83 11.77 119.18 11.77L116.25 11.77ZM116.25 8L118.69 8C119.11 8 119.4 7.87 119.55 7.6C119.71 7.31 119.78 6.87 119.78 6.28C119.78 5.76 119.71 5.38 119.55 5.13C119.42 4.88 119.13 4.75 118.69 4.75L116.25 4.75L116.25 8Z" fill="#909599" fill-opacity="1.000000" fill-rule="nonzero"/>
	<path id="VentureBeat" d="M141.96 14.3C141.96 15.07 141.86 15.8 141.64 16.49C141.45 17.18 141.08 17.78 140.52 18.3C139.99 18.82 139.25 19.23 138.31 19.53C137.38 19.84 136.18 20 134.72 20C133.67 20 132.72 19.88 131.88 19.65C131.04 19.44 130.32 19.05 129.73 18.47C129.14 17.9 128.68 17.12 128.35 16.14C128.03 15.14 127.86 13.88 127.86 12.35C127.86 10.91 128.02 9.7 128.32 8.72C128.65 7.73 129.12 6.92 129.73 6.31C130.36 5.69 131.13 5.25 132.03 4.98C132.94 4.7 134 4.55 135.18 4.55C136.45 4.55 137.51 4.7 138.37 4.98C139.23 5.25 139.92 5.66 140.44 6.22C140.97 6.76 141.36 7.44 141.59 8.26C141.84 9.07 141.96 10 141.96 11.05L141.96 13.15L133.2 13.15C133.2 13.8 133.23 14.33 133.29 14.73C133.37 15.12 133.48 15.41 133.63 15.62C133.81 15.82 134.03 15.95 134.29 16.03C134.56 16.08 134.91 16.11 135.33 16.11C136.04 16.11 136.53 15.95 136.82 15.62C137.11 15.3 137.25 14.86 137.25 14.3L141.96 14.3ZM135.18 8.38C134.8 8.38 134.49 8.41 134.24 8.46C133.99 8.52 133.79 8.64 133.63 8.81C133.48 8.96 133.37 9.18 133.29 9.47C133.23 9.74 133.2 10.09 133.2 10.53L137.14 10.53C137.14 10.09 137.11 9.74 137.05 9.47C136.99 9.18 136.89 8.96 136.73 8.81C136.6 8.64 136.41 8.52 136.16 8.46C135.91 8.41 135.59 8.38 135.18 8.38Z" fill="#909599" fill-opacity="1.000000" fill-rule="nonzero"/>
	<path id="VentureBeat" d="M154.82 19.56C154.11 19.56 152.55 19.56 152.55 19.56L152.55 17.68C152.55 17.68 151.46 19.07 150.71 19.45C149.97 19.81 148.96 20 147.7 20C146.23 20 145.16 19.63 144.51 18.9C143.86 18.17 143.54 17.09 143.54 15.65C143.54 14.75 143.63 13.98 143.82 13.35C144.03 12.7 144.36 12.17 144.8 11.77C145.26 11.37 145.85 11.08 146.58 10.91C147.31 10.72 148.21 10.62 149.28 10.62L151.72 10.62L151.72 9.53C151.72 9.14 151.62 8.89 151.43 8.75C151.24 8.6 150.69 8.35 150.25 8.52C150.03 8.61 149.93 8.69 149.77 8.88C149.57 9.12 149.55 9.58 149.55 9.58L144.3 9.58C144.3 9.58 144.44 7.63 145.11 6.73C145.92 5.65 146.61 5.12 147.89 4.81C148.96 4.55 149.54 4.55 150.74 4.55C151.89 4.55 152.85 4.64 153.61 4.81C154.4 4.98 155.03 5.26 155.51 5.65C155.99 6.01 156.33 6.5 156.54 7.11C156.75 7.71 156.86 8.44 156.86 9.33L156.86 14.93C156.86 15.26 156.85 15.7 156.85 15.7C156.85 15.7 157.27 15.71 157.58 15.71L158.24 15.71L158.24 19.56L154.82 19.56ZM149.8 16.03C150.41 16.03 150.88 15.87 151.2 15.57C151.55 15.26 151.72 14.9 151.72 14.5L151.72 13.32L150.57 13.32C150.13 13.32 149.79 13.36 149.54 13.44C149.31 13.52 149.13 13.62 148.99 13.75C148.86 13.89 148.77 14.05 148.73 14.24C148.71 14.42 148.7 14.61 148.7 14.82C148.7 15.28 148.79 15.6 148.96 15.77C149.14 15.94 149.41 16.03 149.8 16.03Z" fill="#909599" fill-opacity="1.000000" fill-rule="nonzero"/>
	<path id="VentureBeat" d="M160.7 4.98L160.7 1.52L165.84 0L165.84 4.98L168.59 4.98L168.59 8.84L165.84 8.84L165.84 14.59C165.84 15.03 165.91 15.35 166.07 15.54C166.24 15.73 166.56 15.83 167.01 15.83C167.26 15.83 167.57 15.82 167.93 15.8C168.32 15.76 168.67 15.71 169 15.65L169 19.48C168.67 19.55 168.15 19.63 167.45 19.71C166.76 19.8 166.04 19.85 165.29 19.85C164.37 19.85 163.62 19.77 163.02 19.62C162.43 19.49 161.96 19.24 161.62 18.87C161.27 18.49 161.03 17.96 160.9 17.29C160.76 16.62 160.7 15.76 160.7 14.7L160.7 8.84L159.32 8.84L159.32 4.98L160.7 4.98Z" fill="#909599" fill-opacity="1.000000" fill-rule="nonzero"/>
</svg>
