<svg width="24.000000" height="16.000000" viewBox="0 0 24 16" fill="none" xmlns="http://www.w3.org/2000/svg" xmlns:xlink="http://www.w3.org/1999/xlink">
	<desc>
			Created with Pixso.
	</desc>
	<defs/>
	<path id="Vector" d="M9.21 0L0 0L0 16L9.21 16L24 16L24 0L9.21 0Z" fill="#D80027" fill-opacity="1.000000" fill-rule="nonzero"/>
	<path id="Vector" d="M24 16L24 0L12 0L12 16L24 16Z" fill="#C60000" fill-opacity="1.000000" fill-rule="evenodd"/>
	<path id="Vector" d="M12 3.37L13.06 6.64L16.5 6.64L13.71 8.66L14.78 11.93L12 9.91L9.21 11.93L10.28 8.66L7.5 6.64L10.93 6.64L12 3.37Z" fill="#FFDA44" fill-opacity="1.000000" fill-rule="nonzero"/>
	<path id="Vector" d="M12 3.36L13.06 6.63L16.5 6.63L13.71 8.65L14.78 11.92L12 9.9L12 3.36Z" fill="#FACC15" fill-opacity="1.000000" fill-rule="evenodd"/>
</svg>
