<svg width="24.000000" height="16.000000" viewBox="0 0 24 16" fill="none" xmlns="http://www.w3.org/2000/svg" xmlns:xlink="http://www.w3.org/1999/xlink">
	<desc>
			Created with Pixso.
	</desc>
	<defs/>
	<path id="Vector" d="M24 0L0 0L0 16L24 16L24 0Z" fill="#2A2FAF" fill-opacity="1.000000" fill-rule="nonzero"/>
	<path id="Vector" d="M24 16L24 0L12 0L12 16L24 16Z" fill="#1318A5" fill-opacity="1.000000" fill-rule="evenodd"/>
	<path id="Vector" d="M0 0L12 0L12 8L0 8L0 0Z" fill="#2A2FAF" fill-opacity="1.000000" fill-rule="nonzero"/>
	<path id="Vector" d="M0.13 0L24 15.5L24 16L23.21 16L0 0.91L0 0L0.13 0Z" fill="#E92B2B" fill-opacity="1.000000" fill-rule="evenodd"/>
	<path id="Vector" d="M22.43 16L0 1.42L0 0.91L23.21 16L22.43 16ZM0.91 0L24 14.99L24 15.5L0.13 0L0.91 0Z" fill="#FBFBFB" fill-opacity="1.000000" fill-rule="evenodd"/>
	<path id="Vector" d="M0 15.5L0 16L0.78 16L24 0.91L24 0L23.86 0L0 15.5Z" fill="#E92B2B" fill-opacity="1.000000" fill-rule="evenodd"/>
	<path id="Vector" d="M24 1.42L24 0.91L0.78 16L1.56 16L24 1.42ZM0 14.99L0 15.5L23.86 0L23.08 0L0 14.99Z" fill="#FBFBFB" fill-opacity="1.000000" fill-rule="evenodd"/>
	<path id="Vector" d="M23.08 0L23.86 0L12 7.7L12 7.2L23.08 0ZM24 0.91L24 1.42L12 9.22L12 8.71L24 0.91Z" fill="#F0F0F0" fill-opacity="1.000000" fill-rule="evenodd"/>
	<path id="Vector" d="M1.34 0L24 14.71L24 15.72L0 0.13L0 0L1.34 0Z" fill="#FBFBFB" fill-opacity="1.000000" fill-rule="evenodd"/>
	<path id="Vector" d="M0 14.71L0 15.72L24 0.13L24 0L22.65 0L0 14.71Z" fill="#FBFBFB" fill-opacity="1.000000" fill-rule="evenodd"/>
	<path id="Vector" d="M24 0.13L24 0L22.65 0L12 6.91L12 7.92L24 0.13Z" fill="#F0F0F0" fill-opacity="1.000000" fill-rule="evenodd"/>
	<path id="Vector" d="M13.28 0L10.71 0L10.71 6.73L0 6.73L0 9.26L10.71 9.26L10.71 16L13.28 16L13.28 9.26L24 9.26L24 6.73L13.28 6.73L13.28 0Z" fill="#E92B2B" fill-opacity="1.000000" fill-rule="evenodd"/>
	<path id="Vector" d="M24 9.26L13.28 9.26L13.28 16L12 16L12 0L13.28 0L13.28 6.73L24 6.73L24 9.26Z" fill="#C60000" fill-opacity="1.000000" fill-rule="evenodd"/>
	<path id="Vector" d="M0 6.31L10.28 6.31L10.28 0L11.14 0L11.14 6.73L11.14 7.15L10.71 7.15L0 7.15L0 6.31ZM10.28 16L10.28 9.68L0 9.68L0 8.84L10.71 8.84L11.14 8.84L11.14 9.26L11.14 16L10.28 16ZM24 9.68L13.71 9.68L13.71 16L12.85 16L12.85 9.26L12.85 8.84L13.28 8.84L24 8.84L24 9.68ZM13.71 0L13.71 6.31L24 6.31L24 7.15L13.28 7.15L12.85 7.15L12.85 6.73L12.85 0L13.71 0Z" fill="#FBFBFB" fill-opacity="1.000000" fill-rule="evenodd"/>
	<path id="Vector" d="M24 9.68L13.71 9.68L13.71 16L12.85 16L12.85 9.26L12.85 8.84L13.28 8.84L24 8.84L24 9.68ZM13.71 0L13.71 6.31L24 6.31L24 7.15L13.28 7.15L12.85 7.15L12.85 6.73L12.85 0L13.71 0Z" fill="#F0F0F0" fill-opacity="1.000000" fill-rule="evenodd"/>
</svg>
