<svg width="24.001953" height="16.000000" viewBox="0 0 24.002 16" fill="none" xmlns="http://www.w3.org/2000/svg" xmlns:xlink="http://www.w3.org/1999/xlink">
	<desc>
			Created with Pixso.
	</desc>
	<defs/>
	<path id="Vector" d="M0 0L24 0L24 16L0 16L0 0Z" fill="#F0F0F0" fill-opacity="1.000000" fill-rule="evenodd"/>
	<path id="Vector" d="M11.95 0L24 0L24 16L11.95 16L11.95 0Z" fill="#E7E7E7" fill-opacity="1.000000" fill-rule="evenodd"/>
	<path id="Vector" d="M0 5.09L24 5.09L24 10.9L0 10.9L0 5.09Z" fill="#2A2FAF" fill-opacity="1.000000" fill-rule="evenodd"/>
	<path id="Vector" d="M11.95 5.09L24 5.09L24 10.9L11.95 10.9L11.95 5.09Z" fill="#1318A5" fill-opacity="1.000000" fill-rule="evenodd"/>
	<path id="Vector" d="M0 0L24 0L24 2.52L0 2.52L0 0Z" fill="#D80027" fill-opacity="1.000000" fill-rule="evenodd"/>
	<path id="Vector" d="M11.95 0L24 0L24 2.52L11.95 2.52L11.95 0Z" fill="#C60000" fill-opacity="1.000000" fill-rule="evenodd"/>
	<path id="Vector" d="M0 13.42L24 13.42L24 15.99L0 15.99L0 13.42Z" fill="#D80027" fill-opacity="1.000000" fill-rule="evenodd"/>
	<path id="Vector" d="M11.95 13.42L24 13.42L24 15.99L11.95 15.99L11.95 13.42Z" fill="#C60000" fill-opacity="1.000000" fill-rule="evenodd"/>
</svg>
