<svg  viewBox="0 0 62.8452 50.0204" fill="none" xmlns="http://www.w3.org/2000/svg" xmlns:xlink="http://www.w3.org/1999/xlink">
	<desc>
			Created with Pixso.
	</desc>
	<defs>
		<filter id="filter_1312_115876_dd" x="0.000000" y="0.000000" width="62.845215" height="50.020386" filterUnits="userSpaceOnUse" color-interpolation-filters="sRGB">
			<feFlood flood-opacity="0" result="BackgroundImageFix"/>
			<feColorMatrix in="SourceAlpha" type="matrix" values="0 0 0 0 0 0 0 0 0 0 0 0 0 0 0 0 0 0 127 0" result="hardAlpha"/>
			<feOffset dx="0" dy="4"/>
			<feGaussianBlur stdDeviation="1.33333"/>
			<feComposite in2="hardAlpha" operator="out" k2="-1" k3="1"/>
			<feColorMatrix type="matrix" values="0 0 0 0 0 0 0 0 0 0 0 0 0 0 0 0 0 0 0.25 0"/>
			<feBlend mode="normal" in2="BackgroundImageFix" result="effect_dropShadow_1"/>
			<feBlend mode="normal" in="SourceGraphic" in2="effect_dropShadow_1" result="shape"/>
		</filter>
	</defs>
	<g filter="url(#filter_1312_115876_dd)">
		<path id="Vector" d="M55.35 9.93C53.42 11.01 50.99 10.32 49.91 8.4C48.83 6.47 49.51 4.03 51.44 2.95C53.37 1.87 55.8 2.56 56.88 4.48C57.96 6.41 57.28 8.85 55.35 9.93Z" fill="#3897FF" fill-opacity="1.000000" fill-rule="evenodd"/>
		<path id="Vector" d="M30.88 41.07L34.09 34.79L31.82 28.11L38.11 31.32L44.79 29.05L41.58 35.33L43.84 42.02L37.56 38.8L30.88 41.07Z" fill="#FFCC00" fill-opacity="1.000000" fill-rule="nonzero"/>
		<path id="Vector" d="M10.21 17.43L9.5 10.55L4 6.35L10.98 5.51L15.33 0L16.05 6.88L21.55 11.08L14.56 11.91L10.21 17.43Z" fill="#00A98F" fill-opacity="1.000000" fill-rule="nonzero"/>
	</g>
</svg>
