<svg viewBox="0 0 79.4316 42.729" fill="none" xmlns="http://www.w3.org/2000/svg" xmlns:xlink="http://www.w3.org/1999/xlink">
	<desc>
			Created with Pixso.
	</desc>
	<defs/>
	<path id="Vector" d="M3.99 28.64C6.2 28.56 8.06 30.28 8.14 32.49C8.22 34.7 6.5 36.55 4.29 36.64C2.09 36.72 0.23 35 0.15 32.79C0.06 30.58 1.79 28.73 3.99 28.64Z" fill="#8E4DD5" fill-opacity="1.000000" fill-rule="evenodd"/>
	<path id="Vector" d="M23.13 0L20.63 6.59L23.62 12.99L17.02 10.49L10.63 13.47L13.12 6.88L10.14 0.48L16.74 2.98L23.13 0Z" fill="#FFCC00" fill-opacity="1.000000" fill-rule="nonzero"/>
	<path id="Vector" d="M78.94 29.25L76.44 35.84L79.43 42.24L72.83 39.74L66.44 42.72L68.94 36.13L65.95 29.73L72.55 32.23L78.94 29.25Z" fill="#00A98F" fill-opacity="1.000000" fill-rule="nonzero"/>
</svg>
