<svg width="48.449219" height="57.417969" viewBox="0 0 48.4492 57.418" fill="none" xmlns="http://www.w3.org/2000/svg" xmlns:xlink="http://www.w3.org/1999/xlink">
	<desc>
			Created with Pixso.
	</desc>
	<defs/>
	<path id="Vector" d="M4.48 8.18C2.3 8.33 0.41 6.67 0.26 4.49C0.11 2.3 1.77 0.41 3.96 0.26C6.14 0.11 8.03 1.77 8.18 3.96C8.33 6.14 6.67 8.04 4.48 8.18Z" fill="#3897FF" fill-opacity="1.000000" fill-rule="evenodd"/>
	<path id="Vector" d="M35.77 33.72L38.05 27.6L34.98 21.83L41.48 23.92L47.65 20.99L45.37 27.11L48.44 32.87L41.94 30.78L35.77 33.72Z" fill="#FFFFFF" fill-opacity="1.000000" fill-rule="nonzero"/>
	<path id="Vector" d="M23.42 49.16L18.09 51.77L16.24 57.41L13.63 52.08L7.99 50.23L13.32 47.62L15.17 41.98L17.78 47.31L23.42 49.16Z" fill="#00A98F" fill-opacity="1.000000" fill-rule="nonzero"/>
</svg>
