<svg width="113.000000" height="40.000000" viewBox="0 0 113 40" fill="none" xmlns="http://www.w3.org/2000/svg" xmlns:xlink="http://www.w3.org/1999/xlink">
	<desc>
			Created with Pixso.
	</desc>
	<defs>
		<radialGradient gradientTransform="translate(56.5 20) rotate(76.9341) scale(39.2208 105.846)" cx="0.000000" cy="0.000000" r="1.000000" id="paint_radial_1312_115692_0" gradientUnits="userSpaceOnUse">
			<stop stop-color="#C1C1C1"/>
			<stop offset="1.000000" stop-color="#EDEDED"/>
		</radialGradient>
	</defs>
	<g opacity="0.880000">
		<rect id="Rectangle 4203" rx="8.000000" width="113.000000" height="40.000000" fill="url(#paint_radial_1312_115692_0)" fill-opacity="1.000000"/>
	</g>
	<path id="Vector" d="M27.07 8.29L13.17 8.29C10.51 8.29 8.34 10.44 8.34 13.09L8.34 26.9C8.34 29.54 10.51 31.7 13.17 31.7L27.07 31.7C29.73 31.7 31.9 29.54 31.9 26.9L31.9 13.09C31.9 10.44 29.73 8.29 27.07 8.29ZM15.6 26.33C15.38 26.69 15 26.9 14.6 26.9C14.4 26.9 14.21 26.85 14.02 26.75C13.48 26.43 13.29 25.73 13.6 25.18L13.83 24.8L16.49 24.8L15.6 26.33ZM13.43 23.88C12.79 23.88 12.28 23.37 12.28 22.74C12.28 22.11 12.79 21.59 13.43 21.59L15.69 21.59L18.79 16.25L17.95 14.81C17.63 14.26 17.82 13.56 18.37 13.24L18.37 13.24C18.92 12.93 19.63 13.12 19.94 13.66L20.12 13.97L20.3 13.66C20.61 13.12 21.32 12.93 21.87 13.24C22.13 13.4 22.32 13.64 22.4 13.94C22.48 14.23 22.44 14.54 22.29 14.81L18.34 21.59L20.83 21.59L22.16 23.88L13.43 23.88ZM26.81 23.88L25.88 23.88L26.64 25.18C26.95 25.73 26.76 26.43 26.22 26.75C26.04 26.85 25.84 26.9 25.64 26.9C25.54 26.9 25.44 26.89 25.34 26.86C25.05 26.78 24.8 26.59 24.64 26.33L20.65 19.45L21.98 17.17L24.55 21.59L26.81 21.59C27.45 21.59 27.96 22.11 27.96 22.74C27.96 23.37 27.45 23.88 26.81 23.88Z" fill="#FFFFFF" fill-opacity="1.000000" fill-rule="nonzero"/>
	<path id="Available on the" d="M52.15 10.74C52.03 10.74 51.93 10.7 51.85 10.62C51.77 10.54 51.72 10.44 51.72 10.33C51.72 10.22 51.77 10.12 51.85 10.04C51.93 9.96 52.03 9.92 52.15 9.92C52.27 9.92 52.37 9.96 52.45 10.04Q52.52 10.11 52.55 10.19Q52.58 10.26 52.58 10.33C52.58 10.44 52.54 10.54 52.45 10.62C52.37 10.7 52.27 10.74 52.15 10.74ZM39.9 15.29L39.24 15.29L41.15 10.09L41.8 10.09L43.71 15.29L43.05 15.29L42.53 13.82L40.42 13.82L39.9 15.29ZM54.14 10.09L54.14 15.29L53.54 15.29L53.54 10.09L54.14 10.09ZM59.35 15.29L59.35 10.09L59.96 10.09L59.96 12.01L60.01 12.01C60.05 11.94 60.11 11.85 60.19 11.75C60.27 11.64 60.38 11.55 60.53 11.46C60.68 11.38 60.88 11.34 61.13 11.34Q61.52 11.34 61.83 11.48L61.83 11.48Q61.92 11.53 62 11.58C62.25 11.75 62.45 11.98 62.59 12.28Q62.8 12.73 62.8 13.35C62.8 13.76 62.73 14.12 62.59 14.42C62.45 14.73 62.25 14.96 62.01 15.13Q61.91 15.19 61.82 15.23L61.82 15.23Q61.51 15.37 61.14 15.37C60.89 15.37 60.69 15.33 60.54 15.25C60.39 15.16 60.27 15.07 60.19 14.96C60.11 14.85 60.05 14.76 60.01 14.69L59.93 14.69L59.93 15.29L59.35 15.29ZM64.32 10.09L64.32 15.29L63.72 15.29L63.72 10.09L64.32 10.09ZM85.34 12.94L85.34 15.29L84.75 15.29L84.75 10.09L85.34 10.09L85.34 12L85.4 12Q85.47 11.83 85.59 11.7Q85.68 11.6 85.81 11.52C85.99 11.4 86.24 11.34 86.54 11.34C86.81 11.34 87.04 11.39 87.24 11.5C87.44 11.6 87.6 11.76 87.71 11.98C87.82 12.2 87.88 12.48 87.88 12.81L87.88 15.29L87.28 15.29L87.28 12.85Q87.28 12.41 87.06 12.16Q87.05 12.14 87.03 12.13Q86.98 12.08 86.92 12.03Q86.7 11.88 86.37 11.88C86.17 11.88 86 11.92 85.84 12C85.69 12.08 85.57 12.2 85.48 12.36C85.39 12.52 85.34 12.72 85.34 12.94ZM82.33 10.45L82.93 10.45L82.93 11.39L83.76 11.39L83.76 11.9L82.93 11.9L82.93 14.17C82.93 14.34 82.95 14.47 83 14.55C83.05 14.64 83.11 14.69 83.19 14.72Q83.2 14.72 83.21 14.73Q83.32 14.76 83.44 14.76C83.51 14.76 83.56 14.76 83.61 14.75L83.71 14.73L83.83 15.27Q83.77 15.29 83.66 15.32C83.59 15.33 83.49 15.34 83.38 15.34C83.21 15.34 83.05 15.31 82.88 15.23C82.72 15.16 82.59 15.05 82.48 14.9C82.38 14.75 82.33 14.56 82.33 14.34L82.33 11.9L81.74 11.9L81.74 11.39L82.33 11.39L82.33 10.45ZM42.33 13.26L41.49 10.91L41.45 10.91L40.62 13.26L42.33 13.26ZM48.96 15.38C48.71 15.38 48.49 15.34 48.29 15.24C48.09 15.15 47.93 15.01 47.81 14.83C47.69 14.65 47.63 14.44 47.63 14.18C47.63 13.96 47.67 13.78 47.76 13.64C47.85 13.5 47.97 13.39 48.12 13.31C48.26 13.23 48.43 13.17 48.6 13.13C48.78 13.09 48.96 13.06 49.14 13.03C49.38 13 49.57 12.98 49.72 12.97C49.87 12.95 49.98 12.92 50.05 12.88Q50.08 12.86 50.1 12.84Q50.15 12.78 50.15 12.68L50.15 12.66C50.15 12.41 50.08 12.21 49.95 12.07C49.81 11.93 49.6 11.87 49.33 11.87C49.04 11.87 48.82 11.93 48.65 12.05C48.49 12.18 48.38 12.31 48.31 12.46L47.74 12.25C47.84 12.01 47.98 11.83 48.15 11.7C48.32 11.56 48.51 11.47 48.71 11.42C48.91 11.36 49.11 11.34 49.31 11.34C49.43 11.34 49.58 11.35 49.74 11.38Q49.74 11.38 49.75 11.38Q49.75 11.38 49.76 11.39Q49.99 11.43 50.21 11.56C50.37 11.65 50.5 11.79 50.6 11.98Q50.75 12.25 50.75 12.72L50.75 15.29L50.15 15.29L50.15 14.76L50.12 14.76C50.08 14.85 50.01 14.94 49.92 15.03C49.82 15.13 49.7 15.21 49.54 15.28Q49.3 15.38 48.96 15.38ZM56.39 15.38C56.14 15.38 55.92 15.34 55.72 15.24C55.52 15.15 55.36 15.01 55.24 14.83C55.12 14.65 55.06 14.44 55.06 14.18C55.06 13.96 55.1 13.78 55.19 13.64C55.28 13.5 55.4 13.39 55.54 13.31C55.69 13.23 55.85 13.17 56.03 13.13C56.21 13.09 56.39 13.06 56.57 13.03C56.81 13 57 12.98 57.15 12.97C57.3 12.95 57.41 12.92 57.48 12.88Q57.51 12.86 57.53 12.84Q57.58 12.78 57.58 12.68L57.58 12.66C57.58 12.41 57.51 12.21 57.37 12.07C57.24 11.93 57.03 11.87 56.76 11.87C56.47 11.87 56.25 11.93 56.08 12.05C55.92 12.18 55.81 12.31 55.74 12.46L55.17 12.25C55.27 12.01 55.41 11.83 55.58 11.7C55.75 11.56 55.93 11.47 56.14 11.42C56.34 11.36 56.54 11.34 56.74 11.34C56.86 11.34 57.01 11.35 57.17 11.38Q57.17 11.38 57.17 11.38Q57.18 11.38 57.18 11.39Q57.42 11.43 57.64 11.56Q57.87 11.7 58.03 11.98C58.13 12.16 58.18 12.41 58.18 12.72L58.18 15.29L57.58 15.29L57.58 14.76L57.55 14.76C57.51 14.85 57.44 14.94 57.35 15.03C57.25 15.13 57.12 15.21 56.97 15.28C56.81 15.35 56.62 15.38 56.39 15.38ZM67.05 15.37C66.68 15.37 66.35 15.29 66.08 15.12C65.81 14.96 65.6 14.72 65.45 14.42Q65.23 13.97 65.23 13.37C65.23 12.97 65.31 12.62 65.45 12.31C65.6 12.01 65.8 11.77 66.07 11.6Q66.14 11.55 66.21 11.51Q66.56 11.34 66.99 11.34C67.19 11.34 67.4 11.37 67.59 11.44Q67.64 11.45 67.68 11.47Q67.93 11.58 68.14 11.77C68.3 11.92 68.43 12.12 68.52 12.37C68.62 12.62 68.67 12.92 68.67 13.29L68.67 13.54L65.83 13.54C65.84 13.8 65.89 14.03 65.99 14.21C66.09 14.41 66.23 14.57 66.41 14.68C66.6 14.78 66.81 14.83 67.05 14.83C67.21 14.83 67.35 14.81 67.48 14.77C67.61 14.72 67.72 14.65 67.81 14.56C67.91 14.47 67.98 14.36 68.03 14.22L68.61 14.39C68.55 14.58 68.44 14.76 68.3 14.9C68.16 15.05 67.98 15.17 67.77 15.25Q67.45 15.37 67.05 15.37ZM73.18 15.37C72.83 15.37 72.52 15.29 72.25 15.12C71.99 14.95 71.78 14.72 71.63 14.42C71.48 14.12 71.41 13.76 71.41 13.36C71.41 12.95 71.48 12.6 71.63 12.3C71.78 11.99 71.99 11.76 72.25 11.59C72.52 11.42 72.83 11.34 73.18 11.34C73.53 11.34 73.84 11.42 74.1 11.59C74.37 11.76 74.58 11.99 74.72 12.3Q74.95 12.75 74.95 13.36Q74.95 13.96 74.72 14.42C74.58 14.72 74.37 14.95 74.1 15.12C73.84 15.29 73.53 15.37 73.18 15.37ZM76.46 12.94L76.46 15.29L75.86 15.29L75.86 11.39L76.44 11.39L76.44 12L76.49 12Q76.56 11.86 76.65 11.75L76.65 11.75Q76.76 11.62 76.91 11.52C77.1 11.4 77.34 11.34 77.63 11.34C77.9 11.34 78.13 11.39 78.33 11.5C78.52 11.61 78.68 11.77 78.79 11.99C78.9 12.2 78.95 12.48 78.95 12.81L78.95 15.29L78.35 15.29L78.35 12.85Q78.35 12.41 78.14 12.16L78.14 12.16Q78.13 12.15 78.11 12.13Q78.06 12.07 77.98 12.02Q77.77 11.88 77.46 11.88C77.27 11.88 77.1 11.92 76.95 12Q76.88 12.04 76.82 12.09Q76.68 12.2 76.59 12.36Q76.46 12.6 76.46 12.94ZM90.61 15.37C90.23 15.37 89.91 15.29 89.64 15.12C89.36 14.96 89.16 14.72 89.01 14.42C88.86 14.12 88.79 13.77 88.79 13.37C88.79 12.97 88.86 12.62 89.01 12.31C89.16 12.01 89.36 11.77 89.62 11.6C89.89 11.42 90.2 11.34 90.55 11.34Q90.62 11.34 90.68 11.34L90.68 11.34Q90.92 11.36 91.15 11.44C91.35 11.51 91.53 11.62 91.69 11.77C91.85 11.92 91.98 12.12 92.08 12.37C92.18 12.62 92.23 12.92 92.23 13.29L92.23 13.54L89.39 13.54C89.4 13.8 89.45 14.03 89.54 14.21C89.64 14.41 89.79 14.57 89.97 14.68C90.15 14.78 90.37 14.83 90.61 14.83C90.77 14.83 90.91 14.81 91.04 14.77C91.16 14.72 91.28 14.65 91.37 14.56C91.46 14.47 91.53 14.36 91.58 14.22L92.16 14.39C92.1 14.58 92 14.76 91.86 14.9C91.71 15.05 91.54 15.17 91.32 15.25Q91.01 15.37 90.61 15.37ZM47.14 11.39L45.7 15.29L45.09 15.29L43.64 11.39L44.29 11.39L45.37 14.5L45.41 14.5L46.49 11.39L47.14 11.39ZM51.85 15.29L51.85 11.39L52.45 11.39L52.45 15.29L51.85 15.29ZM59.94 13.34C59.94 13.63 59.99 13.89 60.07 14.12C60.16 14.34 60.29 14.52 60.45 14.65C60.62 14.77 60.82 14.83 61.06 14.83C61.31 14.83 61.52 14.77 61.69 14.64C61.86 14.5 61.99 14.32 62.07 14.1Q62.2 13.76 62.2 13.34C62.2 13.07 62.16 12.82 62.07 12.6C61.99 12.38 61.86 12.2 61.7 12.07C61.53 11.94 61.32 11.88 61.06 11.88C60.82 11.88 60.61 11.94 60.45 12.06C60.28 12.18 60.16 12.35 60.07 12.57Q59.94 12.9 59.94 13.34ZM65.84 13.02L68.06 13.02C68.06 12.8 68.01 12.61 67.93 12.43C67.84 12.26 67.72 12.13 67.56 12.03Q67.54 12.02 67.53 12.01Q67.3 11.88 66.99 11.88C66.75 11.88 66.55 11.93 66.37 12.05C66.2 12.17 66.07 12.32 65.97 12.51Q65.92 12.62 65.89 12.73L65.89 12.73Q65.85 12.87 65.84 13.02ZM73.18 14.83C73.45 14.83 73.67 14.77 73.84 14.63C74.01 14.49 74.14 14.31 74.22 14.09C74.31 13.86 74.35 13.62 74.35 13.36C74.35 13.1 74.31 12.86 74.22 12.63C74.14 12.41 74.01 12.22 73.84 12.08Q73.81 12.06 73.79 12.04Q73.54 11.88 73.18 11.88C72.91 11.88 72.69 11.95 72.52 12.08C72.35 12.22 72.22 12.41 72.13 12.63Q72.01 12.97 72.01 13.36Q72.01 13.75 72.13 14.09C72.22 14.31 72.35 14.49 72.52 14.63C72.69 14.77 72.91 14.83 73.18 14.83ZM89.39 13.02L91.62 13.02C91.62 12.8 91.57 12.61 91.48 12.43C91.4 12.26 91.27 12.13 91.11 12.03C90.95 11.93 90.77 11.88 90.55 11.88C90.31 11.88 90.1 11.93 89.93 12.05C89.76 12.17 89.62 12.32 89.53 12.51C89.45 12.67 89.4 12.84 89.39 13.02ZM49.05 14.84C49.29 14.84 49.49 14.8 49.65 14.7C49.82 14.61 49.94 14.49 50.02 14.34C50.11 14.2 50.15 14.04 50.15 13.88L50.15 13.33C50.13 13.36 50.07 13.39 49.98 13.41C49.9 13.44 49.8 13.46 49.69 13.48C49.58 13.49 49.47 13.51 49.37 13.52C49.26 13.53 49.18 13.54 49.11 13.55C48.96 13.57 48.81 13.61 48.68 13.65C48.54 13.7 48.44 13.76 48.35 13.85C48.27 13.94 48.23 14.06 48.23 14.21C48.23 14.42 48.31 14.58 48.46 14.69C48.62 14.79 48.81 14.84 49.05 14.84ZM56.48 14.84C56.72 14.84 56.92 14.8 57.08 14.7C57.25 14.61 57.37 14.49 57.45 14.34C57.54 14.2 57.58 14.04 57.58 13.88L57.58 13.33C57.55 13.36 57.5 13.39 57.41 13.41C57.33 13.44 57.23 13.46 57.12 13.48C57.01 13.49 56.9 13.51 56.79 13.52C56.69 13.53 56.61 13.54 56.54 13.55C56.39 13.57 56.24 13.61 56.11 13.65C55.97 13.7 55.86 13.76 55.78 13.85C55.7 13.94 55.66 14.06 55.66 14.21C55.66 14.42 55.74 14.58 55.89 14.69C56.05 14.79 56.24 14.84 56.48 14.84Z" fill="#FFFFFF" fill-opacity="1.000000" fill-rule="evenodd"/>
	<path id="App Store" d="M67.91 23C67.88 22.67 67.73 22.41 67.46 22.22C67.2 22.04 66.86 21.95 66.44 21.95C66.15 21.95 65.89 21.99 65.68 22.08C65.47 22.17 65.31 22.29 65.2 22.44C65.09 22.59 65.03 22.77 65.03 22.96C65.03 23.13 65.06 23.27 65.14 23.39C65.21 23.51 65.32 23.61 65.45 23.69C65.58 23.77 65.72 23.84 65.88 23.9Q66.11 23.98 66.35 24.04L67.08 24.22C67.38 24.29 67.66 24.38 67.93 24.5C68.21 24.62 68.45 24.76 68.67 24.94C68.89 25.12 69.06 25.33 69.19 25.59Q69.38 25.96 69.38 26.47Q69.38 26.98 69.18 27.41Q69.12 27.55 69.03 27.68C68.79 28.02 68.46 28.29 68.01 28.49C67.58 28.68 67.04 28.78 66.42 28.78C65.81 28.78 65.28 28.69 64.84 28.5Q64.31 28.27 63.96 27.89L63.96 27.88Q63.87 27.79 63.79 27.67C63.54 27.31 63.41 26.87 63.39 26.36L64.78 26.36C64.8 26.63 64.88 26.85 65.03 27.03C65.18 27.21 65.37 27.35 65.61 27.44Q65.96 27.57 66.41 27.57C66.71 27.57 66.98 27.53 67.21 27.43C67.45 27.34 67.63 27.21 67.76 27.05C67.9 26.88 67.96 26.68 67.97 26.46C67.96 26.26 67.9 26.09 67.79 25.96C67.67 25.82 67.51 25.71 67.29 25.62C67.09 25.53 66.84 25.45 66.56 25.38L65.67 25.15C65.03 24.98 64.52 24.73 64.15 24.4Q63.96 24.23 63.84 24.02Q63.59 23.61 63.59 23.05C63.59 22.59 63.72 22.19 63.97 21.84C64.22 21.5 64.56 21.23 64.99 21.04C65.42 20.85 65.91 20.75 66.46 20.75Q67.29 20.75 67.92 21.04C68.33 21.23 68.66 21.49 68.9 21.83C69.14 22.17 69.26 22.56 69.27 23L67.91 23ZM40.83 28.66L39.32 28.66L42.06 20.86L43.81 20.86L46.56 28.66L45.05 28.66L44.41 26.74L41.47 26.74L40.83 28.66ZM70.97 21.4L72.35 21.4L72.35 22.81L73.5 22.81L73.5 23.87L72.35 23.87L72.35 26.9C72.35 27.09 72.38 27.23 72.43 27.33C72.49 27.42 72.57 27.49 72.66 27.53C72.75 27.56 72.86 27.58 72.97 27.58C73.06 27.58 73.14 27.57 73.21 27.56C73.28 27.55 73.34 27.54 73.38 27.53L73.61 28.6C73.54 28.63 73.43 28.66 73.29 28.69C73.16 28.72 72.99 28.74 72.8 28.74C72.45 28.75 72.14 28.7 71.86 28.59C71.59 28.47 71.37 28.29 71.2 28.04C71.05 27.8 70.97 27.5 70.97 27.15L70.97 27.13L70.97 23.87L70.14 23.87L70.14 22.81L70.97 22.81L70.97 21.4ZM44.02 25.6L42.97 22.46L42.91 22.46L41.85 25.6L44.02 25.6ZM81.12 28.66L81.12 22.81L82.46 22.81L82.46 23.78L82.52 23.78C82.63 23.44 82.81 23.18 83.07 23Q83.22 22.9 83.39 22.83L83.39 22.83Q83.66 22.72 83.97 22.72C84.04 22.72 84.13 22.73 84.22 22.73C84.32 22.74 84.4 22.75 84.46 22.76L84.46 24.03C84.4 24.01 84.31 23.99 84.18 23.98Q84 23.95 83.82 23.95C83.57 23.95 83.35 24 83.14 24.11Q82.98 24.2 82.86 24.33Q82.75 24.43 82.68 24.56Q82.66 24.59 82.64 24.63L82.64 24.63Q82.5 24.89 82.5 25.22L82.5 28.66L81.12 28.66ZM47.53 30.86L47.53 22.81L48.89 22.81L48.89 23.77L48.97 23.77C49.04 23.63 49.14 23.48 49.27 23.32C49.4 23.16 49.57 23.02 49.79 22.91Q50.12 22.73 50.64 22.73C51.09 22.73 51.5 22.85 51.86 23.08C52.23 23.31 52.52 23.65 52.73 24.1Q53.06 24.77 53.06 25.74C53.06 26.38 52.95 26.93 52.74 27.38Q52.45 28.01 51.96 28.36L51.96 28.36Q51.92 28.38 51.88 28.41C51.52 28.65 51.1 28.76 50.64 28.76C50.31 28.76 50.03 28.71 49.81 28.6C49.59 28.48 49.41 28.35 49.28 28.19C49.14 28.03 49.04 27.88 48.97 27.74L48.91 27.74L48.91 30.86L47.53 30.86ZM54.24 30.86L54.24 22.81L55.59 22.81L55.59 23.77L55.67 23.77C55.75 23.63 55.85 23.48 55.98 23.32C56.11 23.16 56.28 23.02 56.5 22.91C56.72 22.79 57.01 22.73 57.35 22.73C57.8 22.73 58.21 22.85 58.57 23.08Q58.61 23.1 58.65 23.13Q59.14 23.47 59.44 24.1Q59.76 24.77 59.76 25.74C59.76 26.38 59.66 26.93 59.45 27.38Q59.15 28.01 58.66 28.36L58.66 28.36Q58.63 28.38 58.59 28.41C58.22 28.65 57.81 28.76 57.35 28.76C57.02 28.76 56.74 28.71 56.52 28.6C56.3 28.48 56.12 28.35 55.98 28.19C55.85 28.03 55.75 27.88 55.67 27.74L55.62 27.74L55.62 30.86L54.24 30.86ZM77.15 28.78C76.58 28.78 76.08 28.65 75.66 28.4C75.24 28.15 74.92 27.79 74.69 27.34C74.46 26.89 74.34 26.36 74.34 25.76C74.34 25.15 74.46 24.62 74.69 24.17C74.92 23.71 75.24 23.36 75.66 23.11Q76.29 22.73 77.15 22.73C77.72 22.73 78.21 22.86 78.63 23.11C79.05 23.36 79.38 23.71 79.61 24.17Q79.95 24.85 79.95 25.76Q79.95 26.66 79.61 27.34C79.38 27.79 79.05 28.15 78.63 28.4C78.21 28.65 77.72 28.78 77.15 28.78ZM87.73 28.78C87.14 28.78 86.64 28.65 86.21 28.41C85.79 28.16 85.46 27.82 85.23 27.37C85 26.91 84.89 26.38 84.89 25.77C84.89 25.17 85 24.64 85.23 24.18C85.46 23.73 85.78 23.37 86.2 23.12C86.61 22.86 87.1 22.73 87.66 22.73C88.02 22.73 88.36 22.79 88.68 22.91C89 23.02 89.29 23.2 89.53 23.44Q89.91 23.8 90.12 24.36C90.26 24.73 90.33 25.17 90.33 25.69L90.33 26.11L86.26 26.11C86.26 26.44 86.32 26.72 86.44 26.95C86.57 27.2 86.74 27.38 86.96 27.51Q87.3 27.7 87.75 27.7C87.95 27.7 88.13 27.67 88.29 27.62C88.46 27.56 88.6 27.47 88.72 27.36C88.84 27.25 88.93 27.11 88.99 26.95L90.28 27.09C90.2 27.43 90.04 27.73 89.81 27.98C89.59 28.23 89.3 28.43 88.94 28.57C88.59 28.71 88.19 28.78 87.73 28.78ZM86.26 25.18L89.01 25.18Q89.01 24.79 88.84 24.48Q88.84 24.48 88.84 24.48C88.73 24.27 88.57 24.1 88.37 23.98C88.17 23.87 87.94 23.81 87.68 23.81C87.39 23.81 87.15 23.87 86.93 24.01C86.72 24.15 86.55 24.32 86.43 24.54Q86.39 24.63 86.35 24.72Q86.27 24.94 86.26 25.18ZM77.16 27.67C77.47 27.67 77.72 27.59 77.93 27.41C78.14 27.24 78.3 27.01 78.4 26.72C78.5 26.43 78.55 26.11 78.55 25.75C78.55 25.39 78.5 25.07 78.4 24.78C78.3 24.49 78.14 24.26 77.93 24.08Q77.87 24.03 77.79 23.98Q77.52 23.82 77.16 23.82C76.84 23.82 76.57 23.91 76.36 24.08Q76.35 24.09 76.34 24.11Q76.04 24.36 75.89 24.78C75.79 25.07 75.74 25.39 75.74 25.75C75.74 26.11 75.79 26.43 75.89 26.72Q76.04 27.13 76.32 27.38Q76.34 27.4 76.36 27.41C76.57 27.59 76.84 27.67 77.16 27.67ZM48.88 25.73C48.88 26.11 48.94 26.44 49.04 26.73C49.15 27.01 49.31 27.24 49.51 27.4Q49.58 27.45 49.65 27.49L49.65 27.49Q49.92 27.63 50.26 27.63C50.56 27.63 50.82 27.55 51.02 27.39C51.23 27.22 51.39 27 51.49 26.71Q51.65 26.28 51.65 25.73C51.65 25.37 51.6 25.05 51.49 24.77C51.39 24.48 51.23 24.26 51.03 24.1C50.82 23.94 50.57 23.86 50.26 23.86C49.96 23.86 49.71 23.94 49.51 24.1C49.3 24.25 49.15 24.47 49.04 24.75Q48.88 25.17 48.88 25.73ZM55.59 25.73C55.59 26.11 55.64 26.44 55.75 26.73Q55.91 27.16 56.22 27.4Q56.29 27.45 56.36 27.49L56.36 27.49Q56.62 27.63 56.97 27.63C57.27 27.63 57.53 27.55 57.73 27.39C57.94 27.22 58.09 27 58.2 26.71Q58.36 26.28 58.36 25.73C58.36 25.37 58.31 25.05 58.2 24.77C58.1 24.48 57.94 24.26 57.74 24.1C57.53 23.94 57.27 23.86 56.97 23.86C56.67 23.86 56.42 23.94 56.22 24.1C56.01 24.25 55.85 24.47 55.75 24.75C55.64 25.03 55.59 25.36 55.59 25.73Z" fill="#FFFFFF" fill-opacity="1.000000" fill-rule="evenodd"/>
</svg>
