<svg width="113.000000" height="40.000000" viewBox="0 0 113 40" fill="none" xmlns="http://www.w3.org/2000/svg" xmlns:xlink="http://www.w3.org/1999/xlink">
	<desc>
			Created with Pixso.
	</desc>
	<defs>
		<radialGradient gradientTransform="translate(56.5 20) rotate(76.9341) scale(39.2208 105.846)" cx="0.000000" cy="0.000000" r="1.000000" id="paint_radial_1312_115698_0" gradientUnits="userSpaceOnUse">
			<stop stop-color="#C1C1C1"/>
			<stop offset="1.000000" stop-color="#EDEDED"/>
		</radialGradient>
	</defs>
	<g opacity="0.880000">
		<rect id="Rectangle 4203" rx="8.000000" width="113.000000" height="40.000000" fill="url(#paint_radial_1312_115698_0)" fill-opacity="1.000000"/>
	</g>
	<path id="Subtract" d="M27.1353 8.2959L13.1221 8.2959C10.4873 8.2959 8.35156 10.4316 8.35156 13.0664L8.35156 26.9329C8.35156 29.5674 10.4873 31.7034 13.1221 31.7034L27.1353 31.7034C29.77 31.7034 31.9058 29.5674 31.9058 26.9329L31.9058 13.0664C31.9058 10.4316 29.77 8.2959 27.1353 8.2959ZM17.1763 13.2551C16.6396 12.9602 16.0098 12.967 15.4766 13.2593L21.7251 18.9875L23.8242 16.9016L17.1763 13.2551ZM14.6133 14.6775C14.6133 14.3767 14.7007 14.093 14.8535 13.8452L21.1206 19.5906L14.8369 25.8352C14.6929 25.5923 14.6133 25.3147 14.6133 25.0234L14.6133 14.6775ZM26.6079 18.4277L24.6055 17.3298L22.3555 19.5649L25.1128 22.092L26.6084 21.272C27.147 20.9753 27.4692 20.4438 27.4692 19.8494C27.4683 19.2549 27.147 18.7234 26.6079 18.4277ZM15.4453 26.4297L21.7461 20.168L24.3193 22.5266L17.1733 26.4458C16.9048 26.5933 16.6118 26.6665 16.3203 26.6665C16.0186 26.6665 15.7188 26.5847 15.4453 26.4297Z" clip-rule="evenodd" fill="#FFFFFF" fill-opacity="1.000000" fill-rule="evenodd"/>
	<path id="Available on the" d="M52.15 10.74C52.03 10.74 51.93 10.7 51.84 10.62Q51.78 10.55 51.75 10.47Q51.72 10.41 51.72 10.33C51.72 10.22 51.76 10.12 51.84 10.04C51.93 9.96 52.03 9.92 52.15 9.92C52.26 9.92 52.36 9.96 52.45 10.04Q52.52 10.11 52.55 10.19Q52.57 10.26 52.57 10.33C52.57 10.44 52.53 10.54 52.45 10.62C52.36 10.7 52.26 10.74 52.15 10.74ZM39.89 15.29L39.23 15.29L41.14 10.09L41.79 10.09L43.71 15.29L43.04 15.29L42.52 13.82L40.42 13.82L39.89 15.29ZM54.14 10.09L54.14 15.29L53.54 15.29L53.54 10.09L54.14 10.09ZM59.35 15.29L59.35 10.09L59.95 10.09L59.95 12.01L60 12.01C60.05 11.94 60.11 11.85 60.18 11.75C60.26 11.64 60.38 11.55 60.53 11.46C60.67 11.38 60.88 11.34 61.13 11.34C61.46 11.34 61.75 11.42 62 11.58C62.25 11.75 62.45 11.98 62.59 12.28Q62.8 12.73 62.8 13.35C62.8 13.76 62.73 14.12 62.59 14.42C62.45 14.73 62.25 14.96 62 15.13Q61.91 15.19 61.81 15.23L61.81 15.23Q61.51 15.37 61.14 15.37C60.89 15.37 60.69 15.33 60.54 15.25C60.39 15.16 60.27 15.07 60.19 14.96C60.11 14.85 60.05 14.76 60 14.69L59.93 14.69L59.93 15.29L59.35 15.29ZM64.31 10.09L64.31 15.29L63.71 15.29L63.71 10.09L64.31 10.09ZM85.34 12.94L85.34 15.29L84.74 15.29L84.74 10.09L85.34 10.09L85.34 12L85.39 12Q85.47 11.83 85.58 11.7Q85.68 11.6 85.8 11.52C85.99 11.4 86.23 11.34 86.54 11.34C86.81 11.34 87.04 11.39 87.24 11.5C87.44 11.6 87.59 11.76 87.7 11.98Q87.87 12.31 87.87 12.81L87.87 15.29L87.27 15.29L87.27 12.85Q87.27 12.41 87.05 12.16Q87.04 12.14 87.03 12.13Q86.98 12.08 86.92 12.03Q86.7 11.88 86.37 11.88C86.17 11.88 85.99 11.92 85.84 12C85.68 12.08 85.56 12.2 85.47 12.36C85.38 12.52 85.34 12.72 85.34 12.94ZM82.32 10.45L82.92 10.45L82.92 11.39L83.75 11.39L83.75 11.9L82.92 11.9L82.92 14.17C82.92 14.34 82.95 14.47 83 14.55C83.05 14.64 83.11 14.69 83.19 14.72Q83.2 14.72 83.2 14.73L83.21 14.73Q83.32 14.76 83.44 14.76C83.51 14.76 83.56 14.76 83.6 14.75L83.7 14.73L83.83 15.27Q83.77 15.29 83.66 15.32C83.58 15.33 83.49 15.34 83.38 15.34C83.21 15.34 83.04 15.31 82.88 15.23C82.72 15.16 82.59 15.05 82.48 14.9C82.37 14.75 82.32 14.56 82.32 14.34L82.32 11.9L81.73 11.9L81.73 11.39L82.32 11.39L82.32 10.45ZM42.32 13.26L41.49 10.91L41.45 10.91L40.62 13.26L42.32 13.26ZM48.96 15.38C48.71 15.38 48.49 15.34 48.28 15.24C48.08 15.15 47.92 15.01 47.8 14.83C47.69 14.65 47.63 14.44 47.63 14.18C47.63 13.96 47.67 13.78 47.76 13.64C47.85 13.5 47.96 13.39 48.11 13.31C48.26 13.23 48.42 13.17 48.6 13.13C48.78 13.09 48.96 13.06 49.14 13.03C49.38 13 49.57 12.98 49.72 12.97C49.87 12.95 49.98 12.92 50.04 12.88Q50.08 12.86 50.1 12.84Q50.15 12.78 50.15 12.68L50.15 12.66C50.15 12.41 50.08 12.21 49.94 12.07C49.81 11.93 49.6 11.87 49.32 11.87C49.04 11.87 48.81 11.93 48.65 12.05Q48.41 12.24 48.31 12.46L47.74 12.25C47.84 12.01 47.98 11.83 48.14 11.7C48.32 11.56 48.5 11.47 48.7 11.42C48.91 11.36 49.11 11.34 49.3 11.34C49.43 11.34 49.57 11.35 49.74 11.38Q49.74 11.38 49.75 11.39L49.75 11.39Q49.99 11.43 50.21 11.56C50.37 11.65 50.49 11.79 50.59 11.98Q50.75 12.25 50.75 12.72L50.75 15.29L50.15 15.29L50.15 14.76L50.12 14.76C50.08 14.85 50.01 14.94 49.91 15.03C49.82 15.13 49.69 15.21 49.54 15.28Q49.3 15.38 48.96 15.38ZM56.39 15.38C56.14 15.38 55.91 15.34 55.71 15.24C55.51 15.15 55.35 15.01 55.23 14.83C55.11 14.65 55.05 14.44 55.05 14.18C55.05 13.96 55.1 13.78 55.19 13.64C55.28 13.5 55.39 13.39 55.54 13.31C55.69 13.23 55.85 13.17 56.03 13.13C56.21 13.09 56.39 13.06 56.57 13.03C56.81 13 57 12.98 57.15 12.97C57.3 12.95 57.4 12.92 57.47 12.88Q57.5 12.86 57.53 12.84Q57.58 12.78 57.58 12.68L57.58 12.66Q57.58 12.32 57.41 12.12L57.41 12.12Q57.39 12.1 57.37 12.07C57.23 11.93 57.03 11.87 56.75 11.87C56.47 11.87 56.24 11.93 56.08 12.05C55.92 12.18 55.8 12.31 55.74 12.46L55.17 12.25C55.27 12.01 55.4 11.83 55.57 11.7C55.74 11.56 55.93 11.47 56.13 11.42C56.34 11.36 56.54 11.34 56.73 11.34C56.86 11.34 57 11.35 57.16 11.38C57.33 11.41 57.49 11.47 57.64 11.56Q57.87 11.7 58.02 11.98C58.12 12.16 58.18 12.41 58.18 12.72L58.18 15.29L57.58 15.29L57.58 14.76L57.55 14.76C57.5 14.85 57.44 14.94 57.34 15.03C57.25 15.13 57.12 15.21 56.96 15.28C56.81 15.35 56.61 15.38 56.39 15.38ZM67.05 15.37C66.67 15.37 66.35 15.29 66.08 15.12C65.8 14.96 65.6 14.72 65.45 14.42Q65.23 13.97 65.23 13.37C65.23 12.97 65.3 12.62 65.45 12.31C65.6 12.01 65.8 11.77 66.06 11.6C66.33 11.42 66.64 11.34 66.99 11.34C67.19 11.34 67.39 11.37 67.59 11.44C67.79 11.51 67.97 11.62 68.13 11.77Q68.38 12 68.52 12.37C68.62 12.62 68.66 12.92 68.66 13.29L68.66 13.54L65.83 13.54C65.84 13.8 65.89 14.03 65.98 14.21C66.08 14.41 66.23 14.57 66.41 14.68C66.59 14.78 66.81 14.83 67.05 14.83C67.21 14.83 67.35 14.81 67.48 14.77C67.6 14.72 67.72 14.65 67.81 14.56C67.9 14.47 67.97 14.36 68.02 14.22L68.6 14.39C68.54 14.58 68.44 14.76 68.3 14.9C68.15 15.05 67.97 15.17 67.76 15.25Q67.45 15.37 67.05 15.37ZM73.18 15.37C72.82 15.37 72.51 15.29 72.25 15.12C71.98 14.95 71.78 14.72 71.63 14.42C71.48 14.12 71.41 13.76 71.41 13.36C71.41 12.95 71.48 12.6 71.63 12.3C71.78 11.99 71.98 11.76 72.25 11.59C72.51 11.42 72.82 11.34 73.18 11.34C73.53 11.34 73.84 11.42 74.1 11.59C74.37 11.76 74.57 11.99 74.72 12.3C74.87 12.6 74.94 12.95 74.94 13.36C74.94 13.76 74.87 14.12 74.72 14.42C74.57 14.72 74.37 14.95 74.1 15.12C73.84 15.29 73.53 15.37 73.18 15.37ZM76.46 12.94L76.46 15.29L75.86 15.29L75.86 11.39L76.44 11.39L76.44 12L76.49 12Q76.55 11.86 76.64 11.75L76.64 11.75Q76.75 11.62 76.91 11.52C77.09 11.4 77.33 11.34 77.63 11.34C77.89 11.34 78.12 11.39 78.32 11.5C78.52 11.61 78.67 11.77 78.78 11.99C78.89 12.2 78.95 12.48 78.95 12.81L78.95 15.29L78.35 15.29L78.35 12.85Q78.35 12.41 78.13 12.16L78.13 12.16Q78.12 12.15 78.11 12.13Q78.05 12.07 77.98 12.02Q77.77 11.88 77.46 11.88C77.26 11.88 77.09 11.92 76.94 12Q76.87 12.04 76.81 12.09Q76.68 12.2 76.59 12.36Q76.46 12.6 76.46 12.94ZM90.61 15.37C90.23 15.37 89.9 15.29 89.63 15.12C89.36 14.96 89.15 14.72 89 14.42C88.86 14.12 88.79 13.77 88.79 13.37C88.79 12.97 88.86 12.62 89 12.31C89.15 12.01 89.36 11.77 89.62 11.6C89.88 11.42 90.19 11.34 90.54 11.34C90.75 11.34 90.95 11.37 91.15 11.44C91.34 11.51 91.52 11.62 91.69 11.77C91.85 11.92 91.98 12.12 92.08 12.37C92.17 12.62 92.22 12.92 92.22 13.29L92.22 13.54L89.39 13.54C89.4 13.8 89.45 14.03 89.54 14.21C89.64 14.41 89.78 14.57 89.97 14.68C90.15 14.78 90.36 14.83 90.61 14.83C90.76 14.83 90.91 14.81 91.03 14.77C91.16 14.72 91.27 14.65 91.37 14.56C91.46 14.47 91.53 14.36 91.58 14.22L92.16 14.39C92.1 14.58 92 14.76 91.85 14.9C91.71 15.05 91.53 15.17 91.32 15.25Q91 15.37 90.61 15.37ZM47.14 11.39L45.69 15.29L45.08 15.29L43.64 11.39L44.29 11.39L45.37 14.5L45.41 14.5L46.49 11.39L47.14 11.39ZM51.84 15.29L51.84 11.39L52.44 11.39L52.44 15.29L51.84 15.29ZM59.94 13.34C59.94 13.63 59.98 13.89 60.07 14.12C60.16 14.34 60.28 14.52 60.45 14.65C60.62 14.77 60.82 14.83 61.06 14.83C61.31 14.83 61.52 14.77 61.69 14.64Q61.72 14.61 61.75 14.58L61.75 14.58Q61.96 14.39 62.07 14.1Q62.2 13.76 62.2 13.34C62.2 13.07 62.15 12.82 62.07 12.6C61.99 12.38 61.86 12.2 61.69 12.07C61.52 11.94 61.31 11.88 61.06 11.88C60.81 11.88 60.61 11.94 60.44 12.06C60.28 12.18 60.15 12.35 60.07 12.57Q59.94 12.9 59.94 13.34ZM65.83 13.02L68.06 13.02C68.06 12.8 68.01 12.61 67.92 12.43C67.84 12.26 67.71 12.13 67.55 12.03Q67.54 12.02 67.52 12.01Q67.29 11.88 66.99 11.88C66.75 11.88 66.54 11.93 66.37 12.05C66.19 12.17 66.06 12.32 65.97 12.51Q65.92 12.62 65.88 12.73L65.88 12.73Q65.84 12.87 65.83 13.02ZM73.18 14.83C73.44 14.83 73.66 14.77 73.84 14.63C74.01 14.49 74.14 14.31 74.22 14.09Q74.34 13.75 74.34 13.36Q74.34 12.97 74.22 12.63C74.14 12.41 74.01 12.22 73.84 12.08Q73.81 12.06 73.78 12.04Q73.54 11.88 73.18 11.88C72.91 11.88 72.69 11.95 72.51 12.08C72.34 12.22 72.21 12.41 72.13 12.63Q72.01 12.97 72.01 13.36Q72.01 13.75 72.13 14.09C72.21 14.31 72.34 14.49 72.51 14.63C72.69 14.77 72.91 14.83 73.18 14.83ZM89.39 13.02L91.61 13.02C91.61 12.8 91.57 12.61 91.48 12.43C91.39 12.26 91.27 12.13 91.11 12.03C90.95 11.93 90.76 11.88 90.54 11.88C90.31 11.88 90.1 11.93 89.92 12.05C89.75 12.17 89.62 12.32 89.53 12.51C89.45 12.67 89.4 12.84 89.39 13.02ZM49.05 14.84C49.29 14.84 49.49 14.8 49.65 14.7C49.81 14.61 49.94 14.49 50.02 14.34C50.1 14.2 50.15 14.04 50.15 13.88L50.15 13.33C50.12 13.36 50.07 13.39 49.98 13.41C49.89 13.44 49.8 13.46 49.68 13.48C49.57 13.49 49.47 13.51 49.36 13.52C49.26 13.53 49.18 13.54 49.11 13.55C48.96 13.57 48.81 13.61 48.67 13.65C48.54 13.7 48.43 13.76 48.35 13.85C48.27 13.94 48.23 14.06 48.23 14.21C48.23 14.42 48.3 14.58 48.46 14.69C48.61 14.79 48.81 14.84 49.05 14.84ZM56.48 14.84C56.72 14.84 56.91 14.8 57.08 14.7C57.24 14.61 57.37 14.49 57.45 14.34C57.53 14.2 57.58 14.04 57.58 13.88L57.58 13.33C57.55 13.36 57.49 13.39 57.41 13.41C57.32 13.44 57.23 13.46 57.11 13.48C57 13.49 56.9 13.51 56.79 13.52C56.69 13.53 56.6 13.54 56.54 13.55C56.38 13.57 56.24 13.61 56.1 13.65C55.97 13.7 55.86 13.76 55.78 13.85C55.7 13.94 55.65 14.06 55.65 14.21C55.65 14.42 55.73 14.58 55.89 14.69C56.04 14.79 56.24 14.84 56.48 14.84Z" fill="#FFFFFF" fill-opacity="1.000000" fill-rule="evenodd"/>
	<path id="Google Play" d="M45.05 23.35Q44.95 23.04 44.79 22.8C44.68 22.63 44.54 22.49 44.39 22.37C44.24 22.26 44.06 22.17 43.86 22.11C43.67 22.05 43.45 22.02 43.22 22.02Q42.76 22.02 42.38 22.18Q42.23 22.25 42.1 22.33Q42.06 22.36 42.03 22.38Q41.58 22.69 41.32 23.26Q41.04 23.87 41.04 24.75Q41.04 25.63 41.32 26.25C41.51 26.66 41.77 26.97 42.1 27.18Q42.18 27.23 42.26 27.28Q42.7 27.5 43.25 27.5C43.64 27.5 43.99 27.42 44.28 27.27C44.57 27.12 44.79 26.9 44.95 26.62Q45.18 26.22 45.19 25.68L43.39 25.68L43.39 24.58L46.55 24.58L46.55 25.51Q46.55 26.52 46.13 27.25C45.84 27.74 45.45 28.11 44.95 28.38Q44.21 28.77 43.24 28.77C42.52 28.77 41.89 28.61 41.34 28.28Q41.1 28.14 40.88 27.95Q40.39 27.52 40.08 26.9Q39.62 26 39.62 24.77Q39.62 23.82 39.89 23.08Q40.16 22.33 40.64 21.82Q40.91 21.53 41.23 21.32L41.23 21.32L41.23 21.32Q41.48 21.14 41.78 21.02Q41.78 21.02 41.78 21.02Q41.79 21.02 41.79 21.02Q42.44 20.75 43.2 20.75Q43.84 20.75 44.41 20.94Q44.95 21.12 45.38 21.46Q45.38 21.46 45.38 21.46Q45.39 21.47 45.4 21.47Q45.65 21.67 45.85 21.91L45.85 21.91L45.85 21.91Q46 22.09 46.12 22.3C46.31 22.61 46.43 22.96 46.49 23.35L45.05 23.35ZM69.01 20.86L69.01 28.66L67.63 28.66L67.63 20.86L69.01 20.86ZM79.51 28.66L79.51 20.86L82.44 20.86C83.04 20.86 83.54 20.97 83.95 21.19C84.36 21.41 84.67 21.72 84.88 22.11C85.09 22.5 85.19 22.94 85.19 23.44C85.19 23.94 85.09 24.38 84.88 24.77C84.67 25.16 84.36 25.47 83.94 25.69C83.53 25.91 83.03 26.02 82.42 26.02L80.93 26.02L80.93 28.66L79.51 28.66ZM87.74 20.86L87.74 28.66L86.36 28.66L86.36 20.86L87.74 20.86ZM80.93 24.86L82.23 24.86C82.58 24.86 82.87 24.8 83.09 24.68C83.32 24.56 83.48 24.39 83.59 24.18Q83.75 23.85 83.75 23.44Q83.75 23.02 83.59 22.71C83.48 22.5 83.32 22.33 83.09 22.22C82.87 22.1 82.58 22.04 82.23 22.04L80.93 22.04L80.93 24.86ZM50.41 28.78Q49.56 28.78 48.93 28.4C48.51 28.15 48.18 27.79 47.95 27.34Q47.61 26.66 47.61 25.76C47.61 25.15 47.72 24.62 47.95 24.17Q48.17 23.73 48.51 23.42Q48.7 23.24 48.93 23.11Q49.56 22.73 50.41 22.73Q51.27 22.73 51.9 23.11C52.32 23.36 52.64 23.71 52.87 24.17Q53.22 24.85 53.22 25.76C53.22 26.36 53.1 26.89 52.87 27.34C52.64 27.79 52.32 28.15 51.9 28.4Q51.27 28.78 50.41 28.78ZM56.95 28.78C56.37 28.78 55.88 28.65 55.46 28.4C55.04 28.15 54.71 27.79 54.48 27.34Q54.14 26.66 54.14 25.76Q54.14 24.85 54.48 24.17Q54.7 23.73 55.04 23.42Q55.23 23.24 55.46 23.11C55.88 22.86 56.37 22.73 56.95 22.73Q57.8 22.73 58.43 23.11C58.85 23.36 59.18 23.71 59.4 24.17Q59.75 24.85 59.75 25.76C59.75 26.36 59.64 26.89 59.4 27.34C59.18 27.79 58.85 28.15 58.43 28.4Q57.8 28.78 56.95 28.78ZM63.47 30.98C62.97 30.98 62.55 30.91 62.19 30.78C61.84 30.64 61.55 30.47 61.33 30.24Q61.04 29.94 60.91 29.58L60.91 29.58Q60.9 29.54 60.88 29.5L62.13 29.2C62.18 29.31 62.26 29.43 62.37 29.54C62.48 29.65 62.62 29.75 62.8 29.82C62.98 29.9 63.21 29.93 63.49 29.93C63.88 29.93 64.21 29.84 64.46 29.65Q64.52 29.6 64.58 29.55L64.58 29.55Q64.85 29.26 64.85 28.72L64.85 27.61L64.78 27.61C64.71 27.75 64.6 27.9 64.47 28.05C64.33 28.2 64.15 28.32 63.93 28.42C63.71 28.53 63.43 28.58 63.09 28.58Q62.6 28.58 62.17 28.41Q62.02 28.35 61.87 28.26C61.51 28.05 61.22 27.73 61 27.31Q60.68 26.67 60.68 25.72Q60.68 24.75 61 24.09C61.22 23.64 61.51 23.31 61.87 23.08Q62.08 22.95 62.31 22.87L62.31 22.87Q62.68 22.73 63.1 22.73C63.44 22.73 63.72 22.79 63.94 22.91C64.17 23.02 64.35 23.16 64.48 23.32C64.61 23.48 64.71 23.63 64.78 23.77L64.86 23.77L64.86 22.81L66.22 22.81L66.22 28.76C66.22 29.26 66.1 29.67 65.86 30C65.62 30.33 65.29 30.57 64.88 30.73C64.46 30.9 63.99 30.98 63.47 30.98ZM73.02 28.78C72.43 28.78 71.93 28.65 71.5 28.41C71.08 28.16 70.75 27.82 70.52 27.37C70.29 26.91 70.18 26.38 70.18 25.77C70.18 25.17 70.29 24.64 70.52 24.18C70.75 23.73 71.07 23.37 71.49 23.12C71.9 22.86 72.39 22.73 72.95 22.73C73.31 22.73 73.65 22.79 73.97 22.91C74.29 23.02 74.58 23.2 74.82 23.44C75.07 23.68 75.27 23.99 75.41 24.36C75.55 24.73 75.62 25.17 75.62 25.69L75.62 26.11L71.55 26.11C71.55 26.44 71.61 26.72 71.73 26.95C71.86 27.2 72.03 27.38 72.25 27.51C72.48 27.64 72.74 27.7 73.04 27.7C73.24 27.7 73.42 27.67 73.58 27.62C73.75 27.56 73.89 27.47 74.01 27.36C74.13 27.25 74.22 27.11 74.28 26.95L75.57 27.09C75.49 27.43 75.33 27.73 75.1 27.98C74.88 28.23 74.59 28.43 74.23 28.57C73.88 28.71 73.48 28.78 73.02 28.78ZM90.84 28.78C90.47 28.78 90.14 28.71 89.84 28.58C89.55 28.45 89.31 28.25 89.14 27.99C88.97 27.73 88.89 27.4 88.89 27.02C88.89 26.69 88.95 26.41 89.07 26.2C89.19 25.98 89.36 25.81 89.57 25.68C89.78 25.55 90.02 25.45 90.28 25.39C90.55 25.32 90.82 25.27 91.11 25.24C91.45 25.2 91.73 25.17 91.94 25.14C92.16 25.11 92.31 25.07 92.41 25.01C92.51 24.94 92.56 24.84 92.56 24.71L92.56 24.69C92.56 24.4 92.47 24.18 92.3 24.02C92.13 23.87 91.89 23.79 91.57 23.79C91.23 23.79 90.96 23.86 90.76 24.01C90.57 24.15 90.43 24.33 90.36 24.53L89.08 24.35C89.18 23.99 89.35 23.69 89.58 23.45C89.81 23.21 90.1 23.03 90.44 22.91Q90.94 22.73 91.56 22.73C91.84 22.73 92.12 22.76 92.4 22.83Q92.73 22.91 93.02 23.07Q93.1 23.11 93.17 23.16C93.4 23.31 93.58 23.51 93.72 23.77C93.87 24.03 93.94 24.35 93.94 24.74L93.94 28.66L92.61 28.66L92.61 27.86L92.56 27.86C92.48 28.02 92.36 28.17 92.21 28.31C92.06 28.45 91.87 28.57 91.64 28.65C91.42 28.74 91.15 28.78 90.84 28.78ZM95.97 30.86C95.78 30.86 95.61 30.84 95.45 30.81C95.29 30.78 95.17 30.75 95.07 30.71L95.39 29.64C95.59 29.7 95.77 29.72 95.93 29.72Q96.06 29.72 96.18 29.67Q96.27 29.64 96.35 29.57Q96.53 29.43 96.65 29.1L96.77 28.78L94.65 22.81L96.11 22.81L97.46 27.23L97.52 27.23L98.88 22.81L100.34 22.81L98 29.37C97.89 29.68 97.75 29.95 97.56 30.17C97.38 30.39 97.16 30.56 96.9 30.68C96.64 30.8 96.33 30.86 95.97 30.86ZM71.55 25.18L74.3 25.18C74.3 24.92 74.24 24.68 74.13 24.48Q74.04 24.31 73.91 24.18Q73.8 24.07 73.66 23.98C73.46 23.87 73.23 23.81 72.97 23.81C72.69 23.81 72.44 23.87 72.22 24.01C72.01 24.15 71.84 24.32 71.73 24.54C71.62 24.74 71.56 24.95 71.55 25.18ZM50.42 27.67C50.73 27.67 50.99 27.59 51.2 27.41C51.41 27.24 51.56 27.01 51.67 26.72Q51.82 26.29 51.82 25.75C51.82 25.39 51.77 25.07 51.67 24.78C51.56 24.49 51.41 24.26 51.2 24.08C50.99 23.91 50.73 23.82 50.42 23.82C50.1 23.82 49.84 23.91 49.63 24.08C49.42 24.26 49.27 24.49 49.16 24.78Q49.01 25.22 49.01 25.75C49.01 26.11 49.06 26.43 49.16 26.72C49.27 27.01 49.42 27.24 49.63 27.41C49.84 27.59 50.1 27.67 50.42 27.67ZM56.95 27.67C57.26 27.67 57.52 27.59 57.73 27.41C57.94 27.24 58.09 27.01 58.2 26.72C58.3 26.43 58.35 26.11 58.35 25.75C58.35 25.39 58.3 25.07 58.2 24.78C58.09 24.49 57.94 24.26 57.73 24.08Q57.66 24.03 57.59 23.98Q57.32 23.82 56.95 23.82C56.64 23.82 56.37 23.91 56.16 24.08C55.95 24.26 55.8 24.49 55.69 24.78Q55.54 25.22 55.54 25.75C55.54 26.11 55.59 26.43 55.69 26.72C55.8 27.01 55.95 27.24 56.16 27.41C56.37 27.59 56.64 27.67 56.95 27.67ZM63.48 27.5C63.77 27.5 64.02 27.42 64.23 27.28C64.43 27.14 64.59 26.93 64.7 26.67Q64.86 26.27 64.86 25.71C64.86 25.34 64.8 25.02 64.7 24.74C64.59 24.46 64.44 24.25 64.23 24.1C64.03 23.94 63.78 23.86 63.48 23.86C63.17 23.86 62.92 23.94 62.71 24.1C62.5 24.26 62.35 24.48 62.24 24.76C62.14 25.04 62.09 25.35 62.09 25.71C62.09 26.07 62.14 26.38 62.24 26.65C62.35 26.92 62.51 27.12 62.71 27.27C62.92 27.42 63.18 27.5 63.48 27.5ZM91.2 27.77Q91.62 27.77 91.92 27.6C92.13 27.49 92.28 27.34 92.39 27.16C92.5 26.98 92.56 26.78 92.56 26.56L92.56 25.87C92.52 25.91 92.44 25.94 92.34 25.97C92.24 26 92.12 26.03 92 26.05C91.87 26.07 91.74 26.09 91.62 26.11C91.49 26.13 91.39 26.14 91.29 26.16C91.09 26.18 90.9 26.23 90.74 26.29C90.58 26.36 90.45 26.45 90.36 26.56C90.26 26.67 90.22 26.82 90.22 27C90.22 27.25 90.31 27.44 90.49 27.57C90.68 27.7 90.92 27.77 91.2 27.77Z" fill="#FFFFFF" fill-opacity="1.000000" fill-rule="evenodd"/>
</svg>
