<svg width="406.000000" height="15.000000" viewBox="0 0 406 15" fill="none" xmlns="http://www.w3.org/2000/svg" xmlns:xlink="http://www.w3.org/1999/xlink">
	<desc>
			Created with Pixso.
	</desc>
	<defs/>
	<path id="Privacy Policy" d="M281.78 10.78L282.82 10.78L282.82 2.02L281.78 2.02L281.78 10.78ZM236.01 3.49C236.15 3.62 236.32 3.69 236.52 3.69C236.71 3.69 236.87 3.62 237.01 3.49C237.15 3.35 237.21 3.19 237.21 3C237.21 2.8 237.15 2.64 237.01 2.5C236.87 2.36 236.71 2.29 236.52 2.29C236.32 2.29 236.15 2.36 236.01 2.5C235.88 2.64 235.81 2.8 235.81 3Q235.81 3.14 235.86 3.26Q235.91 3.38 236.01 3.49ZM284.44 3.49C284.57 3.62 284.74 3.69 284.94 3.69C285.13 3.69 285.3 3.62 285.43 3.49C285.57 3.35 285.64 3.19 285.64 3C285.64 2.8 285.57 2.64 285.43 2.5C285.3 2.36 285.13 2.29 284.94 2.29Q284.79 2.29 284.66 2.34Q284.54 2.4 284.44 2.5C284.3 2.64 284.23 2.8 284.23 3Q284.23 3.14 284.28 3.26Q284.33 3.38 284.44 3.49ZM228.26 2.38L225.21 2.38L225.21 10.78L226.33 10.78L226.33 7.78L228.26 7.78Q228.92 7.78 229.46 7.53Q229.86 7.34 230.19 7C230.71 6.48 230.97 5.84 230.97 5.08Q230.97 4.45 230.73 3.93Q230.54 3.51 230.19 3.16C229.67 2.64 229.03 2.38 228.26 2.38ZM271.09 2.38L268.04 2.38L268.04 10.78L269.16 10.78L269.16 7.78L271.09 7.78C271.86 7.78 272.5 7.52 273.02 7C273.54 6.48 273.8 5.84 273.8 5.08C273.8 4.32 273.54 3.68 273.02 3.16C272.5 2.64 271.86 2.38 271.09 2.38ZM228.26 6.74L226.33 6.74L226.33 3.43L228.26 3.43Q228.68 3.43 229.01 3.6Q229.23 3.71 229.41 3.9Q229.56 4.05 229.66 4.23Q229.87 4.6 229.87 5.08Q229.87 5.48 229.72 5.81Q229.61 6.06 229.41 6.27Q229.26 6.44 229.07 6.54Q228.72 6.74 228.26 6.74ZM271.09 6.74L269.16 6.74L269.16 3.43L271.09 3.43C271.56 3.43 271.94 3.58 272.24 3.9Q272.4 4.05 272.5 4.23Q272.7 4.6 272.7 5.08Q272.7 5.48 272.55 5.81Q272.44 6.06 272.24 6.27C271.95 6.58 271.56 6.74 271.09 6.74ZM249.57 4.78L249.57 5.82C249.06 5.02 248.3 4.63 247.3 4.63Q246.71 4.63 246.2 4.83Q245.62 5.06 245.16 5.55C244.56 6.17 244.27 6.91 244.27 7.78C244.27 8.66 244.56 9.41 245.16 10.03C245.74 10.64 246.46 10.94 247.3 10.94Q248.15 10.94 248.76 10.56Q249.24 10.27 249.57 9.75L249.57 10.78L250.62 10.78L250.62 4.78L249.57 4.78ZM252.76 10.04C253.36 10.64 254.11 10.94 255.02 10.94Q255.56 10.94 256.05 10.77Q256.34 10.67 256.6 10.52C257.08 10.24 257.45 9.86 257.72 9.38L256.83 8.86C256.66 9.18 256.42 9.44 256.1 9.63C255.78 9.82 255.42 9.91 255.02 9.91C254.42 9.91 253.91 9.7 253.51 9.3C253.11 8.88 252.91 8.38 252.91 7.78Q252.91 7.27 253.1 6.85Q253.25 6.53 253.51 6.26C253.91 5.85 254.42 5.65 255.02 5.65C255.42 5.65 255.77 5.74 256.09 5.94Q256.4 6.12 256.6 6.39Q256.71 6.54 256.79 6.7L257.67 6.2C257.44 5.72 257.09 5.34 256.61 5.06C256.14 4.77 255.61 4.63 255.02 4.63C254.11 4.63 253.36 4.93 252.76 5.54C252.16 6.14 251.86 6.89 251.86 7.78Q251.86 8.57 252.17 9.2Q252.39 9.66 252.76 10.04ZM277.38 10.94C278.26 10.94 279.01 10.64 279.62 10.03C280.24 9.41 280.54 8.66 280.54 7.78C280.54 6.9 280.24 6.16 279.62 5.54C279.01 4.93 278.26 4.63 277.38 4.63C276.49 4.63 275.74 4.93 275.13 5.54C274.53 6.15 274.22 6.9 274.22 7.78C274.22 8.67 274.53 9.42 275.13 10.03C275.74 10.64 276.49 10.94 277.38 10.94ZM287.61 10.04C288.21 10.64 288.97 10.94 289.87 10.94Q290.41 10.94 290.9 10.77Q291.19 10.67 291.45 10.52C291.93 10.24 292.31 9.86 292.57 9.38L291.68 8.86C291.51 9.18 291.27 9.44 290.95 9.63Q290.85 9.69 290.75 9.73Q290.35 9.91 289.87 9.91C289.27 9.91 288.76 9.7 288.36 9.3C287.96 8.88 287.76 8.38 287.76 7.78C287.76 7.18 287.96 6.68 288.36 6.26C288.76 5.85 289.27 5.65 289.87 5.65C290.27 5.65 290.63 5.74 290.94 5.94Q291.25 6.12 291.46 6.39Q291.57 6.54 291.65 6.7L292.52 6.2C292.29 5.72 291.94 5.34 291.47 5.06C290.99 4.77 290.46 4.63 289.87 4.63C288.97 4.63 288.21 4.93 287.61 5.54Q287.25 5.91 287.03 6.35Q286.71 6.99 286.71 7.78Q286.71 8.57 287.02 9.2Q287.24 9.66 287.61 10.04ZM233.1 5.79L233.1 4.78L232.05 4.78L232.05 10.78L233.1 10.78L233.1 7.6Q233.1 6.73 233.54 6.28Q233.59 6.22 233.65 6.18C234.02 5.88 234.46 5.74 234.97 5.77L234.97 4.67Q234.18 4.67 233.67 5.06Q233.31 5.33 233.1 5.79ZM235.99 10.78L237.03 10.78L237.03 4.78L235.99 4.78L235.99 10.78ZM242.83 4.78L240.94 9.67L239.06 4.78L237.93 4.78L240.33 10.78L241.56 10.78L243.96 4.78L242.83 4.78ZM262.95 4.78L261.22 9.49L259.18 4.78L258.06 4.78L260.68 10.76L260.57 10.99C260.23 11.86 259.69 12.27 258.95 12.21L258.95 13.18C259.54 13.22 260.07 13.06 260.52 12.7C260.99 12.35 261.35 11.84 261.62 11.16L264.06 4.78L262.95 4.78ZM284.41 10.78L285.46 10.78L285.46 4.78L284.41 4.78L284.41 10.78ZM297.8 4.78L296.07 9.49L294.03 4.78L292.92 4.78L295.53 10.76L295.42 10.99Q295.08 11.86 294.48 12.11Q294.17 12.24 293.8 12.21L293.8 13.18C294.4 13.22 294.92 13.06 295.38 12.7C295.84 12.35 296.2 11.84 296.47 11.16L298.92 4.78L297.8 4.78ZM248.96 9.32C248.55 9.73 248.04 9.93 247.44 9.93C246.84 9.93 246.33 9.73 245.92 9.32C245.52 8.89 245.31 8.38 245.31 7.78Q245.31 7.25 245.52 6.81Q245.67 6.51 245.92 6.26C246.33 5.84 246.84 5.64 247.44 5.64C248.04 5.64 248.55 5.84 248.96 6.26C249.37 6.67 249.57 7.18 249.57 7.78C249.57 8.38 249.37 8.89 248.96 9.32ZM278.89 9.31C278.48 9.72 277.98 9.92 277.38 9.92Q276.89 9.92 276.49 9.74Q276.16 9.59 275.88 9.31C275.47 8.9 275.26 8.39 275.26 7.78C275.26 7.18 275.47 6.67 275.88 6.26Q276.16 5.98 276.49 5.83Q276.89 5.65 277.38 5.65C277.98 5.65 278.48 5.85 278.89 6.26C279.3 6.67 279.5 7.18 279.5 7.78C279.5 8.39 279.3 8.9 278.89 9.31Z" fill="#BDBDBD" fill-opacity="1.000000" fill-rule="evenodd"/>
	<path id="Terms of Service" d="M362.67 3.24L362.67 2.23C361.83 2.17 361.18 2.35 360.72 2.77C360.27 3.18 360.04 3.79 360.04 4.6L360.04 4.78L359.08 4.78L359.08 5.79L360.04 5.79L360.04 10.78L361.08 10.78L361.08 5.79L362.67 5.79L362.67 4.78L361.08 4.78L361.08 4.6Q361.08 3.89 361.44 3.55Q361.83 3.17 362.67 3.24ZM367.27 10.4C367.83 10.76 368.5 10.94 369.28 10.94C370.14 10.94 370.84 10.72 371.38 10.29C371.92 9.85 372.19 9.26 372.19 8.53Q372.19 7.69 371.77 7.27Q371.44 6.9 371.12 6.72C370.82 6.55 370.54 6.42 370.28 6.32C370.26 6.31 370.11 6.26 369.84 6.15L369.34 6C368.7 5.8 368.25 5.6 367.98 5.4Q367.83 5.29 367.74 5.16Q367.58 4.91 367.58 4.56Q367.58 4.21 367.73 3.96Q367.83 3.78 368 3.64Q368 3.64 368.01 3.64Q368.43 3.31 369.1 3.31C370.02 3.31 370.65 3.74 371.01 4.6L371.95 4.06C371.7 3.5 371.33 3.05 370.83 2.72C370.34 2.39 369.76 2.23 369.1 2.23C368.37 2.23 367.74 2.44 367.23 2.88Q366.96 3.1 366.78 3.38Q366.46 3.89 366.46 4.6C366.46 5.16 366.64 5.62 366.99 6.01C367.12 6.15 367.32 6.3 367.6 6.44C367.89 6.58 368.12 6.68 368.3 6.75L369.1 7.02C369.85 7.26 370.36 7.47 370.63 7.65Q370.82 7.78 370.93 7.97Q371.08 8.22 371.08 8.55C371.08 8.95 370.93 9.27 370.62 9.5C370.31 9.73 369.88 9.85 369.31 9.85C368.13 9.85 367.38 9.34 367.06 8.32L366.1 8.88Q366.3 9.44 366.66 9.86Q366.92 10.17 367.27 10.4ZM390.71 3.49C390.85 3.62 391.01 3.69 391.21 3.69C391.41 3.69 391.57 3.62 391.71 3.49Q391.81 3.38 391.86 3.26Q391.91 3.14 391.91 3C391.91 2.8 391.84 2.64 391.71 2.5C391.57 2.36 391.41 2.29 391.21 2.29Q391.06 2.29 390.93 2.34Q390.81 2.4 390.71 2.5C390.57 2.64 390.51 2.8 390.51 3Q390.51 3.14 390.56 3.26Q390.61 3.38 390.71 3.49ZM323.07 2.38L317.01 2.38L317.01 3.44L319.48 3.44L319.48 10.78L320.58 10.78L320.58 3.44L323.07 3.44L323.07 2.38ZM323.71 8.26L328.74 8.26C328.76 8.1 328.77 7.95 328.77 7.8Q328.77 6.98 328.45 6.32Q328.25 5.91 327.93 5.56Q327.58 5.17 327.15 4.94Q326.55 4.63 325.78 4.63Q324.85 4.63 324.15 5.03Q323.81 5.23 323.51 5.53Q323.22 5.83 323.02 6.19Q322.64 6.88 322.64 7.78Q322.64 8.61 322.97 9.27Q323.18 9.7 323.53 10.05C324.13 10.64 324.91 10.94 325.85 10.94Q326.88 10.94 327.61 10.47Q328.13 10.14 328.5 9.58L327.61 9.08Q327.42 9.39 327.15 9.59Q326.65 9.96 325.88 9.96C325.3 9.96 324.82 9.81 324.44 9.51C324.06 9.21 323.81 8.79 323.71 8.26ZM342.02 5.29C341.61 4.85 341.07 4.63 340.39 4.63C339.55 4.63 338.92 4.97 338.5 5.65C338.14 4.97 337.55 4.63 336.74 4.63Q336.11 4.63 335.64 4.9Q335.24 5.14 334.95 5.59L334.95 4.78L333.91 4.78L333.91 10.78L334.95 10.78L334.95 7.45Q334.95 6.57 335.37 6.1Q335.55 5.9 335.77 5.79Q336.09 5.62 336.49 5.62C336.88 5.62 337.19 5.76 337.41 6.02C337.64 6.28 337.76 6.63 337.76 7.09L337.76 10.78L338.8 10.78L338.8 7.45C338.8 6.85 338.93 6.4 339.19 6.09C339.45 5.78 339.82 5.62 340.28 5.62C340.69 5.62 341.01 5.76 341.24 6.02C341.48 6.28 341.6 6.63 341.6 7.09L341.6 10.78L342.64 10.78L342.64 7.05Q342.64 6.13 342.21 5.52Q342.12 5.4 342.02 5.29ZM346.18 7.3C345.39 7.09 344.99 6.79 344.99 6.4Q344.99 6.21 345.07 6.07Q345.14 5.92 345.29 5.82C345.5 5.67 345.76 5.6 346.06 5.6C346.7 5.6 347.13 5.86 347.34 6.37L348.22 5.88C348.03 5.48 347.74 5.18 347.36 4.96C346.98 4.74 346.55 4.63 346.06 4.63C345.45 4.63 344.94 4.8 344.54 5.13C344.14 5.47 343.94 5.9 343.94 6.42Q343.94 6.73 344.05 7.01Q344.06 7.04 344.08 7.08C344.18 7.27 344.3 7.42 344.42 7.54C344.54 7.66 344.71 7.76 344.94 7.87C345.18 7.97 345.37 8.04 345.51 8.08C345.64 8.12 345.84 8.18 346.11 8.25C346.9 8.43 347.3 8.73 347.3 9.14C347.3 9.41 347.19 9.62 346.97 9.75C346.76 9.89 346.47 9.96 346.11 9.96Q345.57 9.96 345.18 9.71Q345.17 9.71 345.16 9.7C344.9 9.54 344.72 9.31 344.62 9.02L343.72 9.54C343.9 9.97 344.19 10.31 344.61 10.57C345.03 10.82 345.53 10.94 346.11 10.94C346.76 10.94 347.29 10.78 347.72 10.45C348.14 10.12 348.35 9.68 348.35 9.14C348.35 8.84 348.29 8.57 348.16 8.35C348.03 8.12 347.84 7.94 347.6 7.81C347.36 7.67 347.13 7.57 346.92 7.51C346.72 7.44 346.48 7.37 346.18 7.3ZM355.41 10.94C356.3 10.94 357.04 10.64 357.65 10.03C358.27 9.41 358.58 8.66 358.58 7.78C358.58 6.9 358.27 6.16 357.65 5.54C357.04 4.93 356.3 4.63 355.41 4.63C354.52 4.63 353.77 4.93 353.16 5.54C352.56 6.15 352.25 6.9 352.25 7.78C352.25 8.67 352.56 9.42 353.16 10.03C353.77 10.64 354.52 10.94 355.41 10.94ZM374.27 8.26L379.3 8.26C379.33 8.1 379.34 7.95 379.34 7.8C379.34 6.92 379.06 6.17 378.5 5.56C377.95 4.94 377.23 4.63 376.35 4.63C375.42 4.63 374.67 4.93 374.08 5.53Q373.78 5.83 373.58 6.19Q373.21 6.88 373.21 7.78C373.21 8.69 373.5 9.44 374.09 10.05C374.7 10.64 375.48 10.94 376.42 10.94C377.59 10.94 378.47 10.49 379.06 9.58L378.17 9.08Q377.98 9.39 377.71 9.59Q377.22 9.96 376.45 9.96Q375.68 9.96 375.14 9.6Q375.07 9.56 375.01 9.51C374.62 9.21 374.38 8.79 374.27 8.26ZM394.66 10.61Q395.32 10.94 396.14 10.94Q396.69 10.94 397.18 10.77Q397.46 10.67 397.73 10.52C398.21 10.24 398.58 9.86 398.84 9.38L397.95 8.86C397.79 9.18 397.54 9.44 397.22 9.63Q397.12 9.69 397.02 9.73Q396.62 9.91 396.14 9.91C395.54 9.91 395.04 9.7 394.63 9.3C394.23 8.88 394.03 8.38 394.03 7.78C394.03 7.18 394.23 6.68 394.63 6.26C395.04 5.85 395.54 5.65 396.14 5.65C396.54 5.65 396.9 5.74 397.21 5.94Q397.52 6.12 397.73 6.39Q397.84 6.54 397.92 6.7L398.79 6.2C398.56 5.72 398.21 5.34 397.74 5.06C397.27 4.77 396.73 4.63 396.14 4.63Q395.34 4.63 394.69 4.95Q394.25 5.17 393.89 5.54C393.29 6.14 392.99 6.89 392.99 7.78C392.99 8.68 393.29 9.43 393.89 10.04Q394.24 10.39 394.66 10.61ZM400.52 8.26L405.55 8.26C405.58 8.1 405.59 7.95 405.59 7.8Q405.59 6.98 405.27 6.32Q405.07 5.91 404.75 5.56C404.2 4.94 403.48 4.63 402.6 4.63C401.67 4.63 400.92 4.93 400.33 5.53Q400.03 5.83 399.83 6.19Q399.46 6.88 399.46 7.78C399.46 8.69 399.75 9.44 400.34 10.05C400.95 10.64 401.73 10.94 402.67 10.94C403.84 10.94 404.72 10.49 405.31 9.58L404.42 9.08C404.06 9.66 403.49 9.96 402.7 9.96C402.12 9.96 401.64 9.81 401.26 9.51C400.87 9.21 400.63 8.79 400.52 8.26ZM331.02 5.79L331.02 4.78L329.97 4.78L329.97 10.78L331.02 10.78L331.02 7.6Q331.02 6.73 331.45 6.28Q331.51 6.22 331.57 6.18C331.94 5.88 332.38 5.74 332.89 5.77L332.89 4.67Q332.1 4.67 331.59 5.06Q331.23 5.33 331.02 5.79ZM381.58 5.79L381.58 4.78L380.54 4.78L380.54 10.78L381.58 10.78L381.58 7.6C381.58 6.95 381.77 6.47 382.13 6.18C382.5 5.88 382.94 5.74 383.45 5.77L383.45 4.67Q382.66 4.67 382.16 5.06Q381.8 5.33 381.58 5.79ZM388.68 4.78L386.79 9.67L384.91 4.78L383.78 4.78L386.18 10.78L387.4 10.78L389.8 4.78L388.68 4.78ZM390.69 10.78L391.73 10.78L391.73 4.78L390.69 4.78L390.69 10.78ZM324.39 6.08C324.77 5.77 325.23 5.61 325.78 5.61Q326.25 5.61 326.64 5.79Q326.86 5.9 327.06 6.07Q327.13 6.13 327.19 6.2Q327.6 6.63 327.72 7.35L323.71 7.35C323.79 6.82 324.02 6.39 324.39 6.08ZM374.96 6.08C375.33 5.77 375.8 5.61 376.35 5.61C376.85 5.61 377.27 5.76 377.62 6.07C377.97 6.37 378.19 6.8 378.28 7.35L374.27 7.35Q374.37 6.75 374.7 6.34Q374.82 6.2 374.96 6.08ZM401.21 6.08C401.58 5.77 402.05 5.61 402.6 5.61C403.1 5.61 403.52 5.76 403.87 6.07C404.22 6.37 404.44 6.8 404.53 7.35L400.52 7.35C400.61 6.82 400.84 6.39 401.21 6.08ZM356.92 9.31C356.51 9.72 356.01 9.92 355.41 9.92Q354.93 9.92 354.52 9.74Q354.19 9.59 353.91 9.31C353.5 8.9 353.3 8.39 353.3 7.78C353.3 7.18 353.5 6.67 353.91 6.26Q354.19 5.98 354.52 5.83Q354.93 5.65 355.41 5.65C356.01 5.65 356.51 5.85 356.92 6.26C357.33 6.67 357.53 7.18 357.53 7.78C357.53 8.39 357.33 8.9 356.92 9.31Z" fill="#BDBDBD" fill-opacity="1.000000" fill-rule="evenodd"/>
	<path id="© Tinvio™ 2020. All" d="M24.27 2.68C24.27 3.1 23.9 3.44 23.46 3.44C23.02 3.44 22.66 3.1 22.66 2.68C22.66 2.26 23.02 1.92 23.46 1.92C23.9 1.92 24.27 2.26 24.27 2.68ZM40.98 2.68C40.98 3.1 40.61 3.44 40.18 3.44C39.73 3.44 39.37 3.1 39.37 2.68C39.37 2.26 39.73 1.92 40.18 1.92C40.61 1.92 40.98 2.26 40.98 2.68ZM123.03 2.68C123.03 3.1 122.66 3.44 122.22 3.44C121.78 3.44 121.41 3.1 121.41 2.68C121.41 2.26 121.78 1.92 122.22 1.92C122.66 1.92 123.03 2.26 123.03 2.68ZM9.98 6.63C9.99 9.12 7.98 11.13 5.48 11.13C3.01 11.13 0.98 9.12 0.98 6.63C0.99 4.15 3.01 2.13 5.48 2.13C7.98 2.13 9.98 4.15 9.98 6.63ZM65.67 11L59.93 11L59.93 10.04L62.89 6.98C63.82 5.99 64.28 5.43 64.28 4.66C64.28 3.79 63.61 3.25 62.72 3.25C61.78 3.25 61.17 3.86 61.18 4.8L59.92 4.8C59.92 3.2 61.12 2.15 62.75 2.15C64.39 2.15 65.53 3.22 65.53 4.62C65.53 5.6 65.08 6.37 63.48 7.99L61.75 9.8L61.75 9.87L65.67 9.87L65.67 11ZM73.53 6.64C73.53 9.5 72.35 11.14 70.33 11.14C68.31 11.14 67.13 9.49 67.13 6.64C67.13 3.79 68.33 2.15 70.33 2.15C72.33 2.15 73.53 3.8 73.53 6.64ZM80.79 11L75.04 11L75.04 10.04L78 6.98C78.93 5.99 79.39 5.43 79.39 4.66C79.39 3.79 78.72 3.25 77.83 3.25C76.89 3.25 76.29 3.86 76.29 4.8L75.03 4.8C75.03 3.2 76.23 2.15 77.86 2.15C79.5 2.15 80.64 3.22 80.64 4.62C80.64 5.6 80.19 6.37 78.59 7.99L76.86 9.8L76.86 9.87L80.79 9.87L80.79 11ZM88.64 6.64C88.64 9.5 87.46 11.14 85.44 11.14C83.42 11.14 82.24 9.49 82.24 6.64C82.24 3.79 83.44 2.15 85.44 2.15C87.44 2.15 88.64 3.8 88.64 6.64ZM17.4 3.4L14.68 3.4L14.68 2.27L21.43 2.27L21.43 3.4L18.71 3.4L18.71 11L17.4 11L17.4 3.4ZM50.54 5.41L49.91 5.41L49.91 2.8L48.96 2.8L48.96 2.27L51.49 2.27L51.49 2.8L50.54 2.8L50.54 5.41ZM54.74 3.38L53.87 5.41L53.53 5.41L52.66 3.38L52.66 5.41L52.04 5.41L52.04 2.27L52.8 2.27L53.7 4.49L54.61 2.27L55.37 2.27L55.37 5.41L54.74 5.41L54.74 3.38ZM97.92 8.69L97.12 11L95.73 11L98.87 2.27L100.39 2.27L103.53 11L102.13 11L101.34 8.69L97.92 8.69ZM104.68 2.27L105.96 2.27L105.96 11L104.68 11L104.68 2.27ZM107.67 2.27L108.94 2.27L108.94 11L107.67 11L107.67 2.27ZM115.26 11L113.94 11L113.94 2.27L117.05 2.27C119.08 2.27 120.07 3.4 120.07 5C120.07 6.18 119.54 7.07 118.47 7.46L120.41 11L118.91 11L117.13 7.69L115.26 7.69L115.26 11ZM134.81 5.47C133.91 5.47 133.24 6.06 133.24 7.11L133.24 11L131.97 11L131.97 2.27L133.23 2.27L133.23 5.51L133.31 5.51C133.62 4.81 134.23 4.37 135.25 4.37C136.59 4.37 137.49 5.2 137.49 6.83L137.49 11L136.21 11L136.21 6.98C136.21 6.03 135.69 5.47 134.81 5.47ZM154.57 11L153.25 11L153.25 2.27L156.37 2.27C158.39 2.27 159.39 3.4 159.39 5C159.39 6.18 158.86 7.07 157.78 7.46L159.72 11L158.22 11L156.45 7.69L154.57 7.69L154.57 11ZM204.11 9.98C203.88 10.39 203.41 11.12 202.22 11.12C200.63 11.12 199.48 9.85 199.48 7.73C199.48 5.61 200.65 4.37 202.23 4.37C203.45 4.37 203.88 5.11 204.11 5.51L204.19 5.51L204.19 2.27L205.46 2.27L205.46 11L204.22 11L204.22 9.98L204.11 9.98ZM140.91 4.45L142.25 4.45L142.25 5.47L140.91 5.47L140.91 9.07C140.91 9.81 141.28 9.95 141.69 9.95C141.89 9.95 142.05 9.91 142.14 9.89L142.37 10.95C142.22 11 141.95 11.08 141.54 11.08C140.54 11.1 139.63 10.53 139.63 9.34L139.63 5.47L138.67 5.47L138.67 4.45L139.63 4.45L139.63 2.88L140.91 2.88L140.91 4.45ZM2.12 6.64C2.11 8.48 3.62 10 5.48 10C7.35 10 8.86 8.49 8.85 6.64C8.85 4.77 7.35 3.26 5.48 3.26C3.63 3.26 2.12 4.78 2.12 6.64ZM68.44 6.64C68.44 8.82 69.15 10 70.33 10C71.5 10 72.22 8.82 72.22 6.64C72.22 4.46 71.5 3.26 70.33 3.26C69.15 3.26 68.44 4.46 68.44 6.64ZM83.55 6.64C83.55 8.82 84.26 10 85.44 10C86.62 10 87.33 8.82 87.33 6.64C87.33 4.46 86.61 3.26 85.44 3.26C84.26 3.26 83.55 4.46 83.55 6.64ZM115.26 3.4L115.26 6.56L116.93 6.56C118.21 6.56 118.75 5.99 118.75 5C118.75 4.01 118.21 3.4 116.91 3.4L115.26 3.4ZM154.57 3.4L154.57 6.56L156.24 6.56C157.53 6.56 158.06 5.99 158.06 5C158.06 4.01 157.53 3.4 156.23 3.4L154.57 3.4ZM99.6 3.85L98.31 7.58L100.95 7.58L99.66 3.85L99.6 3.85ZM5.52 9.12C4.15 9.12 3.03 8 3.03 6.63C3.03 5.26 4.15 4.14 5.52 4.14C6.72 4.14 7.72 4.99 7.87 6.11L6.76 6.11C6.65 5.58 6.12 5.21 5.52 5.21C4.74 5.21 4.1 5.84 4.1 6.63C4.1 7.41 4.74 8.05 5.52 8.05C6.12 8.05 6.58 7.68 6.7 7.15L7.8 7.15C7.65 8.27 6.72 9.12 5.52 9.12ZM182.61 11L181.34 11L181.34 4.45L182.57 4.45L182.57 5.49L182.64 5.49C182.87 4.79 183.53 4.35 184.3 4.35C184.46 4.35 184.71 4.37 184.84 4.38L184.84 5.6C184.74 5.57 184.44 5.52 184.18 5.52C183.27 5.52 182.61 6.14 182.61 7L182.61 11ZM28.61 5.47C27.72 5.47 27.08 6.06 27.08 7.11L27.08 11L25.81 11L25.81 4.45L27.03 4.45L27.03 5.51L27.11 5.51C27.41 4.82 28.06 4.37 29.04 4.37C30.38 4.37 31.27 5.21 31.27 6.83L31.27 11L29.99 11L29.99 6.98C29.99 6.04 29.47 5.47 28.61 5.47ZM48.33 7.75C48.33 9.78 47.12 11.13 45.27 11.13C43.43 11.13 42.23 9.78 42.23 7.75C42.23 5.72 43.43 4.37 45.27 4.37C47.12 4.37 48.33 5.72 48.33 7.75ZM130.26 11.14C130.26 12.82 128.97 13.58 127.31 13.58C125.74 13.58 124.87 12.91 124.52 12.1L125.62 11.65C125.85 12.03 126.26 12.56 127.32 12.56C128.29 12.56 128.99 12.12 128.99 11.09L128.99 9.8L128.91 9.8C128.68 10.22 128.22 10.9 127.01 10.9C125.47 10.9 124.28 9.79 124.28 7.7C124.28 5.61 125.44 4.37 127.02 4.37C128.24 4.37 128.69 5.11 128.92 5.51L129.01 5.51L129.01 4.45L130.26 4.45L130.26 11.14ZM145.97 4.37C147.39 4.37 148.18 5.03 148.45 6.05L147.29 6.25C147.14 5.81 146.78 5.37 145.99 5.37C145.26 5.37 144.71 5.73 144.72 6.23C144.71 6.68 145.03 6.92 145.75 7.09L146.78 7.33C147.99 7.61 148.58 8.18 148.58 9.1C148.58 10.29 147.48 11.13 145.9 11.13C144.43 11.13 143.47 10.48 143.25 9.32L144.49 9.13C144.64 9.77 145.13 10.1 145.89 10.1C146.73 10.1 147.27 9.7 147.27 9.2C147.27 8.79 146.97 8.51 146.34 8.37L145.24 8.12C144.01 7.85 143.45 7.23 143.45 6.3C143.45 5.14 144.49 4.37 145.97 4.37ZM166.36 9.36C166.07 10.42 165.06 11.13 163.63 11.13C161.7 11.13 160.52 9.8 160.52 7.76C160.52 5.75 161.72 4.37 163.54 4.37C165.03 4.37 166.44 5.29 166.44 7.66L166.44 8.11L161.78 8.11C161.82 9.37 162.55 10.08 163.64 10.08C164.37 10.08 164.92 9.76 165.15 9.14L166.36 9.36ZM170.29 4.37C171.7 4.37 172.5 5.03 172.77 6.05L171.61 6.25C171.46 5.81 171.09 5.37 170.3 5.37C169.58 5.37 169.03 5.73 169.04 6.23C169.03 6.68 169.34 6.92 170.06 7.09L171.1 7.33C172.3 7.61 172.89 8.18 172.89 9.1C172.89 10.29 171.8 11.13 170.22 11.13C168.75 11.13 167.78 10.48 167.57 9.32L168.8 9.13C168.95 9.77 169.44 10.1 170.21 10.1C171.04 10.1 171.58 9.7 171.58 9.2C171.58 8.79 171.29 8.51 170.66 8.37L169.55 8.12C168.32 7.85 167.76 7.23 167.76 6.3C167.76 5.14 168.81 4.37 170.29 4.37ZM179.84 9.36C179.55 10.42 178.54 11.13 177.11 11.13C175.18 11.13 174 9.8 174 7.76C174 5.75 175.2 4.37 177.02 4.37C178.5 4.37 179.92 5.29 179.92 7.66L179.92 8.11L175.26 8.11C175.3 9.37 176.03 10.08 177.12 10.08C177.85 10.08 178.4 9.76 178.63 9.14L179.84 9.36ZM198.27 9.36C197.98 10.42 196.97 11.13 195.54 11.13C193.61 11.13 192.43 9.8 192.43 7.76C192.43 5.75 193.63 4.37 195.45 4.37C196.93 4.37 198.35 5.29 198.35 7.66L198.35 8.11L193.69 8.11C193.73 9.37 194.46 10.08 195.55 10.08C196.28 10.08 196.83 9.76 197.06 9.14L198.27 9.36ZM24.09 11L22.82 11L22.82 4.45L24.09 4.45L24.09 11ZM36.97 4.45L38.34 4.45L35.96 11L34.6 11L32.22 4.45L33.59 4.45L35.24 9.49L35.31 9.49L36.97 4.45ZM40.81 11L39.53 11L39.53 4.45L40.81 4.45L40.81 11ZM122.85 11L121.58 11L121.58 4.45L122.85 4.45L122.85 11ZM190.39 4.45L191.75 4.45L189.38 11L188.02 11L185.64 4.45L187 4.45L188.66 9.49L188.73 9.49L190.39 4.45ZM163.55 5.42C162.51 5.42 161.84 6.22 161.79 7.15L165.19 7.15C165.19 6.15 164.54 5.42 163.55 5.42ZM177.03 5.42C175.99 5.42 175.32 6.22 175.27 7.15L178.67 7.15C178.67 6.15 178.02 5.42 177.03 5.42ZM195.46 5.42C194.42 5.42 193.75 6.22 193.7 7.15L197.1 7.15C197.1 6.15 196.45 5.42 195.46 5.42ZM43.51 7.75C43.51 9.01 44.07 10.06 45.28 10.06C46.48 10.06 47.04 9.01 47.04 7.75C47.04 6.5 46.48 5.43 45.28 5.43C44.07 5.43 43.51 6.5 43.51 7.75ZM125.56 7.68C125.56 8.97 126.16 9.84 127.3 9.84C128.39 9.84 129 9.03 129 7.68C129 6.35 128.41 5.45 127.3 5.45C126.14 5.45 125.56 6.42 125.56 7.68ZM200.77 7.72C200.77 9.04 201.36 10.04 202.5 10.04C203.6 10.04 204.21 9.1 204.21 7.72C204.21 6.35 203.61 5.45 202.5 5.45C201.35 5.45 200.77 6.42 200.77 7.72ZM91.54 10.22C91.54 10.7 91.15 11.08 90.69 11.08C90.22 11.08 89.83 10.7 89.83 10.22C89.83 9.76 90.22 9.37 90.69 9.37C91.15 9.37 91.54 9.76 91.54 10.22Z" fill="#BDBDBD" fill-opacity="1.000000" fill-rule="evenodd"/>
	<rect id="Rectangle 4241" x="215.000000" width="1.000000" height="14.000000" fill="#C4C4C4" fill-opacity="1.000000"/>
	<rect id="Rectangle 4242" x="307.000000" width="1.000000" height="14.000000" fill="#C4C4C4" fill-opacity="1.000000"/>
</svg>
