<svg width="32.000000" height="32.000000" viewBox="0 0 32 32" fill="none" xmlns="http://www.w3.org/2000/svg" xmlns:xlink="http://www.w3.org/1999/xlink">
	<desc>
			Created with Pixso.
	</desc>
	<defs>
		<radialGradient gradientTransform="translate(16 16) rotate(85.3036) scale(30.6673 30.6673)" cx="0.000000" cy="0.000000" r="1.000000" id="paint_radial_1312_115685_0" gradientUnits="userSpaceOnUse">
			<stop stop-color="#C1C1C1"/>
			<stop offset="1.000000" stop-color="#EDEDED"/>
		</radialGradient>
	</defs>
	<g opacity="0.880000">
		<path id="Vector" d="M29.69 0L2.3 0C1.03 0 0 1.03 0 2.3L0 29.69C0 30.96 1.03 32 2.3 32L29.69 32C30.96 32 32 30.96 32 29.69L32 2.3C32 1.03 30.96 0 29.69 0L29.69 0ZM11.35 22.23C11.35 23.31 10.47 24.18 9.4 24.18C8.32 24.18 7.45 23.31 7.45 22.23L7.45 14.41C7.45 13.33 8.32 12.46 9.4 12.46C10.47 12.46 11.35 13.33 11.35 14.41L11.35 22.23ZM9.4 10.86L9.37 10.86C8.06 10.86 7.22 9.96 7.22 8.83C7.22 7.68 8.09 6.81 9.42 6.81C10.76 6.81 11.58 7.68 11.6 8.83C11.6 9.96 10.76 10.86 9.4 10.86ZM25.4 22.23C25.4 23.31 24.52 24.18 23.45 24.18C22.37 24.18 21.5 23.31 21.5 22.23L21.5 17.91C21.5 16.33 20.94 15.26 19.53 15.26C18.45 15.26 17.81 15.98 17.53 16.68C17.42 16.94 17.4 17.29 17.4 17.64L17.4 22.24C17.4 23.31 16.53 24.18 15.46 24.18C14.38 24.18 13.51 23.31 13.51 22.23C13.52 20.53 13.52 18.03 13.52 15.98C13.52 14.06 15.1 12.46 17.02 12.46C17.23 12.46 17.4 12.63 17.4 12.84C17.4 13.22 17.93 13.39 18.21 13.14C18.79 12.62 19.63 12.18 20.91 12.18C23.47 12.18 25.4 13.86 25.4 17.46L25.4 22.23Z" fill="url(#paint_radial_1312_115685_0)" fill-opacity="1.000000" fill-rule="nonzero"/>
	</g>
</svg>
