<svg width="32.000000" height="32.000000" viewBox="0 0 32 32" fill="none" xmlns="http://www.w3.org/2000/svg" xmlns:xlink="http://www.w3.org/1999/xlink">
	<desc>
			Created with Pixso.
	</desc>
	<defs>
		<radialGradient gradientTransform="translate(16.0009 16.0004) rotate(85.3036) scale(14.4368 14.4368)" cx="0.000000" cy="0.000000" r="1.000000" id="paint_radial_1312_115687_0" gradientUnits="userSpaceOnUse">
			<stop stop-color="#C1C1C1"/>
			<stop offset="1.000000" stop-color="#EDEDED"/>
		</radialGradient>
		<radialGradient gradientTransform="translate(16 16) rotate(85.3035) scale(5.86991 5.86991)" cx="0.000000" cy="0.000000" r="1.000000" id="paint_radial_1312_115688_0" gradientUnits="userSpaceOnUse">
			<stop stop-color="#C1C1C1"/>
			<stop offset="1.000000" stop-color="#EDEDED"/>
		</radialGradient>
		<radialGradient gradientTransform="translate(16 16) rotate(85.3036) scale(30.6673 30.6673)" cx="0.000000" cy="0.000000" r="1.000000" id="paint_radial_1312_115689_0" gradientUnits="userSpaceOnUse">
			<stop stop-color="#C1C1C1"/>
			<stop offset="1.000000" stop-color="#EDEDED"/>
		</radialGradient>
	</defs>
	<g opacity="0.880000">
		<path id="Vector" d="M23.16 10.58C23.01 10.18 22.78 9.82 22.47 9.52C22.17 9.22 21.81 8.98 21.41 8.83C21.09 8.71 20.6 8.56 19.71 8.52C18.74 8.47 18.45 8.46 16 8.46C13.54 8.46 13.25 8.47 12.28 8.52C11.39 8.56 10.9 8.71 10.58 8.83C10.18 8.98 9.82 9.22 9.52 9.52C9.22 9.82 8.98 10.18 8.83 10.58C8.71 10.9 8.56 11.39 8.52 12.28C8.47 13.25 8.46 13.54 8.46 16C8.46 18.45 8.47 18.74 8.52 19.71C8.56 20.6 8.71 21.09 8.83 21.41C8.98 21.81 9.22 22.17 9.52 22.47C9.82 22.78 10.18 23.01 10.58 23.16C10.9 23.28 11.39 23.43 12.28 23.47C13.25 23.52 13.54 23.53 16 23.53C18.45 23.53 18.74 23.52 19.71 23.47C20.6 23.43 21.09 23.28 21.41 23.16C22.22 22.85 22.85 22.22 23.16 21.41C23.28 21.09 23.43 20.6 23.47 19.71C23.52 18.74 23.53 18.45 23.53 16C23.53 13.54 23.52 13.25 23.47 12.28C23.43 11.39 23.28 10.9 23.16 10.58ZM16 20.71C13.39 20.71 11.28 18.6 11.28 16C11.28 13.39 13.39 11.28 16 11.28C18.6 11.28 20.71 13.39 20.71 16C20.71 18.6 18.6 20.71 16 20.71ZM20.9 12.19C20.29 12.19 19.8 11.7 19.8 11.09C19.8 10.48 20.29 9.99 20.9 9.99C21.51 9.99 22 10.48 22 11.09C22 11.7 21.51 12.19 20.9 12.19Z" fill="url(#paint_radial_1312_115687_0)" fill-opacity="1.000000" fill-rule="nonzero"/>
	</g>
	<g opacity="0.880000">
		<path id="Vector" d="M19.06 16C19.06 17.69 17.69 19.06 16 19.06C14.3 19.06 12.93 17.69 12.93 16C12.93 14.3 14.3 12.93 16 12.93C17.69 12.93 19.06 14.3 19.06 16Z" fill="url(#paint_radial_1312_115688_0)" fill-opacity="1.000000" fill-rule="nonzero"/>
	</g>
	<g opacity="0.880000">
		<path id="Vector" d="M29.69 0L2.3 0C1.03 0 0 1.03 0 2.3L0 29.69C0 30.96 1.03 32 2.3 32L29.69 32C30.96 32 32 30.96 32 29.69L32 2.3C32 1.03 30.96 0 29.69 0ZM25.13 19.78C25.08 20.76 24.93 21.43 24.7 22.01C24.22 23.25 23.25 24.22 22.01 24.7C21.43 24.93 20.76 25.08 19.78 25.13C18.8 25.17 18.49 25.18 16 25.18C13.5 25.18 13.19 25.17 12.21 25.13C11.23 25.08 10.56 24.93 9.98 24.7C9.36 24.47 8.81 24.11 8.35 23.64C7.88 23.18 7.52 22.63 7.29 22.01C7.06 21.43 6.91 20.76 6.86 19.78C6.82 18.8 6.81 18.49 6.81 16C6.81 13.5 6.82 13.19 6.86 12.21C6.91 11.23 7.06 10.56 7.29 9.98C7.52 9.36 7.88 8.81 8.35 8.35C8.81 7.88 9.36 7.52 9.98 7.29C10.56 7.06 11.23 6.91 12.21 6.86C13.19 6.82 13.5 6.81 16 6.81C18.49 6.81 18.8 6.82 19.78 6.86C20.76 6.91 21.43 7.06 22.01 7.29C22.63 7.52 23.18 7.88 23.64 8.35C24.11 8.81 24.47 9.36 24.7 9.98C24.93 10.56 25.08 11.23 25.13 12.21C25.17 13.19 25.18 13.5 25.18 16C25.18 18.49 25.17 18.8 25.13 19.78Z" fill="url(#paint_radial_1312_115689_0)" fill-opacity="1.000000" fill-rule="nonzero"/>
	</g>
</svg>
