<svg width="288.000000" height="49.576050" viewBox="0 0 288 49.576" fill="none" xmlns="http://www.w3.org/2000/svg" xmlns:xlink="http://www.w3.org/1999/xlink">
	<desc>
			Created with Pixso.
	</desc>
	<defs/>
	<path id="Owners (Sejadah Grocery)" d="M166.32 43.66C165.28 42.15 164.7 40.36 164.7 38.21C164.7 36.06 165.28 34.27 166.32 32.75L167.21 32.75C166.39 33.88 165.74 36.18 165.74 38.21C165.74 40.24 166.39 42.54 167.21 43.66L166.32 43.66ZM284.25 32.75C285.28 34.27 285.86 36.06 285.86 38.21C285.86 40.36 285.28 42.15 284.25 43.66L283.36 43.66C284.18 42.54 284.82 40.24 284.82 38.21C284.82 36.18 284.18 33.88 283.36 32.75L284.25 32.75ZM112.56 33.72C114.8 33.72 116.42 35.45 116.42 38.21C116.42 40.97 114.8 42.69 112.56 42.69C110.33 42.69 108.71 40.97 108.71 38.21C108.71 35.45 110.33 33.72 112.56 33.72ZM159.25 36.03L158.23 36.03C158.13 35.16 157.32 34.66 156.27 34.66C155.11 34.66 154.34 35.28 154.34 36.11C154.34 37.05 155.38 37.39 156.03 37.56L156.92 37.8C157.82 38.04 159.37 38.57 159.37 40.2C159.37 41.62 158.23 42.72 156.22 42.72C154.34 42.72 153.18 41.75 153.08 40.32L154.17 40.32C154.26 41.31 155.18 41.77 156.22 41.77C157.43 41.77 158.35 41.14 158.35 40.18C158.35 39.32 157.53 38.99 156.61 38.74L155.54 38.43C154.17 38.04 153.32 37.34 153.32 36.16C153.32 34.7 154.63 33.72 156.3 33.72C157.99 33.72 159.2 34.71 159.25 36.03ZM174.63 36.03L173.6 36.03C173.5 35.16 172.7 34.66 171.64 34.66C170.48 34.66 169.72 35.28 169.72 36.11C169.72 37.05 170.76 37.39 171.4 37.56L172.29 37.8C173.19 38.04 174.75 38.57 174.75 40.2C174.75 41.62 173.6 42.72 171.59 42.72C169.72 42.72 168.56 41.75 168.46 40.32L169.55 40.32C169.63 41.31 170.55 41.77 171.59 41.77C172.8 41.77 173.72 41.14 173.72 40.18C173.72 39.32 172.9 38.99 171.98 38.74L170.91 38.43C169.55 38.04 168.69 37.34 168.69 36.16C168.69 34.7 170.01 33.72 171.68 33.72C173.36 33.72 174.58 34.71 174.63 36.03ZM233.93 36.57L232.84 36.57C232.47 35.43 231.61 34.71 230.35 34.71C228.8 34.71 227.55 35.94 227.55 38.21C227.55 40.47 228.8 41.7 230.42 41.7C231.9 41.7 232.93 40.71 232.96 39.15L230.65 39.15L230.65 38.21L233.98 38.21L233.98 39.15C233.98 41.31 232.5 42.69 230.42 42.69C228.1 42.69 226.53 40.97 226.53 38.21C226.53 35.45 228.11 33.72 230.35 33.72C232.19 33.72 233.6 34.88 233.93 36.57ZM246.97 33.72C249.2 33.72 250.82 35.45 250.82 38.21C250.82 40.97 249.2 42.69 246.97 42.69C244.73 42.69 243.11 40.97 243.11 38.21C243.11 35.45 244.73 33.72 246.97 33.72ZM256.1 33.72C257.86 33.72 259.29 34.78 259.62 36.57L258.56 36.57C258.3 35.36 257.26 34.71 256.1 34.71C254.52 34.71 253.27 35.94 253.27 38.21C253.27 40.47 254.52 41.7 256.1 41.7C257.26 41.7 258.3 41.05 258.56 39.84L259.62 39.84C259.29 41.63 257.86 42.69 256.1 42.69C253.87 42.69 252.25 40.97 252.25 38.21C252.25 35.45 253.87 33.72 256.1 33.72ZM120.86 42.57L119.77 42.57L117.39 33.84L118.46 33.84L120.28 40.95L120.37 40.95L122.23 33.84L123.42 33.84L125.28 40.95L125.36 40.95L127.19 33.84L128.26 33.84L125.88 42.57L124.78 42.57L122.86 35.62L122.79 35.62L120.86 42.57ZM135.46 33.84L136.5 33.84L136.5 42.57L135.47 42.57L130.72 35.72L130.63 35.72L130.63 42.57L129.58 42.57L129.58 33.84L130.6 33.84L135.37 40.71L135.46 40.71L135.46 33.84ZM143.94 42.57L138.61 42.57L138.61 33.84L143.88 33.84L143.88 34.78L139.66 34.78L139.66 37.73L143.6 37.73L143.6 38.67L139.66 38.67L139.66 41.63L143.94 41.63L143.94 42.57ZM146.84 42.57L145.79 42.57L145.79 33.84L148.73 33.84C150.78 33.84 151.7 34.98 151.7 36.52C151.7 37.68 151.18 38.59 150.07 38.96L152.04 42.57L150.81 42.57L148.97 39.16C148.9 39.16 148.83 39.16 148.75 39.16L146.84 39.16L146.84 42.57ZM181.82 42.57L176.48 42.57L176.48 33.84L181.75 33.84L181.75 34.78L177.54 34.78L177.54 37.73L181.48 37.73L181.48 38.67L177.54 38.67L177.54 41.63L181.82 41.63L181.82 42.57ZM187 40.08L187 33.84L188.06 33.84L188.06 40.08C188.06 41.76 187.09 42.69 185.57 42.69C184.14 42.69 183.1 41.87 183.1 40.53L184.14 40.53C184.14 41.27 184.74 41.75 185.57 41.75C186.48 41.75 187 41.17 187 40.08ZM191.41 40.1L190.53 42.57L189.42 42.57L192.63 33.84L193.72 33.84L196.92 42.57L195.82 42.57L194.94 40.1L191.41 40.1ZM205.14 38.19C205.14 40.92 203.64 42.57 200.98 42.57L198.29 42.57L198.29 33.84L201.1 33.84C203.64 33.84 205.14 35.48 205.14 38.19ZM207.74 40.1L206.86 42.57L205.75 42.57L208.96 33.84L210.05 33.84L213.25 42.57L212.14 42.57L211.27 40.1L207.74 40.1ZM215.67 42.57L214.62 42.57L214.62 33.84L215.67 33.84L215.67 37.73L220.33 37.73L220.33 33.84L221.38 33.84L221.38 42.57L220.33 42.57L220.33 38.67L215.67 38.67L215.67 42.57ZM236.84 42.57L235.79 42.57L235.79 33.84L238.73 33.84C240.78 33.84 241.7 34.98 241.7 36.52C241.7 37.68 241.18 38.59 240.07 38.96L242.04 42.57L240.81 42.57L238.97 39.16C238.9 39.16 238.83 39.16 238.75 39.16L236.84 39.16L236.84 42.57ZM266.66 42.57L261.32 42.57L261.32 33.84L266.59 33.84L266.59 34.78L262.37 34.78L262.37 37.73L266.31 37.73L266.31 38.67L262.37 38.67L262.37 41.63L266.66 41.63L266.66 42.57ZM269.55 42.57L268.5 42.57L268.5 33.84L271.44 33.84C273.49 33.84 274.41 34.98 274.41 36.52C274.41 37.68 273.89 38.59 272.78 38.96L274.75 42.57L273.52 42.57L271.68 39.16C271.61 39.16 271.54 39.16 271.46 39.16L269.55 39.16L269.55 42.57ZM278.28 38.97L275.13 33.84L276.34 33.84L278.76 37.92L278.86 37.92L281.28 33.84L282.49 33.84L279.34 38.97L279.34 42.57L278.28 42.57L278.28 38.97ZM112.56 41.7C114.15 41.7 115.39 40.47 115.39 38.21C115.39 35.94 114.15 34.71 112.56 34.71C110.98 34.71 109.73 35.94 109.73 38.21C109.73 40.47 110.98 41.7 112.56 41.7ZM246.97 41.7C248.55 41.7 249.8 40.47 249.8 38.21C249.8 35.94 248.55 34.71 246.97 34.71C245.38 34.71 244.14 35.94 244.14 38.21C244.14 40.47 245.38 41.7 246.97 41.7ZM146.84 34.78L146.84 38.21L148.72 38.21C150.12 38.21 150.66 37.57 150.66 36.52C150.66 35.47 150.12 34.78 148.7 34.78L146.84 34.78ZM199.34 34.78L199.34 41.63L200.91 41.63C203.08 41.63 204.12 40.32 204.12 38.19C204.12 36.08 203.08 34.78 201.03 34.78L199.34 34.78ZM236.84 34.78L236.84 38.21L238.72 38.21C240.12 38.21 240.66 37.57 240.66 36.52C240.66 35.47 240.12 34.78 238.7 34.78L236.84 34.78ZM269.55 34.78L269.55 38.21L271.43 38.21C272.83 38.21 273.37 37.57 273.37 36.52C273.37 35.47 272.83 34.78 271.41 34.78L269.55 34.78ZM193.14 35.22L191.74 39.16L194.6 39.16L193.2 35.22L193.14 35.22ZM209.47 35.22L208.07 39.16L210.93 39.16L209.53 35.22L209.47 35.22Z" fill="#5C5C5C" fill-opacity="1.000000" fill-rule="evenodd"/>
	<path id="Hafidz &amp; Indah" d="M140.2 11.49L135.23 11.49L135.23 11.4Q135.23 10.6 135.62 10.25Q135.65 10.23 135.68 10.21C135.98 9.98 136.47 9.87 137.14 9.87C137.68 9.87 138.38 9.91 139.24 10.01L139.24 7.89C138.44 7.72 137.74 7.63 137.14 7.63Q134.78 7.63 133.73 8.81Q132.91 9.73 132.91 11.4L132.91 11.49L131.61 11.49L131.61 13.72L132.91 13.72L132.91 20.49L135.23 20.49L135.23 13.72L137.88 13.72L137.88 20.49L140.2 20.49L140.2 11.49ZM177.28 19.77L175.66 17.98C176.15 17.2 176.52 16.32 176.76 15.34L174.67 14.15C174.53 15 174.32 15.7 174.06 16.24L171.36 13.29C170.98 12.88 170.71 12.54 170.55 12.28C170.41 12 170.33 11.7 170.33 11.38C170.33 10.99 170.47 10.68 170.75 10.42C171.04 10.17 171.4 10.05 171.83 10.05C172.73 10.05 173.35 10.55 173.68 11.56L175.81 10.33Q175.41 9.35 174.71 8.71Q174.48 8.51 174.22 8.34C173.51 7.87 172.7 7.63 171.79 7.63C170.65 7.63 169.71 7.98 168.97 8.66C168.22 9.33 167.85 10.2 167.85 11.27C167.85 12.04 168.05 12.74 168.46 13.38C167.79 13.77 167.27 14.29 166.9 14.92C166.54 15.55 166.36 16.24 166.36 16.99C166.36 18.13 166.76 19.05 167.58 19.73Q167.73 19.85 167.9 19.96Q169.07 20.74 170.77 20.74C172.05 20.74 173.18 20.38 174.15 19.66L175.3 20.9L177.28 19.77ZM116.33 7.89L116.33 12.89L111.65 12.89L111.65 7.89L109.17 7.89L109.17 20.49L111.65 20.49L111.65 15.27L116.33 15.27L116.33 20.49L118.8 20.49L118.8 7.89L116.33 7.89ZM149.14 7.89L149.14 12.55C148.45 11.67 147.48 11.23 146.22 11.23C145.01 11.23 143.97 11.7 143.11 12.62C142.25 13.54 141.83 14.67 141.83 15.99C141.83 17.32 142.25 18.45 143.11 19.37C143.97 20.28 145.01 20.74 146.22 20.74C147.48 20.74 148.45 20.3 149.14 19.42L149.14 20.49L151.46 20.49L151.46 7.89L149.14 7.89ZM183.33 7.89L183.33 20.49L185.81 20.49L185.81 7.89L183.33 7.89ZM205.25 7.89L205.25 12.55Q204.9 12.1 204.45 11.81Q203.58 11.23 202.33 11.23C201.12 11.23 200.08 11.7 199.22 12.62Q198.7 13.18 198.39 13.85Q197.94 14.81 197.94 15.99Q197.94 17.2 198.41 18.19Q198.72 18.83 199.22 19.37C200.08 20.28 201.12 20.74 202.33 20.74Q203.58 20.74 204.45 20.16Q204.9 19.87 205.25 19.42L205.25 20.49L207.57 20.49L207.57 7.89L205.25 7.89ZM228.39 12.22C227.77 11.56 226.96 11.23 225.96 11.23C224.73 11.23 223.83 11.65 223.28 12.49L223.28 7.89L220.96 7.89L220.96 20.49L223.28 20.49L223.28 15.63C223.28 14.89 223.46 14.34 223.8 13.97Q223.95 13.81 224.12 13.7Q224.59 13.39 225.26 13.39C225.81 13.39 226.25 13.56 226.56 13.88C226.88 14.2 227.04 14.66 227.04 15.25L227.04 20.49L229.37 20.49L229.37 14.96C229.37 13.81 229.04 12.9 228.39 12.22ZM127.87 11.49L127.87 12.55Q127.51 12.09 127.05 11.8Q126.17 11.23 124.93 11.23Q124.18 11.23 123.52 11.47Q122.59 11.81 121.84 12.62Q121.32 13.18 121.01 13.85Q120.56 14.81 120.56 15.99Q120.56 17.2 121.03 18.19Q121.34 18.83 121.84 19.37Q122.58 20.15 123.49 20.49Q124.17 20.74 124.93 20.74Q126.17 20.74 127.05 20.17Q127.51 19.88 127.87 19.42L127.87 20.49L130.19 20.49L130.19 11.49L127.87 11.49ZM195.47 12.22C194.85 11.56 194.04 11.23 193.04 11.23C191.8 11.23 190.91 11.65 190.36 12.49L190.36 11.49L188.04 11.49L188.04 20.49L190.36 20.49L190.36 15.63C190.36 14.89 190.53 14.34 190.88 13.97Q191.03 13.81 191.2 13.7Q191.67 13.39 192.34 13.39C192.89 13.39 193.32 13.56 193.63 13.88C193.96 14.2 194.12 14.66 194.12 15.25L194.12 20.49L196.44 20.49L196.44 14.96C196.44 13.81 196.12 12.9 195.47 12.22ZM216.53 11.49L216.53 12.55C215.84 11.67 214.86 11.23 213.6 11.23C212.4 11.23 211.37 11.7 210.5 12.62C209.65 13.54 209.22 14.67 209.22 15.99C209.22 17.32 209.65 18.45 210.5 19.37C211.37 20.28 212.4 20.74 213.6 20.74C214.86 20.74 215.84 20.3 216.53 19.42L216.53 20.49L218.85 20.49L218.85 11.49L216.53 11.49ZM156.41 18.31L160.22 13.03L160.22 11.49L153.47 11.49L153.47 13.66L157.09 13.66L153.29 18.94L153.29 20.49L160.4 20.49L160.4 18.31L156.41 18.31ZM124.13 18.23Q123.84 18.07 123.58 17.82C123.12 17.34 122.88 16.73 122.88 15.99Q122.88 15.21 123.22 14.63Q123.37 14.38 123.58 14.17Q123.85 13.89 124.18 13.72Q124.7 13.45 125.37 13.45C126.09 13.45 126.68 13.69 127.15 14.17C127.63 14.64 127.87 15.24 127.87 15.99Q127.87 16.72 127.56 17.28Q127.4 17.57 127.15 17.82C126.68 18.29 126.09 18.52 125.37 18.52Q124.67 18.52 124.13 18.23ZM146.65 18.52C145.95 18.52 145.35 18.29 144.85 17.82C144.39 17.34 144.15 16.73 144.15 15.99C144.15 15.24 144.39 14.64 144.85 14.17C145.33 13.69 145.93 13.45 146.65 13.45C147.37 13.45 147.97 13.69 148.44 14.17C148.9 14.64 149.14 15.24 149.14 15.99C149.14 16.73 148.9 17.34 148.44 17.82C147.97 18.29 147.37 18.52 146.65 18.52ZM202.76 18.52C202.05 18.52 201.45 18.29 200.96 17.82C200.49 17.34 200.26 16.73 200.26 15.99C200.26 15.24 200.49 14.64 200.96 14.17C201.44 13.69 202.04 13.45 202.76 13.45C203.48 13.45 204.08 13.69 204.54 14.17Q204.76 14.38 204.91 14.63Q205.25 15.21 205.25 15.99Q205.25 16.74 204.92 17.32Q204.77 17.59 204.54 17.82C204.08 18.29 203.48 18.52 202.76 18.52ZM212.8 18.23Q212.5 18.07 212.25 17.82C211.78 17.34 211.55 16.73 211.55 15.99C211.55 15.24 211.78 14.64 212.25 14.17Q212.52 13.89 212.84 13.72Q213.36 13.45 214.03 13.45C214.75 13.45 215.34 13.69 215.81 14.17C216.29 14.64 216.53 15.24 216.53 15.99C216.53 16.73 216.29 17.34 215.81 17.82C215.34 18.29 214.75 18.52 214.03 18.52Q213.34 18.52 212.8 18.23ZM172.6 18C172.12 18.3 171.56 18.45 170.93 18.45C170.27 18.45 169.76 18.3 169.4 18C169.04 17.69 168.86 17.27 168.86 16.74C168.86 15.99 169.19 15.4 169.85 15C169.85 15.01 169.86 15.03 169.88 15.05L172.6 18Z" fill="#212121" fill-opacity="1.000000" fill-rule="evenodd"/>
	<path id="Vector 280" d="M2.06 36.14C2.06 36.14 2.7 30.94 5.63 29.44C7.63 28.42 10.23 29.36 11.27 28.06C13.08 25.78 11.75 24.02 14.54 21.61C18.82 17.91 25.66 19.93 28.17 16.61C30.35 13.71 27.41 12.35 28.83 9.37C30.25 6.4 35.77 5.7 40.45 4.2C44.64 2.86 48.77 1.6 48.77 1.6" stroke="#C6C6C6" stroke-opacity="1.000000" stroke-width="3.024691"/>
	<path id="Vector 280" d="M1.15 35.66C1.15 35.66 2.22 30.15 5.15 28.65C7.15 27.63 9.64 28.44 10.67 27.14C12.48 24.86 10.99 23.47 14.07 20.86C19.31 16.42 24.73 19.35 27.23 16.03C29.41 13.14 26.44 12.17 27.9 8.8C29.35 5.44 35.34 4.79 40.02 3.29C44.22 1.95 48.52 0.57 48.52 0.57" stroke="#D6D6D6" stroke-opacity="1.000000" stroke-width="1.209877"/>
	<path id="Vector 280" d="M85.48 28.18C83.66 25.9 84.99 24.14 82.21 21.73C77.92 18.03 71.08 20.05 68.58 16.73C66.39 13.83 69.33 12.47 67.91 9.5C66.49 6.52 61.1 5.88 56.42 4.38C52.22 3.04 48.28 1.6 48.28 1.6" stroke="#C6C6C6" stroke-opacity="1.000000" stroke-width="3.024688"/>
	<path id="Vector 280" d="M86.07 27.26C84.26 24.98 85.46 23.39 82.67 20.98C78.39 17.28 72.01 19.47 69.51 16.15C67.33 13.26 70.3 12.29 68.84 8.92C67.39 5.56 61.22 4.79 56.54 3.29C52.34 1.95 48.16 0.57 48.16 0.57" stroke="#D6D6D6" stroke-opacity="1.000000" stroke-width="1.209875"/>
	<path id="Sejadah (Stroke)" d="M6.24 27.76L6.24 27.76C6.57 28.19 6.97 28.61 7.46 29C7.97 29.4 8.66 29.9 9.53 30.51C10.47 31.16 11.25 31.74 11.85 32.25C12.48 32.77 13.01 33.35 13.45 34C13.9 34.69 14.13 35.45 14.13 36.25C14.15 37.83 13.38 39.06 11.92 39.89L11.92 39.89L11.92 39.89C10.5 40.69 8.75 41.08 6.68 41.09L6.68 41.09L6.68 41.09C5.29 41.09 4.12 40.91 3.16 40.53L3.16 40.53L3.16 40.52C2.25 40.15 1.53 39.65 1.06 39.01L1.06 39L1.05 39C0.61 38.36 0.38 37.67 0.38 36.93C0.38 36.39 0.51 35.88 0.75 35.41C1 34.92 1.34 34.53 1.77 34.25C2.31 33.9 2.89 33.71 3.49 33.71C3.83 33.71 4.14 33.77 4.42 33.89C3.45 33.23 2.67 32.66 2.1 32.2L2.09 32.2L2.08 32.19C1.49 31.69 1 31.1 0.6 30.43L0.59 30.42L0.59 30.42C0.19 29.71 0 28.91 0 28.03C0 27.02 0.33 26.12 0.98 25.33L0.98 25.32C1.64 24.53 2.5 23.92 3.55 23.49C4.6 23.05 5.73 22.83 6.94 22.83C7.3 22.83 7.59 22.83 7.79 22.85L7.79 22.85L7.8 22.85C8.99 22.99 10.01 23.26 10.84 23.7C11.65 24.13 12.28 24.66 12.69 25.29C13.1 25.89 13.31 26.53 13.31 27.2C13.31 27.93 13.07 28.57 12.6 29.08C12.11 29.61 11.46 29.87 10.71 29.87C10.24 29.87 9.75 29.75 9.24 29.54L8.61 29.28L9.06 28.77C9.4 28.38 9.59 27.84 9.59 27.11C9.59 26.61 9.49 26.13 9.29 25.65L9.29 25.65L9.29 25.64C9.1 25.17 8.85 24.82 8.53 24.55L8.52 24.54L8.51 24.54C8.22 24.27 7.91 24.16 7.58 24.16C6.96 24.16 6.49 24.34 6.14 24.69C5.79 25.05 5.61 25.49 5.61 26.04C5.61 26.63 5.81 27.2 6.24 27.76L6.24 27.76ZM12.29 25.56C11.93 25.01 11.37 24.53 10.61 24.13C10.07 23.85 9.43 23.63 8.69 23.48C8.39 23.42 8.08 23.37 7.75 23.33C7.7 23.33 7.64 23.32 7.58 23.32C7.41 23.31 7.2 23.31 6.94 23.31C6.84 23.31 6.74 23.31 6.64 23.31C5.6 23.35 4.64 23.56 3.74 23.94C2.75 24.34 1.95 24.91 1.36 25.63C0.77 26.34 0.48 27.14 0.48 28.03C0.48 28.83 0.66 29.55 1.02 30.18C1.39 30.81 1.85 31.36 2.4 31.83C2.97 32.28 3.74 32.83 4.71 33.5C5.49 34.03 6.08 34.46 6.51 34.78C6.93 35.09 7.35 35.44 7.77 35.84C8.09 36.17 8.34 36.52 8.5 36.91C8.68 37.3 8.77 37.68 8.77 38.07C8.77 38.7 8.55 39.23 8.13 39.67C7.96 39.85 7.75 39.99 7.51 40.1C7.27 40.2 6.99 40.27 6.68 40.29C6.68 40.29 6.67 40.29 6.67 40.29C6.6 40.29 6.53 40.3 6.46 40.3C6.03 40.3 5.65 40.21 5.31 40.05C5.26 40.03 5.22 40.01 5.17 39.98C4.8 39.77 4.51 39.51 4.32 39.18C4.12 38.84 4.03 38.5 4.03 38.17C4.03 37.78 4.16 37.48 4.42 37.27C4.95 36.84 5.22 36.34 5.22 35.79C5.22 35.34 5.06 34.96 4.73 34.66C4.41 34.35 4 34.2 3.49 34.2C2.99 34.2 2.51 34.35 2.04 34.66C1.68 34.88 1.4 35.21 1.19 35.63C0.97 36.03 0.87 36.46 0.87 36.93C0.87 37.56 1.06 38.16 1.45 38.72C1.86 39.27 2.49 39.72 3.35 40.08C3.87 40.29 4.48 40.44 5.18 40.53C5.58 40.57 6 40.6 6.46 40.61C6.53 40.61 6.6 40.61 6.68 40.61C7 40.61 7.32 40.6 7.63 40.57C9.22 40.46 10.57 40.09 11.68 39.47C13.01 38.71 13.66 37.64 13.65 36.25C13.65 35.54 13.45 34.88 13.04 34.27C12.64 33.66 12.13 33.11 11.54 32.62C10.95 32.12 10.19 31.55 9.25 30.91C8.38 30.29 7.68 29.79 7.16 29.38C6.64 28.96 6.21 28.52 5.85 28.05C5.36 27.42 5.12 26.75 5.12 26.04C5.12 25.37 5.35 24.8 5.8 24.35C6.06 24.09 6.37 23.91 6.72 23.8C6.79 23.77 6.87 23.75 6.94 23.74C7.14 23.69 7.35 23.67 7.58 23.67C7.62 23.67 7.66 23.67 7.71 23.68C7.71 23.68 7.71 23.68 7.71 23.68C8 23.7 8.27 23.79 8.52 23.94C8.63 24.01 8.74 24.09 8.84 24.18C9.23 24.5 9.53 24.93 9.74 25.46C9.96 25.99 10.08 26.54 10.08 27.11C10.08 27.72 9.95 28.25 9.71 28.69C9.63 28.83 9.53 28.97 9.42 29.09C9.59 29.16 9.75 29.22 9.91 29.26C10.19 29.34 10.46 29.38 10.71 29.38C11.34 29.38 11.85 29.17 12.24 28.75C12.63 28.33 12.82 27.82 12.82 27.2C12.82 26.64 12.64 26.09 12.29 25.56ZM7.43 36.19C7.02 35.8 6.62 35.46 6.22 35.17L6.21 35.17L6.21 35.16C5.94 34.95 5.59 34.7 5.16 34.4C5.52 34.78 5.7 35.26 5.7 35.79C5.7 36.52 5.34 37.14 4.72 37.65L4.72 37.65C4.6 37.75 4.51 37.9 4.51 38.17C4.51 38.41 4.58 38.66 4.74 38.94C4.88 39.18 5.1 39.39 5.41 39.56C5.7 39.72 6.04 39.81 6.46 39.81C7.07 39.81 7.49 39.64 7.78 39.33L7.78 39.33C8.11 38.99 8.28 38.58 8.28 38.07C8.28 37.76 8.21 37.44 8.06 37.11L8.05 37.1L8.05 37.09C7.91 36.77 7.71 36.47 7.43 36.19ZM28.53 35.16L28.53 35.25C28.55 36 28.28 36.82 27.79 37.7C27.29 38.6 26.52 39.38 25.51 40.02C24.46 40.7 23.19 41.02 21.73 41.02C20.43 41.02 19.24 40.77 18.16 40.25C17.08 39.72 16.21 38.95 15.56 37.94L15.56 37.94L15.56 37.94C14.92 36.91 14.61 35.71 14.61 34.34C14.61 33.04 14.95 31.88 15.64 30.88L15.64 30.87L15.64 30.87C16.34 29.87 17.27 29.09 18.41 28.56C19.56 28.01 20.81 27.74 22.14 27.74C22.88 27.74 23.61 27.87 24.34 28.13C25.1 28.38 25.76 28.81 26.33 29.41C26.93 30.04 27.29 30.84 27.43 31.78L27.48 32.11L21.04 35.6C21.36 36.1 21.74 36.49 22.16 36.77C22.71 37.1 23.3 37.27 23.94 37.27C24.65 37.27 25.33 37.07 25.98 36.65C26.63 36.23 27.15 35.64 27.54 34.88L28.01 33.94L28.53 35.16ZM20.61 35.83C20.56 35.75 20.51 35.67 20.47 35.59C20.45 35.56 20.43 35.53 20.42 35.5C20.4 35.47 20.38 35.44 20.37 35.41L26.95 31.85C26.82 31 26.5 30.29 25.98 29.75C25.46 29.2 24.86 28.81 24.18 28.58C23.5 28.34 22.82 28.22 22.14 28.22C20.88 28.22 19.7 28.48 18.62 29C17.55 29.5 16.69 30.21 16.04 31.15C15.41 32.07 15.1 33.13 15.1 34.34C15.1 35.63 15.39 36.75 15.97 37.68C16.57 38.62 17.37 39.33 18.38 39.81C19.38 40.3 20.5 40.54 21.73 40.54C23.12 40.54 24.29 40.23 25.25 39.62C26.21 39 26.91 38.29 27.36 37.46C27.64 36.97 27.84 36.51 27.94 36.08C28.02 35.79 28.05 35.52 28.04 35.26L27.97 35.09C27.94 35.15 27.91 35.21 27.88 35.27C27.87 35.3 27.85 35.32 27.83 35.35C27.73 35.54 27.61 35.71 27.49 35.88C27.14 36.35 26.73 36.74 26.25 37.05C25.52 37.52 24.75 37.75 23.94 37.75C23.21 37.75 22.53 37.56 21.9 37.17C21.4 36.85 20.97 36.4 20.61 35.83ZM20.42 28.9C20.14 28.98 19.92 29.29 19.76 29.84C19.6 30.37 19.52 31 19.52 31.73C19.52 32.75 19.68 33.72 20 34.62C20.01 34.64 20.02 34.66 20.03 34.68C20.08 34.81 20.12 34.91 20.15 34.98C20.16 35 20.17 35.02 20.18 35.04C20.18 35.05 20.19 35.06 20.2 35.07L22.53 33.71C22.53 33.71 22.53 33.7 22.53 33.69C22.48 32.68 22.29 31.62 21.97 30.52C21.65 29.41 21.21 28.85 20.66 28.85C20.59 28.85 20.51 28.87 20.42 28.9ZM22.03 33.45C21.96 32.56 21.79 31.63 21.5 30.65C21.35 30.12 21.18 29.77 21.02 29.57C20.86 29.37 20.75 29.33 20.66 29.33C20.66 29.33 20.66 29.33 20.66 29.33C20.66 29.33 20.65 29.34 20.64 29.34C20.63 29.34 20.6 29.35 20.57 29.36L20.56 29.36L20.55 29.36C20.55 29.36 20.54 29.37 20.52 29.38C20.51 29.4 20.48 29.42 20.45 29.47C20.38 29.57 20.3 29.73 20.23 29.98L20.23 29.98L20.23 29.98C20.08 30.46 20 31.04 20 31.73C20 32.67 20.15 33.55 20.43 34.37L22.03 33.45ZM28.54 29.76L28.93 29.68C30.71 29.32 32.26 28.73 33.58 27.93L34 27.67L34.39 28.33L34.39 42.26C34.39 43.35 34.12 44.26 33.49 44.88C32.92 45.45 32.2 45.75 31.37 45.76L31.36 45.76L28.54 45.76L28.54 44.55L29.62 44.55C29.64 44.51 29.65 44.45 29.65 44.34L29.65 31.27C29.65 31.02 29.6 30.92 29.57 30.89C29.54 30.86 29.49 30.81 29.31 30.81L28.54 30.88L28.54 29.76ZM29.83 30.47C30.04 30.62 30.14 30.89 30.14 31.27L30.14 44.34C30.14 44.52 30.11 44.67 30.05 44.8C30.04 44.81 30.03 44.83 30.02 44.84C29.94 44.97 29.82 45.04 29.65 45.04L29.02 45.04L29.02 45.28L31.35 45.28C32.07 45.26 32.67 45.01 33.15 44.53C33.65 44.05 33.91 43.29 33.91 42.26L33.91 28.46L33.83 28.34C33.77 28.38 33.71 28.41 33.65 28.45C33.64 28.45 33.64 28.46 33.63 28.46C33.56 28.5 33.49 28.54 33.42 28.58C32.37 29.17 31.19 29.63 29.9 29.96C29.7 30.01 29.49 30.06 29.29 30.1C29.28 30.1 29.28 30.1 29.27 30.11C29.19 30.12 29.1 30.14 29.02 30.16L29.02 30.35L29.29 30.33C29.37 30.33 29.44 30.33 29.51 30.34C29.63 30.37 29.74 30.41 29.83 30.47ZM32.01 23.38C32.66 23.38 33.23 23.62 33.69 24.08C34.15 24.54 34.39 25.11 34.39 25.75C34.39 26.4 34.15 26.97 33.69 27.43C33.23 27.89 32.66 28.12 32.01 28.12C31.36 28.12 30.79 27.89 30.33 27.43C29.87 26.97 29.63 26.4 29.63 25.75C29.63 25.11 29.87 24.54 30.33 24.08C30.79 23.62 31.36 23.38 32.01 23.38ZM50.13 40.92L45.65 40.92L45.64 40.92C45.02 40.91 44.46 40.79 44.05 40.5L44.04 40.5L44.03 40.49C43.85 40.36 43.71 40.19 43.6 40C43.31 40.31 42.95 40.57 42.52 40.78L42.51 40.78L42.51 40.78C41.71 41.15 40.82 41.34 39.85 41.34C39 41.34 38.19 41.19 37.42 40.89C36.64 40.59 36 40.15 35.51 39.56L35.51 39.55L35.5 39.55C35.02 38.91 34.82 38.15 34.9 37.3L34.9 37.3L34.9 37.3C34.99 36.39 35.31 35.61 35.87 34.99L35.87 34.98C36.42 34.39 37.05 33.93 37.76 33.61L37.76 33.61L37.76 33.61C37.79 33.6 37.81 33.59 37.84 33.58C37.28 33.52 36.78 33.35 36.34 33.04L36.34 33.04L36.33 33.04C35.76 32.62 35.5 31.99 35.5 31.25C35.5 30.45 35.89 29.79 36.56 29.27C37.21 28.75 38.02 28.37 38.97 28.12C39.92 27.85 40.9 27.71 41.92 27.71C43.85 27.71 45.51 28.12 46.88 28.97C48.37 29.87 49.03 31.59 49.03 33.91L49.03 39.5C49.03 39.59 49.04 39.65 49.05 39.7C49.05 39.7 49.06 39.71 49.06 39.71L50.13 39.71L50.13 40.92ZM46.63 29.38C45.62 28.76 44.44 28.38 43.07 28.25C42.7 28.22 42.32 28.2 41.92 28.2C41.91 28.2 41.91 28.2 41.9 28.2C41.9 28.2 41.9 28.2 41.9 28.2C41.64 28.2 41.39 28.21 41.14 28.22C40.44 28.28 39.76 28.4 39.1 28.58C38.19 28.83 37.45 29.18 36.86 29.65C36.28 30.1 35.99 30.63 35.99 31.25C35.99 31.87 36.2 32.34 36.62 32.65C37.06 32.96 37.59 33.11 38.22 33.11C38.85 33.11 39.48 32.98 40.09 32.72C40.49 32.56 40.81 32.37 41.06 32.17C41.2 32.05 41.32 31.92 41.41 31.78C41.24 31.72 41.08 31.66 40.95 31.58C40.76 31.48 40.61 31.35 40.48 31.2C40.29 30.94 40.19 30.65 40.19 30.33C40.19 29.87 40.35 29.47 40.68 29.12C40.84 28.93 41.04 28.8 41.25 28.7C41.45 28.62 41.67 28.57 41.92 28.56C42.34 28.54 42.68 28.6 42.95 28.73C43.11 28.81 43.25 28.92 43.35 29.07C43.61 29.42 43.74 30.01 43.74 30.85C43.74 30.86 43.74 30.87 43.74 30.88C43.74 31.15 43.67 31.4 43.52 31.61C43.49 31.66 43.46 31.71 43.42 31.75C43.38 31.8 43.34 31.84 43.3 31.87C43.29 31.88 43.29 31.89 43.28 31.9C43.15 32.01 43.01 32.12 42.85 32.22C42.67 32.34 42.47 32.44 42.26 32.53C41.85 32.69 41.26 32.89 40.48 33.13C39.46 33.46 38.62 33.76 37.96 34.05C37.31 34.34 36.73 34.76 36.23 35.31C35.75 35.84 35.46 36.52 35.38 37.34C35.32 38.09 35.49 38.72 35.89 39.26C36.31 39.77 36.88 40.17 37.59 40.44C38.3 40.72 39.06 40.85 39.85 40.85C40.76 40.85 41.58 40.68 42.31 40.34C42.77 40.12 43.13 39.83 43.4 39.49C43.41 39.48 43.41 39.48 43.42 39.47C43.48 39.39 43.53 39.32 43.58 39.24C43.58 39.23 43.58 39.23 43.59 39.23C43.66 39.1 43.73 38.96 43.79 38.82C43.79 38.91 43.8 39 43.82 39.08C43.84 39.27 43.89 39.43 43.94 39.57C44.03 39.81 44.16 39.98 44.32 40.1C44.63 40.31 45.07 40.42 45.66 40.44L49.64 40.44L49.64 40.2L49.03 40.2C48.84 40.2 48.71 40.12 48.63 39.96C48.58 39.84 48.55 39.69 48.55 39.5L48.55 33.91C48.55 31.67 47.91 30.16 46.63 29.38ZM43.76 31.75C43.69 31.87 43.62 31.99 43.53 32.11L43.53 32.11C43.45 32.23 43.37 32.34 43.28 32.46C43.25 32.5 43.21 32.54 43.18 32.58C42.88 32.97 42.51 33.4 42.06 33.88C41.62 34.38 41.28 34.78 41.04 35.07C40.81 35.34 40.63 35.63 40.48 35.94C40.27 36.34 40.17 36.77 40.17 37.22C40.17 37.56 40.23 37.88 40.36 38.19C40.49 38.48 40.68 38.72 40.92 38.92C41.08 39.05 41.28 39.15 41.53 39.23C41.77 39.31 42.01 39.35 42.26 39.35C42.56 39.35 42.84 39.27 43.08 39.12C43.16 39.07 43.23 39.01 43.3 38.94C43.3 38.94 43.31 38.94 43.31 38.93C43.33 38.91 43.36 38.88 43.38 38.85C43.42 38.8 43.46 38.76 43.49 38.7C43.49 38.69 43.5 38.68 43.51 38.67C43.67 38.39 43.75 38.03 43.76 37.59L43.76 31.75ZM43.28 33.24L43.28 37.58C43.26 38.12 43.13 38.43 42.96 38.59C42.76 38.78 42.54 38.87 42.26 38.87C42.07 38.87 41.88 38.84 41.68 38.77C41.48 38.71 41.33 38.62 41.22 38.54C41.04 38.4 40.91 38.22 40.81 38C40.7 37.75 40.65 37.5 40.65 37.22C40.65 36.85 40.74 36.5 40.91 36.16L40.92 36.16L40.92 36.15C41.05 35.88 41.21 35.62 41.42 35.38C41.65 35.09 41.99 34.7 42.42 34.21C42.74 33.86 43.03 33.54 43.28 33.24ZM42.07 32.08C42.45 31.92 42.74 31.73 42.97 31.52C43.17 31.34 43.25 31.13 43.25 30.88C43.25 30.05 43.12 29.58 42.96 29.35L42.95 29.35L42.95 29.34C42.83 29.17 42.56 29.01 41.94 29.04L41.94 29.04L41.93 29.04C41.55 29.06 41.27 29.19 41.04 29.44C40.79 29.71 40.68 30 40.68 30.33C40.68 30.54 40.74 30.73 40.87 30.9C41 31.06 41.22 31.21 41.55 31.32L42.16 31.51L41.81 32.04C41.77 32.11 41.72 32.17 41.67 32.23C41.82 32.18 41.96 32.13 42.07 32.08ZM65.19 39.71L65.19 40.92L60.74 40.92L60.73 40.92C60.1 40.91 59.55 40.78 59.12 40.51L59.11 40.5L59.09 40.49C58.93 40.37 58.8 40.23 58.7 40.06C58.51 40.23 58.28 40.38 58.02 40.51C57.31 40.87 56.51 41.05 55.62 41.05C54.7 41.05 53.82 40.83 52.99 40.41C52.13 39.97 51.44 39.27 50.92 38.33C50.38 37.36 50.13 36.15 50.13 34.73C50.13 33.13 50.46 31.79 51.18 30.73L51.18 30.73L51.18 30.73C51.89 29.7 52.78 28.95 53.85 28.5C54.87 28.06 55.92 27.83 56.98 27.83C57.49 27.83 57.96 27.88 58.36 27.97L58.36 24.62C58.36 24.36 58.3 24.26 58.27 24.23C58.25 24.21 58.2 24.16 58.02 24.16L57.24 24.23L57.24 23.11L57.63 23.03C60.47 22.45 62.32 21.86 63.26 21.28L63.68 21.02L64.07 21.67L64.07 39.5C64.07 39.61 64.09 39.68 64.1 39.71L65.19 39.71ZM58.54 23.83C58.75 23.98 58.85 24.24 58.85 24.62L58.85 28.66C58.71 28.58 58.55 28.52 58.36 28.47C58.23 28.43 58.08 28.4 57.92 28.38C57.73 28.35 57.51 28.33 57.27 28.32C57.18 28.32 57.08 28.32 56.98 28.32C55.99 28.32 55.01 28.53 54.04 28.95C53.07 29.35 52.25 30.04 51.58 31C50.94 31.96 50.61 33.2 50.61 34.73C50.61 36.1 50.85 37.22 51.34 38.09C51.83 38.96 52.45 39.59 53.21 39.98C53.97 40.37 54.77 40.56 55.62 40.56C56.44 40.56 57.17 40.4 57.8 40.08C58.09 39.93 58.32 39.77 58.49 39.58C58.53 39.54 58.56 39.5 58.6 39.46C58.72 39.29 58.8 39.12 58.84 38.92C58.84 38.9 58.85 38.89 58.85 38.87L58.85 38.82C58.85 38.84 58.85 38.85 58.85 38.87L58.85 38.87C58.85 38.89 58.86 38.91 58.86 38.93C58.87 39.02 58.88 39.1 58.89 39.17C58.93 39.36 58.98 39.53 59.04 39.67C59.13 39.86 59.24 40 59.38 40.1C59.71 40.31 60.16 40.42 60.74 40.44L64.7 40.44L64.7 40.2L64.07 40.2C63.91 40.2 63.79 40.13 63.71 40.01C63.7 39.99 63.69 39.97 63.68 39.96C63.62 39.83 63.59 39.68 63.59 39.5L63.59 21.81L63.51 21.69C63.48 21.71 63.44 21.73 63.4 21.75C63.37 21.77 63.34 21.79 63.3 21.81C63.24 21.84 63.17 21.88 63.1 21.92C62.14 22.4 60.65 22.86 58.62 23.31C58.42 23.36 58.21 23.4 58 23.45C57.99 23.45 57.98 23.45 57.98 23.45C57.9 23.47 57.81 23.49 57.73 23.5L57.73 23.7L58 23.67C58.08 23.67 58.15 23.68 58.22 23.69C58.35 23.71 58.46 23.76 58.54 23.83ZM58.56 38.81C58.56 38.8 58.57 38.79 58.58 38.77C58.74 38.5 58.83 38.09 58.85 37.54L58.85 29.91C58.85 29.59 58.78 29.32 58.65 29.1C58.65 29.09 58.64 29.08 58.63 29.06C58.61 29.04 58.6 29.02 58.58 29C58.4 28.77 58.18 28.66 57.92 28.66C57.74 28.66 57.56 28.71 57.38 28.81C57.21 28.91 57.03 29.06 56.86 29.26C56.5 29.65 56.2 30.25 55.96 31.08C55.71 31.9 55.59 32.92 55.59 34.15C55.59 35.15 55.71 36.04 55.96 36.81C56.2 37.57 56.5 38.16 56.86 38.58C57.23 38.98 57.58 39.18 57.92 39.18C58.05 39.18 58.16 39.16 58.25 39.1C58.3 39.08 58.34 39.05 58.38 39.02C58.43 38.98 58.47 38.93 58.52 38.87C58.52 38.86 58.53 38.85 58.53 38.84C58.54 38.84 58.54 38.83 58.54 38.83C58.55 38.83 58.55 38.82 58.55 38.82C58.55 38.82 58.55 38.81 58.56 38.81ZM57.22 38.26C57.55 38.61 57.79 38.7 57.92 38.7C58 38.7 58.07 38.68 58.16 38.53C58.26 38.36 58.35 38.04 58.36 37.53L58.36 29.91C58.36 29.6 58.29 29.41 58.2 29.29C58.1 29.17 58.02 29.14 57.92 29.14C57.77 29.14 57.53 29.23 57.22 29.58L57.22 29.58L57.21 29.59C56.93 29.9 56.66 30.42 56.42 31.21C56.2 31.98 56.08 32.95 56.08 34.15C56.08 35.11 56.2 35.95 56.42 36.67C56.65 37.38 56.92 37.9 57.22 38.26ZM75.97 40.92L75.96 40.92C75.34 40.91 74.78 40.79 74.37 40.5L74.36 40.5L74.35 40.49C74.17 40.36 74.03 40.19 73.93 40C73.63 40.31 73.27 40.57 72.84 40.78L72.83 40.78L72.83 40.78C72.03 41.15 71.14 41.34 70.17 41.34C69.32 41.34 68.51 41.19 67.74 40.89C66.96 40.59 66.32 40.15 65.83 39.56L65.83 39.55L65.82 39.55C65.34 38.91 65.14 38.15 65.22 37.3L65.22 37.3L65.22 37.3C65.31 36.39 65.63 35.61 66.19 34.99L66.19 34.98C66.74 34.39 67.37 33.93 68.08 33.61L68.08 33.61L68.08 33.61C68.11 33.6 68.13 33.59 68.16 33.58C67.6 33.52 67.1 33.35 66.66 33.04L66.66 33.04L66.65 33.04C66.08 32.62 65.82 31.99 65.82 31.25C65.82 30.45 66.21 29.79 66.88 29.27C67.53 28.75 68.34 28.37 69.29 28.12C70.24 27.85 71.22 27.71 72.24 27.71C74.17 27.71 75.83 28.12 77.2 28.97C78.69 29.87 79.35 31.59 79.35 33.91L79.35 39.5C79.35 39.59 79.36 39.65 79.37 39.7C79.37 39.7 79.38 39.71 79.38 39.71L81.51 39.71C81.52 39.71 81.52 39.7 81.52 39.69C81.53 39.64 81.54 39.57 81.54 39.47L81.54 24.62C81.54 24.36 81.48 24.26 81.45 24.23C81.43 24.21 81.39 24.16 81.22 24.16L80.45 24.23L80.45 23.11L80.83 23.03C83.65 22.45 85.5 21.86 86.43 21.28L86.8 21.05L87.27 21.64L87.27 29.62C87.46 29.45 87.66 29.29 87.87 29.12L87.88 29.12L87.88 29.12C88.51 28.64 89.16 28.28 89.83 28.03C90.27 27.87 90.75 27.79 91.26 27.79C92.25 27.79 93.12 28.12 93.83 28.79C94.57 29.49 94.9 30.53 94.9 31.8L94.9 39.5C94.9 39.61 94.92 39.68 94.93 39.71L96 39.71L96 40.92L75.97 40.92ZM89.14 39.71C89.14 39.71 89.15 39.7 89.15 39.69C89.16 39.64 89.17 39.57 89.17 39.47L89.17 31.61C89.17 31.06 89.1 30.72 89 30.54C88.96 30.45 88.92 30.42 88.9 30.4C88.87 30.39 88.84 30.37 88.78 30.37C88.62 30.37 88.38 30.45 88.03 30.71C87.74 30.94 87.49 31.19 87.27 31.46L87.27 39.5C87.27 39.58 87.28 39.64 87.29 39.68C87.29 39.7 87.3 39.71 87.3 39.71L89.14 39.71ZM86.88 39.96C86.82 39.84 86.79 39.69 86.79 39.5L86.79 31.29C86.86 31.2 86.93 31.11 87 31.02C87.05 30.97 87.1 30.91 87.15 30.86C87.19 30.82 87.23 30.77 87.27 30.73C87.42 30.59 87.57 30.45 87.73 30.33C87.96 30.16 88.17 30.04 88.36 29.97C88.51 29.92 88.65 29.89 88.78 29.89C89.36 29.89 89.65 30.46 89.65 31.61L89.65 39.47C89.65 39.68 89.63 39.84 89.57 39.96C89.49 40.12 89.36 40.2 89.17 40.2L88.56 40.2L88.56 40.44L95.51 40.44L95.51 40.2L94.9 40.2C94.74 40.2 94.34 40.26 94.26 40.13C94.25 40.12 94.08 40.09 94.08 40.07C94.01 39.95 94.42 39.68 94.42 39.5L94.42 31.8C94.42 30.61 94.11 29.72 93.49 29.14C92.88 28.56 92.13 28.27 91.26 28.27C90.8 28.27 90.38 28.34 89.99 28.49C89.38 28.71 88.77 29.05 88.17 29.5C88.15 29.52 88.14 29.53 88.12 29.55C87.9 29.71 87.71 29.88 87.53 30.05C87.52 30.05 87.52 30.05 87.52 30.05C87.43 30.14 87.35 30.22 87.27 30.3C87.09 30.48 86.93 30.67 86.79 30.86L86.79 21.81L86.69 21.69C86.62 21.73 86.56 21.77 86.48 21.81C86.42 21.84 86.36 21.87 86.3 21.9C85.35 22.39 83.85 22.86 81.82 23.31C81.62 23.36 81.41 23.4 81.2 23.45C81.19 23.45 81.19 23.45 81.18 23.45C81.1 23.47 81.02 23.49 80.93 23.5L80.93 23.7L81.2 23.67C81.28 23.67 81.35 23.68 81.42 23.69C81.54 23.71 81.65 23.76 81.73 23.83C81.93 23.98 82.03 24.24 82.03 24.62L82.03 39.47C82.03 39.68 82.17 39.89 82.11 40.01C82.03 40.17 81.73 40.13 81.54 40.13L80.93 40.13L80.93 40.5L87.88 40.5L87.88 40.2L87.27 40.2C87.09 40.19 86.96 40.11 86.88 39.96ZM76.95 29.38C75.94 28.76 74.76 28.38 73.4 28.25C73.02 28.22 72.64 28.2 72.24 28.2C72.23 28.2 72.23 28.2 72.23 28.2C72.22 28.2 72.22 28.2 72.22 28.2C71.96 28.2 71.71 28.21 71.46 28.22C70.76 28.28 70.08 28.4 69.42 28.58C68.51 28.83 67.77 29.18 67.18 29.65C66.6 30.1 66.31 30.63 66.31 31.25C66.31 31.87 66.52 32.34 66.94 32.65C67.38 32.96 67.91 33.11 68.54 33.11C69.18 33.11 69.8 32.98 70.41 32.72C70.81 32.56 71.13 32.37 71.38 32.17C71.52 32.05 71.64 31.92 71.73 31.78C71.56 31.72 71.41 31.66 71.27 31.58C71.08 31.48 70.93 31.35 70.8 31.2C70.61 30.94 70.51 30.65 70.51 30.33C70.51 29.87 70.67 29.47 71 29.12C71.16 28.93 71.36 28.8 71.57 28.7C71.77 28.62 71.99 28.57 72.24 28.56C72.66 28.54 73 28.6 73.27 28.73C73.43 28.81 73.57 28.92 73.67 29.07C73.93 29.42 74.06 30.01 74.06 30.85C74.06 30.86 74.06 30.87 74.06 30.88C74.06 31.15 73.99 31.4 73.85 31.61C73.81 31.66 73.78 31.71 73.74 31.75C73.7 31.8 73.66 31.84 73.62 31.87C73.61 31.88 73.61 31.89 73.6 31.9C73.47 32.01 73.33 32.12 73.17 32.22C72.99 32.34 72.79 32.44 72.58 32.53C72.17 32.69 71.58 32.89 70.8 33.13C69.78 33.46 68.94 33.76 68.28 34.05C67.63 34.34 67.05 34.76 66.55 35.31C66.07 35.84 65.78 36.52 65.7 37.34C65.64 38.09 65.81 38.72 66.21 39.26C66.63 39.77 67.2 40.17 67.91 40.44C68.62 40.72 69.38 40.85 70.17 40.85C71.08 40.85 71.9 40.68 72.63 40.34C73.09 40.12 73.45 39.83 73.73 39.49C73.73 39.48 73.73 39.48 73.74 39.47C73.8 39.39 73.85 39.32 73.9 39.24C73.9 39.23 73.91 39.23 73.91 39.23C73.99 39.1 74.05 38.96 74.11 38.82C74.11 38.91 74.12 39 74.14 39.08C74.16 39.27 74.21 39.43 74.26 39.57C74.35 39.81 74.48 39.98 74.64 40.1C74.95 40.31 75.39 40.42 75.98 40.44L79.96 40.44L79.96 40.2L79.35 40.2C79.16 40.2 79.03 40.12 78.95 39.96C78.9 39.84 78.87 39.69 78.87 39.5L78.87 33.91C78.87 31.67 78.23 30.16 76.95 29.38ZM74.08 31.75C74.01 31.87 73.94 31.99 73.85 32.11L73.85 32.11C73.77 32.23 73.69 32.34 73.6 32.46C73.57 32.5 73.54 32.54 73.5 32.58C73.2 32.97 72.83 33.4 72.38 33.88C71.95 34.38 71.6 34.78 71.36 35.07C71.14 35.34 70.95 35.63 70.8 35.94C70.59 36.34 70.49 36.77 70.49 37.22C70.49 37.56 70.55 37.88 70.68 38.19C70.81 38.48 71 38.72 71.24 38.92C71.4 39.05 71.6 39.15 71.85 39.23C72.09 39.31 72.33 39.35 72.58 39.35C72.88 39.35 73.16 39.27 73.4 39.12C73.48 39.07 73.55 39.01 73.62 38.94C73.62 38.94 73.63 38.94 73.63 38.93C73.66 38.91 73.68 38.88 73.7 38.85C73.74 38.8 73.78 38.76 73.81 38.7C73.81 38.69 73.82 38.68 73.83 38.67C73.99 38.39 74.07 38.03 74.08 37.59L74.08 31.75ZM73.6 33.24L73.6 37.58C73.58 38.12 73.45 38.43 73.28 38.59C73.08 38.78 72.86 38.87 72.58 38.87C72.39 38.87 72.2 38.84 72 38.77C71.8 38.71 71.65 38.62 71.54 38.54C71.36 38.4 71.23 38.22 71.13 38C71.03 37.75 70.97 37.5 70.97 37.22C70.97 36.85 71.06 36.5 71.23 36.16L71.24 36.16L71.24 36.15C71.37 35.88 71.53 35.62 71.74 35.38C71.98 35.09 72.31 34.7 72.74 34.21C73.06 33.86 73.35 33.54 73.6 33.24ZM72.39 32.08C72.77 31.92 73.06 31.73 73.29 31.52C73.49 31.34 73.57 31.13 73.57 30.88C73.57 30.05 73.44 29.58 73.28 29.35L73.27 29.35L73.27 29.34C73.15 29.17 72.88 29.01 72.26 29.04L72.26 29.04L72.25 29.04C71.88 29.06 71.59 29.19 71.36 29.44C71.11 29.71 71 30 71 30.33C71 30.54 71.06 30.73 71.19 30.9C71.32 31.06 71.54 31.21 71.87 31.32L72.48 31.51L72.13 32.04C72.09 32.11 72.05 32.17 72 32.23C72.14 32.18 72.28 32.13 72.39 32.08ZM33.35 24.42C32.97 24.05 32.53 23.87 32.01 23.87C31.49 23.87 31.05 24.05 30.67 24.42C30.3 24.79 30.12 25.24 30.12 25.75C30.12 26.27 30.3 26.71 30.67 27.08C31.05 27.45 31.49 27.64 32.01 27.64C32.53 27.64 32.97 27.45 33.35 27.08C33.72 26.71 33.91 26.27 33.91 25.75C33.91 25.24 33.72 24.79 33.35 24.42Z" fill="#FFFFFF" fill-opacity="1.000000" fill-rule="evenodd"/>
	<path id="Sejadah" d="M63.59 39.5C63.59 39.71 63.63 39.88 63.71 40Q63.76 40.09 63.84 40.14Q63.93 40.2 64.07 40.2L64.7 40.2L64.7 40.44L60.74 40.44C60.16 40.42 59.71 40.31 59.38 40.1C59.08 39.88 58.9 39.45 58.85 38.82L58.85 38.87C58.78 39.35 58.43 39.75 57.8 40.08C57.17 40.4 56.44 40.56 55.62 40.56C54.77 40.56 53.97 40.37 53.21 39.98C52.45 39.59 51.83 38.96 51.34 38.09Q50.61 36.79 50.61 34.73C50.61 33.2 50.94 31.96 51.58 31C52.25 30.04 53.07 29.35 54.04 28.95C55.01 28.53 55.99 28.32 56.98 28.32C57.8 28.32 58.43 28.43 58.85 28.66L58.85 24.62C58.85 23.99 58.56 23.67 58 23.67L57.73 23.7L57.73 23.5C60.56 22.92 62.49 22.32 63.51 21.69L63.59 21.81L63.59 39.5ZM95.51 40L95.53 40.62L80.93 40.62L80.93 40.01L82.03 40.01L82.03 24.62Q82.03 24.08 81.76 23.85Q81.56 23.67 81.2 23.67L80.93 23.7L80.93 23.5C83.75 22.92 85.67 22.32 86.69 21.69L86.79 21.81L86.79 30.58C87.13 30.12 87.57 29.68 88.18 29.24C88.83 28.79 89.24 28.55 90.01 28.34C90.47 28.21 90.74 28.14 91.22 28.16C92.19 28.19 92.88 28.56 93.49 29.14C94.11 29.72 94.42 30.61 94.42 31.8L94.42 40L95.51 40ZM5.85 28.05Q6.38 28.75 7.16 29.38C7.68 29.79 8.38 30.29 9.25 30.91Q10.66 31.87 11.54 32.62C12.13 33.11 12.64 33.66 13.04 34.27Q13.41 34.83 13.55 35.43Q13.65 35.83 13.65 36.25C13.65 36.27 13.65 36.29 13.65 36.3C13.65 37.67 12.99 38.72 11.68 39.47C10.35 40.21 8.68 40.59 6.68 40.61Q4.66 40.61 3.35 40.08C2.49 39.72 1.86 39.27 1.45 38.72C1.06 38.16 0.87 37.56 0.87 36.93Q0.87 36.5 0.99 36.1Q1.07 35.85 1.19 35.63Q1.46 35.08 1.89 34.76Q1.96 34.7 2.04 34.66Q2.62 34.28 3.24 34.21L3.24 34.21Q3.37 34.2 3.49 34.2C4 34.2 4.41 34.35 4.73 34.66Q4.97 34.88 5.09 35.15Q5.22 35.44 5.22 35.79C5.22 36.34 4.95 36.84 4.42 37.27Q4.3 37.37 4.22 37.49Q4.03 37.76 4.03 38.17C4.03 38.5 4.13 38.84 4.32 39.18C4.51 39.5 4.8 39.77 5.17 39.98C5.54 40.19 5.97 40.3 6.46 40.3C7.17 40.3 7.73 40.09 8.13 39.67C8.56 39.23 8.77 38.7 8.77 38.07C8.77 37.68 8.68 37.29 8.5 36.91C8.34 36.52 8.09 36.17 7.77 35.84C7.35 35.44 6.93 35.08 6.51 34.78C6.09 34.46 5.49 34.03 4.71 33.5C3.74 32.83 2.97 32.28 2.4 31.83C1.85 31.36 1.39 30.81 1.02 30.18Q0.96 30.09 0.92 30Q0.48 29.12 0.48 28.03Q0.48 27.46 0.64 26.95Q0.85 26.24 1.36 25.63Q1.36 25.63 1.36 25.62Q2.26 24.54 3.74 23.94Q3.85 23.89 3.97 23.84L3.97 23.84Q5.35 23.31 6.94 23.31C7.3 23.31 7.57 23.32 7.75 23.33Q9.47 23.53 10.61 24.13C11.37 24.53 11.93 25.01 12.29 25.56Q12.75 26.24 12.81 26.96L12.81 26.96Q12.82 27.08 12.82 27.2Q12.82 27.78 12.59 28.25Q12.46 28.52 12.24 28.75C11.85 29.17 11.34 29.38 10.71 29.38Q10.13 29.38 9.42 29.09Q9.49 29.02 9.55 28.94Q10.08 28.22 10.08 27.11C10.08 26.54 9.96 25.99 9.74 25.46Q9.43 24.68 8.86 24.2Q8.85 24.19 8.84 24.18Q8.49 23.86 8.07 23.74Q7.83 23.67 7.58 23.67Q6.79 23.67 6.22 24.02Q5.99 24.16 5.8 24.35Q5.53 24.62 5.36 24.95Q5.12 25.44 5.12 26.04Q5.12 26.29 5.16 26.54L5.16 26.54Q5.29 27.33 5.85 28.05ZM32.01 23.87C32.53 23.87 32.97 24.05 33.35 24.42C33.72 24.79 33.91 25.24 33.91 25.75C33.91 26.27 33.72 26.71 33.35 27.08C32.97 27.45 32.53 27.64 32.01 27.64C31.49 27.64 31.05 27.45 30.67 27.08C30.3 26.71 30.12 26.27 30.12 25.75C30.12 25.24 30.3 24.79 30.67 24.42C31.05 24.05 31.49 23.87 32.01 23.87ZM49.64 40.44L45.66 40.44C45.08 40.42 44.63 40.31 44.32 40.1C44.01 39.88 43.84 39.45 43.79 38.82C43.53 39.48 43.03 39.99 42.31 40.34C41.58 40.68 40.76 40.85 39.85 40.85Q38.92 40.85 38.06 40.6L38.05 40.6Q37.82 40.53 37.59 40.44C36.88 40.17 36.31 39.77 35.89 39.25C35.54 38.8 35.37 38.26 35.37 37.64C35.37 37.55 35.37 37.45 35.38 37.34C35.46 36.52 35.75 35.84 36.23 35.31C36.73 34.76 37.31 34.34 37.96 34.05C38.62 33.76 39.46 33.46 40.48 33.13C41.26 32.89 41.85 32.69 42.26 32.53C42.68 32.35 43.03 32.13 43.3 31.87C43.59 31.6 43.74 31.27 43.74 30.88C43.74 30.03 43.61 29.42 43.35 29.07C43.09 28.7 42.61 28.53 41.92 28.56C41.41 28.58 41 28.76 40.68 29.12C40.35 29.47 40.19 29.87 40.19 30.33C40.19 30.65 40.29 30.94 40.48 31.2C40.69 31.46 41 31.65 41.41 31.78C41.16 32.15 40.73 32.46 40.09 32.72C39.48 32.98 38.86 33.11 38.22 33.11C37.59 33.11 37.06 32.96 36.62 32.65C36.2 32.34 35.99 31.87 35.99 31.25C35.99 30.63 36.28 30.1 36.86 29.65C37.45 29.18 38.19 28.83 39.1 28.58Q39.25 28.54 39.4 28.5L39.4 28.5Q40.62 28.2 41.92 28.2C43.78 28.2 45.35 28.59 46.63 29.38C47.91 30.16 48.55 31.66 48.55 33.91L48.55 39.5C48.55 39.96 48.71 40.2 49.04 40.2L49.64 40.2L49.64 40.44ZM79.96 40.44L75.98 40.44C75.4 40.42 74.95 40.31 74.64 40.1C74.33 39.88 74.16 39.45 74.11 38.82C73.85 39.48 73.35 39.99 72.63 40.34C71.9 40.68 71.08 40.85 70.17 40.85C69.38 40.85 68.63 40.71 67.91 40.44C67.2 40.17 66.63 39.77 66.21 39.25C65.86 38.8 65.69 38.26 65.69 37.64C65.69 37.55 65.69 37.45 65.7 37.34C65.78 36.52 66.07 35.84 66.55 35.31C67.05 34.76 67.63 34.34 68.28 34.05C68.94 33.76 69.78 33.46 70.8 33.13C71.58 32.89 72.17 32.69 72.58 32.53C73 32.35 73.35 32.13 73.62 31.87C73.91 31.6 74.06 31.27 74.06 30.88C74.06 30.03 73.93 29.42 73.67 29.07C73.41 28.7 72.93 28.53 72.24 28.56C71.74 28.58 71.32 28.76 71 29.12C70.67 29.47 70.51 29.87 70.51 30.33C70.51 30.65 70.61 30.94 70.8 31.2C71.01 31.46 71.32 31.65 71.73 31.78C71.48 32.15 71.05 32.46 70.41 32.72Q69.63 33.05 68.83 33.1Q68.69 33.11 68.54 33.11C67.91 33.11 67.38 32.96 66.94 32.65C66.52 32.34 66.31 31.87 66.31 31.25C66.31 30.63 66.6 30.1 67.18 29.65C67.77 29.18 68.51 28.83 69.42 28.58C70.33 28.33 71.27 28.2 72.24 28.2C74.1 28.2 75.67 28.59 76.95 29.38C78.23 30.16 78.87 31.66 78.87 33.91L78.87 39.5C78.87 39.96 79.03 40.2 79.36 40.2L79.96 40.2L79.96 40.44ZM28.04 35.26Q28.05 35.29 28.05 35.33Q28.05 36.25 27.36 37.46C26.91 38.29 26.21 39 25.25 39.62Q23.82 40.54 21.73 40.54C20.5 40.54 19.38 40.3 18.38 39.81Q17.61 39.44 17 38.89L17 38.89Q16.41 38.37 15.97 37.68C15.39 36.75 15.1 35.63 15.1 34.34C15.1 33.13 15.41 32.07 16.04 31.15C16.69 30.21 17.55 29.5 18.62 29Q19.02 28.81 19.43 28.66L19.43 28.66Q20.71 28.22 22.14 28.22Q23.16 28.22 24.18 28.58C24.86 28.81 25.46 29.2 25.98 29.75C26.5 30.29 26.82 31 26.95 31.85L20.37 35.41C20.77 36.18 21.28 36.77 21.9 37.17C22.53 37.56 23.21 37.75 23.94 37.75C24.75 37.75 25.52 37.52 26.25 37.05C26.98 36.59 27.55 35.93 27.97 35.09L28.04 35.26ZM29.02 30.16C30.85 29.79 32.46 29.18 33.83 28.34L33.91 28.46L33.91 42.26C33.91 43.29 33.65 44.05 33.15 44.53C32.67 45.01 32.07 45.26 31.35 45.28L29.02 45.28L29.02 45.04L29.65 45.04C29.82 45.04 29.94 44.97 30.02 44.84C30.1 44.72 30.14 44.55 30.14 44.34L30.14 31.27C30.14 30.64 29.86 30.33 29.29 30.33L29.02 30.35L29.02 30.16ZM58.85 29.91C58.85 29.53 58.76 29.22 58.58 29C58.4 28.77 58.18 28.66 57.93 28.66Q57.39 28.66 56.86 29.26C56.5 29.65 56.2 30.25 55.96 31.08C55.71 31.9 55.59 32.92 55.59 34.15C55.59 35.15 55.71 36.04 55.96 36.81C56.2 37.57 56.5 38.16 56.86 38.58Q57.41 39.18 57.93 39.18C58.2 39.18 58.42 39.05 58.58 38.77C58.74 38.5 58.83 38.09 58.85 37.54L58.85 29.91ZM20.03 34.68C20.11 34.89 20.17 35.02 20.2 35.07L22.53 33.71C22.48 32.7 22.3 31.63 21.97 30.52C21.65 29.41 21.21 28.85 20.66 28.85C20.59 28.85 20.51 28.87 20.42 28.9C20.14 28.98 19.92 29.29 19.76 29.84C19.6 30.37 19.52 31 19.52 31.73Q19.52 33.3 20.03 34.68ZM88.56 40L89.65 40L89.65 31.61Q89.65 30.24 89.1 29.96Q88.96 29.89 88.78 29.89C88.47 29.89 88.27 30.04 87.88 30.33C87.51 30.62 87.05 31.25 86.79 31.61L86.79 40L88.56 40ZM40.92 38.92C41.08 39.05 41.29 39.15 41.53 39.23C41.77 39.31 42.01 39.35 42.26 39.35C42.66 39.35 43.01 39.21 43.3 38.94C43.59 38.65 43.75 38.2 43.76 37.59L43.76 31.75C43.42 32.32 42.86 33.03 42.06 33.88C41.62 34.38 41.29 34.78 41.04 35.07C40.82 35.34 40.63 35.63 40.48 35.94C40.27 36.34 40.17 36.77 40.17 37.22C40.17 37.56 40.23 37.88 40.36 38.19C40.49 38.48 40.68 38.72 40.92 38.92ZM71.24 38.92C71.4 39.05 71.61 39.15 71.85 39.23C72.09 39.31 72.33 39.35 72.58 39.35C72.98 39.35 73.33 39.21 73.62 38.94C73.91 38.65 74.07 38.2 74.08 37.59L74.08 31.75C73.74 32.32 73.18 33.03 72.38 33.88C71.95 34.38 71.61 34.78 71.36 35.07C71.14 35.34 70.95 35.63 70.8 35.94C70.59 36.34 70.49 36.77 70.49 37.22C70.49 37.56 70.55 37.88 70.68 38.19C70.81 38.48 71 38.72 71.24 38.92Z" fill="#444444" fill-opacity="1.000000" fill-rule="evenodd"/>
	<path id="G" d="M60.29 47.11C59.69 46.51 59.39 45.8 59.39 44.97C59.39 44.14 59.69 43.43 60.29 42.84C60.88 42.25 61.6 41.95 62.43 41.95C63.11 41.95 63.72 42.16 64.28 42.58L63.79 43.06C63.37 42.74 62.92 42.58 62.43 42.58C61.8 42.58 61.26 42.81 60.81 43.28C60.36 43.75 60.14 44.31 60.14 44.97C60.14 45.63 60.36 46.19 60.81 46.66C61.26 47.13 61.8 47.37 62.43 47.37C62.97 47.37 63.45 47.19 63.86 46.84L63.86 45.39L63.86 45.28L64.61 45.28L64.61 47.08C64.44 47.25 64.27 47.38 64.11 47.49C63.6 47.83 63.04 48 62.43 48C61.6 48 60.88 47.7 60.29 47.11Z" fill="#000000" fill-opacity="1.000000" fill-rule="nonzero"/>
	<path id="r" d="M65.71 48.01L65.71 42.94L66.32 42.94L66.45 43.3C66.88 42.97 67.12 42.89 67.61 42.86C68.22 42.81 68.74 43.18 69.05 43.34L68.75 43.89C68.46 43.78 68.08 43.51 67.61 43.52C67.16 43.53 66.84 43.69 66.56 43.95L66.56 48.01L65.71 48.01Z" fill="#000000" fill-opacity="1.000000" fill-rule="nonzero"/>
	<path id="r" d="M87.58 47.96L87.58 42.88L88.19 42.88L88.31 43.24C88.75 42.91 88.99 42.84 89.47 42.8C90.08 42.75 90.6 43.12 90.92 43.28L90.61 43.83C90.32 43.73 89.95 43.45 89.47 43.47C89.03 43.48 88.7 43.64 88.42 43.89L88.42 47.96L87.58 47.96Z" fill="#000000" fill-opacity="1.000000" fill-rule="nonzero"/>
	<path id="o" d="M70.45 47.28C69.96 46.77 69.72 46.15 69.72 45.42C69.72 44.68 69.96 44.06 70.45 43.55C70.94 43.05 71.57 42.8 72.33 42.8C73.1 42.8 73.73 43.05 74.22 43.56C74.72 44.07 74.97 44.69 74.97 45.42C74.97 46.15 74.72 46.77 74.22 47.28C73.73 47.78 73.1 48.04 72.33 48.04C71.57 48.04 70.94 47.79 70.45 47.28ZM71.01 44.09C70.68 44.45 70.52 44.89 70.52 45.42C70.52 45.94 70.68 46.39 71.01 46.75C71.34 47.11 71.79 47.28 72.33 47.28C72.88 47.28 73.32 47.11 73.65 46.75C73.98 46.39 74.15 45.94 74.15 45.42C74.15 44.89 73.98 44.45 73.65 44.09C73.32 43.73 72.88 43.55 72.33 43.55C71.79 43.55 71.34 43.73 71.01 44.09Z" fill="#000000" fill-opacity="1.000000" fill-rule="nonzero"/>
	<path id="c" d="M76.61 47.27C76.11 46.76 75.85 46.14 75.85 45.42C75.85 44.69 76.11 44.08 76.61 43.56C77.12 43.05 77.68 42.82 78.46 42.8C79.24 42.77 80.23 43.46 80.23 43.46L79.86 44.01C79.86 44.01 79.03 43.52 78.46 43.55C77.92 43.58 77.53 43.73 77.19 44.1C76.84 44.46 76.67 44.9 76.67 45.42C76.67 45.93 76.84 46.37 77.19 46.74C77.53 47.1 77.92 47.29 78.46 47.29C79.08 47.28 79.86 46.55 79.86 46.55L80.35 47.15C80.35 47.15 79.27 48.03 78.46 48.04C77.68 48.05 77.12 47.78 76.61 47.27Z" fill="#000000" fill-opacity="1.000000" fill-rule="nonzero"/>
	<path id="e" d="M81.14 45.38C81.14 44.59 81.4 43.97 81.91 43.5C82.43 43.03 82.96 42.8 83.81 42.8C85.5 42.8 86.48 43.76 86.48 45.69L82.14 45.69C82.18 46.09 82.36 46.46 82.69 46.78C83.02 47.09 83.36 47.09 83.81 47.09C84.54 47.09 85.15 46.49 85.15 46.49L85.63 47.03C85.63 47.03 84.61 47.83 83.81 47.88C83.44 47.9 83.27 47.93 82.86 47.79C82.44 47.65 82.11 47.45 81.86 47.21C81.62 46.96 81.44 46.69 81.31 46.38C81.2 46.07 81.14 45.74 81.14 45.38ZM82.18 45.04L85.44 45.04C85.39 44.6 85.24 44.25 84.99 43.96C84.75 43.68 84.27 43.58 83.81 43.58C83.35 43.58 83.08 43.68 82.76 43.96C82.43 44.23 82.24 44.59 82.18 45.04Z" fill="#000000" fill-opacity="1.000000" fill-rule="nonzero"/>
	<path id="y" d="M91.46 42.8L92.38 42.8L93.7 46.1L95.05 42.8L95.96 42.8L93.18 49.57L92.27 49.57L93.3 47.09L91.46 42.8Z" fill="#000000" fill-opacity="1.000000" fill-rule="nonzero"/>
</svg>
